%TF.GenerationSoftware,KiCad,Pcbnew,(5.1.7)-1*%
%TF.CreationDate,2020-10-04T21:15:59-05:00*%
%TF.ProjectId,STM32F4_Breakout,53544d33-3246-4345-9f42-7265616b6f75,rev?*%
%TF.SameCoordinates,Original*%
%TF.FileFunction,Legend,Top*%
%TF.FilePolarity,Positive*%
%FSLAX46Y46*%
G04 Gerber Fmt 4.6, Leading zero omitted, Abs format (unit mm)*
G04 Created by KiCad (PCBNEW (5.1.7)-1) date 2020-10-04 21:15:59*
%MOMM*%
%LPD*%
G01*
G04 APERTURE LIST*
%ADD10C,0.120000*%
%ADD11C,0.150000*%
%TA.AperFunction,Profile*%
%ADD12C,0.050000*%
%TD*%
%ADD13C,0.010000*%
G04 APERTURE END LIST*
D10*
X33400000Y-41050000D02*
G75*
G03*
X33400000Y-41050000I-50000J0D01*
G01*
X61000000Y-33900000D02*
G75*
G03*
X61000000Y-33900000I-50000J0D01*
G01*
X22950000Y-45200000D02*
G75*
G03*
X22950000Y-45200000I-50000J0D01*
G01*
X38200000Y-41250000D02*
G75*
G03*
X38200000Y-41250000I-50000J0D01*
G01*
D11*
X24619047Y-34821428D02*
X25380952Y-34821428D01*
X25000000Y-35202380D02*
X25000000Y-34440476D01*
X52319047Y-49471428D02*
X53080952Y-49471428D01*
X52700000Y-49852380D02*
X52700000Y-49090476D01*
X29519047Y-57171428D02*
X30280952Y-57171428D01*
X29900000Y-57552380D02*
X29900000Y-56790476D01*
X52723809Y-47654761D02*
X52866666Y-47702380D01*
X53104761Y-47702380D01*
X53200000Y-47654761D01*
X53247619Y-47607142D01*
X53295238Y-47511904D01*
X53295238Y-47416666D01*
X53247619Y-47321428D01*
X53200000Y-47273809D01*
X53104761Y-47226190D01*
X52914285Y-47178571D01*
X52819047Y-47130952D01*
X52771428Y-47083333D01*
X52723809Y-46988095D01*
X52723809Y-46892857D01*
X52771428Y-46797619D01*
X52819047Y-46750000D01*
X52914285Y-46702380D01*
X53152380Y-46702380D01*
X53295238Y-46750000D01*
X53580952Y-46702380D02*
X54152380Y-46702380D01*
X53866666Y-47702380D02*
X53866666Y-46702380D01*
X54438095Y-47416666D02*
X54914285Y-47416666D01*
X54342857Y-47702380D02*
X54676190Y-46702380D01*
X55009523Y-47702380D01*
X55200000Y-46702380D02*
X55771428Y-46702380D01*
X55485714Y-47702380D02*
X55485714Y-46702380D01*
X25261904Y-32002380D02*
X25880952Y-32002380D01*
X25547619Y-32383333D01*
X25690476Y-32383333D01*
X25785714Y-32430952D01*
X25833333Y-32478571D01*
X25880952Y-32573809D01*
X25880952Y-32811904D01*
X25833333Y-32907142D01*
X25785714Y-32954761D01*
X25690476Y-33002380D01*
X25404761Y-33002380D01*
X25309523Y-32954761D01*
X25261904Y-32907142D01*
X26166666Y-32002380D02*
X26500000Y-33002380D01*
X26833333Y-32002380D01*
X27071428Y-32002380D02*
X27690476Y-32002380D01*
X27357142Y-32383333D01*
X27500000Y-32383333D01*
X27595238Y-32430952D01*
X27642857Y-32478571D01*
X27690476Y-32573809D01*
X27690476Y-32811904D01*
X27642857Y-32907142D01*
X27595238Y-32954761D01*
X27500000Y-33002380D01*
X27214285Y-33002380D01*
X27119047Y-32954761D01*
X27071428Y-32907142D01*
X33190476Y-25752380D02*
X33190476Y-24752380D01*
X33571428Y-24752380D01*
X33666666Y-24800000D01*
X33714285Y-24847619D01*
X33761904Y-24942857D01*
X33761904Y-25085714D01*
X33714285Y-25180952D01*
X33666666Y-25228571D01*
X33571428Y-25276190D01*
X33190476Y-25276190D01*
X34380952Y-24752380D02*
X34571428Y-24752380D01*
X34666666Y-24800000D01*
X34761904Y-24895238D01*
X34809523Y-25085714D01*
X34809523Y-25419047D01*
X34761904Y-25609523D01*
X34666666Y-25704761D01*
X34571428Y-25752380D01*
X34380952Y-25752380D01*
X34285714Y-25704761D01*
X34190476Y-25609523D01*
X34142857Y-25419047D01*
X34142857Y-25085714D01*
X34190476Y-24895238D01*
X34285714Y-24800000D01*
X34380952Y-24752380D01*
X35142857Y-24752380D02*
X35380952Y-25752380D01*
X35571428Y-25038095D01*
X35761904Y-25752380D01*
X36000000Y-24752380D01*
X36380952Y-25228571D02*
X36714285Y-25228571D01*
X36857142Y-25752380D02*
X36380952Y-25752380D01*
X36380952Y-24752380D01*
X36857142Y-24752380D01*
X37857142Y-25752380D02*
X37523809Y-25276190D01*
X37285714Y-25752380D02*
X37285714Y-24752380D01*
X37666666Y-24752380D01*
X37761904Y-24800000D01*
X37809523Y-24847619D01*
X37857142Y-24942857D01*
X37857142Y-25085714D01*
X37809523Y-25180952D01*
X37761904Y-25228571D01*
X37666666Y-25276190D01*
X37285714Y-25276190D01*
X24704761Y-54752380D02*
X25038095Y-55752380D01*
X25371428Y-54752380D01*
X25704761Y-55752380D02*
X25704761Y-54752380D01*
X26180952Y-55752380D02*
X26180952Y-54752380D01*
X26752380Y-55752380D01*
X26752380Y-54752380D01*
X42376190Y-65204761D02*
X42519047Y-65252380D01*
X42757142Y-65252380D01*
X42852380Y-65204761D01*
X42900000Y-65157142D01*
X42947619Y-65061904D01*
X42947619Y-64966666D01*
X42900000Y-64871428D01*
X42852380Y-64823809D01*
X42757142Y-64776190D01*
X42566666Y-64728571D01*
X42471428Y-64680952D01*
X42423809Y-64633333D01*
X42376190Y-64538095D01*
X42376190Y-64442857D01*
X42423809Y-64347619D01*
X42471428Y-64300000D01*
X42566666Y-64252380D01*
X42804761Y-64252380D01*
X42947619Y-64300000D01*
X43376190Y-65252380D02*
X43376190Y-64252380D01*
X43757142Y-64252380D01*
X43852380Y-64300000D01*
X43900000Y-64347619D01*
X43947619Y-64442857D01*
X43947619Y-64585714D01*
X43900000Y-64680952D01*
X43852380Y-64728571D01*
X43757142Y-64776190D01*
X43376190Y-64776190D01*
X44376190Y-65252380D02*
X44376190Y-64252380D01*
X61904761Y-46052380D02*
X61904761Y-46861904D01*
X61952380Y-46957142D01*
X62000000Y-47004761D01*
X62095238Y-47052380D01*
X62285714Y-47052380D01*
X62380952Y-47004761D01*
X62428571Y-46957142D01*
X62476190Y-46861904D01*
X62476190Y-46052380D01*
X62904761Y-46766666D02*
X63380952Y-46766666D01*
X62809523Y-47052380D02*
X63142857Y-46052380D01*
X63476190Y-47052380D01*
X64380952Y-47052380D02*
X64047619Y-46576190D01*
X63809523Y-47052380D02*
X63809523Y-46052380D01*
X64190476Y-46052380D01*
X64285714Y-46100000D01*
X64333333Y-46147619D01*
X64380952Y-46242857D01*
X64380952Y-46385714D01*
X64333333Y-46480952D01*
X64285714Y-46528571D01*
X64190476Y-46576190D01*
X63809523Y-46576190D01*
X64666666Y-46052380D02*
X65238095Y-46052380D01*
X64952380Y-47052380D02*
X64952380Y-46052380D01*
X63042857Y-32904761D02*
X63185714Y-32952380D01*
X63423809Y-32952380D01*
X63519047Y-32904761D01*
X63566666Y-32857142D01*
X63614285Y-32761904D01*
X63614285Y-32666666D01*
X63566666Y-32571428D01*
X63519047Y-32523809D01*
X63423809Y-32476190D01*
X63233333Y-32428571D01*
X63138095Y-32380952D01*
X63090476Y-32333333D01*
X63042857Y-32238095D01*
X63042857Y-32142857D01*
X63090476Y-32047619D01*
X63138095Y-32000000D01*
X63233333Y-31952380D01*
X63471428Y-31952380D01*
X63614285Y-32000000D01*
X63947619Y-31952380D02*
X64185714Y-32952380D01*
X64376190Y-32238095D01*
X64566666Y-32952380D01*
X64804761Y-31952380D01*
X65185714Y-32952380D02*
X65185714Y-31952380D01*
X65423809Y-31952380D01*
X65566666Y-32000000D01*
X65661904Y-32095238D01*
X65709523Y-32190476D01*
X65757142Y-32380952D01*
X65757142Y-32523809D01*
X65709523Y-32714285D01*
X65661904Y-32809523D01*
X65566666Y-32904761D01*
X65423809Y-32952380D01*
X65185714Y-32952380D01*
X44023809Y-25702380D02*
X44023809Y-24702380D01*
X44452380Y-24797619D02*
X44500000Y-24750000D01*
X44595238Y-24702380D01*
X44833333Y-24702380D01*
X44928571Y-24750000D01*
X44976190Y-24797619D01*
X45023809Y-24892857D01*
X45023809Y-24988095D01*
X44976190Y-25130952D01*
X44404761Y-25702380D01*
X45023809Y-25702380D01*
X46023809Y-25607142D02*
X45976190Y-25654761D01*
X45833333Y-25702380D01*
X45738095Y-25702380D01*
X45595238Y-25654761D01*
X45500000Y-25559523D01*
X45452380Y-25464285D01*
X45404761Y-25273809D01*
X45404761Y-25130952D01*
X45452380Y-24940476D01*
X45500000Y-24845238D01*
X45595238Y-24750000D01*
X45738095Y-24702380D01*
X45833333Y-24702380D01*
X45976190Y-24750000D01*
X46023809Y-24797619D01*
D12*
X70000000Y-65000000D02*
G75*
G02*
X65000000Y-70000000I-5000000J0D01*
G01*
X25000000Y-70000000D02*
G75*
G02*
X20000000Y-65000000I0J5000000D01*
G01*
X20000000Y-25000000D02*
G75*
G02*
X25000000Y-20000000I5000000J0D01*
G01*
X65000000Y-20000000D02*
G75*
G02*
X70000000Y-25000000I0J-5000000D01*
G01*
X20000000Y-65000000D02*
X20000000Y-25000000D01*
X65000000Y-70000000D02*
X25000000Y-70000000D01*
X70000000Y-25000000D02*
X70000000Y-65000000D01*
X25000000Y-20000000D02*
X65000000Y-20000000D01*
D13*
%TO.C,G\u002A\u002A\u002A*%
G36*
X59404357Y-57339920D02*
G01*
X59544959Y-57351679D01*
X59657112Y-57375027D01*
X59747467Y-57412348D01*
X59822673Y-57466026D01*
X59859821Y-57503198D01*
X59910178Y-57563314D01*
X59946596Y-57620274D01*
X59971024Y-57681516D01*
X59985412Y-57754481D01*
X59991712Y-57846608D01*
X59991873Y-57965335D01*
X59991093Y-58003941D01*
X59988299Y-58108659D01*
X59984771Y-58184485D01*
X59979328Y-58238808D01*
X59970789Y-58279021D01*
X59957972Y-58312512D01*
X59939698Y-58346674D01*
X59935054Y-58354629D01*
X59855381Y-58458483D01*
X59755445Y-58537625D01*
X59669749Y-58577708D01*
X59620594Y-58587758D01*
X59544187Y-58595638D01*
X59449507Y-58601200D01*
X59345531Y-58604296D01*
X59241237Y-58604779D01*
X59145603Y-58602502D01*
X59067606Y-58597317D01*
X59016225Y-58589077D01*
X59014168Y-58588477D01*
X58901777Y-58538038D01*
X58804104Y-58457716D01*
X58791085Y-58443722D01*
X58743247Y-58387109D01*
X58708764Y-58334416D01*
X58685485Y-58277954D01*
X58671259Y-58210035D01*
X58663936Y-58122970D01*
X58661364Y-58009069D01*
X58661221Y-57979500D01*
X58661233Y-57978607D01*
X58905429Y-57978607D01*
X58907634Y-58084608D01*
X58915765Y-58162518D01*
X58932094Y-58220351D01*
X58958894Y-58266118D01*
X58998438Y-58307829D01*
X58998955Y-58308298D01*
X59025458Y-58330821D01*
X59051481Y-58346683D01*
X59083821Y-58357098D01*
X59129275Y-58363282D01*
X59194640Y-58366450D01*
X59286713Y-58367817D01*
X59333638Y-58368139D01*
X59432316Y-58368252D01*
X59502184Y-58366531D01*
X59550708Y-58361977D01*
X59585353Y-58353590D01*
X59613587Y-58340372D01*
X59632996Y-58328073D01*
X59678739Y-58292215D01*
X59710933Y-58251729D01*
X59731806Y-58199695D01*
X59743584Y-58129189D01*
X59748493Y-58033290D01*
X59749071Y-57967197D01*
X59747448Y-57862510D01*
X59740680Y-57786081D01*
X59725927Y-57729957D01*
X59700344Y-57686184D01*
X59661090Y-57646807D01*
X59624172Y-57617764D01*
X59599889Y-57602288D01*
X59571166Y-57591739D01*
X59530903Y-57585199D01*
X59472000Y-57581748D01*
X59387358Y-57580469D01*
X59335008Y-57580357D01*
X59235367Y-57580895D01*
X59164419Y-57583188D01*
X59114575Y-57588260D01*
X59078251Y-57597132D01*
X59047858Y-57610826D01*
X59029824Y-57621465D01*
X58979367Y-57659905D01*
X58944039Y-57706566D01*
X58921505Y-57768158D01*
X58909427Y-57851391D01*
X58905469Y-57962973D01*
X58905429Y-57978607D01*
X58661233Y-57978607D01*
X58663059Y-57851416D01*
X58670849Y-57752075D01*
X58686775Y-57674130D01*
X58713016Y-57610236D01*
X58751756Y-57553045D01*
X58805004Y-57495382D01*
X58883912Y-57430957D01*
X58974419Y-57384467D01*
X59081912Y-57354513D01*
X59211782Y-57339699D01*
X59369417Y-57338626D01*
X59404357Y-57339920D01*
G37*
X59404357Y-57339920D02*
X59544959Y-57351679D01*
X59657112Y-57375027D01*
X59747467Y-57412348D01*
X59822673Y-57466026D01*
X59859821Y-57503198D01*
X59910178Y-57563314D01*
X59946596Y-57620274D01*
X59971024Y-57681516D01*
X59985412Y-57754481D01*
X59991712Y-57846608D01*
X59991873Y-57965335D01*
X59991093Y-58003941D01*
X59988299Y-58108659D01*
X59984771Y-58184485D01*
X59979328Y-58238808D01*
X59970789Y-58279021D01*
X59957972Y-58312512D01*
X59939698Y-58346674D01*
X59935054Y-58354629D01*
X59855381Y-58458483D01*
X59755445Y-58537625D01*
X59669749Y-58577708D01*
X59620594Y-58587758D01*
X59544187Y-58595638D01*
X59449507Y-58601200D01*
X59345531Y-58604296D01*
X59241237Y-58604779D01*
X59145603Y-58602502D01*
X59067606Y-58597317D01*
X59016225Y-58589077D01*
X59014168Y-58588477D01*
X58901777Y-58538038D01*
X58804104Y-58457716D01*
X58791085Y-58443722D01*
X58743247Y-58387109D01*
X58708764Y-58334416D01*
X58685485Y-58277954D01*
X58671259Y-58210035D01*
X58663936Y-58122970D01*
X58661364Y-58009069D01*
X58661221Y-57979500D01*
X58661233Y-57978607D01*
X58905429Y-57978607D01*
X58907634Y-58084608D01*
X58915765Y-58162518D01*
X58932094Y-58220351D01*
X58958894Y-58266118D01*
X58998438Y-58307829D01*
X58998955Y-58308298D01*
X59025458Y-58330821D01*
X59051481Y-58346683D01*
X59083821Y-58357098D01*
X59129275Y-58363282D01*
X59194640Y-58366450D01*
X59286713Y-58367817D01*
X59333638Y-58368139D01*
X59432316Y-58368252D01*
X59502184Y-58366531D01*
X59550708Y-58361977D01*
X59585353Y-58353590D01*
X59613587Y-58340372D01*
X59632996Y-58328073D01*
X59678739Y-58292215D01*
X59710933Y-58251729D01*
X59731806Y-58199695D01*
X59743584Y-58129189D01*
X59748493Y-58033290D01*
X59749071Y-57967197D01*
X59747448Y-57862510D01*
X59740680Y-57786081D01*
X59725927Y-57729957D01*
X59700344Y-57686184D01*
X59661090Y-57646807D01*
X59624172Y-57617764D01*
X59599889Y-57602288D01*
X59571166Y-57591739D01*
X59530903Y-57585199D01*
X59472000Y-57581748D01*
X59387358Y-57580469D01*
X59335008Y-57580357D01*
X59235367Y-57580895D01*
X59164419Y-57583188D01*
X59114575Y-57588260D01*
X59078251Y-57597132D01*
X59047858Y-57610826D01*
X59029824Y-57621465D01*
X58979367Y-57659905D01*
X58944039Y-57706566D01*
X58921505Y-57768158D01*
X58909427Y-57851391D01*
X58905469Y-57962973D01*
X58905429Y-57978607D01*
X58661233Y-57978607D01*
X58663059Y-57851416D01*
X58670849Y-57752075D01*
X58686775Y-57674130D01*
X58713016Y-57610236D01*
X58751756Y-57553045D01*
X58805004Y-57495382D01*
X58883912Y-57430957D01*
X58974419Y-57384467D01*
X59081912Y-57354513D01*
X59211782Y-57339699D01*
X59369417Y-57338626D01*
X59404357Y-57339920D01*
G36*
X52311373Y-57363077D02*
G01*
X52431741Y-57365001D01*
X52524843Y-57369347D01*
X52595185Y-57377047D01*
X52647275Y-57389032D01*
X52685620Y-57406235D01*
X52714727Y-57429589D01*
X52739104Y-57460024D01*
X52755735Y-57485988D01*
X52780405Y-57552447D01*
X52791031Y-57639007D01*
X52787558Y-57732291D01*
X52769932Y-57818919D01*
X52757216Y-57852500D01*
X52724099Y-57925071D01*
X52792601Y-58000279D01*
X52854767Y-58090084D01*
X52890989Y-58189589D01*
X52901495Y-58291659D01*
X52886517Y-58389164D01*
X52846284Y-58474971D01*
X52781026Y-58541948D01*
X52774996Y-58546103D01*
X52755806Y-58558222D01*
X52735823Y-58567695D01*
X52710571Y-58574849D01*
X52675578Y-58580008D01*
X52626369Y-58583499D01*
X52558471Y-58585647D01*
X52467410Y-58586777D01*
X52348712Y-58587214D01*
X52209060Y-58587286D01*
X52060790Y-58587222D01*
X51944608Y-58586818D01*
X51856314Y-58585757D01*
X51791710Y-58583720D01*
X51746598Y-58580390D01*
X51716780Y-58575448D01*
X51698056Y-58568577D01*
X51686228Y-58559459D01*
X51677099Y-58547776D01*
X51676529Y-58546963D01*
X51668201Y-58530483D01*
X51661642Y-58504862D01*
X51656654Y-58466083D01*
X51653037Y-58410129D01*
X51651177Y-58351429D01*
X51902286Y-58351429D01*
X52646143Y-58351429D01*
X52646143Y-58277462D01*
X52638095Y-58215798D01*
X52608199Y-58166500D01*
X52593110Y-58150462D01*
X52540077Y-58097429D01*
X51956714Y-58097429D01*
X51956714Y-57861571D01*
X52184401Y-57861571D01*
X52301951Y-57859677D01*
X52388822Y-57852783D01*
X52450478Y-57839071D01*
X52492386Y-57816724D01*
X52520012Y-57783922D01*
X52537078Y-57744273D01*
X52549797Y-57689817D01*
X52552558Y-57642713D01*
X52552196Y-57639636D01*
X52549117Y-57624920D01*
X52541306Y-57614122D01*
X52523701Y-57606532D01*
X52491240Y-57601436D01*
X52438859Y-57598125D01*
X52361496Y-57595885D01*
X52254088Y-57594006D01*
X52224322Y-57593546D01*
X51902286Y-57588591D01*
X51902286Y-58351429D01*
X51651177Y-58351429D01*
X51650592Y-58332985D01*
X51649120Y-58230633D01*
X51648422Y-58099057D01*
X51648286Y-57977473D01*
X51648420Y-57824247D01*
X51648992Y-57703109D01*
X51650256Y-57609862D01*
X51652466Y-57540310D01*
X51655879Y-57490257D01*
X51660747Y-57455504D01*
X51667326Y-57431855D01*
X51675870Y-57415114D01*
X51682980Y-57405474D01*
X51717675Y-57362643D01*
X52159230Y-57362643D01*
X52311373Y-57363077D01*
G37*
X52311373Y-57363077D02*
X52431741Y-57365001D01*
X52524843Y-57369347D01*
X52595185Y-57377047D01*
X52647275Y-57389032D01*
X52685620Y-57406235D01*
X52714727Y-57429589D01*
X52739104Y-57460024D01*
X52755735Y-57485988D01*
X52780405Y-57552447D01*
X52791031Y-57639007D01*
X52787558Y-57732291D01*
X52769932Y-57818919D01*
X52757216Y-57852500D01*
X52724099Y-57925071D01*
X52792601Y-58000279D01*
X52854767Y-58090084D01*
X52890989Y-58189589D01*
X52901495Y-58291659D01*
X52886517Y-58389164D01*
X52846284Y-58474971D01*
X52781026Y-58541948D01*
X52774996Y-58546103D01*
X52755806Y-58558222D01*
X52735823Y-58567695D01*
X52710571Y-58574849D01*
X52675578Y-58580008D01*
X52626369Y-58583499D01*
X52558471Y-58585647D01*
X52467410Y-58586777D01*
X52348712Y-58587214D01*
X52209060Y-58587286D01*
X52060790Y-58587222D01*
X51944608Y-58586818D01*
X51856314Y-58585757D01*
X51791710Y-58583720D01*
X51746598Y-58580390D01*
X51716780Y-58575448D01*
X51698056Y-58568577D01*
X51686228Y-58559459D01*
X51677099Y-58547776D01*
X51676529Y-58546963D01*
X51668201Y-58530483D01*
X51661642Y-58504862D01*
X51656654Y-58466083D01*
X51653037Y-58410129D01*
X51651177Y-58351429D01*
X51902286Y-58351429D01*
X52646143Y-58351429D01*
X52646143Y-58277462D01*
X52638095Y-58215798D01*
X52608199Y-58166500D01*
X52593110Y-58150462D01*
X52540077Y-58097429D01*
X51956714Y-58097429D01*
X51956714Y-57861571D01*
X52184401Y-57861571D01*
X52301951Y-57859677D01*
X52388822Y-57852783D01*
X52450478Y-57839071D01*
X52492386Y-57816724D01*
X52520012Y-57783922D01*
X52537078Y-57744273D01*
X52549797Y-57689817D01*
X52552558Y-57642713D01*
X52552196Y-57639636D01*
X52549117Y-57624920D01*
X52541306Y-57614122D01*
X52523701Y-57606532D01*
X52491240Y-57601436D01*
X52438859Y-57598125D01*
X52361496Y-57595885D01*
X52254088Y-57594006D01*
X52224322Y-57593546D01*
X51902286Y-57588591D01*
X51902286Y-58351429D01*
X51651177Y-58351429D01*
X51650592Y-58332985D01*
X51649120Y-58230633D01*
X51648422Y-58099057D01*
X51648286Y-57977473D01*
X51648420Y-57824247D01*
X51648992Y-57703109D01*
X51650256Y-57609862D01*
X51652466Y-57540310D01*
X51655879Y-57490257D01*
X51660747Y-57455504D01*
X51667326Y-57431855D01*
X51675870Y-57415114D01*
X51682980Y-57405474D01*
X51717675Y-57362643D01*
X52159230Y-57362643D01*
X52311373Y-57363077D01*
G36*
X53780072Y-57362763D02*
G01*
X53896253Y-57363325D01*
X53984971Y-57364628D01*
X54050640Y-57366973D01*
X54097670Y-57370661D01*
X54130473Y-57375992D01*
X54153461Y-57383266D01*
X54171045Y-57392784D01*
X54181312Y-57400050D01*
X54239295Y-57449614D01*
X54277124Y-57501089D01*
X54299312Y-57564504D01*
X54310372Y-57649885D01*
X54312670Y-57691957D01*
X54306773Y-57838109D01*
X54275458Y-57958598D01*
X54218274Y-58054093D01*
X54134766Y-58125263D01*
X54024482Y-58172779D01*
X53980012Y-58183832D01*
X53916317Y-58197214D01*
X54373025Y-58587286D01*
X53996535Y-58587286D01*
X53766807Y-58387714D01*
X53681862Y-58314310D01*
X53618807Y-58261521D01*
X53572319Y-58225959D01*
X53537080Y-58204232D01*
X53507767Y-58192950D01*
X53479062Y-58188723D01*
X53453603Y-58188143D01*
X53370126Y-58188143D01*
X53375527Y-58074750D01*
X53380929Y-57961357D01*
X53673574Y-57956383D01*
X53783116Y-57954289D01*
X53862494Y-57951719D01*
X53917830Y-57947780D01*
X53955244Y-57941577D01*
X53980856Y-57932219D01*
X54000787Y-57918811D01*
X54014550Y-57906617D01*
X54039648Y-57880437D01*
X54053582Y-57853229D01*
X54058965Y-57814271D01*
X54058411Y-57752842D01*
X54057547Y-57730163D01*
X54052214Y-57598500D01*
X53684822Y-57593589D01*
X53317429Y-57588677D01*
X53317429Y-58587286D01*
X53063429Y-58587286D01*
X53063429Y-58017796D01*
X53063546Y-57858336D01*
X53064052Y-57731138D01*
X53065172Y-57632180D01*
X53067136Y-57557436D01*
X53070172Y-57502886D01*
X53074506Y-57464504D01*
X53080368Y-57438268D01*
X53087985Y-57420154D01*
X53097585Y-57406140D01*
X53098121Y-57405474D01*
X53132814Y-57362643D01*
X53632018Y-57362643D01*
X53780072Y-57362763D01*
G37*
X53780072Y-57362763D02*
X53896253Y-57363325D01*
X53984971Y-57364628D01*
X54050640Y-57366973D01*
X54097670Y-57370661D01*
X54130473Y-57375992D01*
X54153461Y-57383266D01*
X54171045Y-57392784D01*
X54181312Y-57400050D01*
X54239295Y-57449614D01*
X54277124Y-57501089D01*
X54299312Y-57564504D01*
X54310372Y-57649885D01*
X54312670Y-57691957D01*
X54306773Y-57838109D01*
X54275458Y-57958598D01*
X54218274Y-58054093D01*
X54134766Y-58125263D01*
X54024482Y-58172779D01*
X53980012Y-58183832D01*
X53916317Y-58197214D01*
X54373025Y-58587286D01*
X53996535Y-58587286D01*
X53766807Y-58387714D01*
X53681862Y-58314310D01*
X53618807Y-58261521D01*
X53572319Y-58225959D01*
X53537080Y-58204232D01*
X53507767Y-58192950D01*
X53479062Y-58188723D01*
X53453603Y-58188143D01*
X53370126Y-58188143D01*
X53375527Y-58074750D01*
X53380929Y-57961357D01*
X53673574Y-57956383D01*
X53783116Y-57954289D01*
X53862494Y-57951719D01*
X53917830Y-57947780D01*
X53955244Y-57941577D01*
X53980856Y-57932219D01*
X54000787Y-57918811D01*
X54014550Y-57906617D01*
X54039648Y-57880437D01*
X54053582Y-57853229D01*
X54058965Y-57814271D01*
X54058411Y-57752842D01*
X54057547Y-57730163D01*
X54052214Y-57598500D01*
X53684822Y-57593589D01*
X53317429Y-57588677D01*
X53317429Y-58587286D01*
X53063429Y-58587286D01*
X53063429Y-58017796D01*
X53063546Y-57858336D01*
X53064052Y-57731138D01*
X53065172Y-57632180D01*
X53067136Y-57557436D01*
X53070172Y-57502886D01*
X53074506Y-57464504D01*
X53080368Y-57438268D01*
X53087985Y-57420154D01*
X53097585Y-57406140D01*
X53098121Y-57405474D01*
X53132814Y-57362643D01*
X53632018Y-57362643D01*
X53780072Y-57362763D01*
G36*
X55636044Y-57476036D02*
G01*
X55641446Y-57589429D01*
X54749978Y-57589429D01*
X54759786Y-58342357D01*
X55195214Y-58351429D01*
X55630643Y-58360500D01*
X55636044Y-58473893D01*
X55641446Y-58587286D01*
X55182473Y-58585853D01*
X55055888Y-58585070D01*
X54940513Y-58583619D01*
X54841566Y-58581623D01*
X54764264Y-58579210D01*
X54713828Y-58576503D01*
X54696286Y-58574195D01*
X54619004Y-58528262D01*
X54555107Y-58458678D01*
X54531284Y-58416724D01*
X54520606Y-58389805D01*
X54512406Y-58358709D01*
X54506362Y-58318477D01*
X54502146Y-58264151D01*
X54499436Y-58190774D01*
X54497905Y-58093387D01*
X54497229Y-57967032D01*
X54497113Y-57895331D01*
X54497169Y-57755532D01*
X54497833Y-57647385D01*
X54499429Y-57566259D01*
X54502282Y-57507521D01*
X54506715Y-57466541D01*
X54513052Y-57438685D01*
X54521618Y-57419321D01*
X54531382Y-57405474D01*
X54566049Y-57362643D01*
X55630643Y-57362643D01*
X55636044Y-57476036D01*
G37*
X55636044Y-57476036D02*
X55641446Y-57589429D01*
X54749978Y-57589429D01*
X54759786Y-58342357D01*
X55195214Y-58351429D01*
X55630643Y-58360500D01*
X55636044Y-58473893D01*
X55641446Y-58587286D01*
X55182473Y-58585853D01*
X55055888Y-58585070D01*
X54940513Y-58583619D01*
X54841566Y-58581623D01*
X54764264Y-58579210D01*
X54713828Y-58576503D01*
X54696286Y-58574195D01*
X54619004Y-58528262D01*
X54555107Y-58458678D01*
X54531284Y-58416724D01*
X54520606Y-58389805D01*
X54512406Y-58358709D01*
X54506362Y-58318477D01*
X54502146Y-58264151D01*
X54499436Y-58190774D01*
X54497905Y-58093387D01*
X54497229Y-57967032D01*
X54497113Y-57895331D01*
X54497169Y-57755532D01*
X54497833Y-57647385D01*
X54499429Y-57566259D01*
X54502282Y-57507521D01*
X54506715Y-57466541D01*
X54513052Y-57438685D01*
X54521618Y-57419321D01*
X54531382Y-57405474D01*
X54566049Y-57362643D01*
X55630643Y-57362643D01*
X55636044Y-57476036D01*
G36*
X56845520Y-57363836D02*
G01*
X56909667Y-57365652D01*
X56953259Y-57369312D01*
X56981539Y-57375389D01*
X56999749Y-57384453D01*
X57013134Y-57397075D01*
X57020121Y-57405474D01*
X57029838Y-57419377D01*
X57037558Y-57437156D01*
X57043509Y-57462834D01*
X57047920Y-57500434D01*
X57051019Y-57553980D01*
X57053033Y-57627496D01*
X57054193Y-57725006D01*
X57054724Y-57850531D01*
X57054857Y-58008097D01*
X57054857Y-58587286D01*
X56800857Y-58587286D01*
X56800857Y-58297000D01*
X56057000Y-58297000D01*
X56057000Y-58587286D01*
X55800419Y-58587286D01*
X55806245Y-58201750D01*
X55808347Y-58073394D01*
X55810688Y-57975490D01*
X55810936Y-57969846D01*
X56057000Y-57969846D01*
X56057000Y-58061143D01*
X56800857Y-58061143D01*
X56800857Y-57585226D01*
X56560464Y-57592899D01*
X56455274Y-57597183D01*
X56378653Y-57602991D01*
X56322885Y-57611446D01*
X56280257Y-57623669D01*
X56247500Y-57638427D01*
X56156016Y-57703225D01*
X56094695Y-57787193D01*
X56062614Y-57891938D01*
X56057000Y-57969846D01*
X55810936Y-57969846D01*
X55813917Y-57902206D01*
X55818683Y-57847709D01*
X55825636Y-57806169D01*
X55835423Y-57771752D01*
X55848696Y-57738627D01*
X55860714Y-57712431D01*
X55932324Y-57596891D01*
X56027903Y-57497981D01*
X56138847Y-57423976D01*
X56179991Y-57405380D01*
X56219148Y-57390949D01*
X56257460Y-57380310D01*
X56301296Y-57372872D01*
X56357026Y-57368051D01*
X56431022Y-57365256D01*
X56529652Y-57363902D01*
X56634585Y-57363452D01*
X56755574Y-57363293D01*
X56845520Y-57363836D01*
G37*
X56845520Y-57363836D02*
X56909667Y-57365652D01*
X56953259Y-57369312D01*
X56981539Y-57375389D01*
X56999749Y-57384453D01*
X57013134Y-57397075D01*
X57020121Y-57405474D01*
X57029838Y-57419377D01*
X57037558Y-57437156D01*
X57043509Y-57462834D01*
X57047920Y-57500434D01*
X57051019Y-57553980D01*
X57053033Y-57627496D01*
X57054193Y-57725006D01*
X57054724Y-57850531D01*
X57054857Y-58008097D01*
X57054857Y-58587286D01*
X56800857Y-58587286D01*
X56800857Y-58297000D01*
X56057000Y-58297000D01*
X56057000Y-58587286D01*
X55800419Y-58587286D01*
X55806245Y-58201750D01*
X55808347Y-58073394D01*
X55810688Y-57975490D01*
X55810936Y-57969846D01*
X56057000Y-57969846D01*
X56057000Y-58061143D01*
X56800857Y-58061143D01*
X56800857Y-57585226D01*
X56560464Y-57592899D01*
X56455274Y-57597183D01*
X56378653Y-57602991D01*
X56322885Y-57611446D01*
X56280257Y-57623669D01*
X56247500Y-57638427D01*
X56156016Y-57703225D01*
X56094695Y-57787193D01*
X56062614Y-57891938D01*
X56057000Y-57969846D01*
X55810936Y-57969846D01*
X55813917Y-57902206D01*
X55818683Y-57847709D01*
X55825636Y-57806169D01*
X55835423Y-57771752D01*
X55848696Y-57738627D01*
X55860714Y-57712431D01*
X55932324Y-57596891D01*
X56027903Y-57497981D01*
X56138847Y-57423976D01*
X56179991Y-57405380D01*
X56219148Y-57390949D01*
X56257460Y-57380310D01*
X56301296Y-57372872D01*
X56357026Y-57368051D01*
X56431022Y-57365256D01*
X56529652Y-57363902D01*
X56634585Y-57363452D01*
X56755574Y-57363293D01*
X56845520Y-57363836D01*
G36*
X57522277Y-57974964D02*
G01*
X57527054Y-58587286D01*
X57272089Y-58587286D01*
X57276866Y-57974964D01*
X57281643Y-57362643D01*
X57517500Y-57362643D01*
X57522277Y-57974964D01*
G37*
X57522277Y-57974964D02*
X57527054Y-58587286D01*
X57272089Y-58587286D01*
X57276866Y-57974964D01*
X57281643Y-57362643D01*
X57517500Y-57362643D01*
X57522277Y-57974964D01*
G36*
X58490733Y-57354560D02*
G01*
X58545335Y-57357204D01*
X58575466Y-57361020D01*
X58578857Y-57362944D01*
X58566428Y-57377701D01*
X58531522Y-57414127D01*
X58477705Y-57468631D01*
X58408548Y-57537619D01*
X58327619Y-57617498D01*
X58267987Y-57675908D01*
X57957117Y-57979500D01*
X58587929Y-58586842D01*
X58415319Y-58587064D01*
X58242710Y-58587286D01*
X57998286Y-58342357D01*
X57753861Y-58097429D01*
X57581000Y-58097429D01*
X57581000Y-57861571D01*
X57753843Y-57861571D01*
X58007357Y-57607572D01*
X58260871Y-57353572D01*
X58419864Y-57353572D01*
X58490733Y-57354560D01*
G37*
X58490733Y-57354560D02*
X58545335Y-57357204D01*
X58575466Y-57361020D01*
X58578857Y-57362944D01*
X58566428Y-57377701D01*
X58531522Y-57414127D01*
X58477705Y-57468631D01*
X58408548Y-57537619D01*
X58327619Y-57617498D01*
X58267987Y-57675908D01*
X57957117Y-57979500D01*
X58587929Y-58586842D01*
X58415319Y-58587064D01*
X58242710Y-58587286D01*
X57998286Y-58342357D01*
X57753861Y-58097429D01*
X57581000Y-58097429D01*
X57581000Y-57861571D01*
X57753843Y-57861571D01*
X58007357Y-57607572D01*
X58260871Y-57353572D01*
X58419864Y-57353572D01*
X58490733Y-57354560D01*
G36*
X60429429Y-57743643D02*
G01*
X60433357Y-57885437D01*
X60438484Y-57996017D01*
X60446183Y-58080454D01*
X60457829Y-58143819D01*
X60474796Y-58191185D01*
X60498459Y-58227620D01*
X60530192Y-58258199D01*
X60571370Y-58287990D01*
X60578201Y-58292542D01*
X60609697Y-58312229D01*
X60639614Y-58326105D01*
X60675221Y-58335378D01*
X60723789Y-58341257D01*
X60792587Y-58344952D01*
X60888885Y-58347672D01*
X60913044Y-58348227D01*
X61172698Y-58354096D01*
X61177527Y-57858369D01*
X61182357Y-57362643D01*
X61418214Y-57362643D01*
X61418214Y-57949225D01*
X61418122Y-58110808D01*
X61417699Y-58239949D01*
X61416724Y-58340495D01*
X61414975Y-58416288D01*
X61412232Y-58471175D01*
X61408273Y-58508998D01*
X61402877Y-58533604D01*
X61395823Y-58548836D01*
X61386890Y-58558538D01*
X61382997Y-58561546D01*
X61349983Y-58572003D01*
X61287726Y-58579900D01*
X61203176Y-58585276D01*
X61103282Y-58588170D01*
X60994992Y-58588622D01*
X60885258Y-58586669D01*
X60781028Y-58582351D01*
X60689252Y-58575707D01*
X60616879Y-58566776D01*
X60574669Y-58557024D01*
X60458629Y-58502032D01*
X60357603Y-58426315D01*
X60288071Y-58346377D01*
X60255471Y-58296436D01*
X60230533Y-58251706D01*
X60212233Y-58206322D01*
X60199549Y-58154419D01*
X60191456Y-58090132D01*
X60186933Y-58007596D01*
X60184956Y-57900947D01*
X60184501Y-57764318D01*
X60184500Y-57752714D01*
X60184500Y-57362643D01*
X60420357Y-57362643D01*
X60429429Y-57743643D01*
G37*
X60429429Y-57743643D02*
X60433357Y-57885437D01*
X60438484Y-57996017D01*
X60446183Y-58080454D01*
X60457829Y-58143819D01*
X60474796Y-58191185D01*
X60498459Y-58227620D01*
X60530192Y-58258199D01*
X60571370Y-58287990D01*
X60578201Y-58292542D01*
X60609697Y-58312229D01*
X60639614Y-58326105D01*
X60675221Y-58335378D01*
X60723789Y-58341257D01*
X60792587Y-58344952D01*
X60888885Y-58347672D01*
X60913044Y-58348227D01*
X61172698Y-58354096D01*
X61177527Y-57858369D01*
X61182357Y-57362643D01*
X61418214Y-57362643D01*
X61418214Y-57949225D01*
X61418122Y-58110808D01*
X61417699Y-58239949D01*
X61416724Y-58340495D01*
X61414975Y-58416288D01*
X61412232Y-58471175D01*
X61408273Y-58508998D01*
X61402877Y-58533604D01*
X61395823Y-58548836D01*
X61386890Y-58558538D01*
X61382997Y-58561546D01*
X61349983Y-58572003D01*
X61287726Y-58579900D01*
X61203176Y-58585276D01*
X61103282Y-58588170D01*
X60994992Y-58588622D01*
X60885258Y-58586669D01*
X60781028Y-58582351D01*
X60689252Y-58575707D01*
X60616879Y-58566776D01*
X60574669Y-58557024D01*
X60458629Y-58502032D01*
X60357603Y-58426315D01*
X60288071Y-58346377D01*
X60255471Y-58296436D01*
X60230533Y-58251706D01*
X60212233Y-58206322D01*
X60199549Y-58154419D01*
X60191456Y-58090132D01*
X60186933Y-58007596D01*
X60184956Y-57900947D01*
X60184501Y-57764318D01*
X60184500Y-57752714D01*
X60184500Y-57362643D01*
X60420357Y-57362643D01*
X60429429Y-57743643D01*
G36*
X62784330Y-57476036D02*
G01*
X62789732Y-57589429D01*
X62298143Y-57589429D01*
X62298143Y-58587286D01*
X62044143Y-58587286D01*
X62044143Y-57589429D01*
X61552554Y-57589429D01*
X61557956Y-57476036D01*
X61563357Y-57362643D01*
X62778929Y-57362643D01*
X62784330Y-57476036D01*
G37*
X62784330Y-57476036D02*
X62789732Y-57589429D01*
X62298143Y-57589429D01*
X62298143Y-58587286D01*
X62044143Y-58587286D01*
X62044143Y-57589429D01*
X61552554Y-57589429D01*
X61557956Y-57476036D01*
X61563357Y-57362643D01*
X62778929Y-57362643D01*
X62784330Y-57476036D01*
G36*
X55530857Y-58097429D02*
G01*
X54805143Y-58097429D01*
X54805143Y-57861571D01*
X55530857Y-57861571D01*
X55530857Y-58097429D01*
G37*
X55530857Y-58097429D02*
X54805143Y-58097429D01*
X54805143Y-57861571D01*
X55530857Y-57861571D01*
X55530857Y-58097429D01*
G36*
X55617261Y-55129251D02*
G01*
X55635021Y-55134338D01*
X55660604Y-55143621D01*
X55681151Y-55153917D01*
X55697214Y-55169000D01*
X55709344Y-55192643D01*
X55718093Y-55228620D01*
X55724013Y-55280706D01*
X55727655Y-55352674D01*
X55729571Y-55448298D01*
X55730313Y-55571352D01*
X55730432Y-55725610D01*
X55730429Y-55787026D01*
X55730429Y-56373857D01*
X55477247Y-56373857D01*
X55472302Y-56048104D01*
X55467357Y-55722350D01*
X55305629Y-56007282D01*
X55237488Y-56127103D01*
X55184462Y-56219041D01*
X55143785Y-56286784D01*
X55112686Y-56334020D01*
X55088398Y-56364439D01*
X55068153Y-56381729D01*
X55049180Y-56389579D01*
X55028713Y-56391677D01*
X55017086Y-56391722D01*
X54969677Y-56387444D01*
X54937789Y-56377731D01*
X54922710Y-56358475D01*
X54892812Y-56312442D01*
X54851061Y-56244485D01*
X54800420Y-56159455D01*
X54743851Y-56062207D01*
X54724673Y-56028759D01*
X54533124Y-55693500D01*
X54533062Y-56033679D01*
X54533000Y-56373857D01*
X54279000Y-56373857D01*
X54279000Y-55795296D01*
X54279129Y-55634176D01*
X54279658Y-55505374D01*
X54280801Y-55404920D01*
X54282773Y-55328846D01*
X54285787Y-55273184D01*
X54290059Y-55233967D01*
X54295802Y-55207224D01*
X54303230Y-55188989D01*
X54312459Y-55175415D01*
X54357764Y-55144091D01*
X54415923Y-55133711D01*
X54470264Y-55146214D01*
X54484223Y-55155447D01*
X54499772Y-55176405D01*
X54530515Y-55224620D01*
X54573835Y-55295739D01*
X54627115Y-55385406D01*
X54687738Y-55489266D01*
X54752797Y-55602454D01*
X54817174Y-55714725D01*
X54875832Y-55815935D01*
X54926356Y-55902007D01*
X54966331Y-55968862D01*
X54993344Y-56012421D01*
X55004980Y-56028605D01*
X55005070Y-56028626D01*
X55016207Y-56013675D01*
X55042937Y-55971210D01*
X55082868Y-55905231D01*
X55133608Y-55819741D01*
X55192765Y-55718738D01*
X55257947Y-55606224D01*
X55265917Y-55592387D01*
X55345650Y-55454775D01*
X55410309Y-55345949D01*
X55462314Y-55262904D01*
X55504087Y-55202636D01*
X55538046Y-55162141D01*
X55566615Y-55138414D01*
X55592213Y-55128452D01*
X55617261Y-55129251D01*
G37*
X55617261Y-55129251D02*
X55635021Y-55134338D01*
X55660604Y-55143621D01*
X55681151Y-55153917D01*
X55697214Y-55169000D01*
X55709344Y-55192643D01*
X55718093Y-55228620D01*
X55724013Y-55280706D01*
X55727655Y-55352674D01*
X55729571Y-55448298D01*
X55730313Y-55571352D01*
X55730432Y-55725610D01*
X55730429Y-55787026D01*
X55730429Y-56373857D01*
X55477247Y-56373857D01*
X55472302Y-56048104D01*
X55467357Y-55722350D01*
X55305629Y-56007282D01*
X55237488Y-56127103D01*
X55184462Y-56219041D01*
X55143785Y-56286784D01*
X55112686Y-56334020D01*
X55088398Y-56364439D01*
X55068153Y-56381729D01*
X55049180Y-56389579D01*
X55028713Y-56391677D01*
X55017086Y-56391722D01*
X54969677Y-56387444D01*
X54937789Y-56377731D01*
X54922710Y-56358475D01*
X54892812Y-56312442D01*
X54851061Y-56244485D01*
X54800420Y-56159455D01*
X54743851Y-56062207D01*
X54724673Y-56028759D01*
X54533124Y-55693500D01*
X54533062Y-56033679D01*
X54533000Y-56373857D01*
X54279000Y-56373857D01*
X54279000Y-55795296D01*
X54279129Y-55634176D01*
X54279658Y-55505374D01*
X54280801Y-55404920D01*
X54282773Y-55328846D01*
X54285787Y-55273184D01*
X54290059Y-55233967D01*
X54295802Y-55207224D01*
X54303230Y-55188989D01*
X54312459Y-55175415D01*
X54357764Y-55144091D01*
X54415923Y-55133711D01*
X54470264Y-55146214D01*
X54484223Y-55155447D01*
X54499772Y-55176405D01*
X54530515Y-55224620D01*
X54573835Y-55295739D01*
X54627115Y-55385406D01*
X54687738Y-55489266D01*
X54752797Y-55602454D01*
X54817174Y-55714725D01*
X54875832Y-55815935D01*
X54926356Y-55902007D01*
X54966331Y-55968862D01*
X54993344Y-56012421D01*
X55004980Y-56028605D01*
X55005070Y-56028626D01*
X55016207Y-56013675D01*
X55042937Y-55971210D01*
X55082868Y-55905231D01*
X55133608Y-55819741D01*
X55192765Y-55718738D01*
X55257947Y-55606224D01*
X55265917Y-55592387D01*
X55345650Y-55454775D01*
X55410309Y-55345949D01*
X55462314Y-55262904D01*
X55504087Y-55202636D01*
X55538046Y-55162141D01*
X55566615Y-55138414D01*
X55592213Y-55128452D01*
X55617261Y-55129251D01*
G36*
X52736857Y-55376000D02*
G01*
X52339724Y-55376000D01*
X52208405Y-55376239D01*
X52108418Y-55377209D01*
X52034812Y-55379294D01*
X51982637Y-55382878D01*
X51946941Y-55388341D01*
X51922773Y-55396069D01*
X51905182Y-55406442D01*
X51900667Y-55409948D01*
X51866563Y-55458500D01*
X51857150Y-55519507D01*
X51872429Y-55578835D01*
X51900667Y-55614195D01*
X51919621Y-55626726D01*
X51944615Y-55635785D01*
X51981392Y-55641930D01*
X52035700Y-55645721D01*
X52113284Y-55647717D01*
X52219889Y-55648477D01*
X52253546Y-55648541D01*
X52387982Y-55649939D01*
X52492143Y-55654685D01*
X52571990Y-55664193D01*
X52633480Y-55679878D01*
X52682575Y-55703154D01*
X52725233Y-55735434D01*
X52758382Y-55768319D01*
X52808390Y-55835656D01*
X52836119Y-55911674D01*
X52845609Y-56008109D01*
X52845714Y-56021975D01*
X52830212Y-56136337D01*
X52784120Y-56231851D01*
X52708058Y-56307294D01*
X52697049Y-56314873D01*
X52621671Y-56364786D01*
X52115949Y-56370134D01*
X51610226Y-56375483D01*
X51615649Y-56261277D01*
X51621071Y-56147072D01*
X52092268Y-56138000D01*
X52563464Y-56128929D01*
X52586393Y-56083571D01*
X52607247Y-56024070D01*
X52599302Y-55973843D01*
X52573364Y-55933215D01*
X52559817Y-55917005D01*
X52544802Y-55905000D01*
X52522963Y-55896457D01*
X52488941Y-55890630D01*
X52437378Y-55886774D01*
X52362918Y-55884144D01*
X52260201Y-55881996D01*
X52196900Y-55880875D01*
X52063829Y-55877869D01*
X51961252Y-55873014D01*
X51883376Y-55864668D01*
X51824412Y-55851192D01*
X51778566Y-55830944D01*
X51740048Y-55802285D01*
X51703066Y-55763573D01*
X51678561Y-55734043D01*
X51642911Y-55681147D01*
X51623746Y-55624668D01*
X51615632Y-55559073D01*
X51619690Y-55434881D01*
X51652109Y-55332591D01*
X51713800Y-55250379D01*
X51799679Y-55189565D01*
X51825640Y-55176749D01*
X51852885Y-55166865D01*
X51886523Y-55159444D01*
X51931663Y-55154020D01*
X51993415Y-55150126D01*
X52076887Y-55147294D01*
X52187188Y-55145058D01*
X52305964Y-55143275D01*
X52736857Y-55137265D01*
X52736857Y-55376000D01*
G37*
X52736857Y-55376000D02*
X52339724Y-55376000D01*
X52208405Y-55376239D01*
X52108418Y-55377209D01*
X52034812Y-55379294D01*
X51982637Y-55382878D01*
X51946941Y-55388341D01*
X51922773Y-55396069D01*
X51905182Y-55406442D01*
X51900667Y-55409948D01*
X51866563Y-55458500D01*
X51857150Y-55519507D01*
X51872429Y-55578835D01*
X51900667Y-55614195D01*
X51919621Y-55626726D01*
X51944615Y-55635785D01*
X51981392Y-55641930D01*
X52035700Y-55645721D01*
X52113284Y-55647717D01*
X52219889Y-55648477D01*
X52253546Y-55648541D01*
X52387982Y-55649939D01*
X52492143Y-55654685D01*
X52571990Y-55664193D01*
X52633480Y-55679878D01*
X52682575Y-55703154D01*
X52725233Y-55735434D01*
X52758382Y-55768319D01*
X52808390Y-55835656D01*
X52836119Y-55911674D01*
X52845609Y-56008109D01*
X52845714Y-56021975D01*
X52830212Y-56136337D01*
X52784120Y-56231851D01*
X52708058Y-56307294D01*
X52697049Y-56314873D01*
X52621671Y-56364786D01*
X52115949Y-56370134D01*
X51610226Y-56375483D01*
X51615649Y-56261277D01*
X51621071Y-56147072D01*
X52092268Y-56138000D01*
X52563464Y-56128929D01*
X52586393Y-56083571D01*
X52607247Y-56024070D01*
X52599302Y-55973843D01*
X52573364Y-55933215D01*
X52559817Y-55917005D01*
X52544802Y-55905000D01*
X52522963Y-55896457D01*
X52488941Y-55890630D01*
X52437378Y-55886774D01*
X52362918Y-55884144D01*
X52260201Y-55881996D01*
X52196900Y-55880875D01*
X52063829Y-55877869D01*
X51961252Y-55873014D01*
X51883376Y-55864668D01*
X51824412Y-55851192D01*
X51778566Y-55830944D01*
X51740048Y-55802285D01*
X51703066Y-55763573D01*
X51678561Y-55734043D01*
X51642911Y-55681147D01*
X51623746Y-55624668D01*
X51615632Y-55559073D01*
X51619690Y-55434881D01*
X51652109Y-55332591D01*
X51713800Y-55250379D01*
X51799679Y-55189565D01*
X51825640Y-55176749D01*
X51852885Y-55166865D01*
X51886523Y-55159444D01*
X51931663Y-55154020D01*
X51993415Y-55150126D01*
X52076887Y-55147294D01*
X52187188Y-55145058D01*
X52305964Y-55143275D01*
X52736857Y-55137265D01*
X52736857Y-55376000D01*
G36*
X54148330Y-55262607D02*
G01*
X54153732Y-55376000D01*
X53662143Y-55376000D01*
X53662143Y-56373857D01*
X53408143Y-56373857D01*
X53408143Y-55376000D01*
X52916554Y-55376000D01*
X52921956Y-55262607D01*
X52927357Y-55149214D01*
X54142929Y-55149214D01*
X54148330Y-55262607D01*
G37*
X54148330Y-55262607D02*
X54153732Y-55376000D01*
X53662143Y-55376000D01*
X53662143Y-56373857D01*
X53408143Y-56373857D01*
X53408143Y-55376000D01*
X52916554Y-55376000D01*
X52921956Y-55262607D01*
X52927357Y-55149214D01*
X54142929Y-55149214D01*
X54148330Y-55262607D01*
G36*
X56315536Y-55140244D02*
G01*
X56432140Y-55141206D01*
X56540569Y-55143827D01*
X56634000Y-55147807D01*
X56705609Y-55152848D01*
X56748572Y-55158649D01*
X56751460Y-55159377D01*
X56830229Y-55195330D01*
X56900365Y-55252371D01*
X56950870Y-55320429D01*
X56965194Y-55355004D01*
X56972188Y-55399636D01*
X56977057Y-55477029D01*
X56979695Y-55583713D01*
X56979995Y-55716221D01*
X56979025Y-55805618D01*
X56976668Y-55941479D01*
X56973347Y-56046325D01*
X56967744Y-56125425D01*
X56958537Y-56184050D01*
X56944409Y-56227467D01*
X56924038Y-56260946D01*
X56896105Y-56289756D01*
X56859291Y-56319167D01*
X56848348Y-56327379D01*
X56830221Y-56339342D01*
X56808682Y-56348558D01*
X56778867Y-56355465D01*
X56735916Y-56360503D01*
X56674964Y-56364110D01*
X56591151Y-56366724D01*
X56479613Y-56368786D01*
X56373219Y-56370254D01*
X55948143Y-56375721D01*
X55948143Y-56138722D01*
X56333679Y-56133825D01*
X56719214Y-56128929D01*
X56724579Y-56006464D01*
X56729944Y-55884000D01*
X55948143Y-55884000D01*
X55948143Y-55648143D01*
X56728286Y-55648143D01*
X56728286Y-55533843D01*
X56724929Y-55468164D01*
X56716078Y-55418321D01*
X56706514Y-55397772D01*
X56685048Y-55389528D01*
X56637599Y-55383373D01*
X56561589Y-55379163D01*
X56454438Y-55376753D01*
X56316443Y-55376000D01*
X55948143Y-55376000D01*
X55948143Y-55140143D01*
X56315536Y-55140244D01*
G37*
X56315536Y-55140244D02*
X56432140Y-55141206D01*
X56540569Y-55143827D01*
X56634000Y-55147807D01*
X56705609Y-55152848D01*
X56748572Y-55158649D01*
X56751460Y-55159377D01*
X56830229Y-55195330D01*
X56900365Y-55252371D01*
X56950870Y-55320429D01*
X56965194Y-55355004D01*
X56972188Y-55399636D01*
X56977057Y-55477029D01*
X56979695Y-55583713D01*
X56979995Y-55716221D01*
X56979025Y-55805618D01*
X56976668Y-55941479D01*
X56973347Y-56046325D01*
X56967744Y-56125425D01*
X56958537Y-56184050D01*
X56944409Y-56227467D01*
X56924038Y-56260946D01*
X56896105Y-56289756D01*
X56859291Y-56319167D01*
X56848348Y-56327379D01*
X56830221Y-56339342D01*
X56808682Y-56348558D01*
X56778867Y-56355465D01*
X56735916Y-56360503D01*
X56674964Y-56364110D01*
X56591151Y-56366724D01*
X56479613Y-56368786D01*
X56373219Y-56370254D01*
X55948143Y-56375721D01*
X55948143Y-56138722D01*
X56333679Y-56133825D01*
X56719214Y-56128929D01*
X56724579Y-56006464D01*
X56729944Y-55884000D01*
X55948143Y-55884000D01*
X55948143Y-55648143D01*
X56728286Y-55648143D01*
X56728286Y-55533843D01*
X56724929Y-55468164D01*
X56716078Y-55418321D01*
X56706514Y-55397772D01*
X56685048Y-55389528D01*
X56637599Y-55383373D01*
X56561589Y-55379163D01*
X56454438Y-55376753D01*
X56316443Y-55376000D01*
X55948143Y-55376000D01*
X55948143Y-55140143D01*
X56315536Y-55140244D01*
G36*
X57639964Y-55140244D02*
G01*
X57788850Y-55141180D01*
X57906417Y-55144409D01*
X57997602Y-55150699D01*
X58067339Y-55160818D01*
X58120565Y-55175533D01*
X58162215Y-55195614D01*
X58197224Y-55221826D01*
X58204013Y-55228012D01*
X58252617Y-55280599D01*
X58283546Y-55335440D01*
X58300312Y-55402701D01*
X58306430Y-55492546D01*
X58306714Y-55525102D01*
X58305286Y-55604193D01*
X58299409Y-55658413D01*
X58286700Y-55699116D01*
X58264773Y-55737658D01*
X58260837Y-55743520D01*
X58228682Y-55786864D01*
X58195316Y-55819587D01*
X58155107Y-55843299D01*
X58102420Y-55859614D01*
X58031622Y-55870144D01*
X57937080Y-55876500D01*
X57813162Y-55880296D01*
X57780571Y-55880963D01*
X57669040Y-55884152D01*
X57573687Y-55888886D01*
X57500011Y-55894759D01*
X57453508Y-55901370D01*
X57440393Y-55905923D01*
X57426944Y-55935305D01*
X57419051Y-55991002D01*
X57417714Y-56031364D01*
X57417714Y-56138000D01*
X58306714Y-56138000D01*
X58306714Y-56373857D01*
X57163714Y-56373857D01*
X57164113Y-56142536D01*
X57167060Y-56016335D01*
X57176585Y-55919457D01*
X57194454Y-55845258D01*
X57222432Y-55787097D01*
X57262286Y-55738330D01*
X57274714Y-55726459D01*
X57309334Y-55698755D01*
X57348020Y-55678329D01*
X57396736Y-55664125D01*
X57461450Y-55655086D01*
X57548128Y-55650155D01*
X57662736Y-55648277D01*
X57716957Y-55648143D01*
X57840245Y-55647547D01*
X57931726Y-55644477D01*
X57995872Y-55637006D01*
X58037157Y-55623208D01*
X58060054Y-55601159D01*
X58069037Y-55568931D01*
X58068580Y-55524600D01*
X58066256Y-55497778D01*
X58056470Y-55442560D01*
X58041248Y-55402691D01*
X58032513Y-55392487D01*
X58007355Y-55387625D01*
X57951814Y-55383334D01*
X57871791Y-55379857D01*
X57773187Y-55377439D01*
X57661903Y-55376323D01*
X57639964Y-55376278D01*
X57272571Y-55376000D01*
X57272571Y-55140143D01*
X57639964Y-55140244D01*
G37*
X57639964Y-55140244D02*
X57788850Y-55141180D01*
X57906417Y-55144409D01*
X57997602Y-55150699D01*
X58067339Y-55160818D01*
X58120565Y-55175533D01*
X58162215Y-55195614D01*
X58197224Y-55221826D01*
X58204013Y-55228012D01*
X58252617Y-55280599D01*
X58283546Y-55335440D01*
X58300312Y-55402701D01*
X58306430Y-55492546D01*
X58306714Y-55525102D01*
X58305286Y-55604193D01*
X58299409Y-55658413D01*
X58286700Y-55699116D01*
X58264773Y-55737658D01*
X58260837Y-55743520D01*
X58228682Y-55786864D01*
X58195316Y-55819587D01*
X58155107Y-55843299D01*
X58102420Y-55859614D01*
X58031622Y-55870144D01*
X57937080Y-55876500D01*
X57813162Y-55880296D01*
X57780571Y-55880963D01*
X57669040Y-55884152D01*
X57573687Y-55888886D01*
X57500011Y-55894759D01*
X57453508Y-55901370D01*
X57440393Y-55905923D01*
X57426944Y-55935305D01*
X57419051Y-55991002D01*
X57417714Y-56031364D01*
X57417714Y-56138000D01*
X58306714Y-56138000D01*
X58306714Y-56373857D01*
X57163714Y-56373857D01*
X57164113Y-56142536D01*
X57167060Y-56016335D01*
X57176585Y-55919457D01*
X57194454Y-55845258D01*
X57222432Y-55787097D01*
X57262286Y-55738330D01*
X57274714Y-55726459D01*
X57309334Y-55698755D01*
X57348020Y-55678329D01*
X57396736Y-55664125D01*
X57461450Y-55655086D01*
X57548128Y-55650155D01*
X57662736Y-55648277D01*
X57716957Y-55648143D01*
X57840245Y-55647547D01*
X57931726Y-55644477D01*
X57995872Y-55637006D01*
X58037157Y-55623208D01*
X58060054Y-55601159D01*
X58069037Y-55568931D01*
X58068580Y-55524600D01*
X58066256Y-55497778D01*
X58056470Y-55442560D01*
X58041248Y-55402691D01*
X58032513Y-55392487D01*
X58007355Y-55387625D01*
X57951814Y-55383334D01*
X57871791Y-55379857D01*
X57773187Y-55377439D01*
X57661903Y-55376323D01*
X57639964Y-55376278D01*
X57272571Y-55376000D01*
X57272571Y-55140143D01*
X57639964Y-55140244D01*
G36*
X59645616Y-55262607D02*
G01*
X59651017Y-55376000D01*
X58760286Y-55376000D01*
X58760286Y-56373857D01*
X58506286Y-56373857D01*
X58506286Y-55804367D01*
X58506404Y-55644901D01*
X58506910Y-55517698D01*
X58508032Y-55418733D01*
X58509997Y-55343985D01*
X58513034Y-55289429D01*
X58517369Y-55251043D01*
X58523232Y-55224804D01*
X58530849Y-55206688D01*
X58540449Y-55192672D01*
X58540953Y-55192046D01*
X58575620Y-55149214D01*
X59640214Y-55149214D01*
X59645616Y-55262607D01*
G37*
X59645616Y-55262607D02*
X59651017Y-55376000D01*
X58760286Y-55376000D01*
X58760286Y-56373857D01*
X58506286Y-56373857D01*
X58506286Y-55804367D01*
X58506404Y-55644901D01*
X58506910Y-55517698D01*
X58508032Y-55418733D01*
X58509997Y-55343985D01*
X58513034Y-55289429D01*
X58517369Y-55251043D01*
X58523232Y-55224804D01*
X58530849Y-55206688D01*
X58540449Y-55192672D01*
X58540953Y-55192046D01*
X58575620Y-55149214D01*
X59640214Y-55149214D01*
X59645616Y-55262607D01*
G36*
X60787750Y-55143850D02*
G01*
X60910214Y-55149214D01*
X60914991Y-55761536D01*
X60919768Y-56373857D01*
X60665286Y-56373857D01*
X60665286Y-55884000D01*
X59847208Y-55884000D01*
X59802255Y-55839047D01*
X59786212Y-55822136D01*
X59774613Y-55804568D01*
X59766841Y-55780680D01*
X59762280Y-55744808D01*
X59760312Y-55691290D01*
X59760322Y-55614463D01*
X59761693Y-55508665D01*
X59762258Y-55471654D01*
X59767214Y-55149214D01*
X60003072Y-55149214D01*
X60008119Y-55398679D01*
X60013167Y-55648143D01*
X60665286Y-55648143D01*
X60665286Y-55138485D01*
X60787750Y-55143850D01*
G37*
X60787750Y-55143850D02*
X60910214Y-55149214D01*
X60914991Y-55761536D01*
X60919768Y-56373857D01*
X60665286Y-56373857D01*
X60665286Y-55884000D01*
X59847208Y-55884000D01*
X59802255Y-55839047D01*
X59786212Y-55822136D01*
X59774613Y-55804568D01*
X59766841Y-55780680D01*
X59762280Y-55744808D01*
X59760312Y-55691290D01*
X59760322Y-55614463D01*
X59761693Y-55508665D01*
X59762258Y-55471654D01*
X59767214Y-55149214D01*
X60003072Y-55149214D01*
X60008119Y-55398679D01*
X60013167Y-55648143D01*
X60665286Y-55648143D01*
X60665286Y-55138485D01*
X60787750Y-55143850D01*
G36*
X59540429Y-55884000D02*
G01*
X58814714Y-55884000D01*
X58814714Y-55648143D01*
X59540429Y-55648143D01*
X59540429Y-55884000D01*
G37*
X59540429Y-55884000D02*
X58814714Y-55884000D01*
X58814714Y-55648143D01*
X59540429Y-55648143D01*
X59540429Y-55884000D01*
D10*
%TO.C,C1*%
X30710000Y-43158578D02*
X30710000Y-42641422D01*
X29290000Y-43158578D02*
X29290000Y-42641422D01*
%TO.C,C2*%
X24321078Y-46960000D02*
X23803922Y-46960000D01*
X24321078Y-45540000D02*
X23803922Y-45540000D01*
%TO.C,C3*%
X39610000Y-37662779D02*
X39610000Y-37337221D01*
X38590000Y-37662779D02*
X38590000Y-37337221D01*
%TO.C,C15*%
X48710000Y-53237221D02*
X48710000Y-53562779D01*
X47690000Y-53237221D02*
X47690000Y-53562779D01*
%TO.C,C16*%
X53224721Y-41810000D02*
X53550279Y-41810000D01*
X53224721Y-40790000D02*
X53550279Y-40790000D01*
%TO.C,D1*%
X29900000Y-52600000D02*
X29900000Y-56500000D01*
X27900000Y-52600000D02*
X27900000Y-56500000D01*
X29900000Y-52600000D02*
X27900000Y-52600000D01*
%TO.C,D2*%
X27972500Y-33365000D02*
X25687500Y-33365000D01*
X27972500Y-34835000D02*
X27972500Y-33365000D01*
X25687500Y-34835000D02*
X27972500Y-34835000D01*
%TO.C,D3*%
X53387500Y-49485000D02*
X55672500Y-49485000D01*
X55672500Y-49485000D02*
X55672500Y-48015000D01*
X55672500Y-48015000D02*
X53387500Y-48015000D01*
%TO.C,F1*%
X28262779Y-49990000D02*
X27937221Y-49990000D01*
X28262779Y-51010000D02*
X27937221Y-51010000D01*
%TO.C,FB1*%
X26820000Y-46718922D02*
X26820000Y-47236078D01*
X28240000Y-46718922D02*
X28240000Y-47236078D01*
%TO.C,FB2*%
X35821078Y-49910000D02*
X35303922Y-49910000D01*
X35821078Y-48490000D02*
X35303922Y-48490000D01*
%TO.C,HSE1*%
X32550000Y-41300000D02*
X32550000Y-45300000D01*
X35850000Y-41300000D02*
X32550000Y-41300000D01*
%TO.C,J1*%
X24080000Y-52630000D02*
X21420000Y-52630000D01*
X24080000Y-55230000D02*
X24080000Y-52630000D01*
X21420000Y-55230000D02*
X21420000Y-52630000D01*
X24080000Y-55230000D02*
X21420000Y-55230000D01*
X24080000Y-56500000D02*
X24080000Y-57830000D01*
X24080000Y-57830000D02*
X22750000Y-57830000D01*
%TO.C,J2*%
X65920000Y-49320000D02*
X68580000Y-49320000D01*
X65920000Y-46720000D02*
X65920000Y-49320000D01*
X68580000Y-46720000D02*
X68580000Y-49320000D01*
X65920000Y-46720000D02*
X68580000Y-46720000D01*
X65920000Y-45450000D02*
X65920000Y-44120000D01*
X65920000Y-44120000D02*
X67250000Y-44120000D01*
%TO.C,J3*%
X33020000Y-24080000D02*
X33020000Y-22750000D01*
X34350000Y-24080000D02*
X33020000Y-24080000D01*
X35620000Y-24080000D02*
X35620000Y-21420000D01*
X35620000Y-21420000D02*
X38220000Y-21420000D01*
X35620000Y-24080000D02*
X38220000Y-24080000D01*
X38220000Y-24080000D02*
X38220000Y-21420000D01*
%TO.C,J4*%
X66115000Y-40020000D02*
X66115000Y-40085000D01*
X62585000Y-40020000D02*
X62585000Y-40085000D01*
X66115000Y-33615000D02*
X66115000Y-33680000D01*
X62585000Y-33615000D02*
X62585000Y-33680000D01*
X61260000Y-33680000D02*
X62585000Y-33680000D01*
X62585000Y-40085000D02*
X66115000Y-40085000D01*
X62585000Y-33615000D02*
X66115000Y-33615000D01*
%TO.C,J5*%
X42470000Y-24080000D02*
X42470000Y-22750000D01*
X43800000Y-24080000D02*
X42470000Y-24080000D01*
X45070000Y-24080000D02*
X45070000Y-21420000D01*
X45070000Y-21420000D02*
X47670000Y-21420000D01*
X45070000Y-24080000D02*
X47670000Y-24080000D01*
X47670000Y-24080000D02*
X47670000Y-21420000D01*
%TO.C,J6*%
X48480000Y-65870000D02*
X48480000Y-67200000D01*
X47150000Y-65870000D02*
X48480000Y-65870000D01*
X45880000Y-65870000D02*
X45880000Y-68530000D01*
X45880000Y-68530000D02*
X38200000Y-68530000D01*
X45880000Y-65870000D02*
X38200000Y-65870000D01*
X38200000Y-65870000D02*
X38200000Y-68530000D01*
%TO.C,R1*%
X29637221Y-34610000D02*
X29962779Y-34610000D01*
X29637221Y-33590000D02*
X29962779Y-33590000D01*
%TO.C,R7*%
X54350279Y-51060000D02*
X54024721Y-51060000D01*
X54350279Y-50040000D02*
X54024721Y-50040000D01*
%TO.C,U1*%
X21815001Y-44800000D02*
X21815001Y-38790000D01*
X28635001Y-42550000D02*
X28635001Y-38790000D01*
X21815001Y-38790000D02*
X23075001Y-38790000D01*
X28635001Y-38790000D02*
X27375001Y-38790000D01*
%TO.C,U2*%
X39890000Y-40840000D02*
X38550000Y-40840000D01*
X39890000Y-39890000D02*
X39890000Y-40840000D01*
X40840000Y-39890000D02*
X39890000Y-39890000D01*
X50110000Y-39890000D02*
X50110000Y-40840000D01*
X49160000Y-39890000D02*
X50110000Y-39890000D01*
X39890000Y-50110000D02*
X39890000Y-49160000D01*
X40840000Y-50110000D02*
X39890000Y-50110000D01*
X50110000Y-50110000D02*
X50110000Y-49160000D01*
X49160000Y-50110000D02*
X50110000Y-50110000D01*
%TD*%
M02*
