M48
; DRILL file {KiCad (5.1.7)-1} date 10/04/20 20:50:26
; FORMAT={-:-/ absolute / metric / decimal}
; #@! TF.CreationDate,2020-10-04T20:50:26-05:00
; #@! TF.GenerationSoftware,Kicad,Pcbnew,(5.1.7)-1
FMAT,2
METRIC
T1C0.400
T2C0.600
T3C0.800
T4C1.000
T5C4.300
%
G90
G05
T1
X22.5Y-30.0
X22.5Y-35.0
X25.0Y-30.0
X30.0Y-30.0
X30.0Y-32.5
X31.75Y-34.1
X32.5Y-37.5
X32.5Y-52.5
X32.5Y-55.0
X32.5Y-57.5
X32.5Y-60.0
X32.5Y-62.5
X32.5Y-65.0
X32.5Y-67.5
X32.8Y-46.0
X33.425Y-49.2
X33.425Y-50.7
X34.625Y-50.7
X35.0Y-30.0
X35.0Y-32.5
X35.0Y-35.0
X35.0Y-37.5
X35.6Y-40.6
X36.85Y-45.6
X36.95Y-38.3
X37.5Y-52.5
X37.5Y-55.0
X37.5Y-57.5
X37.5Y-60.0
X37.5Y-62.5
X37.5Y-65.0
X37.55Y-42.15
X37.875Y-45.6
X37.9Y-35.7
X37.9Y-36.7
X37.9Y-38.3
X38.475Y-40.225
X40.0Y-22.5
X40.0Y-25.0
X40.0Y-27.5
X40.0Y-30.0
X40.0Y-32.5
X40.0Y-52.4
X40.0Y-53.5
X40.25Y-35.75
X41.1Y-35.1
X41.7Y-34.25
X41.975Y-54.5
X41.975Y-55.45
X42.0Y-35.6
X42.775Y-33.9
X45.725Y-33.9
X46.7Y-54.4
X48.2Y-55.4
X48.2Y-56.325
X49.8Y-53.0
X49.8Y-53.925
X50.0Y-22.5
X50.0Y-25.0
X50.0Y-27.5
X50.0Y-30.0
X50.0Y-32.5
X50.0Y-35.0
X50.0Y-60.0
X50.0Y-62.5
X50.0Y-65.0
X50.0Y-67.5
X51.8Y-50.9
X51.8Y-52.0
X53.2Y-38.9
X53.2Y-39.9
X53.4Y-51.8
X54.1Y-38.9
X54.1Y-39.9
X55.0Y-22.5
X55.0Y-25.0
X55.0Y-27.5
X55.0Y-30.0
X55.0Y-32.5
X55.0Y-35.0
X55.0Y-52.5
X55.0Y-60.0
X55.0Y-62.5
X55.0Y-65.0
X55.0Y-67.5
X55.4Y-41.3
X60.0Y-22.5
X60.0Y-25.0
X60.0Y-27.5
X60.0Y-30.0
X60.0Y-32.5
X60.0Y-47.5
X60.0Y-50.0
X60.0Y-52.5
X60.0Y-60.0
X60.0Y-62.5
X60.0Y-65.0
X60.0Y-67.5
X60.575Y-34.325
X65.0Y-52.5
X65.0Y-55.0
X65.0Y-57.5
T2
X21.775Y-65.0
X22.72Y-62.72
X22.72Y-67.28
X25.0Y-61.775
X25.0Y-68.225
X27.28Y-62.72
X27.28Y-67.28
X28.225Y-65.0
X61.775Y-25.0
X62.72Y-22.72
X62.72Y-27.28
X65.0Y-21.775
X65.0Y-28.225
X67.28Y-22.72
X67.28Y-27.28
X68.225Y-25.0
X21.775Y-25.0
X22.72Y-22.72
X22.72Y-27.28
X25.0Y-21.775
X25.0Y-28.225
X27.28Y-22.72
X27.28Y-27.28
X28.225Y-25.0
X61.775Y-65.0
X62.72Y-62.72
X62.72Y-67.28
X65.0Y-61.775
X65.0Y-68.225
X67.28Y-62.72
X67.28Y-67.28
X68.225Y-65.0
T3
X21.5Y-46.25
X21.5Y-48.25
X21.5Y-50.25
X22.25Y-37.5
X23.25Y-48.25
X23.25Y-50.25
X23.5Y-39.5
X23.5Y-41.25
X27.0Y-39.5
X27.0Y-41.25
X28.25Y-37.5
X30.0Y-39.425
X30.0Y-40.65
X42.05Y-44.25
X66.3Y-40.65
T4
X34.35Y-22.75
X36.89Y-22.75
X67.25Y-45.45
X67.25Y-47.99
X39.53Y-67.2
X42.07Y-67.2
X44.61Y-67.2
X47.15Y-67.2
X22.75Y-53.96
X22.75Y-56.5
X43.8Y-22.75
X46.34Y-22.75
T5
X65.0Y-65.0
X25.0Y-65.0
X65.0Y-25.0
X25.0Y-25.0
T0
M30
