%TF.GenerationSoftware,KiCad,Pcbnew,(5.1.7)-1*%
%TF.CreationDate,2020-10-04T21:05:32-05:00*%
%TF.ProjectId,STM32F4_Breakout,53544d33-3246-4345-9f42-7265616b6f75,rev?*%
%TF.SameCoordinates,Original*%
%TF.FileFunction,Copper,L1,Top*%
%TF.FilePolarity,Positive*%
%FSLAX46Y46*%
G04 Gerber Fmt 4.6, Leading zero omitted, Abs format (unit mm)*
G04 Created by KiCad (PCBNEW (5.1.7)-1) date 2020-10-04 21:05:32*
%MOMM*%
%LPD*%
G01*
G04 APERTURE LIST*
%TA.AperFunction,Profile*%
%ADD10C,0.050000*%
%TD*%
%TA.AperFunction,SMDPad,CuDef*%
%ADD11R,1.200000X0.900000*%
%TD*%
%TA.AperFunction,ComponentPad*%
%ADD12C,0.900000*%
%TD*%
%TA.AperFunction,ComponentPad*%
%ADD13C,8.600000*%
%TD*%
%TA.AperFunction,SMDPad,CuDef*%
%ADD14R,1.200000X1.400000*%
%TD*%
%TA.AperFunction,ComponentPad*%
%ADD15O,1.700000X1.700000*%
%TD*%
%TA.AperFunction,ComponentPad*%
%ADD16R,1.700000X1.700000*%
%TD*%
%TA.AperFunction,SMDPad,CuDef*%
%ADD17R,2.400000X0.740000*%
%TD*%
%TA.AperFunction,SMDPad,CuDef*%
%ADD18R,3.800000X2.000000*%
%TD*%
%TA.AperFunction,SMDPad,CuDef*%
%ADD19R,1.500000X2.000000*%
%TD*%
%TA.AperFunction,ViaPad*%
%ADD20C,0.800000*%
%TD*%
%TA.AperFunction,ViaPad*%
%ADD21C,1.000000*%
%TD*%
%TA.AperFunction,Conductor*%
%ADD22C,1.000000*%
%TD*%
%TA.AperFunction,Conductor*%
%ADD23C,0.500000*%
%TD*%
%TA.AperFunction,Conductor*%
%ADD24C,0.300000*%
%TD*%
%TA.AperFunction,Conductor*%
%ADD25C,0.254000*%
%TD*%
%TA.AperFunction,Conductor*%
%ADD26C,0.350000*%
%TD*%
G04 APERTURE END LIST*
D10*
X70000000Y-65000000D02*
G75*
G02*
X65000000Y-70000000I-5000000J0D01*
G01*
X25000000Y-70000000D02*
G75*
G02*
X20000000Y-65000000I0J5000000D01*
G01*
X20000000Y-25000000D02*
G75*
G02*
X25000000Y-20000000I5000000J0D01*
G01*
X65000000Y-20000000D02*
G75*
G02*
X70000000Y-25000000I0J-5000000D01*
G01*
X20000000Y-65000000D02*
X20000000Y-25000000D01*
X65000000Y-70000000D02*
X25000000Y-70000000D01*
X70000000Y-25000000D02*
X70000000Y-65000000D01*
X25000000Y-20000000D02*
X65000000Y-20000000D01*
%TO.P,C1,1*%
%TO.N,Net-(C1-Pad1)*%
%TA.AperFunction,SMDPad,CuDef*%
G36*
G01*
X30456250Y-44325000D02*
X29543750Y-44325000D01*
G75*
G02*
X29300000Y-44081250I0J243750D01*
G01*
X29300000Y-43593750D01*
G75*
G02*
X29543750Y-43350000I243750J0D01*
G01*
X30456250Y-43350000D01*
G75*
G02*
X30700000Y-43593750I0J-243750D01*
G01*
X30700000Y-44081250D01*
G75*
G02*
X30456250Y-44325000I-243750J0D01*
G01*
G37*
%TD.AperFunction*%
%TO.P,C1,2*%
%TO.N,GND*%
%TA.AperFunction,SMDPad,CuDef*%
G36*
G01*
X30456250Y-42450000D02*
X29543750Y-42450000D01*
G75*
G02*
X29300000Y-42206250I0J243750D01*
G01*
X29300000Y-41718750D01*
G75*
G02*
X29543750Y-41475000I243750J0D01*
G01*
X30456250Y-41475000D01*
G75*
G02*
X30700000Y-41718750I0J-243750D01*
G01*
X30700000Y-42206250D01*
G75*
G02*
X30456250Y-42450000I-243750J0D01*
G01*
G37*
%TD.AperFunction*%
%TD*%
%TO.P,C2,2*%
%TO.N,GND*%
%TA.AperFunction,SMDPad,CuDef*%
G36*
G01*
X23612500Y-45793750D02*
X23612500Y-46706250D01*
G75*
G02*
X23368750Y-46950000I-243750J0D01*
G01*
X22881250Y-46950000D01*
G75*
G02*
X22637500Y-46706250I0J243750D01*
G01*
X22637500Y-45793750D01*
G75*
G02*
X22881250Y-45550000I243750J0D01*
G01*
X23368750Y-45550000D01*
G75*
G02*
X23612500Y-45793750I0J-243750D01*
G01*
G37*
%TD.AperFunction*%
%TO.P,C2,1*%
%TO.N,+3V3*%
%TA.AperFunction,SMDPad,CuDef*%
G36*
G01*
X25487500Y-45793750D02*
X25487500Y-46706250D01*
G75*
G02*
X25243750Y-46950000I-243750J0D01*
G01*
X24756250Y-46950000D01*
G75*
G02*
X24512500Y-46706250I0J243750D01*
G01*
X24512500Y-45793750D01*
G75*
G02*
X24756250Y-45550000I243750J0D01*
G01*
X25243750Y-45550000D01*
G75*
G02*
X25487500Y-45793750I0J-243750D01*
G01*
G37*
%TD.AperFunction*%
%TD*%
%TO.P,C3,1*%
%TO.N,+3V3*%
%TA.AperFunction,SMDPad,CuDef*%
G36*
G01*
X39356250Y-38725000D02*
X38843750Y-38725000D01*
G75*
G02*
X38625000Y-38506250I0J218750D01*
G01*
X38625000Y-38068750D01*
G75*
G02*
X38843750Y-37850000I218750J0D01*
G01*
X39356250Y-37850000D01*
G75*
G02*
X39575000Y-38068750I0J-218750D01*
G01*
X39575000Y-38506250D01*
G75*
G02*
X39356250Y-38725000I-218750J0D01*
G01*
G37*
%TD.AperFunction*%
%TO.P,C3,2*%
%TO.N,GND*%
%TA.AperFunction,SMDPad,CuDef*%
G36*
G01*
X39356250Y-37150000D02*
X38843750Y-37150000D01*
G75*
G02*
X38625000Y-36931250I0J218750D01*
G01*
X38625000Y-36493750D01*
G75*
G02*
X38843750Y-36275000I218750J0D01*
G01*
X39356250Y-36275000D01*
G75*
G02*
X39575000Y-36493750I0J-218750D01*
G01*
X39575000Y-36931250D01*
G75*
G02*
X39356250Y-37150000I-218750J0D01*
G01*
G37*
%TD.AperFunction*%
%TD*%
%TO.P,C4,2*%
%TO.N,GND*%
%TA.AperFunction,SMDPad,CuDef*%
G36*
G01*
X37672500Y-40525000D02*
X37327500Y-40525000D01*
G75*
G02*
X37180000Y-40377500I0J147500D01*
G01*
X37180000Y-40082500D01*
G75*
G02*
X37327500Y-39935000I147500J0D01*
G01*
X37672500Y-39935000D01*
G75*
G02*
X37820000Y-40082500I0J-147500D01*
G01*
X37820000Y-40377500D01*
G75*
G02*
X37672500Y-40525000I-147500J0D01*
G01*
G37*
%TD.AperFunction*%
%TO.P,C4,1*%
%TO.N,+3V3*%
%TA.AperFunction,SMDPad,CuDef*%
G36*
G01*
X37672500Y-41495000D02*
X37327500Y-41495000D01*
G75*
G02*
X37180000Y-41347500I0J147500D01*
G01*
X37180000Y-41052500D01*
G75*
G02*
X37327500Y-40905000I147500J0D01*
G01*
X37672500Y-40905000D01*
G75*
G02*
X37820000Y-41052500I0J-147500D01*
G01*
X37820000Y-41347500D01*
G75*
G02*
X37672500Y-41495000I-147500J0D01*
G01*
G37*
%TD.AperFunction*%
%TD*%
%TO.P,C5,1*%
%TO.N,+3V3*%
%TA.AperFunction,SMDPad,CuDef*%
G36*
G01*
X42280000Y-52227500D02*
X42280000Y-52572500D01*
G75*
G02*
X42132500Y-52720000I-147500J0D01*
G01*
X41837500Y-52720000D01*
G75*
G02*
X41690000Y-52572500I0J147500D01*
G01*
X41690000Y-52227500D01*
G75*
G02*
X41837500Y-52080000I147500J0D01*
G01*
X42132500Y-52080000D01*
G75*
G02*
X42280000Y-52227500I0J-147500D01*
G01*
G37*
%TD.AperFunction*%
%TO.P,C5,2*%
%TO.N,GND*%
%TA.AperFunction,SMDPad,CuDef*%
G36*
G01*
X41310000Y-52227500D02*
X41310000Y-52572500D01*
G75*
G02*
X41162500Y-52720000I-147500J0D01*
G01*
X40867500Y-52720000D01*
G75*
G02*
X40720000Y-52572500I0J147500D01*
G01*
X40720000Y-52227500D01*
G75*
G02*
X40867500Y-52080000I147500J0D01*
G01*
X41162500Y-52080000D01*
G75*
G02*
X41310000Y-52227500I0J-147500D01*
G01*
G37*
%TD.AperFunction*%
%TD*%
%TO.P,C6,2*%
%TO.N,GND*%
%TA.AperFunction,SMDPad,CuDef*%
G36*
G01*
X41310000Y-53327500D02*
X41310000Y-53672500D01*
G75*
G02*
X41162500Y-53820000I-147500J0D01*
G01*
X40867500Y-53820000D01*
G75*
G02*
X40720000Y-53672500I0J147500D01*
G01*
X40720000Y-53327500D01*
G75*
G02*
X40867500Y-53180000I147500J0D01*
G01*
X41162500Y-53180000D01*
G75*
G02*
X41310000Y-53327500I0J-147500D01*
G01*
G37*
%TD.AperFunction*%
%TO.P,C6,1*%
%TO.N,+3V3*%
%TA.AperFunction,SMDPad,CuDef*%
G36*
G01*
X42280000Y-53327500D02*
X42280000Y-53672500D01*
G75*
G02*
X42132500Y-53820000I-147500J0D01*
G01*
X41837500Y-53820000D01*
G75*
G02*
X41690000Y-53672500I0J147500D01*
G01*
X41690000Y-53327500D01*
G75*
G02*
X41837500Y-53180000I147500J0D01*
G01*
X42132500Y-53180000D01*
G75*
G02*
X42280000Y-53327500I0J-147500D01*
G01*
G37*
%TD.AperFunction*%
%TD*%
%TO.P,C7,1*%
%TO.N,+3V3*%
%TA.AperFunction,SMDPad,CuDef*%
G36*
G01*
X49505000Y-51072500D02*
X49505000Y-50727500D01*
G75*
G02*
X49652500Y-50580000I147500J0D01*
G01*
X49947500Y-50580000D01*
G75*
G02*
X50095000Y-50727500I0J-147500D01*
G01*
X50095000Y-51072500D01*
G75*
G02*
X49947500Y-51220000I-147500J0D01*
G01*
X49652500Y-51220000D01*
G75*
G02*
X49505000Y-51072500I0J147500D01*
G01*
G37*
%TD.AperFunction*%
%TO.P,C7,2*%
%TO.N,GND*%
%TA.AperFunction,SMDPad,CuDef*%
G36*
G01*
X50475000Y-51072500D02*
X50475000Y-50727500D01*
G75*
G02*
X50622500Y-50580000I147500J0D01*
G01*
X50917500Y-50580000D01*
G75*
G02*
X51065000Y-50727500I0J-147500D01*
G01*
X51065000Y-51072500D01*
G75*
G02*
X50917500Y-51220000I-147500J0D01*
G01*
X50622500Y-51220000D01*
G75*
G02*
X50475000Y-51072500I0J147500D01*
G01*
G37*
%TD.AperFunction*%
%TD*%
%TO.P,C8,2*%
%TO.N,GND*%
%TA.AperFunction,SMDPad,CuDef*%
G36*
G01*
X50475000Y-52172500D02*
X50475000Y-51827500D01*
G75*
G02*
X50622500Y-51680000I147500J0D01*
G01*
X50917500Y-51680000D01*
G75*
G02*
X51065000Y-51827500I0J-147500D01*
G01*
X51065000Y-52172500D01*
G75*
G02*
X50917500Y-52320000I-147500J0D01*
G01*
X50622500Y-52320000D01*
G75*
G02*
X50475000Y-52172500I0J147500D01*
G01*
G37*
%TD.AperFunction*%
%TO.P,C8,1*%
%TO.N,+3V3*%
%TA.AperFunction,SMDPad,CuDef*%
G36*
G01*
X49505000Y-52172500D02*
X49505000Y-51827500D01*
G75*
G02*
X49652500Y-51680000I147500J0D01*
G01*
X49947500Y-51680000D01*
G75*
G02*
X50095000Y-51827500I0J-147500D01*
G01*
X50095000Y-52172500D01*
G75*
G02*
X49947500Y-52320000I-147500J0D01*
G01*
X49652500Y-52320000D01*
G75*
G02*
X49505000Y-52172500I0J147500D01*
G01*
G37*
%TD.AperFunction*%
%TD*%
%TO.P,C9,1*%
%TO.N,+3V3*%
%TA.AperFunction,SMDPad,CuDef*%
G36*
G01*
X51072500Y-40180000D02*
X50727500Y-40180000D01*
G75*
G02*
X50580000Y-40032500I0J147500D01*
G01*
X50580000Y-39737500D01*
G75*
G02*
X50727500Y-39590000I147500J0D01*
G01*
X51072500Y-39590000D01*
G75*
G02*
X51220000Y-39737500I0J-147500D01*
G01*
X51220000Y-40032500D01*
G75*
G02*
X51072500Y-40180000I-147500J0D01*
G01*
G37*
%TD.AperFunction*%
%TO.P,C9,2*%
%TO.N,GND*%
%TA.AperFunction,SMDPad,CuDef*%
G36*
G01*
X51072500Y-39210000D02*
X50727500Y-39210000D01*
G75*
G02*
X50580000Y-39062500I0J147500D01*
G01*
X50580000Y-38767500D01*
G75*
G02*
X50727500Y-38620000I147500J0D01*
G01*
X51072500Y-38620000D01*
G75*
G02*
X51220000Y-38767500I0J-147500D01*
G01*
X51220000Y-39062500D01*
G75*
G02*
X51072500Y-39210000I-147500J0D01*
G01*
G37*
%TD.AperFunction*%
%TD*%
%TO.P,C10,1*%
%TO.N,+3V3*%
%TA.AperFunction,SMDPad,CuDef*%
G36*
G01*
X52272500Y-40195000D02*
X51927500Y-40195000D01*
G75*
G02*
X51780000Y-40047500I0J147500D01*
G01*
X51780000Y-39752500D01*
G75*
G02*
X51927500Y-39605000I147500J0D01*
G01*
X52272500Y-39605000D01*
G75*
G02*
X52420000Y-39752500I0J-147500D01*
G01*
X52420000Y-40047500D01*
G75*
G02*
X52272500Y-40195000I-147500J0D01*
G01*
G37*
%TD.AperFunction*%
%TO.P,C10,2*%
%TO.N,GND*%
%TA.AperFunction,SMDPad,CuDef*%
G36*
G01*
X52272500Y-39225000D02*
X51927500Y-39225000D01*
G75*
G02*
X51780000Y-39077500I0J147500D01*
G01*
X51780000Y-38782500D01*
G75*
G02*
X51927500Y-38635000I147500J0D01*
G01*
X52272500Y-38635000D01*
G75*
G02*
X52420000Y-38782500I0J-147500D01*
G01*
X52420000Y-39077500D01*
G75*
G02*
X52272500Y-39225000I-147500J0D01*
G01*
G37*
%TD.AperFunction*%
%TD*%
%TO.P,C11,2*%
%TO.N,GND*%
%TA.AperFunction,SMDPad,CuDef*%
G36*
G01*
X41690000Y-37772500D02*
X41690000Y-37427500D01*
G75*
G02*
X41837500Y-37280000I147500J0D01*
G01*
X42132500Y-37280000D01*
G75*
G02*
X42280000Y-37427500I0J-147500D01*
G01*
X42280000Y-37772500D01*
G75*
G02*
X42132500Y-37920000I-147500J0D01*
G01*
X41837500Y-37920000D01*
G75*
G02*
X41690000Y-37772500I0J147500D01*
G01*
G37*
%TD.AperFunction*%
%TO.P,C11,1*%
%TO.N,+3V3*%
%TA.AperFunction,SMDPad,CuDef*%
G36*
G01*
X40720000Y-37772500D02*
X40720000Y-37427500D01*
G75*
G02*
X40867500Y-37280000I147500J0D01*
G01*
X41162500Y-37280000D01*
G75*
G02*
X41310000Y-37427500I0J-147500D01*
G01*
X41310000Y-37772500D01*
G75*
G02*
X41162500Y-37920000I-147500J0D01*
G01*
X40867500Y-37920000D01*
G75*
G02*
X40720000Y-37772500I0J147500D01*
G01*
G37*
%TD.AperFunction*%
%TD*%
%TO.P,C12,1*%
%TO.N,+3V3*%
%TA.AperFunction,SMDPad,CuDef*%
G36*
G01*
X40720000Y-36672500D02*
X40720000Y-36327500D01*
G75*
G02*
X40867500Y-36180000I147500J0D01*
G01*
X41162500Y-36180000D01*
G75*
G02*
X41310000Y-36327500I0J-147500D01*
G01*
X41310000Y-36672500D01*
G75*
G02*
X41162500Y-36820000I-147500J0D01*
G01*
X40867500Y-36820000D01*
G75*
G02*
X40720000Y-36672500I0J147500D01*
G01*
G37*
%TD.AperFunction*%
%TO.P,C12,2*%
%TO.N,GND*%
%TA.AperFunction,SMDPad,CuDef*%
G36*
G01*
X41690000Y-36672500D02*
X41690000Y-36327500D01*
G75*
G02*
X41837500Y-36180000I147500J0D01*
G01*
X42132500Y-36180000D01*
G75*
G02*
X42280000Y-36327500I0J-147500D01*
G01*
X42280000Y-36672500D01*
G75*
G02*
X42132500Y-36820000I-147500J0D01*
G01*
X41837500Y-36820000D01*
G75*
G02*
X41690000Y-36672500I0J147500D01*
G01*
G37*
%TD.AperFunction*%
%TD*%
%TO.P,C13,2*%
%TO.N,GND*%
%TA.AperFunction,SMDPad,CuDef*%
G36*
G01*
X36672500Y-46810000D02*
X36327500Y-46810000D01*
G75*
G02*
X36180000Y-46662500I0J147500D01*
G01*
X36180000Y-46367500D01*
G75*
G02*
X36327500Y-46220000I147500J0D01*
G01*
X36672500Y-46220000D01*
G75*
G02*
X36820000Y-46367500I0J-147500D01*
G01*
X36820000Y-46662500D01*
G75*
G02*
X36672500Y-46810000I-147500J0D01*
G01*
G37*
%TD.AperFunction*%
%TO.P,C13,1*%
%TO.N,+3.3VA*%
%TA.AperFunction,SMDPad,CuDef*%
G36*
G01*
X36672500Y-47780000D02*
X36327500Y-47780000D01*
G75*
G02*
X36180000Y-47632500I0J147500D01*
G01*
X36180000Y-47337500D01*
G75*
G02*
X36327500Y-47190000I147500J0D01*
G01*
X36672500Y-47190000D01*
G75*
G02*
X36820000Y-47337500I0J-147500D01*
G01*
X36820000Y-47632500D01*
G75*
G02*
X36672500Y-47780000I-147500J0D01*
G01*
G37*
%TD.AperFunction*%
%TD*%
%TO.P,C14,2*%
%TO.N,GND*%
%TA.AperFunction,SMDPad,CuDef*%
G36*
G01*
X37772500Y-46810000D02*
X37427500Y-46810000D01*
G75*
G02*
X37280000Y-46662500I0J147500D01*
G01*
X37280000Y-46367500D01*
G75*
G02*
X37427500Y-46220000I147500J0D01*
G01*
X37772500Y-46220000D01*
G75*
G02*
X37920000Y-46367500I0J-147500D01*
G01*
X37920000Y-46662500D01*
G75*
G02*
X37772500Y-46810000I-147500J0D01*
G01*
G37*
%TD.AperFunction*%
%TO.P,C14,1*%
%TO.N,+3.3VA*%
%TA.AperFunction,SMDPad,CuDef*%
G36*
G01*
X37772500Y-47780000D02*
X37427500Y-47780000D01*
G75*
G02*
X37280000Y-47632500I0J147500D01*
G01*
X37280000Y-47337500D01*
G75*
G02*
X37427500Y-47190000I147500J0D01*
G01*
X37772500Y-47190000D01*
G75*
G02*
X37920000Y-47337500I0J-147500D01*
G01*
X37920000Y-47632500D01*
G75*
G02*
X37772500Y-47780000I-147500J0D01*
G01*
G37*
%TD.AperFunction*%
%TD*%
%TO.P,C15,2*%
%TO.N,GND*%
%TA.AperFunction,SMDPad,CuDef*%
G36*
G01*
X47943750Y-53750000D02*
X48456250Y-53750000D01*
G75*
G02*
X48675000Y-53968750I0J-218750D01*
G01*
X48675000Y-54406250D01*
G75*
G02*
X48456250Y-54625000I-218750J0D01*
G01*
X47943750Y-54625000D01*
G75*
G02*
X47725000Y-54406250I0J218750D01*
G01*
X47725000Y-53968750D01*
G75*
G02*
X47943750Y-53750000I218750J0D01*
G01*
G37*
%TD.AperFunction*%
%TO.P,C15,1*%
%TO.N,Net-(C15-Pad1)*%
%TA.AperFunction,SMDPad,CuDef*%
G36*
G01*
X47943750Y-52175000D02*
X48456250Y-52175000D01*
G75*
G02*
X48675000Y-52393750I0J-218750D01*
G01*
X48675000Y-52831250D01*
G75*
G02*
X48456250Y-53050000I-218750J0D01*
G01*
X47943750Y-53050000D01*
G75*
G02*
X47725000Y-52831250I0J218750D01*
G01*
X47725000Y-52393750D01*
G75*
G02*
X47943750Y-52175000I218750J0D01*
G01*
G37*
%TD.AperFunction*%
%TD*%
%TO.P,C16,1*%
%TO.N,Net-(C16-Pad1)*%
%TA.AperFunction,SMDPad,CuDef*%
G36*
G01*
X52162500Y-41556250D02*
X52162500Y-41043750D01*
G75*
G02*
X52381250Y-40825000I218750J0D01*
G01*
X52818750Y-40825000D01*
G75*
G02*
X53037500Y-41043750I0J-218750D01*
G01*
X53037500Y-41556250D01*
G75*
G02*
X52818750Y-41775000I-218750J0D01*
G01*
X52381250Y-41775000D01*
G75*
G02*
X52162500Y-41556250I0J218750D01*
G01*
G37*
%TD.AperFunction*%
%TO.P,C16,2*%
%TO.N,GND*%
%TA.AperFunction,SMDPad,CuDef*%
G36*
G01*
X53737500Y-41556250D02*
X53737500Y-41043750D01*
G75*
G02*
X53956250Y-40825000I218750J0D01*
G01*
X54393750Y-40825000D01*
G75*
G02*
X54612500Y-41043750I0J-218750D01*
G01*
X54612500Y-41556250D01*
G75*
G02*
X54393750Y-41775000I-218750J0D01*
G01*
X53956250Y-41775000D01*
G75*
G02*
X53737500Y-41556250I0J218750D01*
G01*
G37*
%TD.AperFunction*%
%TD*%
%TO.P,C17,1*%
%TO.N,HSE_IN*%
%TA.AperFunction,SMDPad,CuDef*%
G36*
G01*
X33420000Y-40772500D02*
X33420000Y-40427500D01*
G75*
G02*
X33567500Y-40280000I147500J0D01*
G01*
X33862500Y-40280000D01*
G75*
G02*
X34010000Y-40427500I0J-147500D01*
G01*
X34010000Y-40772500D01*
G75*
G02*
X33862500Y-40920000I-147500J0D01*
G01*
X33567500Y-40920000D01*
G75*
G02*
X33420000Y-40772500I0J147500D01*
G01*
G37*
%TD.AperFunction*%
%TO.P,C17,2*%
%TO.N,GND*%
%TA.AperFunction,SMDPad,CuDef*%
G36*
G01*
X34390000Y-40772500D02*
X34390000Y-40427500D01*
G75*
G02*
X34537500Y-40280000I147500J0D01*
G01*
X34832500Y-40280000D01*
G75*
G02*
X34980000Y-40427500I0J-147500D01*
G01*
X34980000Y-40772500D01*
G75*
G02*
X34832500Y-40920000I-147500J0D01*
G01*
X34537500Y-40920000D01*
G75*
G02*
X34390000Y-40772500I0J147500D01*
G01*
G37*
%TD.AperFunction*%
%TD*%
%TO.P,C18,1*%
%TO.N,Net-(C18-Pad1)*%
%TA.AperFunction,SMDPad,CuDef*%
G36*
G01*
X34980000Y-45827500D02*
X34980000Y-46172500D01*
G75*
G02*
X34832500Y-46320000I-147500J0D01*
G01*
X34537500Y-46320000D01*
G75*
G02*
X34390000Y-46172500I0J147500D01*
G01*
X34390000Y-45827500D01*
G75*
G02*
X34537500Y-45680000I147500J0D01*
G01*
X34832500Y-45680000D01*
G75*
G02*
X34980000Y-45827500I0J-147500D01*
G01*
G37*
%TD.AperFunction*%
%TO.P,C18,2*%
%TO.N,GND*%
%TA.AperFunction,SMDPad,CuDef*%
G36*
G01*
X34010000Y-45827500D02*
X34010000Y-46172500D01*
G75*
G02*
X33862500Y-46320000I-147500J0D01*
G01*
X33567500Y-46320000D01*
G75*
G02*
X33420000Y-46172500I0J147500D01*
G01*
X33420000Y-45827500D01*
G75*
G02*
X33567500Y-45680000I147500J0D01*
G01*
X33862500Y-45680000D01*
G75*
G02*
X34010000Y-45827500I0J-147500D01*
G01*
G37*
%TD.AperFunction*%
%TD*%
D11*
%TO.P,D1,1*%
%TO.N,Net-(D1-Pad1)*%
X28900000Y-53200000D03*
%TO.P,D1,2*%
%TO.N,VCC*%
X28900000Y-56500000D03*
%TD*%
%TO.P,D2,1*%
%TO.N,Net-(D2-Pad1)*%
%TA.AperFunction,SMDPad,CuDef*%
G36*
G01*
X27712500Y-33843750D02*
X27712500Y-34356250D01*
G75*
G02*
X27493750Y-34575000I-218750J0D01*
G01*
X27056250Y-34575000D01*
G75*
G02*
X26837500Y-34356250I0J218750D01*
G01*
X26837500Y-33843750D01*
G75*
G02*
X27056250Y-33625000I218750J0D01*
G01*
X27493750Y-33625000D01*
G75*
G02*
X27712500Y-33843750I0J-218750D01*
G01*
G37*
%TD.AperFunction*%
%TO.P,D2,2*%
%TO.N,+3V3*%
%TA.AperFunction,SMDPad,CuDef*%
G36*
G01*
X26137500Y-33843750D02*
X26137500Y-34356250D01*
G75*
G02*
X25918750Y-34575000I-218750J0D01*
G01*
X25481250Y-34575000D01*
G75*
G02*
X25262500Y-34356250I0J218750D01*
G01*
X25262500Y-33843750D01*
G75*
G02*
X25481250Y-33625000I218750J0D01*
G01*
X25918750Y-33625000D01*
G75*
G02*
X26137500Y-33843750I0J-218750D01*
G01*
G37*
%TD.AperFunction*%
%TD*%
%TO.P,D3,2*%
%TO.N,Net-(D3-Pad2)*%
%TA.AperFunction,SMDPad,CuDef*%
G36*
G01*
X53837500Y-48493750D02*
X53837500Y-49006250D01*
G75*
G02*
X53618750Y-49225000I-218750J0D01*
G01*
X53181250Y-49225000D01*
G75*
G02*
X52962500Y-49006250I0J218750D01*
G01*
X52962500Y-48493750D01*
G75*
G02*
X53181250Y-48275000I218750J0D01*
G01*
X53618750Y-48275000D01*
G75*
G02*
X53837500Y-48493750I0J-218750D01*
G01*
G37*
%TD.AperFunction*%
%TO.P,D3,1*%
%TO.N,Net-(D3-Pad1)*%
%TA.AperFunction,SMDPad,CuDef*%
G36*
G01*
X55412500Y-48493750D02*
X55412500Y-49006250D01*
G75*
G02*
X55193750Y-49225000I-218750J0D01*
G01*
X54756250Y-49225000D01*
G75*
G02*
X54537500Y-49006250I0J218750D01*
G01*
X54537500Y-48493750D01*
G75*
G02*
X54756250Y-48275000I218750J0D01*
G01*
X55193750Y-48275000D01*
G75*
G02*
X55412500Y-48493750I0J-218750D01*
G01*
G37*
%TD.AperFunction*%
%TD*%
%TO.P,F1,1*%
%TO.N,Net-(D1-Pad1)*%
%TA.AperFunction,SMDPad,CuDef*%
G36*
G01*
X29325000Y-50243750D02*
X29325000Y-50756250D01*
G75*
G02*
X29106250Y-50975000I-218750J0D01*
G01*
X28668750Y-50975000D01*
G75*
G02*
X28450000Y-50756250I0J218750D01*
G01*
X28450000Y-50243750D01*
G75*
G02*
X28668750Y-50025000I218750J0D01*
G01*
X29106250Y-50025000D01*
G75*
G02*
X29325000Y-50243750I0J-218750D01*
G01*
G37*
%TD.AperFunction*%
%TO.P,F1,2*%
%TO.N,Net-(F1-Pad2)*%
%TA.AperFunction,SMDPad,CuDef*%
G36*
G01*
X27750000Y-50243750D02*
X27750000Y-50756250D01*
G75*
G02*
X27531250Y-50975000I-218750J0D01*
G01*
X27093750Y-50975000D01*
G75*
G02*
X26875000Y-50756250I0J218750D01*
G01*
X26875000Y-50243750D01*
G75*
G02*
X27093750Y-50025000I218750J0D01*
G01*
X27531250Y-50025000D01*
G75*
G02*
X27750000Y-50243750I0J-218750D01*
G01*
G37*
%TD.AperFunction*%
%TD*%
%TO.P,FB1,1*%
%TO.N,Net-(C1-Pad1)*%
%TA.AperFunction,SMDPad,CuDef*%
G36*
G01*
X27073750Y-45552500D02*
X27986250Y-45552500D01*
G75*
G02*
X28230000Y-45796250I0J-243750D01*
G01*
X28230000Y-46283750D01*
G75*
G02*
X27986250Y-46527500I-243750J0D01*
G01*
X27073750Y-46527500D01*
G75*
G02*
X26830000Y-46283750I0J243750D01*
G01*
X26830000Y-45796250D01*
G75*
G02*
X27073750Y-45552500I243750J0D01*
G01*
G37*
%TD.AperFunction*%
%TO.P,FB1,2*%
%TO.N,Net-(F1-Pad2)*%
%TA.AperFunction,SMDPad,CuDef*%
G36*
G01*
X27073750Y-47427500D02*
X27986250Y-47427500D01*
G75*
G02*
X28230000Y-47671250I0J-243750D01*
G01*
X28230000Y-48158750D01*
G75*
G02*
X27986250Y-48402500I-243750J0D01*
G01*
X27073750Y-48402500D01*
G75*
G02*
X26830000Y-48158750I0J243750D01*
G01*
X26830000Y-47671250D01*
G75*
G02*
X27073750Y-47427500I243750J0D01*
G01*
G37*
%TD.AperFunction*%
%TD*%
%TO.P,FB2,2*%
%TO.N,+3V3*%
%TA.AperFunction,SMDPad,CuDef*%
G36*
G01*
X35112500Y-48743750D02*
X35112500Y-49656250D01*
G75*
G02*
X34868750Y-49900000I-243750J0D01*
G01*
X34381250Y-49900000D01*
G75*
G02*
X34137500Y-49656250I0J243750D01*
G01*
X34137500Y-48743750D01*
G75*
G02*
X34381250Y-48500000I243750J0D01*
G01*
X34868750Y-48500000D01*
G75*
G02*
X35112500Y-48743750I0J-243750D01*
G01*
G37*
%TD.AperFunction*%
%TO.P,FB2,1*%
%TO.N,+3.3VA*%
%TA.AperFunction,SMDPad,CuDef*%
G36*
G01*
X36987500Y-48743750D02*
X36987500Y-49656250D01*
G75*
G02*
X36743750Y-49900000I-243750J0D01*
G01*
X36256250Y-49900000D01*
G75*
G02*
X36012500Y-49656250I0J243750D01*
G01*
X36012500Y-48743750D01*
G75*
G02*
X36256250Y-48500000I243750J0D01*
G01*
X36743750Y-48500000D01*
G75*
G02*
X36987500Y-48743750I0J-243750D01*
G01*
G37*
%TD.AperFunction*%
%TD*%
D12*
%TO.P,H1,1*%
%TO.N,GND*%
X27280419Y-22719581D03*
X25000000Y-21775000D03*
X22719581Y-22719581D03*
X21775000Y-25000000D03*
X22719581Y-27280419D03*
X25000000Y-28225000D03*
X27280419Y-27280419D03*
X28225000Y-25000000D03*
D13*
X25000000Y-25000000D03*
%TD*%
%TO.P,H2,1*%
%TO.N,GND*%
X65000000Y-25000000D03*
D12*
X68225000Y-25000000D03*
X67280419Y-27280419D03*
X65000000Y-28225000D03*
X62719581Y-27280419D03*
X61775000Y-25000000D03*
X62719581Y-22719581D03*
X65000000Y-21775000D03*
X67280419Y-22719581D03*
%TD*%
%TO.P,H3,1*%
%TO.N,GND*%
X67280419Y-62719581D03*
X65000000Y-61775000D03*
X62719581Y-62719581D03*
X61775000Y-65000000D03*
X62719581Y-67280419D03*
X65000000Y-68225000D03*
X67280419Y-67280419D03*
X68225000Y-65000000D03*
D13*
X65000000Y-65000000D03*
%TD*%
%TO.P,H4,1*%
%TO.N,GND*%
X25000000Y-65000000D03*
D12*
X28225000Y-65000000D03*
X27280419Y-67280419D03*
X25000000Y-68225000D03*
X22719581Y-67280419D03*
X21775000Y-65000000D03*
X22719581Y-62719581D03*
X25000000Y-61775000D03*
X27280419Y-62719581D03*
%TD*%
D14*
%TO.P,HSE1,1*%
%TO.N,HSE_IN*%
X33350000Y-42200000D03*
%TO.P,HSE1,2*%
%TO.N,GND*%
X33350000Y-44400000D03*
%TO.P,HSE1,3*%
%TO.N,Net-(C18-Pad1)*%
X35050000Y-44400000D03*
%TO.P,HSE1,4*%
%TO.N,GND*%
X35050000Y-42200000D03*
%TD*%
D15*
%TO.P,J1,2*%
%TO.N,GND*%
X22750000Y-53960000D03*
D16*
%TO.P,J1,1*%
%TO.N,VCC*%
X22750000Y-56500000D03*
%TD*%
D15*
%TO.P,J2,2*%
%TO.N,USART1_TX*%
X67250000Y-47990000D03*
D16*
%TO.P,J2,1*%
%TO.N,USART1_RX*%
X67250000Y-45450000D03*
%TD*%
%TO.P,J3,1*%
%TO.N,+3V3*%
X34350000Y-22750000D03*
D15*
%TO.P,J3,2*%
%TO.N,GND*%
X36890000Y-22750000D03*
%TD*%
D17*
%TO.P,J4,1*%
%TO.N,+3V3*%
X62400000Y-34310000D03*
%TO.P,J4,2*%
%TO.N,SWDIO*%
X66300000Y-34310000D03*
%TO.P,J4,3*%
%TO.N,GND*%
X62400000Y-35580000D03*
%TO.P,J4,4*%
%TO.N,SWCLK*%
X66300000Y-35580000D03*
%TO.P,J4,5*%
%TO.N,GND*%
X62400000Y-36850000D03*
%TO.P,J4,6*%
%TO.N,SWO*%
X66300000Y-36850000D03*
%TO.P,J4,7*%
%TO.N,Net-(J4-Pad7)*%
X62400000Y-38120000D03*
%TO.P,J4,8*%
%TO.N,Net-(J4-Pad8)*%
X66300000Y-38120000D03*
%TO.P,J4,9*%
%TO.N,GND*%
X62400000Y-39390000D03*
%TO.P,J4,10*%
%TO.N,NRST*%
X66300000Y-39390000D03*
%TD*%
D16*
%TO.P,J5,1*%
%TO.N,I2C1_SDA*%
X43800000Y-22750000D03*
D15*
%TO.P,J5,2*%
%TO.N,I2C1_SCL*%
X46340000Y-22750000D03*
%TD*%
D16*
%TO.P,J6,1*%
%TO.N,SPI1_MOSI*%
X47150000Y-67200000D03*
D15*
%TO.P,J6,2*%
%TO.N,SPI1_MISO*%
X44610000Y-67200000D03*
%TO.P,J6,3*%
%TO.N,SPI1_SCK*%
X42070000Y-67200000D03*
%TO.P,J6,4*%
%TO.N,SPI1_CS*%
X39530000Y-67200000D03*
%TD*%
%TO.P,R1,1*%
%TO.N,Net-(D2-Pad1)*%
%TA.AperFunction,SMDPad,CuDef*%
G36*
G01*
X28575000Y-34356250D02*
X28575000Y-33843750D01*
G75*
G02*
X28793750Y-33625000I218750J0D01*
G01*
X29231250Y-33625000D01*
G75*
G02*
X29450000Y-33843750I0J-218750D01*
G01*
X29450000Y-34356250D01*
G75*
G02*
X29231250Y-34575000I-218750J0D01*
G01*
X28793750Y-34575000D01*
G75*
G02*
X28575000Y-34356250I0J218750D01*
G01*
G37*
%TD.AperFunction*%
%TO.P,R1,2*%
%TO.N,GND*%
%TA.AperFunction,SMDPad,CuDef*%
G36*
G01*
X30150000Y-34356250D02*
X30150000Y-33843750D01*
G75*
G02*
X30368750Y-33625000I218750J0D01*
G01*
X30806250Y-33625000D01*
G75*
G02*
X31025000Y-33843750I0J-218750D01*
G01*
X31025000Y-34356250D01*
G75*
G02*
X30806250Y-34575000I-218750J0D01*
G01*
X30368750Y-34575000D01*
G75*
G02*
X30150000Y-34356250I0J218750D01*
G01*
G37*
%TD.AperFunction*%
%TD*%
%TO.P,R2,2*%
%TO.N,GND*%
%TA.AperFunction,SMDPad,CuDef*%
G36*
G01*
X43172500Y-36825000D02*
X42827500Y-36825000D01*
G75*
G02*
X42680000Y-36677500I0J147500D01*
G01*
X42680000Y-36382500D01*
G75*
G02*
X42827500Y-36235000I147500J0D01*
G01*
X43172500Y-36235000D01*
G75*
G02*
X43320000Y-36382500I0J-147500D01*
G01*
X43320000Y-36677500D01*
G75*
G02*
X43172500Y-36825000I-147500J0D01*
G01*
G37*
%TD.AperFunction*%
%TO.P,R2,1*%
%TO.N,BOOT0*%
%TA.AperFunction,SMDPad,CuDef*%
G36*
G01*
X43172500Y-37795000D02*
X42827500Y-37795000D01*
G75*
G02*
X42680000Y-37647500I0J147500D01*
G01*
X42680000Y-37352500D01*
G75*
G02*
X42827500Y-37205000I147500J0D01*
G01*
X43172500Y-37205000D01*
G75*
G02*
X43320000Y-37352500I0J-147500D01*
G01*
X43320000Y-37647500D01*
G75*
G02*
X43172500Y-37795000I-147500J0D01*
G01*
G37*
%TD.AperFunction*%
%TD*%
%TO.P,R3,1*%
%TO.N,BOOT1*%
%TA.AperFunction,SMDPad,CuDef*%
G36*
G01*
X46577500Y-52205000D02*
X46922500Y-52205000D01*
G75*
G02*
X47070000Y-52352500I0J-147500D01*
G01*
X47070000Y-52647500D01*
G75*
G02*
X46922500Y-52795000I-147500J0D01*
G01*
X46577500Y-52795000D01*
G75*
G02*
X46430000Y-52647500I0J147500D01*
G01*
X46430000Y-52352500D01*
G75*
G02*
X46577500Y-52205000I147500J0D01*
G01*
G37*
%TD.AperFunction*%
%TO.P,R3,2*%
%TO.N,GND*%
%TA.AperFunction,SMDPad,CuDef*%
G36*
G01*
X46577500Y-53175000D02*
X46922500Y-53175000D01*
G75*
G02*
X47070000Y-53322500I0J-147500D01*
G01*
X47070000Y-53617500D01*
G75*
G02*
X46922500Y-53765000I-147500J0D01*
G01*
X46577500Y-53765000D01*
G75*
G02*
X46430000Y-53617500I0J147500D01*
G01*
X46430000Y-53322500D01*
G75*
G02*
X46577500Y-53175000I147500J0D01*
G01*
G37*
%TD.AperFunction*%
%TD*%
%TO.P,R4,2*%
%TO.N,I2C1_SCL*%
%TA.AperFunction,SMDPad,CuDef*%
G36*
G01*
X45060000Y-34677500D02*
X45060000Y-35022500D01*
G75*
G02*
X44912500Y-35170000I-147500J0D01*
G01*
X44617500Y-35170000D01*
G75*
G02*
X44470000Y-35022500I0J147500D01*
G01*
X44470000Y-34677500D01*
G75*
G02*
X44617500Y-34530000I147500J0D01*
G01*
X44912500Y-34530000D01*
G75*
G02*
X45060000Y-34677500I0J-147500D01*
G01*
G37*
%TD.AperFunction*%
%TO.P,R4,1*%
%TO.N,+3V3*%
%TA.AperFunction,SMDPad,CuDef*%
G36*
G01*
X46030000Y-34677500D02*
X46030000Y-35022500D01*
G75*
G02*
X45882500Y-35170000I-147500J0D01*
G01*
X45587500Y-35170000D01*
G75*
G02*
X45440000Y-35022500I0J147500D01*
G01*
X45440000Y-34677500D01*
G75*
G02*
X45587500Y-34530000I147500J0D01*
G01*
X45882500Y-34530000D01*
G75*
G02*
X46030000Y-34677500I0J-147500D01*
G01*
G37*
%TD.AperFunction*%
%TD*%
%TO.P,R5,1*%
%TO.N,+3V3*%
%TA.AperFunction,SMDPad,CuDef*%
G36*
G01*
X42485000Y-35022500D02*
X42485000Y-34677500D01*
G75*
G02*
X42632500Y-34530000I147500J0D01*
G01*
X42927500Y-34530000D01*
G75*
G02*
X43075000Y-34677500I0J-147500D01*
G01*
X43075000Y-35022500D01*
G75*
G02*
X42927500Y-35170000I-147500J0D01*
G01*
X42632500Y-35170000D01*
G75*
G02*
X42485000Y-35022500I0J147500D01*
G01*
G37*
%TD.AperFunction*%
%TO.P,R5,2*%
%TO.N,I2C1_SDA*%
%TA.AperFunction,SMDPad,CuDef*%
G36*
G01*
X43455000Y-35022500D02*
X43455000Y-34677500D01*
G75*
G02*
X43602500Y-34530000I147500J0D01*
G01*
X43897500Y-34530000D01*
G75*
G02*
X44045000Y-34677500I0J-147500D01*
G01*
X44045000Y-35022500D01*
G75*
G02*
X43897500Y-35170000I-147500J0D01*
G01*
X43602500Y-35170000D01*
G75*
G02*
X43455000Y-35022500I0J147500D01*
G01*
G37*
%TD.AperFunction*%
%TD*%
%TO.P,R6,1*%
%TO.N,HSE_OUT*%
%TA.AperFunction,SMDPad,CuDef*%
G36*
G01*
X37895000Y-43827500D02*
X37895000Y-44172500D01*
G75*
G02*
X37747500Y-44320000I-147500J0D01*
G01*
X37452500Y-44320000D01*
G75*
G02*
X37305000Y-44172500I0J147500D01*
G01*
X37305000Y-43827500D01*
G75*
G02*
X37452500Y-43680000I147500J0D01*
G01*
X37747500Y-43680000D01*
G75*
G02*
X37895000Y-43827500I0J-147500D01*
G01*
G37*
%TD.AperFunction*%
%TO.P,R6,2*%
%TO.N,Net-(C18-Pad1)*%
%TA.AperFunction,SMDPad,CuDef*%
G36*
G01*
X36925000Y-43827500D02*
X36925000Y-44172500D01*
G75*
G02*
X36777500Y-44320000I-147500J0D01*
G01*
X36482500Y-44320000D01*
G75*
G02*
X36335000Y-44172500I0J147500D01*
G01*
X36335000Y-43827500D01*
G75*
G02*
X36482500Y-43680000I147500J0D01*
G01*
X36777500Y-43680000D01*
G75*
G02*
X36925000Y-43827500I0J-147500D01*
G01*
G37*
%TD.AperFunction*%
%TD*%
%TO.P,R7,2*%
%TO.N,GND*%
%TA.AperFunction,SMDPad,CuDef*%
G36*
G01*
X53837500Y-50293750D02*
X53837500Y-50806250D01*
G75*
G02*
X53618750Y-51025000I-218750J0D01*
G01*
X53181250Y-51025000D01*
G75*
G02*
X52962500Y-50806250I0J218750D01*
G01*
X52962500Y-50293750D01*
G75*
G02*
X53181250Y-50075000I218750J0D01*
G01*
X53618750Y-50075000D01*
G75*
G02*
X53837500Y-50293750I0J-218750D01*
G01*
G37*
%TD.AperFunction*%
%TO.P,R7,1*%
%TO.N,Net-(D3-Pad1)*%
%TA.AperFunction,SMDPad,CuDef*%
G36*
G01*
X55412500Y-50293750D02*
X55412500Y-50806250D01*
G75*
G02*
X55193750Y-51025000I-218750J0D01*
G01*
X54756250Y-51025000D01*
G75*
G02*
X54537500Y-50806250I0J218750D01*
G01*
X54537500Y-50293750D01*
G75*
G02*
X54756250Y-50075000I218750J0D01*
G01*
X55193750Y-50075000D01*
G75*
G02*
X55412500Y-50293750I0J-218750D01*
G01*
G37*
%TD.AperFunction*%
%TD*%
D18*
%TO.P,U1,2*%
%TO.N,+3V3*%
X25225001Y-37550000D03*
D19*
X25225001Y-43850000D03*
%TO.P,U1,3*%
%TO.N,Net-(C1-Pad1)*%
X27525001Y-43850000D03*
%TO.P,U1,1*%
%TO.N,GND*%
X22925001Y-43850000D03*
%TD*%
%TO.P,U2,1*%
%TO.N,+3V3*%
%TA.AperFunction,SMDPad,CuDef*%
G36*
G01*
X38550000Y-41325000D02*
X38550000Y-41175000D01*
G75*
G02*
X38625000Y-41100000I75000J0D01*
G01*
X40025000Y-41100000D01*
G75*
G02*
X40100000Y-41175000I0J-75000D01*
G01*
X40100000Y-41325000D01*
G75*
G02*
X40025000Y-41400000I-75000J0D01*
G01*
X38625000Y-41400000D01*
G75*
G02*
X38550000Y-41325000I0J75000D01*
G01*
G37*
%TD.AperFunction*%
%TO.P,U2,2*%
%TO.N,Net-(U2-Pad2)*%
%TA.AperFunction,SMDPad,CuDef*%
G36*
G01*
X38550000Y-41825000D02*
X38550000Y-41675000D01*
G75*
G02*
X38625000Y-41600000I75000J0D01*
G01*
X40025000Y-41600000D01*
G75*
G02*
X40100000Y-41675000I0J-75000D01*
G01*
X40100000Y-41825000D01*
G75*
G02*
X40025000Y-41900000I-75000J0D01*
G01*
X38625000Y-41900000D01*
G75*
G02*
X38550000Y-41825000I0J75000D01*
G01*
G37*
%TD.AperFunction*%
%TO.P,U2,3*%
%TO.N,Net-(U2-Pad3)*%
%TA.AperFunction,SMDPad,CuDef*%
G36*
G01*
X38550000Y-42325000D02*
X38550000Y-42175000D01*
G75*
G02*
X38625000Y-42100000I75000J0D01*
G01*
X40025000Y-42100000D01*
G75*
G02*
X40100000Y-42175000I0J-75000D01*
G01*
X40100000Y-42325000D01*
G75*
G02*
X40025000Y-42400000I-75000J0D01*
G01*
X38625000Y-42400000D01*
G75*
G02*
X38550000Y-42325000I0J75000D01*
G01*
G37*
%TD.AperFunction*%
%TO.P,U2,4*%
%TO.N,Net-(U2-Pad4)*%
%TA.AperFunction,SMDPad,CuDef*%
G36*
G01*
X38550000Y-42825000D02*
X38550000Y-42675000D01*
G75*
G02*
X38625000Y-42600000I75000J0D01*
G01*
X40025000Y-42600000D01*
G75*
G02*
X40100000Y-42675000I0J-75000D01*
G01*
X40100000Y-42825000D01*
G75*
G02*
X40025000Y-42900000I-75000J0D01*
G01*
X38625000Y-42900000D01*
G75*
G02*
X38550000Y-42825000I0J75000D01*
G01*
G37*
%TD.AperFunction*%
%TO.P,U2,5*%
%TO.N,HSE_IN*%
%TA.AperFunction,SMDPad,CuDef*%
G36*
G01*
X38550000Y-43325000D02*
X38550000Y-43175000D01*
G75*
G02*
X38625000Y-43100000I75000J0D01*
G01*
X40025000Y-43100000D01*
G75*
G02*
X40100000Y-43175000I0J-75000D01*
G01*
X40100000Y-43325000D01*
G75*
G02*
X40025000Y-43400000I-75000J0D01*
G01*
X38625000Y-43400000D01*
G75*
G02*
X38550000Y-43325000I0J75000D01*
G01*
G37*
%TD.AperFunction*%
%TO.P,U2,6*%
%TO.N,HSE_OUT*%
%TA.AperFunction,SMDPad,CuDef*%
G36*
G01*
X38550000Y-43825000D02*
X38550000Y-43675000D01*
G75*
G02*
X38625000Y-43600000I75000J0D01*
G01*
X40025000Y-43600000D01*
G75*
G02*
X40100000Y-43675000I0J-75000D01*
G01*
X40100000Y-43825000D01*
G75*
G02*
X40025000Y-43900000I-75000J0D01*
G01*
X38625000Y-43900000D01*
G75*
G02*
X38550000Y-43825000I0J75000D01*
G01*
G37*
%TD.AperFunction*%
%TO.P,U2,7*%
%TO.N,NRST*%
%TA.AperFunction,SMDPad,CuDef*%
G36*
G01*
X38550000Y-44325000D02*
X38550000Y-44175000D01*
G75*
G02*
X38625000Y-44100000I75000J0D01*
G01*
X40025000Y-44100000D01*
G75*
G02*
X40100000Y-44175000I0J-75000D01*
G01*
X40100000Y-44325000D01*
G75*
G02*
X40025000Y-44400000I-75000J0D01*
G01*
X38625000Y-44400000D01*
G75*
G02*
X38550000Y-44325000I0J75000D01*
G01*
G37*
%TD.AperFunction*%
%TO.P,U2,8*%
%TO.N,Net-(U2-Pad8)*%
%TA.AperFunction,SMDPad,CuDef*%
G36*
G01*
X38550000Y-44825000D02*
X38550000Y-44675000D01*
G75*
G02*
X38625000Y-44600000I75000J0D01*
G01*
X40025000Y-44600000D01*
G75*
G02*
X40100000Y-44675000I0J-75000D01*
G01*
X40100000Y-44825000D01*
G75*
G02*
X40025000Y-44900000I-75000J0D01*
G01*
X38625000Y-44900000D01*
G75*
G02*
X38550000Y-44825000I0J75000D01*
G01*
G37*
%TD.AperFunction*%
%TO.P,U2,9*%
%TO.N,Net-(U2-Pad9)*%
%TA.AperFunction,SMDPad,CuDef*%
G36*
G01*
X38550000Y-45325000D02*
X38550000Y-45175000D01*
G75*
G02*
X38625000Y-45100000I75000J0D01*
G01*
X40025000Y-45100000D01*
G75*
G02*
X40100000Y-45175000I0J-75000D01*
G01*
X40100000Y-45325000D01*
G75*
G02*
X40025000Y-45400000I-75000J0D01*
G01*
X38625000Y-45400000D01*
G75*
G02*
X38550000Y-45325000I0J75000D01*
G01*
G37*
%TD.AperFunction*%
%TO.P,U2,10*%
%TO.N,Net-(U2-Pad10)*%
%TA.AperFunction,SMDPad,CuDef*%
G36*
G01*
X38550000Y-45825000D02*
X38550000Y-45675000D01*
G75*
G02*
X38625000Y-45600000I75000J0D01*
G01*
X40025000Y-45600000D01*
G75*
G02*
X40100000Y-45675000I0J-75000D01*
G01*
X40100000Y-45825000D01*
G75*
G02*
X40025000Y-45900000I-75000J0D01*
G01*
X38625000Y-45900000D01*
G75*
G02*
X38550000Y-45825000I0J75000D01*
G01*
G37*
%TD.AperFunction*%
%TO.P,U2,11*%
%TO.N,Net-(U2-Pad11)*%
%TA.AperFunction,SMDPad,CuDef*%
G36*
G01*
X38550000Y-46325000D02*
X38550000Y-46175000D01*
G75*
G02*
X38625000Y-46100000I75000J0D01*
G01*
X40025000Y-46100000D01*
G75*
G02*
X40100000Y-46175000I0J-75000D01*
G01*
X40100000Y-46325000D01*
G75*
G02*
X40025000Y-46400000I-75000J0D01*
G01*
X38625000Y-46400000D01*
G75*
G02*
X38550000Y-46325000I0J75000D01*
G01*
G37*
%TD.AperFunction*%
%TO.P,U2,12*%
%TO.N,GND*%
%TA.AperFunction,SMDPad,CuDef*%
G36*
G01*
X38550000Y-46825000D02*
X38550000Y-46675000D01*
G75*
G02*
X38625000Y-46600000I75000J0D01*
G01*
X40025000Y-46600000D01*
G75*
G02*
X40100000Y-46675000I0J-75000D01*
G01*
X40100000Y-46825000D01*
G75*
G02*
X40025000Y-46900000I-75000J0D01*
G01*
X38625000Y-46900000D01*
G75*
G02*
X38550000Y-46825000I0J75000D01*
G01*
G37*
%TD.AperFunction*%
%TO.P,U2,13*%
%TO.N,+3.3VA*%
%TA.AperFunction,SMDPad,CuDef*%
G36*
G01*
X38550000Y-47325000D02*
X38550000Y-47175000D01*
G75*
G02*
X38625000Y-47100000I75000J0D01*
G01*
X40025000Y-47100000D01*
G75*
G02*
X40100000Y-47175000I0J-75000D01*
G01*
X40100000Y-47325000D01*
G75*
G02*
X40025000Y-47400000I-75000J0D01*
G01*
X38625000Y-47400000D01*
G75*
G02*
X38550000Y-47325000I0J75000D01*
G01*
G37*
%TD.AperFunction*%
%TO.P,U2,14*%
%TO.N,Net-(U2-Pad14)*%
%TA.AperFunction,SMDPad,CuDef*%
G36*
G01*
X38550000Y-47825000D02*
X38550000Y-47675000D01*
G75*
G02*
X38625000Y-47600000I75000J0D01*
G01*
X40025000Y-47600000D01*
G75*
G02*
X40100000Y-47675000I0J-75000D01*
G01*
X40100000Y-47825000D01*
G75*
G02*
X40025000Y-47900000I-75000J0D01*
G01*
X38625000Y-47900000D01*
G75*
G02*
X38550000Y-47825000I0J75000D01*
G01*
G37*
%TD.AperFunction*%
%TO.P,U2,15*%
%TO.N,Net-(U2-Pad15)*%
%TA.AperFunction,SMDPad,CuDef*%
G36*
G01*
X38550000Y-48325000D02*
X38550000Y-48175000D01*
G75*
G02*
X38625000Y-48100000I75000J0D01*
G01*
X40025000Y-48100000D01*
G75*
G02*
X40100000Y-48175000I0J-75000D01*
G01*
X40100000Y-48325000D01*
G75*
G02*
X40025000Y-48400000I-75000J0D01*
G01*
X38625000Y-48400000D01*
G75*
G02*
X38550000Y-48325000I0J75000D01*
G01*
G37*
%TD.AperFunction*%
%TO.P,U2,16*%
%TO.N,Net-(U2-Pad16)*%
%TA.AperFunction,SMDPad,CuDef*%
G36*
G01*
X38550000Y-48825000D02*
X38550000Y-48675000D01*
G75*
G02*
X38625000Y-48600000I75000J0D01*
G01*
X40025000Y-48600000D01*
G75*
G02*
X40100000Y-48675000I0J-75000D01*
G01*
X40100000Y-48825000D01*
G75*
G02*
X40025000Y-48900000I-75000J0D01*
G01*
X38625000Y-48900000D01*
G75*
G02*
X38550000Y-48825000I0J75000D01*
G01*
G37*
%TD.AperFunction*%
%TO.P,U2,17*%
%TO.N,Net-(U2-Pad17)*%
%TA.AperFunction,SMDPad,CuDef*%
G36*
G01*
X41100000Y-51375000D02*
X41100000Y-49975000D01*
G75*
G02*
X41175000Y-49900000I75000J0D01*
G01*
X41325000Y-49900000D01*
G75*
G02*
X41400000Y-49975000I0J-75000D01*
G01*
X41400000Y-51375000D01*
G75*
G02*
X41325000Y-51450000I-75000J0D01*
G01*
X41175000Y-51450000D01*
G75*
G02*
X41100000Y-51375000I0J75000D01*
G01*
G37*
%TD.AperFunction*%
%TO.P,U2,18*%
%TO.N,GND*%
%TA.AperFunction,SMDPad,CuDef*%
G36*
G01*
X41600000Y-51375000D02*
X41600000Y-49975000D01*
G75*
G02*
X41675000Y-49900000I75000J0D01*
G01*
X41825000Y-49900000D01*
G75*
G02*
X41900000Y-49975000I0J-75000D01*
G01*
X41900000Y-51375000D01*
G75*
G02*
X41825000Y-51450000I-75000J0D01*
G01*
X41675000Y-51450000D01*
G75*
G02*
X41600000Y-51375000I0J75000D01*
G01*
G37*
%TD.AperFunction*%
%TO.P,U2,19*%
%TO.N,+3V3*%
%TA.AperFunction,SMDPad,CuDef*%
G36*
G01*
X42100000Y-51375000D02*
X42100000Y-49975000D01*
G75*
G02*
X42175000Y-49900000I75000J0D01*
G01*
X42325000Y-49900000D01*
G75*
G02*
X42400000Y-49975000I0J-75000D01*
G01*
X42400000Y-51375000D01*
G75*
G02*
X42325000Y-51450000I-75000J0D01*
G01*
X42175000Y-51450000D01*
G75*
G02*
X42100000Y-51375000I0J75000D01*
G01*
G37*
%TD.AperFunction*%
%TO.P,U2,20*%
%TO.N,SPI1_CS*%
%TA.AperFunction,SMDPad,CuDef*%
G36*
G01*
X42600000Y-51375000D02*
X42600000Y-49975000D01*
G75*
G02*
X42675000Y-49900000I75000J0D01*
G01*
X42825000Y-49900000D01*
G75*
G02*
X42900000Y-49975000I0J-75000D01*
G01*
X42900000Y-51375000D01*
G75*
G02*
X42825000Y-51450000I-75000J0D01*
G01*
X42675000Y-51450000D01*
G75*
G02*
X42600000Y-51375000I0J75000D01*
G01*
G37*
%TD.AperFunction*%
%TO.P,U2,21*%
%TO.N,SPI1_SCK*%
%TA.AperFunction,SMDPad,CuDef*%
G36*
G01*
X43100000Y-51375000D02*
X43100000Y-49975000D01*
G75*
G02*
X43175000Y-49900000I75000J0D01*
G01*
X43325000Y-49900000D01*
G75*
G02*
X43400000Y-49975000I0J-75000D01*
G01*
X43400000Y-51375000D01*
G75*
G02*
X43325000Y-51450000I-75000J0D01*
G01*
X43175000Y-51450000D01*
G75*
G02*
X43100000Y-51375000I0J75000D01*
G01*
G37*
%TD.AperFunction*%
%TO.P,U2,22*%
%TO.N,SPI1_MISO*%
%TA.AperFunction,SMDPad,CuDef*%
G36*
G01*
X43600000Y-51375000D02*
X43600000Y-49975000D01*
G75*
G02*
X43675000Y-49900000I75000J0D01*
G01*
X43825000Y-49900000D01*
G75*
G02*
X43900000Y-49975000I0J-75000D01*
G01*
X43900000Y-51375000D01*
G75*
G02*
X43825000Y-51450000I-75000J0D01*
G01*
X43675000Y-51450000D01*
G75*
G02*
X43600000Y-51375000I0J75000D01*
G01*
G37*
%TD.AperFunction*%
%TO.P,U2,23*%
%TO.N,SPI1_MOSI*%
%TA.AperFunction,SMDPad,CuDef*%
G36*
G01*
X44100000Y-51375000D02*
X44100000Y-49975000D01*
G75*
G02*
X44175000Y-49900000I75000J0D01*
G01*
X44325000Y-49900000D01*
G75*
G02*
X44400000Y-49975000I0J-75000D01*
G01*
X44400000Y-51375000D01*
G75*
G02*
X44325000Y-51450000I-75000J0D01*
G01*
X44175000Y-51450000D01*
G75*
G02*
X44100000Y-51375000I0J75000D01*
G01*
G37*
%TD.AperFunction*%
%TO.P,U2,24*%
%TO.N,Net-(U2-Pad24)*%
%TA.AperFunction,SMDPad,CuDef*%
G36*
G01*
X44600000Y-51375000D02*
X44600000Y-49975000D01*
G75*
G02*
X44675000Y-49900000I75000J0D01*
G01*
X44825000Y-49900000D01*
G75*
G02*
X44900000Y-49975000I0J-75000D01*
G01*
X44900000Y-51375000D01*
G75*
G02*
X44825000Y-51450000I-75000J0D01*
G01*
X44675000Y-51450000D01*
G75*
G02*
X44600000Y-51375000I0J75000D01*
G01*
G37*
%TD.AperFunction*%
%TO.P,U2,25*%
%TO.N,Net-(U2-Pad25)*%
%TA.AperFunction,SMDPad,CuDef*%
G36*
G01*
X45100000Y-51375000D02*
X45100000Y-49975000D01*
G75*
G02*
X45175000Y-49900000I75000J0D01*
G01*
X45325000Y-49900000D01*
G75*
G02*
X45400000Y-49975000I0J-75000D01*
G01*
X45400000Y-51375000D01*
G75*
G02*
X45325000Y-51450000I-75000J0D01*
G01*
X45175000Y-51450000D01*
G75*
G02*
X45100000Y-51375000I0J75000D01*
G01*
G37*
%TD.AperFunction*%
%TO.P,U2,26*%
%TO.N,Net-(U2-Pad26)*%
%TA.AperFunction,SMDPad,CuDef*%
G36*
G01*
X45600000Y-51375000D02*
X45600000Y-49975000D01*
G75*
G02*
X45675000Y-49900000I75000J0D01*
G01*
X45825000Y-49900000D01*
G75*
G02*
X45900000Y-49975000I0J-75000D01*
G01*
X45900000Y-51375000D01*
G75*
G02*
X45825000Y-51450000I-75000J0D01*
G01*
X45675000Y-51450000D01*
G75*
G02*
X45600000Y-51375000I0J75000D01*
G01*
G37*
%TD.AperFunction*%
%TO.P,U2,27*%
%TO.N,Net-(U2-Pad27)*%
%TA.AperFunction,SMDPad,CuDef*%
G36*
G01*
X46100000Y-51375000D02*
X46100000Y-49975000D01*
G75*
G02*
X46175000Y-49900000I75000J0D01*
G01*
X46325000Y-49900000D01*
G75*
G02*
X46400000Y-49975000I0J-75000D01*
G01*
X46400000Y-51375000D01*
G75*
G02*
X46325000Y-51450000I-75000J0D01*
G01*
X46175000Y-51450000D01*
G75*
G02*
X46100000Y-51375000I0J75000D01*
G01*
G37*
%TD.AperFunction*%
%TO.P,U2,28*%
%TO.N,BOOT1*%
%TA.AperFunction,SMDPad,CuDef*%
G36*
G01*
X46600000Y-51375000D02*
X46600000Y-49975000D01*
G75*
G02*
X46675000Y-49900000I75000J0D01*
G01*
X46825000Y-49900000D01*
G75*
G02*
X46900000Y-49975000I0J-75000D01*
G01*
X46900000Y-51375000D01*
G75*
G02*
X46825000Y-51450000I-75000J0D01*
G01*
X46675000Y-51450000D01*
G75*
G02*
X46600000Y-51375000I0J75000D01*
G01*
G37*
%TD.AperFunction*%
%TO.P,U2,29*%
%TO.N,Net-(U2-Pad29)*%
%TA.AperFunction,SMDPad,CuDef*%
G36*
G01*
X47100000Y-51375000D02*
X47100000Y-49975000D01*
G75*
G02*
X47175000Y-49900000I75000J0D01*
G01*
X47325000Y-49900000D01*
G75*
G02*
X47400000Y-49975000I0J-75000D01*
G01*
X47400000Y-51375000D01*
G75*
G02*
X47325000Y-51450000I-75000J0D01*
G01*
X47175000Y-51450000D01*
G75*
G02*
X47100000Y-51375000I0J75000D01*
G01*
G37*
%TD.AperFunction*%
%TO.P,U2,30*%
%TO.N,Net-(U2-Pad30)*%
%TA.AperFunction,SMDPad,CuDef*%
G36*
G01*
X47600000Y-51375000D02*
X47600000Y-49975000D01*
G75*
G02*
X47675000Y-49900000I75000J0D01*
G01*
X47825000Y-49900000D01*
G75*
G02*
X47900000Y-49975000I0J-75000D01*
G01*
X47900000Y-51375000D01*
G75*
G02*
X47825000Y-51450000I-75000J0D01*
G01*
X47675000Y-51450000D01*
G75*
G02*
X47600000Y-51375000I0J75000D01*
G01*
G37*
%TD.AperFunction*%
%TO.P,U2,31*%
%TO.N,Net-(C15-Pad1)*%
%TA.AperFunction,SMDPad,CuDef*%
G36*
G01*
X48100000Y-51375000D02*
X48100000Y-49975000D01*
G75*
G02*
X48175000Y-49900000I75000J0D01*
G01*
X48325000Y-49900000D01*
G75*
G02*
X48400000Y-49975000I0J-75000D01*
G01*
X48400000Y-51375000D01*
G75*
G02*
X48325000Y-51450000I-75000J0D01*
G01*
X48175000Y-51450000D01*
G75*
G02*
X48100000Y-51375000I0J75000D01*
G01*
G37*
%TD.AperFunction*%
%TO.P,U2,32*%
%TO.N,+3V3*%
%TA.AperFunction,SMDPad,CuDef*%
G36*
G01*
X48600000Y-51375000D02*
X48600000Y-49975000D01*
G75*
G02*
X48675000Y-49900000I75000J0D01*
G01*
X48825000Y-49900000D01*
G75*
G02*
X48900000Y-49975000I0J-75000D01*
G01*
X48900000Y-51375000D01*
G75*
G02*
X48825000Y-51450000I-75000J0D01*
G01*
X48675000Y-51450000D01*
G75*
G02*
X48600000Y-51375000I0J75000D01*
G01*
G37*
%TD.AperFunction*%
%TO.P,U2,33*%
%TO.N,Net-(D3-Pad2)*%
%TA.AperFunction,SMDPad,CuDef*%
G36*
G01*
X49900000Y-48825000D02*
X49900000Y-48675000D01*
G75*
G02*
X49975000Y-48600000I75000J0D01*
G01*
X51375000Y-48600000D01*
G75*
G02*
X51450000Y-48675000I0J-75000D01*
G01*
X51450000Y-48825000D01*
G75*
G02*
X51375000Y-48900000I-75000J0D01*
G01*
X49975000Y-48900000D01*
G75*
G02*
X49900000Y-48825000I0J75000D01*
G01*
G37*
%TD.AperFunction*%
%TO.P,U2,34*%
%TO.N,Net-(U2-Pad34)*%
%TA.AperFunction,SMDPad,CuDef*%
G36*
G01*
X49900000Y-48325000D02*
X49900000Y-48175000D01*
G75*
G02*
X49975000Y-48100000I75000J0D01*
G01*
X51375000Y-48100000D01*
G75*
G02*
X51450000Y-48175000I0J-75000D01*
G01*
X51450000Y-48325000D01*
G75*
G02*
X51375000Y-48400000I-75000J0D01*
G01*
X49975000Y-48400000D01*
G75*
G02*
X49900000Y-48325000I0J75000D01*
G01*
G37*
%TD.AperFunction*%
%TO.P,U2,35*%
%TO.N,Net-(U2-Pad35)*%
%TA.AperFunction,SMDPad,CuDef*%
G36*
G01*
X49900000Y-47825000D02*
X49900000Y-47675000D01*
G75*
G02*
X49975000Y-47600000I75000J0D01*
G01*
X51375000Y-47600000D01*
G75*
G02*
X51450000Y-47675000I0J-75000D01*
G01*
X51450000Y-47825000D01*
G75*
G02*
X51375000Y-47900000I-75000J0D01*
G01*
X49975000Y-47900000D01*
G75*
G02*
X49900000Y-47825000I0J75000D01*
G01*
G37*
%TD.AperFunction*%
%TO.P,U2,36*%
%TO.N,Net-(U2-Pad36)*%
%TA.AperFunction,SMDPad,CuDef*%
G36*
G01*
X49900000Y-47325000D02*
X49900000Y-47175000D01*
G75*
G02*
X49975000Y-47100000I75000J0D01*
G01*
X51375000Y-47100000D01*
G75*
G02*
X51450000Y-47175000I0J-75000D01*
G01*
X51450000Y-47325000D01*
G75*
G02*
X51375000Y-47400000I-75000J0D01*
G01*
X49975000Y-47400000D01*
G75*
G02*
X49900000Y-47325000I0J75000D01*
G01*
G37*
%TD.AperFunction*%
%TO.P,U2,37*%
%TO.N,Net-(U2-Pad37)*%
%TA.AperFunction,SMDPad,CuDef*%
G36*
G01*
X49900000Y-46825000D02*
X49900000Y-46675000D01*
G75*
G02*
X49975000Y-46600000I75000J0D01*
G01*
X51375000Y-46600000D01*
G75*
G02*
X51450000Y-46675000I0J-75000D01*
G01*
X51450000Y-46825000D01*
G75*
G02*
X51375000Y-46900000I-75000J0D01*
G01*
X49975000Y-46900000D01*
G75*
G02*
X49900000Y-46825000I0J75000D01*
G01*
G37*
%TD.AperFunction*%
%TO.P,U2,38*%
%TO.N,Net-(U2-Pad38)*%
%TA.AperFunction,SMDPad,CuDef*%
G36*
G01*
X49900000Y-46325000D02*
X49900000Y-46175000D01*
G75*
G02*
X49975000Y-46100000I75000J0D01*
G01*
X51375000Y-46100000D01*
G75*
G02*
X51450000Y-46175000I0J-75000D01*
G01*
X51450000Y-46325000D01*
G75*
G02*
X51375000Y-46400000I-75000J0D01*
G01*
X49975000Y-46400000D01*
G75*
G02*
X49900000Y-46325000I0J75000D01*
G01*
G37*
%TD.AperFunction*%
%TO.P,U2,39*%
%TO.N,Net-(U2-Pad39)*%
%TA.AperFunction,SMDPad,CuDef*%
G36*
G01*
X49900000Y-45825000D02*
X49900000Y-45675000D01*
G75*
G02*
X49975000Y-45600000I75000J0D01*
G01*
X51375000Y-45600000D01*
G75*
G02*
X51450000Y-45675000I0J-75000D01*
G01*
X51450000Y-45825000D01*
G75*
G02*
X51375000Y-45900000I-75000J0D01*
G01*
X49975000Y-45900000D01*
G75*
G02*
X49900000Y-45825000I0J75000D01*
G01*
G37*
%TD.AperFunction*%
%TO.P,U2,40*%
%TO.N,Net-(U2-Pad40)*%
%TA.AperFunction,SMDPad,CuDef*%
G36*
G01*
X49900000Y-45325000D02*
X49900000Y-45175000D01*
G75*
G02*
X49975000Y-45100000I75000J0D01*
G01*
X51375000Y-45100000D01*
G75*
G02*
X51450000Y-45175000I0J-75000D01*
G01*
X51450000Y-45325000D01*
G75*
G02*
X51375000Y-45400000I-75000J0D01*
G01*
X49975000Y-45400000D01*
G75*
G02*
X49900000Y-45325000I0J75000D01*
G01*
G37*
%TD.AperFunction*%
%TO.P,U2,41*%
%TO.N,Net-(U2-Pad41)*%
%TA.AperFunction,SMDPad,CuDef*%
G36*
G01*
X49900000Y-44825000D02*
X49900000Y-44675000D01*
G75*
G02*
X49975000Y-44600000I75000J0D01*
G01*
X51375000Y-44600000D01*
G75*
G02*
X51450000Y-44675000I0J-75000D01*
G01*
X51450000Y-44825000D01*
G75*
G02*
X51375000Y-44900000I-75000J0D01*
G01*
X49975000Y-44900000D01*
G75*
G02*
X49900000Y-44825000I0J75000D01*
G01*
G37*
%TD.AperFunction*%
%TO.P,U2,42*%
%TO.N,USART1_TX*%
%TA.AperFunction,SMDPad,CuDef*%
G36*
G01*
X49900000Y-44325000D02*
X49900000Y-44175000D01*
G75*
G02*
X49975000Y-44100000I75000J0D01*
G01*
X51375000Y-44100000D01*
G75*
G02*
X51450000Y-44175000I0J-75000D01*
G01*
X51450000Y-44325000D01*
G75*
G02*
X51375000Y-44400000I-75000J0D01*
G01*
X49975000Y-44400000D01*
G75*
G02*
X49900000Y-44325000I0J75000D01*
G01*
G37*
%TD.AperFunction*%
%TO.P,U2,43*%
%TO.N,USART1_RX*%
%TA.AperFunction,SMDPad,CuDef*%
G36*
G01*
X49900000Y-43825000D02*
X49900000Y-43675000D01*
G75*
G02*
X49975000Y-43600000I75000J0D01*
G01*
X51375000Y-43600000D01*
G75*
G02*
X51450000Y-43675000I0J-75000D01*
G01*
X51450000Y-43825000D01*
G75*
G02*
X51375000Y-43900000I-75000J0D01*
G01*
X49975000Y-43900000D01*
G75*
G02*
X49900000Y-43825000I0J75000D01*
G01*
G37*
%TD.AperFunction*%
%TO.P,U2,44*%
%TO.N,Net-(U2-Pad44)*%
%TA.AperFunction,SMDPad,CuDef*%
G36*
G01*
X49900000Y-43325000D02*
X49900000Y-43175000D01*
G75*
G02*
X49975000Y-43100000I75000J0D01*
G01*
X51375000Y-43100000D01*
G75*
G02*
X51450000Y-43175000I0J-75000D01*
G01*
X51450000Y-43325000D01*
G75*
G02*
X51375000Y-43400000I-75000J0D01*
G01*
X49975000Y-43400000D01*
G75*
G02*
X49900000Y-43325000I0J75000D01*
G01*
G37*
%TD.AperFunction*%
%TO.P,U2,45*%
%TO.N,Net-(U2-Pad45)*%
%TA.AperFunction,SMDPad,CuDef*%
G36*
G01*
X49900000Y-42825000D02*
X49900000Y-42675000D01*
G75*
G02*
X49975000Y-42600000I75000J0D01*
G01*
X51375000Y-42600000D01*
G75*
G02*
X51450000Y-42675000I0J-75000D01*
G01*
X51450000Y-42825000D01*
G75*
G02*
X51375000Y-42900000I-75000J0D01*
G01*
X49975000Y-42900000D01*
G75*
G02*
X49900000Y-42825000I0J75000D01*
G01*
G37*
%TD.AperFunction*%
%TO.P,U2,46*%
%TO.N,SWDIO*%
%TA.AperFunction,SMDPad,CuDef*%
G36*
G01*
X49900000Y-42325000D02*
X49900000Y-42175000D01*
G75*
G02*
X49975000Y-42100000I75000J0D01*
G01*
X51375000Y-42100000D01*
G75*
G02*
X51450000Y-42175000I0J-75000D01*
G01*
X51450000Y-42325000D01*
G75*
G02*
X51375000Y-42400000I-75000J0D01*
G01*
X49975000Y-42400000D01*
G75*
G02*
X49900000Y-42325000I0J75000D01*
G01*
G37*
%TD.AperFunction*%
%TO.P,U2,47*%
%TO.N,Net-(C16-Pad1)*%
%TA.AperFunction,SMDPad,CuDef*%
G36*
G01*
X49900000Y-41825000D02*
X49900000Y-41675000D01*
G75*
G02*
X49975000Y-41600000I75000J0D01*
G01*
X51375000Y-41600000D01*
G75*
G02*
X51450000Y-41675000I0J-75000D01*
G01*
X51450000Y-41825000D01*
G75*
G02*
X51375000Y-41900000I-75000J0D01*
G01*
X49975000Y-41900000D01*
G75*
G02*
X49900000Y-41825000I0J75000D01*
G01*
G37*
%TD.AperFunction*%
%TO.P,U2,48*%
%TO.N,+3V3*%
%TA.AperFunction,SMDPad,CuDef*%
G36*
G01*
X49900000Y-41325000D02*
X49900000Y-41175000D01*
G75*
G02*
X49975000Y-41100000I75000J0D01*
G01*
X51375000Y-41100000D01*
G75*
G02*
X51450000Y-41175000I0J-75000D01*
G01*
X51450000Y-41325000D01*
G75*
G02*
X51375000Y-41400000I-75000J0D01*
G01*
X49975000Y-41400000D01*
G75*
G02*
X49900000Y-41325000I0J75000D01*
G01*
G37*
%TD.AperFunction*%
%TO.P,U2,49*%
%TO.N,SWCLK*%
%TA.AperFunction,SMDPad,CuDef*%
G36*
G01*
X48600000Y-40025000D02*
X48600000Y-38625000D01*
G75*
G02*
X48675000Y-38550000I75000J0D01*
G01*
X48825000Y-38550000D01*
G75*
G02*
X48900000Y-38625000I0J-75000D01*
G01*
X48900000Y-40025000D01*
G75*
G02*
X48825000Y-40100000I-75000J0D01*
G01*
X48675000Y-40100000D01*
G75*
G02*
X48600000Y-40025000I0J75000D01*
G01*
G37*
%TD.AperFunction*%
%TO.P,U2,50*%
%TO.N,Net-(U2-Pad50)*%
%TA.AperFunction,SMDPad,CuDef*%
G36*
G01*
X48100000Y-40025000D02*
X48100000Y-38625000D01*
G75*
G02*
X48175000Y-38550000I75000J0D01*
G01*
X48325000Y-38550000D01*
G75*
G02*
X48400000Y-38625000I0J-75000D01*
G01*
X48400000Y-40025000D01*
G75*
G02*
X48325000Y-40100000I-75000J0D01*
G01*
X48175000Y-40100000D01*
G75*
G02*
X48100000Y-40025000I0J75000D01*
G01*
G37*
%TD.AperFunction*%
%TO.P,U2,51*%
%TO.N,Net-(U2-Pad51)*%
%TA.AperFunction,SMDPad,CuDef*%
G36*
G01*
X47600000Y-40025000D02*
X47600000Y-38625000D01*
G75*
G02*
X47675000Y-38550000I75000J0D01*
G01*
X47825000Y-38550000D01*
G75*
G02*
X47900000Y-38625000I0J-75000D01*
G01*
X47900000Y-40025000D01*
G75*
G02*
X47825000Y-40100000I-75000J0D01*
G01*
X47675000Y-40100000D01*
G75*
G02*
X47600000Y-40025000I0J75000D01*
G01*
G37*
%TD.AperFunction*%
%TO.P,U2,52*%
%TO.N,Net-(U2-Pad52)*%
%TA.AperFunction,SMDPad,CuDef*%
G36*
G01*
X47100000Y-40025000D02*
X47100000Y-38625000D01*
G75*
G02*
X47175000Y-38550000I75000J0D01*
G01*
X47325000Y-38550000D01*
G75*
G02*
X47400000Y-38625000I0J-75000D01*
G01*
X47400000Y-40025000D01*
G75*
G02*
X47325000Y-40100000I-75000J0D01*
G01*
X47175000Y-40100000D01*
G75*
G02*
X47100000Y-40025000I0J75000D01*
G01*
G37*
%TD.AperFunction*%
%TO.P,U2,53*%
%TO.N,Net-(U2-Pad53)*%
%TA.AperFunction,SMDPad,CuDef*%
G36*
G01*
X46600000Y-40025000D02*
X46600000Y-38625000D01*
G75*
G02*
X46675000Y-38550000I75000J0D01*
G01*
X46825000Y-38550000D01*
G75*
G02*
X46900000Y-38625000I0J-75000D01*
G01*
X46900000Y-40025000D01*
G75*
G02*
X46825000Y-40100000I-75000J0D01*
G01*
X46675000Y-40100000D01*
G75*
G02*
X46600000Y-40025000I0J75000D01*
G01*
G37*
%TD.AperFunction*%
%TO.P,U2,54*%
%TO.N,Net-(U2-Pad54)*%
%TA.AperFunction,SMDPad,CuDef*%
G36*
G01*
X46100000Y-40025000D02*
X46100000Y-38625000D01*
G75*
G02*
X46175000Y-38550000I75000J0D01*
G01*
X46325000Y-38550000D01*
G75*
G02*
X46400000Y-38625000I0J-75000D01*
G01*
X46400000Y-40025000D01*
G75*
G02*
X46325000Y-40100000I-75000J0D01*
G01*
X46175000Y-40100000D01*
G75*
G02*
X46100000Y-40025000I0J75000D01*
G01*
G37*
%TD.AperFunction*%
%TO.P,U2,55*%
%TO.N,SWO*%
%TA.AperFunction,SMDPad,CuDef*%
G36*
G01*
X45600000Y-40025000D02*
X45600000Y-38625000D01*
G75*
G02*
X45675000Y-38550000I75000J0D01*
G01*
X45825000Y-38550000D01*
G75*
G02*
X45900000Y-38625000I0J-75000D01*
G01*
X45900000Y-40025000D01*
G75*
G02*
X45825000Y-40100000I-75000J0D01*
G01*
X45675000Y-40100000D01*
G75*
G02*
X45600000Y-40025000I0J75000D01*
G01*
G37*
%TD.AperFunction*%
%TO.P,U2,56*%
%TO.N,Net-(U2-Pad56)*%
%TA.AperFunction,SMDPad,CuDef*%
G36*
G01*
X45100000Y-40025000D02*
X45100000Y-38625000D01*
G75*
G02*
X45175000Y-38550000I75000J0D01*
G01*
X45325000Y-38550000D01*
G75*
G02*
X45400000Y-38625000I0J-75000D01*
G01*
X45400000Y-40025000D01*
G75*
G02*
X45325000Y-40100000I-75000J0D01*
G01*
X45175000Y-40100000D01*
G75*
G02*
X45100000Y-40025000I0J75000D01*
G01*
G37*
%TD.AperFunction*%
%TO.P,U2,57*%
%TO.N,Net-(U2-Pad57)*%
%TA.AperFunction,SMDPad,CuDef*%
G36*
G01*
X44600000Y-40025000D02*
X44600000Y-38625000D01*
G75*
G02*
X44675000Y-38550000I75000J0D01*
G01*
X44825000Y-38550000D01*
G75*
G02*
X44900000Y-38625000I0J-75000D01*
G01*
X44900000Y-40025000D01*
G75*
G02*
X44825000Y-40100000I-75000J0D01*
G01*
X44675000Y-40100000D01*
G75*
G02*
X44600000Y-40025000I0J75000D01*
G01*
G37*
%TD.AperFunction*%
%TO.P,U2,58*%
%TO.N,I2C1_SCL*%
%TA.AperFunction,SMDPad,CuDef*%
G36*
G01*
X44100000Y-40025000D02*
X44100000Y-38625000D01*
G75*
G02*
X44175000Y-38550000I75000J0D01*
G01*
X44325000Y-38550000D01*
G75*
G02*
X44400000Y-38625000I0J-75000D01*
G01*
X44400000Y-40025000D01*
G75*
G02*
X44325000Y-40100000I-75000J0D01*
G01*
X44175000Y-40100000D01*
G75*
G02*
X44100000Y-40025000I0J75000D01*
G01*
G37*
%TD.AperFunction*%
%TO.P,U2,59*%
%TO.N,I2C1_SDA*%
%TA.AperFunction,SMDPad,CuDef*%
G36*
G01*
X43600000Y-40025000D02*
X43600000Y-38625000D01*
G75*
G02*
X43675000Y-38550000I75000J0D01*
G01*
X43825000Y-38550000D01*
G75*
G02*
X43900000Y-38625000I0J-75000D01*
G01*
X43900000Y-40025000D01*
G75*
G02*
X43825000Y-40100000I-75000J0D01*
G01*
X43675000Y-40100000D01*
G75*
G02*
X43600000Y-40025000I0J75000D01*
G01*
G37*
%TD.AperFunction*%
%TO.P,U2,60*%
%TO.N,BOOT0*%
%TA.AperFunction,SMDPad,CuDef*%
G36*
G01*
X43100000Y-40025000D02*
X43100000Y-38625000D01*
G75*
G02*
X43175000Y-38550000I75000J0D01*
G01*
X43325000Y-38550000D01*
G75*
G02*
X43400000Y-38625000I0J-75000D01*
G01*
X43400000Y-40025000D01*
G75*
G02*
X43325000Y-40100000I-75000J0D01*
G01*
X43175000Y-40100000D01*
G75*
G02*
X43100000Y-40025000I0J75000D01*
G01*
G37*
%TD.AperFunction*%
%TO.P,U2,61*%
%TO.N,Net-(U2-Pad61)*%
%TA.AperFunction,SMDPad,CuDef*%
G36*
G01*
X42600000Y-40025000D02*
X42600000Y-38625000D01*
G75*
G02*
X42675000Y-38550000I75000J0D01*
G01*
X42825000Y-38550000D01*
G75*
G02*
X42900000Y-38625000I0J-75000D01*
G01*
X42900000Y-40025000D01*
G75*
G02*
X42825000Y-40100000I-75000J0D01*
G01*
X42675000Y-40100000D01*
G75*
G02*
X42600000Y-40025000I0J75000D01*
G01*
G37*
%TD.AperFunction*%
%TO.P,U2,62*%
%TO.N,Net-(U2-Pad62)*%
%TA.AperFunction,SMDPad,CuDef*%
G36*
G01*
X42100000Y-40025000D02*
X42100000Y-38625000D01*
G75*
G02*
X42175000Y-38550000I75000J0D01*
G01*
X42325000Y-38550000D01*
G75*
G02*
X42400000Y-38625000I0J-75000D01*
G01*
X42400000Y-40025000D01*
G75*
G02*
X42325000Y-40100000I-75000J0D01*
G01*
X42175000Y-40100000D01*
G75*
G02*
X42100000Y-40025000I0J75000D01*
G01*
G37*
%TD.AperFunction*%
%TO.P,U2,63*%
%TO.N,GND*%
%TA.AperFunction,SMDPad,CuDef*%
G36*
G01*
X41600000Y-40025000D02*
X41600000Y-38625000D01*
G75*
G02*
X41675000Y-38550000I75000J0D01*
G01*
X41825000Y-38550000D01*
G75*
G02*
X41900000Y-38625000I0J-75000D01*
G01*
X41900000Y-40025000D01*
G75*
G02*
X41825000Y-40100000I-75000J0D01*
G01*
X41675000Y-40100000D01*
G75*
G02*
X41600000Y-40025000I0J75000D01*
G01*
G37*
%TD.AperFunction*%
%TO.P,U2,64*%
%TO.N,+3V3*%
%TA.AperFunction,SMDPad,CuDef*%
G36*
G01*
X41100000Y-40025000D02*
X41100000Y-38625000D01*
G75*
G02*
X41175000Y-38550000I75000J0D01*
G01*
X41325000Y-38550000D01*
G75*
G02*
X41400000Y-38625000I0J-75000D01*
G01*
X41400000Y-40025000D01*
G75*
G02*
X41325000Y-40100000I-75000J0D01*
G01*
X41175000Y-40100000D01*
G75*
G02*
X41100000Y-40025000I0J75000D01*
G01*
G37*
%TD.AperFunction*%
%TD*%
D20*
%TO.N,GND*%
X35600000Y-40600000D03*
X32800000Y-46000000D03*
D21*
X21500000Y-46250000D03*
X21500000Y-48250000D03*
X23250000Y-48250000D03*
X21500000Y-50250000D03*
X23250000Y-50250000D03*
D20*
X42000000Y-35600000D03*
X37900000Y-36700000D03*
X53200000Y-38900000D03*
X54100000Y-38900000D03*
X55400000Y-41300000D03*
X53400000Y-51800000D03*
X51800000Y-50900000D03*
X51800000Y-52000000D03*
X48200000Y-55400000D03*
X46700000Y-54400000D03*
X40000000Y-53500000D03*
X40000000Y-52400000D03*
X37875000Y-45600000D03*
X36850000Y-45600000D03*
D21*
X30000000Y-40650000D03*
X30000000Y-39425000D03*
D20*
X31750000Y-34100000D03*
X48200000Y-56325000D03*
X38475000Y-40225000D03*
X41700000Y-34250000D03*
X37900000Y-35700000D03*
X50000000Y-22500000D03*
X55000000Y-22500000D03*
X60000000Y-22500000D03*
X60000000Y-25000000D03*
X55000000Y-25000000D03*
X50000000Y-25000000D03*
X50000000Y-27500000D03*
X55000000Y-27500000D03*
X60000000Y-27500000D03*
X60000000Y-30000000D03*
X55000000Y-30000000D03*
X50000000Y-30000000D03*
X40000000Y-27500000D03*
X40000000Y-25000000D03*
X40000000Y-22500000D03*
X35000000Y-32500000D03*
X40000000Y-32500000D03*
X35000000Y-35000000D03*
X35000000Y-37500000D03*
X32500000Y-37500000D03*
X22500000Y-35000000D03*
X30000000Y-32500000D03*
X50000000Y-32500000D03*
X50000000Y-35000000D03*
X55000000Y-35000000D03*
X55000000Y-32500000D03*
X60000000Y-32500000D03*
X40000000Y-30000000D03*
X55000000Y-52500000D03*
X55000000Y-60000000D03*
X55000000Y-62500000D03*
X55000000Y-65000000D03*
X55000000Y-67500000D03*
X60000000Y-60000000D03*
X60000000Y-62500000D03*
X60000000Y-65000000D03*
X60000000Y-67500000D03*
X50000000Y-67500000D03*
X50000000Y-65000000D03*
X50000000Y-62500000D03*
X50000000Y-60000000D03*
X60000000Y-52500000D03*
X60000000Y-47500000D03*
X65000000Y-52500000D03*
X65000000Y-55000000D03*
X65000000Y-57500000D03*
X60000000Y-50000000D03*
X37500000Y-60000000D03*
X32500000Y-60000000D03*
X32500000Y-57500000D03*
X37500000Y-57500000D03*
X37500000Y-55000000D03*
X32500000Y-55000000D03*
X32500000Y-65000000D03*
X32500000Y-62500000D03*
X37500000Y-62500000D03*
X37500000Y-65000000D03*
X32500000Y-67500000D03*
X32500000Y-52500000D03*
X37500000Y-52500000D03*
X35000000Y-30000000D03*
X30000000Y-30000000D03*
X25000000Y-30000000D03*
X22500000Y-30000000D03*
D21*
%TO.N,+3V3*%
X27000000Y-39500000D03*
X23500000Y-39500000D03*
X27000000Y-41250000D03*
X23500000Y-41250000D03*
X22250000Y-37500000D03*
X28250000Y-37500000D03*
D20*
X41975000Y-54500000D03*
X40250000Y-35750000D03*
X41100000Y-35100000D03*
X37900000Y-38300000D03*
X41975000Y-55450000D03*
X49800000Y-53000000D03*
X49800000Y-53925000D03*
X33425000Y-49200000D03*
X33425000Y-50700000D03*
X34625000Y-50700000D03*
X42775000Y-33900000D03*
X45725000Y-33900000D03*
X53200000Y-39900000D03*
X54100000Y-39900000D03*
X36950000Y-38300000D03*
X37550000Y-42150000D03*
X60575000Y-34325000D03*
D21*
%TO.N,NRST*%
X42050000Y-44250000D03*
X66300000Y-40650000D03*
%TD*%
D22*
%TO.N,Net-(C1-Pad1)*%
X27530000Y-43854999D02*
X27525001Y-43850000D01*
X27530000Y-46040000D02*
X27530000Y-43854999D01*
X27537501Y-43837500D02*
X27525001Y-43850000D01*
X30000000Y-43837500D02*
X27537501Y-43837500D01*
D23*
%TO.N,GND*%
X34685000Y-40600000D02*
X35600000Y-40600000D01*
X35600000Y-40600000D02*
X35600000Y-40600000D01*
X33715000Y-46000000D02*
X32800000Y-46000000D01*
X33350000Y-45635000D02*
X33715000Y-46000000D01*
X33350000Y-44400000D02*
X33350000Y-45635000D01*
X35050000Y-40965000D02*
X34685000Y-40600000D01*
X35050000Y-42200000D02*
X35050000Y-40965000D01*
D24*
X41750000Y-37835000D02*
X41985000Y-37600000D01*
X41750000Y-39325000D02*
X41750000Y-37835000D01*
X37835000Y-46750000D02*
X37600000Y-46515000D01*
X39325000Y-46750000D02*
X37835000Y-46750000D01*
X41165000Y-52346414D02*
X41165000Y-52400000D01*
D23*
X37600000Y-46515000D02*
X36500000Y-46515000D01*
X41165000Y-52400000D02*
X41165000Y-53500000D01*
X52085000Y-38915000D02*
X52100000Y-38930000D01*
X50900000Y-38915000D02*
X52085000Y-38915000D01*
X41985000Y-37600000D02*
X41985000Y-36500000D01*
X50770000Y-50900000D02*
X50770000Y-52000000D01*
D22*
X22925001Y-46050001D02*
X23125000Y-46250000D01*
X22925001Y-43850000D02*
X22925001Y-46050001D01*
D24*
X41015000Y-52346414D02*
X41015000Y-52400000D01*
X41750000Y-50675000D02*
X41750000Y-51611414D01*
X41750000Y-51611414D02*
X41015000Y-52346414D01*
D23*
X41985000Y-35615000D02*
X42000000Y-35600000D01*
X41985000Y-36500000D02*
X41985000Y-35615000D01*
X37912500Y-36712500D02*
X37900000Y-36700000D01*
X39100000Y-36712500D02*
X37912500Y-36712500D01*
X55400000Y-41300000D02*
X54175000Y-41300000D01*
X53400000Y-51800000D02*
X53400000Y-50550000D01*
X51800000Y-50900000D02*
X50770000Y-50900000D01*
X51800000Y-52000000D02*
X50770000Y-52000000D01*
X41015000Y-52400000D02*
X40000000Y-52400000D01*
X41015000Y-53500000D02*
X40000000Y-53500000D01*
X46700000Y-53520000D02*
X46750000Y-53470000D01*
X46700000Y-54400000D02*
X46700000Y-53520000D01*
X48200000Y-55400000D02*
X48200000Y-54187500D01*
X36500000Y-45950000D02*
X36850000Y-45600000D01*
X36500000Y-46515000D02*
X36500000Y-45950000D01*
X37600000Y-45875000D02*
X37875000Y-45600000D01*
X37600000Y-46515000D02*
X37600000Y-45875000D01*
X30000000Y-41962500D02*
X30000000Y-41700000D01*
X30000000Y-41962500D02*
X30000000Y-40650000D01*
X30000000Y-40650000D02*
X30000000Y-39425000D01*
X30587500Y-34100000D02*
X31750000Y-34100000D01*
X48200000Y-56325000D02*
X48200000Y-55400000D01*
X38470000Y-40230000D02*
X38475000Y-40225000D01*
X37500000Y-40230000D02*
X38470000Y-40230000D01*
X42015000Y-36530000D02*
X41985000Y-36500000D01*
X43000000Y-36530000D02*
X42015000Y-36530000D01*
X42000000Y-34550000D02*
X41700000Y-34250000D01*
X42000000Y-35600000D02*
X42000000Y-34550000D01*
X38912500Y-36712500D02*
X37900000Y-35700000D01*
X39100000Y-36712500D02*
X38912500Y-36712500D01*
X54100000Y-38900000D02*
X53200000Y-38900000D01*
X52130000Y-38900000D02*
X52100000Y-38930000D01*
X53200000Y-38900000D02*
X52130000Y-38900000D01*
D24*
%TO.N,+3V3*%
X41250000Y-37835000D02*
X41015000Y-37600000D01*
X41250000Y-39325000D02*
X41250000Y-37835000D01*
X37550000Y-41250000D02*
X37500000Y-41200000D01*
X39325000Y-41250000D02*
X37550000Y-41250000D01*
X42100000Y-52285000D02*
X41985000Y-52400000D01*
X49575000Y-50675000D02*
X49800000Y-50900000D01*
X48750000Y-50675000D02*
X49575000Y-50675000D01*
X50675000Y-40110000D02*
X50900000Y-39885000D01*
X50675000Y-41250000D02*
X50675000Y-40110000D01*
D23*
X41985000Y-52400000D02*
X41985000Y-53500000D01*
X49800000Y-50900000D02*
X49800000Y-52000000D01*
X52085000Y-39885000D02*
X52100000Y-39900000D01*
X50900000Y-39885000D02*
X52085000Y-39885000D01*
X41015000Y-37600000D02*
X41015000Y-36500000D01*
X39787500Y-37600000D02*
X39100000Y-38287500D01*
X41015000Y-37600000D02*
X39787500Y-37600000D01*
D22*
X25225001Y-43850000D02*
X25225001Y-37550000D01*
X25225001Y-34574999D02*
X25700000Y-34100000D01*
X25225001Y-37550000D02*
X25225001Y-34574999D01*
X25225001Y-46024999D02*
X25000000Y-46250000D01*
X25225001Y-43850000D02*
X25225001Y-46024999D01*
D24*
X42250000Y-52135000D02*
X41985000Y-52400000D01*
X42250000Y-50675000D02*
X42250000Y-52135000D01*
D22*
X25275001Y-37500000D02*
X25225001Y-37550000D01*
X28250000Y-37500000D02*
X25275001Y-37500000D01*
X25175001Y-37500000D02*
X25225001Y-37550000D01*
X22250000Y-37500000D02*
X25175001Y-37500000D01*
X23500000Y-39275001D02*
X25225001Y-37550000D01*
X23500000Y-39500000D02*
X23500000Y-39275001D01*
X27000000Y-39324999D02*
X25225001Y-37550000D01*
X27000000Y-39500000D02*
X27000000Y-39324999D01*
X25225001Y-42975001D02*
X23500000Y-41250000D01*
X25225001Y-43850000D02*
X25225001Y-42975001D01*
X25225001Y-43024999D02*
X27000000Y-41250000D01*
X25225001Y-43850000D02*
X25225001Y-43024999D01*
D23*
X41000000Y-36500000D02*
X40250000Y-35750000D01*
X41015000Y-36500000D02*
X41000000Y-36500000D01*
X41015000Y-35185000D02*
X41100000Y-35100000D01*
X41015000Y-36500000D02*
X41015000Y-35185000D01*
X37912500Y-38287500D02*
X37900000Y-38300000D01*
X39100000Y-38287500D02*
X37912500Y-38287500D01*
X41975000Y-55450000D02*
X41975000Y-54500000D01*
X41975000Y-53510000D02*
X41985000Y-53500000D01*
X41975000Y-54500000D02*
X41975000Y-53510000D01*
X49800000Y-53925000D02*
X49800000Y-53000000D01*
X49800000Y-53000000D02*
X49800000Y-52000000D01*
X33425000Y-49200000D02*
X34625000Y-49200000D01*
X33425000Y-50400000D02*
X34625000Y-49200000D01*
X33425000Y-50700000D02*
X33425000Y-50400000D01*
X34625000Y-50700000D02*
X34625000Y-49200000D01*
X45735000Y-33910000D02*
X45725000Y-33900000D01*
X45735000Y-34850000D02*
X45735000Y-33910000D01*
X42780000Y-33905000D02*
X42775000Y-33900000D01*
X42780000Y-34850000D02*
X42780000Y-33905000D01*
X54100000Y-39900000D02*
X53200000Y-39900000D01*
X53200000Y-39900000D02*
X52100000Y-39900000D01*
X37900000Y-38300000D02*
X36950000Y-38300000D01*
X37550000Y-42150000D02*
X37550000Y-41250000D01*
X60590000Y-34310000D02*
X60575000Y-34325000D01*
X62400000Y-34310000D02*
X60590000Y-34310000D01*
D24*
%TO.N,+3.3VA*%
X37835000Y-47250000D02*
X37600000Y-47485000D01*
X39325000Y-47250000D02*
X37835000Y-47250000D01*
D23*
X37600000Y-47485000D02*
X36500000Y-47485000D01*
X36500000Y-47485000D02*
X36500000Y-49200000D01*
D24*
%TO.N,Net-(C15-Pad1)*%
X48250000Y-52562500D02*
X48200000Y-52612500D01*
X48250000Y-50675000D02*
X48250000Y-52562500D01*
%TO.N,Net-(C16-Pad1)*%
X52150000Y-41750000D02*
X52600000Y-41300000D01*
X50675000Y-41750000D02*
X52150000Y-41750000D01*
D23*
%TO.N,HSE_IN*%
X33350000Y-40965000D02*
X33715000Y-40600000D01*
X33350000Y-42200000D02*
X33350000Y-40965000D01*
D24*
X33350000Y-42650000D02*
X33350000Y-42200000D01*
X39325000Y-43250000D02*
X33950000Y-43250000D01*
X33950000Y-43250000D02*
X33350000Y-42650000D01*
D23*
%TO.N,Net-(C18-Pad1)*%
X35050000Y-45635000D02*
X34685000Y-46000000D01*
X35050000Y-44400000D02*
X35050000Y-45635000D01*
X35450000Y-44000000D02*
X35050000Y-44400000D01*
X36630000Y-44000000D02*
X35450000Y-44000000D01*
D22*
%TO.N,Net-(D1-Pad1)*%
X28900000Y-50512500D02*
X28887500Y-50500000D01*
X28900000Y-53200000D02*
X28900000Y-50512500D01*
%TO.N,VCC*%
X22750000Y-56500000D02*
X28900000Y-56500000D01*
D23*
%TO.N,Net-(D2-Pad1)*%
X27275000Y-34100000D02*
X29012500Y-34100000D01*
D24*
%TO.N,Net-(D3-Pad2)*%
X50675000Y-48750000D02*
X53400000Y-48750000D01*
D23*
%TO.N,Net-(D3-Pad1)*%
X54975000Y-48750000D02*
X54975000Y-50550000D01*
D22*
%TO.N,Net-(F1-Pad2)*%
X27312500Y-48132500D02*
X27530000Y-47915000D01*
X27312500Y-50500000D02*
X27312500Y-48132500D01*
D24*
%TO.N,USART1_RX*%
X50675000Y-43750000D02*
X64300000Y-43750000D01*
X66000000Y-45450000D02*
X67250000Y-45450000D01*
X64300000Y-43750000D02*
X66000000Y-45450000D01*
%TO.N,USART1_TX*%
X63510000Y-44250000D02*
X67250000Y-47990000D01*
X50675000Y-44250000D02*
X63510000Y-44250000D01*
%TO.N,SWDIO*%
X68310000Y-34310000D02*
X66300000Y-34310000D01*
X68950000Y-34950000D02*
X68310000Y-34310000D01*
X68950000Y-40450000D02*
X68950000Y-34950000D01*
X50675000Y-42250000D02*
X67150000Y-42250000D01*
X67150000Y-42250000D02*
X68950000Y-40450000D01*
%TO.N,SWCLK*%
X68150000Y-35900000D02*
X67830000Y-35580000D01*
X68150000Y-40200000D02*
X68150000Y-35900000D01*
X50575000Y-37500000D02*
X53950000Y-37500000D01*
X66850000Y-41500000D02*
X68150000Y-40200000D01*
X67830000Y-35580000D02*
X66300000Y-35580000D01*
X48750000Y-39325000D02*
X50575000Y-37500000D01*
X57950000Y-41500000D02*
X66850000Y-41500000D01*
X53950000Y-37500000D02*
X57950000Y-41500000D01*
%TO.N,SWO*%
X45750000Y-39325000D02*
X45750000Y-38100000D01*
X45750000Y-38100000D02*
X46000000Y-37850000D01*
X46000000Y-37850000D02*
X49250000Y-37850000D01*
X49250000Y-37850000D02*
X50250000Y-36850000D01*
X50250000Y-36850000D02*
X54250000Y-36850000D01*
X54250000Y-36850000D02*
X58250000Y-40850000D01*
X58250000Y-40850000D02*
X63600000Y-40850000D01*
X63600000Y-40850000D02*
X64350000Y-40100000D01*
X64350000Y-40100000D02*
X64350000Y-37250000D01*
X64750000Y-36850000D02*
X66300000Y-36850000D01*
X64350000Y-37250000D02*
X64750000Y-36850000D01*
%TO.N,NRST*%
X39325000Y-44250000D02*
X42050000Y-44250000D01*
X42050000Y-44250000D02*
X42050000Y-44250000D01*
D23*
X66300000Y-39390000D02*
X66300000Y-40650000D01*
D24*
%TO.N,I2C1_SCL*%
X44765000Y-34858586D02*
X44765000Y-34850000D01*
X44250000Y-39325000D02*
X44250000Y-35373586D01*
X44250000Y-35373586D02*
X44765000Y-34858586D01*
D23*
X44765000Y-24325000D02*
X46340000Y-22750000D01*
X44765000Y-34850000D02*
X44765000Y-24325000D01*
D24*
%TO.N,I2C1_SDA*%
X43750000Y-39325000D02*
X43750000Y-34850000D01*
D23*
X43750000Y-22800000D02*
X43800000Y-22750000D01*
X43750000Y-34850000D02*
X43750000Y-22800000D01*
D24*
%TO.N,SPI1_CS*%
X42750000Y-63980000D02*
X39530000Y-67200000D01*
X42750000Y-50675000D02*
X42750000Y-63980000D01*
%TO.N,SPI1_SCK*%
X43250000Y-66020000D02*
X42070000Y-67200000D01*
X43250000Y-50675000D02*
X43250000Y-66020000D01*
%TO.N,SPI1_MISO*%
X43750000Y-66340000D02*
X44610000Y-67200000D01*
X43750000Y-50675000D02*
X43750000Y-66340000D01*
%TO.N,SPI1_MOSI*%
X44250000Y-64300000D02*
X47150000Y-67200000D01*
X44250000Y-50675000D02*
X44250000Y-64300000D01*
%TO.N,BOOT0*%
X43250000Y-37750000D02*
X43000000Y-37500000D01*
X43250000Y-39325000D02*
X43250000Y-37750000D01*
%TO.N,BOOT1*%
X46750000Y-50675000D02*
X46750000Y-52500000D01*
%TO.N,HSE_OUT*%
X37850000Y-43750000D02*
X37600000Y-44000000D01*
X39325000Y-43750000D02*
X37850000Y-43750000D01*
%TD*%
D25*
%TO.N,GND*%
X62301560Y-20839606D02*
X62188946Y-20914851D01*
X61696787Y-21517182D01*
X65000000Y-24820395D01*
X65014143Y-24806253D01*
X65193748Y-24985858D01*
X65179605Y-25000000D01*
X68482818Y-28303213D01*
X69085149Y-27811054D01*
X69340000Y-27349534D01*
X69340000Y-34229843D01*
X68892347Y-33782190D01*
X68867764Y-33752236D01*
X68748233Y-33654138D01*
X68611860Y-33581246D01*
X68463887Y-33536359D01*
X68348561Y-33525000D01*
X68348553Y-33525000D01*
X68310000Y-33521203D01*
X68271447Y-33525000D01*
X67980881Y-33525000D01*
X67951185Y-33488815D01*
X67854494Y-33409463D01*
X67744180Y-33350498D01*
X67624482Y-33314188D01*
X67500000Y-33301928D01*
X65100000Y-33301928D01*
X64975518Y-33314188D01*
X64855820Y-33350498D01*
X64745506Y-33409463D01*
X64648815Y-33488815D01*
X64569463Y-33585506D01*
X64510498Y-33695820D01*
X64474188Y-33815518D01*
X64461928Y-33940000D01*
X64461928Y-34680000D01*
X64474188Y-34804482D01*
X64510498Y-34924180D01*
X64521627Y-34945000D01*
X64510498Y-34965820D01*
X64474188Y-35085518D01*
X64461928Y-35210000D01*
X64461928Y-35950000D01*
X64474188Y-36074482D01*
X64484983Y-36110070D01*
X64448140Y-36121246D01*
X64311767Y-36194138D01*
X64203749Y-36282787D01*
X64189502Y-36235820D01*
X64178373Y-36215000D01*
X64189502Y-36194180D01*
X64225812Y-36074482D01*
X64238072Y-35950000D01*
X64235000Y-35865750D01*
X64076250Y-35707000D01*
X62527000Y-35707000D01*
X62527000Y-36723000D01*
X62547000Y-36723000D01*
X62547000Y-36977000D01*
X62527000Y-36977000D01*
X62527000Y-36997000D01*
X62273000Y-36997000D01*
X62273000Y-36977000D01*
X60723750Y-36977000D01*
X60565000Y-37135750D01*
X60561928Y-37220000D01*
X60574188Y-37344482D01*
X60610498Y-37464180D01*
X60621627Y-37485000D01*
X60610498Y-37505820D01*
X60574188Y-37625518D01*
X60561928Y-37750000D01*
X60561928Y-38490000D01*
X60574188Y-38614482D01*
X60610498Y-38734180D01*
X60621627Y-38755000D01*
X60610498Y-38775820D01*
X60574188Y-38895518D01*
X60561928Y-39020000D01*
X60565000Y-39104250D01*
X60723750Y-39263000D01*
X62273000Y-39263000D01*
X62273000Y-39243000D01*
X62527000Y-39243000D01*
X62527000Y-39263000D01*
X62547000Y-39263000D01*
X62547000Y-39517000D01*
X62527000Y-39517000D01*
X62527000Y-39537000D01*
X62273000Y-39537000D01*
X62273000Y-39517000D01*
X60723750Y-39517000D01*
X60565000Y-39675750D01*
X60561928Y-39760000D01*
X60574188Y-39884482D01*
X60610498Y-40004180D01*
X60643007Y-40065000D01*
X58575158Y-40065000D01*
X54832347Y-36322190D01*
X54807764Y-36292236D01*
X54688233Y-36194138D01*
X54551860Y-36121246D01*
X54403887Y-36076359D01*
X54288561Y-36065000D01*
X54288553Y-36065000D01*
X54250000Y-36061203D01*
X54211447Y-36065000D01*
X50288556Y-36065000D01*
X50250000Y-36061203D01*
X50211444Y-36065000D01*
X50211439Y-36065000D01*
X50171026Y-36068980D01*
X50096113Y-36076358D01*
X49948140Y-36121246D01*
X49811767Y-36194138D01*
X49692236Y-36292236D01*
X49667653Y-36322190D01*
X48924843Y-37065000D01*
X46038552Y-37065000D01*
X45999999Y-37061203D01*
X45961446Y-37065000D01*
X45961439Y-37065000D01*
X45860490Y-37074943D01*
X45846112Y-37076359D01*
X45818175Y-37084834D01*
X45698140Y-37121246D01*
X45561767Y-37194138D01*
X45442236Y-37292236D01*
X45417655Y-37322188D01*
X45222185Y-37517658D01*
X45192237Y-37542236D01*
X45167659Y-37572184D01*
X45167655Y-37572188D01*
X45143858Y-37601185D01*
X45094139Y-37661767D01*
X45059272Y-37727000D01*
X45035000Y-37772409D01*
X45035000Y-35950000D01*
X60561928Y-35950000D01*
X60574188Y-36074482D01*
X60610498Y-36194180D01*
X60621627Y-36215000D01*
X60610498Y-36235820D01*
X60574188Y-36355518D01*
X60561928Y-36480000D01*
X60565000Y-36564250D01*
X60723750Y-36723000D01*
X62273000Y-36723000D01*
X62273000Y-35707000D01*
X60723750Y-35707000D01*
X60565000Y-35865750D01*
X60561928Y-35950000D01*
X45035000Y-35950000D01*
X45035000Y-35796006D01*
X45065757Y-35792977D01*
X45213125Y-35748274D01*
X45250000Y-35728564D01*
X45286875Y-35748274D01*
X45434243Y-35792977D01*
X45587500Y-35808072D01*
X45882500Y-35808072D01*
X46035757Y-35792977D01*
X46183125Y-35748274D01*
X46318940Y-35675679D01*
X46437983Y-35577983D01*
X46535679Y-35458940D01*
X46608274Y-35323125D01*
X46652977Y-35175757D01*
X46668072Y-35022500D01*
X46668072Y-34677500D01*
X46652977Y-34524243D01*
X46621660Y-34421004D01*
X46642205Y-34390256D01*
X46711459Y-34223061D01*
X59540000Y-34223061D01*
X59540000Y-34426939D01*
X59579774Y-34626898D01*
X59657795Y-34815256D01*
X59771063Y-34984774D01*
X59915226Y-35128937D01*
X60084744Y-35242205D01*
X60273102Y-35320226D01*
X60473061Y-35360000D01*
X60630750Y-35360000D01*
X60723750Y-35453000D01*
X62273000Y-35453000D01*
X62273000Y-35433000D01*
X62527000Y-35433000D01*
X62527000Y-35453000D01*
X64076250Y-35453000D01*
X64235000Y-35294250D01*
X64238072Y-35210000D01*
X64225812Y-35085518D01*
X64189502Y-34965820D01*
X64178373Y-34945000D01*
X64189502Y-34924180D01*
X64225812Y-34804482D01*
X64238072Y-34680000D01*
X64238072Y-33940000D01*
X64225812Y-33815518D01*
X64189502Y-33695820D01*
X64130537Y-33585506D01*
X64051185Y-33488815D01*
X63954494Y-33409463D01*
X63844180Y-33350498D01*
X63724482Y-33314188D01*
X63600000Y-33301928D01*
X61200000Y-33301928D01*
X61075518Y-33314188D01*
X60955820Y-33350498D01*
X60943207Y-33357240D01*
X60876898Y-33329774D01*
X60676939Y-33290000D01*
X60473061Y-33290000D01*
X60273102Y-33329774D01*
X60084744Y-33407795D01*
X59915226Y-33521063D01*
X59771063Y-33665226D01*
X59657795Y-33834744D01*
X59579774Y-34023102D01*
X59540000Y-34223061D01*
X46711459Y-34223061D01*
X46720226Y-34201898D01*
X46760000Y-34001939D01*
X46760000Y-33798061D01*
X46720226Y-33598102D01*
X46642205Y-33409744D01*
X46528937Y-33240226D01*
X46384774Y-33096063D01*
X46215256Y-32982795D01*
X46026898Y-32904774D01*
X45826939Y-32865000D01*
X45650000Y-32865000D01*
X45650000Y-28482818D01*
X61696787Y-28482818D01*
X62188946Y-29085149D01*
X63039933Y-29555063D01*
X63966243Y-29849929D01*
X64932281Y-29958414D01*
X65900921Y-29876351D01*
X66834938Y-29606893D01*
X67698440Y-29160394D01*
X67811054Y-29085149D01*
X68303213Y-28482818D01*
X65000000Y-25179605D01*
X61696787Y-28482818D01*
X45650000Y-28482818D01*
X45650000Y-24932281D01*
X60041586Y-24932281D01*
X60123649Y-25900921D01*
X60393107Y-26834938D01*
X60839606Y-27698440D01*
X60914851Y-27811054D01*
X61517182Y-28303213D01*
X64820395Y-25000000D01*
X61517182Y-21696787D01*
X60914851Y-22188946D01*
X60444937Y-23039933D01*
X60150071Y-23966243D01*
X60041586Y-24932281D01*
X45650000Y-24932281D01*
X45650000Y-24691578D01*
X46121040Y-24220539D01*
X46193740Y-24235000D01*
X46486260Y-24235000D01*
X46773158Y-24177932D01*
X47043411Y-24065990D01*
X47286632Y-23903475D01*
X47493475Y-23696632D01*
X47655990Y-23453411D01*
X47767932Y-23183158D01*
X47825000Y-22896260D01*
X47825000Y-22603740D01*
X47767932Y-22316842D01*
X47655990Y-22046589D01*
X47493475Y-21803368D01*
X47286632Y-21596525D01*
X47043411Y-21434010D01*
X46773158Y-21322068D01*
X46486260Y-21265000D01*
X46193740Y-21265000D01*
X45906842Y-21322068D01*
X45636589Y-21434010D01*
X45393368Y-21596525D01*
X45261513Y-21728380D01*
X45239502Y-21655820D01*
X45180537Y-21545506D01*
X45101185Y-21448815D01*
X45004494Y-21369463D01*
X44894180Y-21310498D01*
X44774482Y-21274188D01*
X44650000Y-21261928D01*
X42950000Y-21261928D01*
X42825518Y-21274188D01*
X42705820Y-21310498D01*
X42595506Y-21369463D01*
X42498815Y-21448815D01*
X42419463Y-21545506D01*
X42360498Y-21655820D01*
X42324188Y-21775518D01*
X42311928Y-21900000D01*
X42311928Y-23600000D01*
X42324188Y-23724482D01*
X42360498Y-23844180D01*
X42419463Y-23954494D01*
X42498815Y-24051185D01*
X42595506Y-24130537D01*
X42705820Y-24189502D01*
X42825518Y-24225812D01*
X42865001Y-24229701D01*
X42865000Y-32865000D01*
X42673061Y-32865000D01*
X42473102Y-32904774D01*
X42284744Y-32982795D01*
X42115226Y-33096063D01*
X41971063Y-33240226D01*
X41857795Y-33409744D01*
X41779774Y-33598102D01*
X41740000Y-33798061D01*
X41740000Y-34001939D01*
X41779774Y-34201898D01*
X41857795Y-34390256D01*
X41865503Y-34401792D01*
X41759774Y-34296063D01*
X41590256Y-34182795D01*
X41401898Y-34104774D01*
X41201939Y-34065000D01*
X40998061Y-34065000D01*
X40798102Y-34104774D01*
X40609744Y-34182795D01*
X40440226Y-34296063D01*
X40296063Y-34440226D01*
X40182795Y-34609744D01*
X40138400Y-34716922D01*
X39948102Y-34754774D01*
X39759744Y-34832795D01*
X39590226Y-34946063D01*
X39446063Y-35090226D01*
X39332795Y-35259744D01*
X39254774Y-35448102D01*
X39215000Y-35648061D01*
X39215000Y-35851939D01*
X39227000Y-35912268D01*
X39227000Y-36585500D01*
X39247000Y-36585500D01*
X39247000Y-36839500D01*
X39227000Y-36839500D01*
X39227000Y-36859500D01*
X38973000Y-36859500D01*
X38973000Y-36839500D01*
X38148750Y-36839500D01*
X37990000Y-36998250D01*
X37986928Y-37150000D01*
X37998254Y-37265000D01*
X37798061Y-37265000D01*
X37598102Y-37304774D01*
X37425000Y-37376476D01*
X37251898Y-37304774D01*
X37051939Y-37265000D01*
X36848061Y-37265000D01*
X36648102Y-37304774D01*
X36459744Y-37382795D01*
X36290226Y-37496063D01*
X36146063Y-37640226D01*
X36032795Y-37809744D01*
X35954774Y-37998102D01*
X35915000Y-38198061D01*
X35915000Y-38401939D01*
X35954774Y-38601898D01*
X36032795Y-38790256D01*
X36146063Y-38959774D01*
X36290226Y-39103937D01*
X36459744Y-39217205D01*
X36648102Y-39295226D01*
X36848061Y-39335000D01*
X36970427Y-39335000D01*
X36935820Y-39345498D01*
X36829933Y-39402097D01*
X36820557Y-39394403D01*
X36798601Y-39382667D01*
X36774776Y-39375440D01*
X36750000Y-39373000D01*
X31750000Y-39373000D01*
X31725224Y-39375440D01*
X31701399Y-39382667D01*
X31679443Y-39394403D01*
X31660197Y-39410197D01*
X31644403Y-39429443D01*
X31632667Y-39451399D01*
X31625440Y-39475224D01*
X31623000Y-39500000D01*
X31623000Y-47250000D01*
X31625440Y-47274776D01*
X31632667Y-47298601D01*
X31644403Y-47320557D01*
X31660197Y-47339803D01*
X31679443Y-47355597D01*
X31701399Y-47367333D01*
X31725224Y-47374560D01*
X31750000Y-47377000D01*
X35541928Y-47377000D01*
X35541928Y-47632500D01*
X35557023Y-47785757D01*
X35601726Y-47933125D01*
X35615000Y-47957959D01*
X35615000Y-48141785D01*
X35562500Y-48205756D01*
X35492292Y-48120208D01*
X35358664Y-48010542D01*
X35206209Y-47929053D01*
X35040785Y-47878872D01*
X34868750Y-47861928D01*
X34381250Y-47861928D01*
X34209215Y-47878872D01*
X34043791Y-47929053D01*
X33891336Y-48010542D01*
X33757708Y-48120208D01*
X33693722Y-48198175D01*
X33526939Y-48165000D01*
X33323061Y-48165000D01*
X33123102Y-48204774D01*
X32934744Y-48282795D01*
X32765226Y-48396063D01*
X32621063Y-48540226D01*
X32507795Y-48709744D01*
X32429774Y-48898102D01*
X32390000Y-49098061D01*
X32390000Y-49301939D01*
X32429774Y-49501898D01*
X32507795Y-49690256D01*
X32621063Y-49859774D01*
X32679194Y-49917905D01*
X32603411Y-50059687D01*
X32599546Y-50072429D01*
X32507795Y-50209744D01*
X32429774Y-50398102D01*
X32390000Y-50598061D01*
X32390000Y-50801939D01*
X32429774Y-51001898D01*
X32507795Y-51190256D01*
X32621063Y-51359774D01*
X32765226Y-51503937D01*
X32934744Y-51617205D01*
X33123102Y-51695226D01*
X33323061Y-51735000D01*
X33526939Y-51735000D01*
X33726898Y-51695226D01*
X33915256Y-51617205D01*
X34025000Y-51543877D01*
X34134744Y-51617205D01*
X34323102Y-51695226D01*
X34523061Y-51735000D01*
X34726939Y-51735000D01*
X34926898Y-51695226D01*
X35115256Y-51617205D01*
X35284774Y-51503937D01*
X35428937Y-51359774D01*
X35542205Y-51190256D01*
X35620226Y-51001898D01*
X35660000Y-50801939D01*
X35660000Y-50598061D01*
X35620226Y-50398102D01*
X35544746Y-50215877D01*
X35562500Y-50194244D01*
X35632708Y-50279792D01*
X35766336Y-50389458D01*
X35918791Y-50470947D01*
X36084215Y-50521128D01*
X36256250Y-50538072D01*
X36743750Y-50538072D01*
X36915785Y-50521128D01*
X37081209Y-50470947D01*
X37233664Y-50389458D01*
X37367292Y-50279792D01*
X37476958Y-50146164D01*
X37558447Y-49993709D01*
X37608628Y-49828285D01*
X37625572Y-49656250D01*
X37625572Y-48743750D01*
X37608628Y-48571715D01*
X37562021Y-48418072D01*
X37772500Y-48418072D01*
X37919667Y-48403577D01*
X37925629Y-48464113D01*
X37936515Y-48500000D01*
X37925629Y-48535887D01*
X37911928Y-48675000D01*
X37911928Y-48825000D01*
X37925629Y-48964113D01*
X37966207Y-49097881D01*
X38032102Y-49221162D01*
X38120782Y-49329218D01*
X38228838Y-49417898D01*
X38352119Y-49483793D01*
X38485887Y-49524371D01*
X38625000Y-49538072D01*
X40025000Y-49538072D01*
X40164113Y-49524371D01*
X40297881Y-49483793D01*
X40421162Y-49417898D01*
X40529218Y-49329218D01*
X40617898Y-49221162D01*
X40683793Y-49097881D01*
X40724371Y-48964113D01*
X40738072Y-48825000D01*
X40738072Y-48675000D01*
X40724371Y-48535887D01*
X40713485Y-48500000D01*
X40724371Y-48464113D01*
X40738072Y-48325000D01*
X40738072Y-48175000D01*
X40724371Y-48035887D01*
X40713485Y-48000000D01*
X40724371Y-47964113D01*
X40738072Y-47825000D01*
X40738072Y-47675000D01*
X40724371Y-47535887D01*
X40713485Y-47500000D01*
X40724371Y-47464113D01*
X40738072Y-47325000D01*
X40738072Y-47175000D01*
X40724371Y-47035887D01*
X40723798Y-47033997D01*
X40723937Y-47033561D01*
X40735000Y-46931750D01*
X40659018Y-46855768D01*
X40617898Y-46778838D01*
X40594231Y-46750000D01*
X40617898Y-46721162D01*
X40659018Y-46644232D01*
X40735000Y-46568250D01*
X40723937Y-46466439D01*
X40723798Y-46466003D01*
X40724371Y-46464113D01*
X40738072Y-46325000D01*
X40738072Y-46175000D01*
X40724371Y-46035887D01*
X40713485Y-46000000D01*
X40724371Y-45964113D01*
X40738072Y-45825000D01*
X40738072Y-45675000D01*
X40724371Y-45535887D01*
X40713485Y-45500000D01*
X40724371Y-45464113D01*
X40738072Y-45325000D01*
X40738072Y-45175000D01*
X40724371Y-45035887D01*
X40724102Y-45035000D01*
X41229868Y-45035000D01*
X41326480Y-45131612D01*
X41512376Y-45255824D01*
X41718933Y-45341383D01*
X41938212Y-45385000D01*
X42161788Y-45385000D01*
X42381067Y-45341383D01*
X42587624Y-45255824D01*
X42773520Y-45131612D01*
X42931612Y-44973520D01*
X43055824Y-44787624D01*
X43141383Y-44581067D01*
X43185000Y-44361788D01*
X43185000Y-44138212D01*
X43141383Y-43918933D01*
X43055824Y-43712376D01*
X42931612Y-43526480D01*
X42773520Y-43368388D01*
X42587624Y-43244176D01*
X42381067Y-43158617D01*
X42161788Y-43115000D01*
X41938212Y-43115000D01*
X41718933Y-43158617D01*
X41512376Y-43244176D01*
X41326480Y-43368388D01*
X41229868Y-43465000D01*
X40724102Y-43465000D01*
X40724371Y-43464113D01*
X40738072Y-43325000D01*
X40738072Y-43175000D01*
X40724371Y-43035887D01*
X40713485Y-43000000D01*
X40724371Y-42964113D01*
X40738072Y-42825000D01*
X40738072Y-42675000D01*
X40724371Y-42535887D01*
X40713485Y-42500000D01*
X40724371Y-42464113D01*
X40738072Y-42325000D01*
X40738072Y-42175000D01*
X40724371Y-42035887D01*
X40713485Y-42000000D01*
X40724371Y-41964113D01*
X40738072Y-41825000D01*
X40738072Y-41675000D01*
X40724371Y-41535887D01*
X40713485Y-41499999D01*
X40724371Y-41464113D01*
X40738072Y-41325000D01*
X40738072Y-41175000D01*
X40724371Y-41035887D01*
X40683793Y-40902119D01*
X40617898Y-40778838D01*
X40529218Y-40670782D01*
X40421162Y-40582102D01*
X40297881Y-40516207D01*
X40164113Y-40475629D01*
X40025000Y-40461928D01*
X38625000Y-40461928D01*
X38593808Y-40465000D01*
X38404250Y-40465000D01*
X38296250Y-40357000D01*
X38029763Y-40357000D01*
X37973125Y-40326726D01*
X37825757Y-40282023D01*
X37672500Y-40266928D01*
X37353000Y-40266928D01*
X37353000Y-40103000D01*
X37373000Y-40103000D01*
X37373000Y-39458750D01*
X37216514Y-39302264D01*
X37251898Y-39295226D01*
X37425000Y-39223524D01*
X37598102Y-39295226D01*
X37758599Y-39327151D01*
X37627000Y-39458750D01*
X37627000Y-40103000D01*
X38296250Y-40103000D01*
X38455000Y-39944250D01*
X38458072Y-39935000D01*
X38445812Y-39810518D01*
X38409502Y-39690820D01*
X38350537Y-39580506D01*
X38271185Y-39483815D01*
X38174494Y-39404463D01*
X38064180Y-39345498D01*
X38018629Y-39331680D01*
X38201898Y-39295226D01*
X38376017Y-39223103D01*
X38515858Y-39297850D01*
X38676592Y-39346608D01*
X38843750Y-39363072D01*
X39356250Y-39363072D01*
X39523408Y-39346608D01*
X39684142Y-39297850D01*
X39832275Y-39218671D01*
X39962115Y-39112115D01*
X40068671Y-38982275D01*
X40147850Y-38834142D01*
X40196608Y-38673408D01*
X40213072Y-38506250D01*
X40213072Y-38485000D01*
X40465001Y-38485000D01*
X40465000Y-38593803D01*
X40461928Y-38625000D01*
X40461928Y-40025000D01*
X40475629Y-40164113D01*
X40516207Y-40297881D01*
X40582102Y-40421162D01*
X40670782Y-40529218D01*
X40778838Y-40617898D01*
X40902119Y-40683793D01*
X41035887Y-40724371D01*
X41175000Y-40738072D01*
X41325000Y-40738072D01*
X41464113Y-40724371D01*
X41466003Y-40723798D01*
X41466439Y-40723937D01*
X41568250Y-40735000D01*
X41644232Y-40659018D01*
X41721162Y-40617898D01*
X41750000Y-40594231D01*
X41778838Y-40617898D01*
X41855768Y-40659018D01*
X41931750Y-40735000D01*
X42033561Y-40723937D01*
X42033997Y-40723798D01*
X42035887Y-40724371D01*
X42175000Y-40738072D01*
X42325000Y-40738072D01*
X42464113Y-40724371D01*
X42500000Y-40713485D01*
X42535887Y-40724371D01*
X42675000Y-40738072D01*
X42825000Y-40738072D01*
X42964113Y-40724371D01*
X43000000Y-40713485D01*
X43035887Y-40724371D01*
X43175000Y-40738072D01*
X43325000Y-40738072D01*
X43464113Y-40724371D01*
X43500000Y-40713485D01*
X43535887Y-40724371D01*
X43675000Y-40738072D01*
X43825000Y-40738072D01*
X43964113Y-40724371D01*
X44000000Y-40713485D01*
X44035887Y-40724371D01*
X44175000Y-40738072D01*
X44325000Y-40738072D01*
X44464113Y-40724371D01*
X44500000Y-40713485D01*
X44535887Y-40724371D01*
X44675000Y-40738072D01*
X44825000Y-40738072D01*
X44964113Y-40724371D01*
X45000000Y-40713485D01*
X45035887Y-40724371D01*
X45175000Y-40738072D01*
X45325000Y-40738072D01*
X45464113Y-40724371D01*
X45500000Y-40713485D01*
X45535887Y-40724371D01*
X45675000Y-40738072D01*
X45825000Y-40738072D01*
X45964113Y-40724371D01*
X46000000Y-40713485D01*
X46035887Y-40724371D01*
X46175000Y-40738072D01*
X46325000Y-40738072D01*
X46464113Y-40724371D01*
X46500000Y-40713485D01*
X46535887Y-40724371D01*
X46675000Y-40738072D01*
X46825000Y-40738072D01*
X46964113Y-40724371D01*
X47000000Y-40713485D01*
X47035887Y-40724371D01*
X47175000Y-40738072D01*
X47325000Y-40738072D01*
X47464113Y-40724371D01*
X47500000Y-40713485D01*
X47535887Y-40724371D01*
X47675000Y-40738072D01*
X47825000Y-40738072D01*
X47964113Y-40724371D01*
X48000000Y-40713485D01*
X48035887Y-40724371D01*
X48175000Y-40738072D01*
X48325000Y-40738072D01*
X48464113Y-40724371D01*
X48500000Y-40713485D01*
X48535887Y-40724371D01*
X48675000Y-40738072D01*
X48825000Y-40738072D01*
X48964113Y-40724371D01*
X49097881Y-40683793D01*
X49221162Y-40617898D01*
X49329218Y-40529218D01*
X49417898Y-40421162D01*
X49483793Y-40297881D01*
X49524371Y-40164113D01*
X49538072Y-40025000D01*
X49538072Y-39647085D01*
X49944907Y-39240250D01*
X49954188Y-39334482D01*
X49990498Y-39454180D01*
X49994312Y-39461316D01*
X49957023Y-39584243D01*
X49941928Y-39737500D01*
X49941928Y-39822376D01*
X49901359Y-39956114D01*
X49886203Y-40110000D01*
X49890001Y-40148562D01*
X49890001Y-40470299D01*
X49835887Y-40475629D01*
X49702119Y-40516207D01*
X49578838Y-40582102D01*
X49470782Y-40670782D01*
X49382102Y-40778838D01*
X49316207Y-40902119D01*
X49275629Y-41035887D01*
X49261928Y-41175000D01*
X49261928Y-41325000D01*
X49275629Y-41464113D01*
X49286515Y-41499999D01*
X49275629Y-41535887D01*
X49261928Y-41675000D01*
X49261928Y-41825000D01*
X49275629Y-41964113D01*
X49286515Y-42000000D01*
X49275629Y-42035887D01*
X49261928Y-42175000D01*
X49261928Y-42325000D01*
X49275629Y-42464113D01*
X49286515Y-42500000D01*
X49275629Y-42535887D01*
X49261928Y-42675000D01*
X49261928Y-42825000D01*
X49275629Y-42964113D01*
X49286515Y-43000000D01*
X49275629Y-43035887D01*
X49261928Y-43175000D01*
X49261928Y-43325000D01*
X49275629Y-43464113D01*
X49286515Y-43500000D01*
X49275629Y-43535887D01*
X49261928Y-43675000D01*
X49261928Y-43825000D01*
X49275629Y-43964113D01*
X49286515Y-44000000D01*
X49275629Y-44035887D01*
X49261928Y-44175000D01*
X49261928Y-44325000D01*
X49275629Y-44464113D01*
X49286515Y-44500000D01*
X49275629Y-44535887D01*
X49261928Y-44675000D01*
X49261928Y-44825000D01*
X49275629Y-44964113D01*
X49286515Y-45000000D01*
X49275629Y-45035887D01*
X49261928Y-45175000D01*
X49261928Y-45325000D01*
X49275629Y-45464113D01*
X49286515Y-45500000D01*
X49275629Y-45535887D01*
X49261928Y-45675000D01*
X49261928Y-45825000D01*
X49275629Y-45964113D01*
X49286515Y-46000000D01*
X49275629Y-46035887D01*
X49261928Y-46175000D01*
X49261928Y-46325000D01*
X49275629Y-46464113D01*
X49286515Y-46500000D01*
X49275629Y-46535887D01*
X49261928Y-46675000D01*
X49261928Y-46825000D01*
X49275629Y-46964113D01*
X49286515Y-47000000D01*
X49275629Y-47035887D01*
X49261928Y-47175000D01*
X49261928Y-47325000D01*
X49275629Y-47464113D01*
X49286515Y-47500000D01*
X49275629Y-47535887D01*
X49261928Y-47675000D01*
X49261928Y-47825000D01*
X49275629Y-47964113D01*
X49286515Y-48000000D01*
X49275629Y-48035887D01*
X49261928Y-48175000D01*
X49261928Y-48325000D01*
X49275629Y-48464113D01*
X49286515Y-48500000D01*
X49275629Y-48535887D01*
X49261928Y-48675000D01*
X49261928Y-48825000D01*
X49275629Y-48964113D01*
X49316207Y-49097881D01*
X49382102Y-49221162D01*
X49470782Y-49329218D01*
X49578838Y-49417898D01*
X49702119Y-49483793D01*
X49835887Y-49524371D01*
X49975000Y-49538072D01*
X51375000Y-49538072D01*
X51406192Y-49535000D01*
X52512099Y-49535000D01*
X52555337Y-49587687D01*
X52511315Y-49623815D01*
X52431963Y-49720506D01*
X52372998Y-49830820D01*
X52336688Y-49950518D01*
X52324428Y-50075000D01*
X52327500Y-50264250D01*
X52486250Y-50423000D01*
X53273000Y-50423000D01*
X53273000Y-50403000D01*
X53527000Y-50403000D01*
X53527000Y-50423000D01*
X53547000Y-50423000D01*
X53547000Y-50677000D01*
X53527000Y-50677000D01*
X53527000Y-51501250D01*
X53685750Y-51660000D01*
X53837500Y-51663072D01*
X53961982Y-51650812D01*
X54081680Y-51614502D01*
X54191994Y-51555537D01*
X54258570Y-51500900D01*
X54280225Y-51518671D01*
X54428358Y-51597850D01*
X54589092Y-51646608D01*
X54756250Y-51663072D01*
X55193750Y-51663072D01*
X55360908Y-51646608D01*
X55521642Y-51597850D01*
X55669775Y-51518671D01*
X55799615Y-51412115D01*
X55906171Y-51282275D01*
X55985350Y-51134142D01*
X56034108Y-50973408D01*
X56050572Y-50806250D01*
X56050572Y-50293750D01*
X56034108Y-50126592D01*
X55985350Y-49965858D01*
X55906171Y-49817725D01*
X55860000Y-49761465D01*
X55860000Y-49538535D01*
X55906171Y-49482275D01*
X55985350Y-49334142D01*
X56034108Y-49173408D01*
X56050572Y-49006250D01*
X56050572Y-48493750D01*
X56034108Y-48326592D01*
X55985350Y-48165858D01*
X55906171Y-48017725D01*
X55799615Y-47887885D01*
X55669775Y-47781329D01*
X55521642Y-47702150D01*
X55360908Y-47653392D01*
X55193750Y-47636928D01*
X54756250Y-47636928D01*
X54589092Y-47653392D01*
X54428358Y-47702150D01*
X54280225Y-47781329D01*
X54187500Y-47857426D01*
X54094775Y-47781329D01*
X53946642Y-47702150D01*
X53785908Y-47653392D01*
X53618750Y-47636928D01*
X53181250Y-47636928D01*
X53014092Y-47653392D01*
X52853358Y-47702150D01*
X52705225Y-47781329D01*
X52575385Y-47887885D01*
X52512099Y-47965000D01*
X52074102Y-47965000D01*
X52074371Y-47964113D01*
X52088072Y-47825000D01*
X52088072Y-47675000D01*
X52074371Y-47535887D01*
X52063485Y-47500000D01*
X52074371Y-47464113D01*
X52088072Y-47325000D01*
X52088072Y-47175000D01*
X52074371Y-47035887D01*
X52063485Y-47000000D01*
X52074371Y-46964113D01*
X52088072Y-46825000D01*
X52088072Y-46675000D01*
X52074371Y-46535887D01*
X52063485Y-46500000D01*
X52074371Y-46464113D01*
X52088072Y-46325000D01*
X52088072Y-46175000D01*
X52074371Y-46035887D01*
X52063485Y-46000000D01*
X52074371Y-45964113D01*
X52088072Y-45825000D01*
X52088072Y-45675000D01*
X52074371Y-45535887D01*
X52063485Y-45500000D01*
X52074371Y-45464113D01*
X52088072Y-45325000D01*
X52088072Y-45175000D01*
X52074371Y-45035887D01*
X52074102Y-45035000D01*
X63184843Y-45035000D01*
X65802925Y-47653082D01*
X65765000Y-47843740D01*
X65765000Y-48136260D01*
X65822068Y-48423158D01*
X65934010Y-48693411D01*
X66096525Y-48936632D01*
X66303368Y-49143475D01*
X66546589Y-49305990D01*
X66816842Y-49417932D01*
X67103740Y-49475000D01*
X67396260Y-49475000D01*
X67683158Y-49417932D01*
X67953411Y-49305990D01*
X68196632Y-49143475D01*
X68403475Y-48936632D01*
X68565990Y-48693411D01*
X68677932Y-48423158D01*
X68735000Y-48136260D01*
X68735000Y-47843740D01*
X68677932Y-47556842D01*
X68565990Y-47286589D01*
X68403475Y-47043368D01*
X68271620Y-46911513D01*
X68344180Y-46889502D01*
X68454494Y-46830537D01*
X68551185Y-46751185D01*
X68630537Y-46654494D01*
X68689502Y-46544180D01*
X68725812Y-46424482D01*
X68738072Y-46300000D01*
X68738072Y-44600000D01*
X68725812Y-44475518D01*
X68689502Y-44355820D01*
X68630537Y-44245506D01*
X68551185Y-44148815D01*
X68454494Y-44069463D01*
X68344180Y-44010498D01*
X68224482Y-43974188D01*
X68100000Y-43961928D01*
X66400000Y-43961928D01*
X66275518Y-43974188D01*
X66155820Y-44010498D01*
X66045506Y-44069463D01*
X65948815Y-44148815D01*
X65885781Y-44225623D01*
X64882347Y-43222190D01*
X64857764Y-43192236D01*
X64738233Y-43094138D01*
X64627592Y-43035000D01*
X67111447Y-43035000D01*
X67150000Y-43038797D01*
X67188553Y-43035000D01*
X67188561Y-43035000D01*
X67303887Y-43023641D01*
X67451860Y-42978754D01*
X67588233Y-42905862D01*
X67707764Y-42807764D01*
X67732347Y-42777810D01*
X69340000Y-41170157D01*
X69340001Y-62648909D01*
X69160394Y-62301560D01*
X69085149Y-62188946D01*
X68482818Y-61696787D01*
X65179605Y-65000000D01*
X65193748Y-65014143D01*
X65014143Y-65193748D01*
X65000000Y-65179605D01*
X61696787Y-68482818D01*
X62188946Y-69085149D01*
X62650466Y-69340000D01*
X27351093Y-69340000D01*
X27698440Y-69160394D01*
X27811054Y-69085149D01*
X28303213Y-68482818D01*
X25000000Y-65179605D01*
X24985858Y-65193748D01*
X24806253Y-65014143D01*
X24820395Y-65000000D01*
X25179605Y-65000000D01*
X28482818Y-68303213D01*
X29085149Y-67811054D01*
X29503336Y-67053740D01*
X38045000Y-67053740D01*
X38045000Y-67346260D01*
X38102068Y-67633158D01*
X38214010Y-67903411D01*
X38376525Y-68146632D01*
X38583368Y-68353475D01*
X38826589Y-68515990D01*
X39096842Y-68627932D01*
X39383740Y-68685000D01*
X39676260Y-68685000D01*
X39963158Y-68627932D01*
X40233411Y-68515990D01*
X40476632Y-68353475D01*
X40683475Y-68146632D01*
X40800000Y-67972240D01*
X40916525Y-68146632D01*
X41123368Y-68353475D01*
X41366589Y-68515990D01*
X41636842Y-68627932D01*
X41923740Y-68685000D01*
X42216260Y-68685000D01*
X42503158Y-68627932D01*
X42773411Y-68515990D01*
X43016632Y-68353475D01*
X43223475Y-68146632D01*
X43340000Y-67972240D01*
X43456525Y-68146632D01*
X43663368Y-68353475D01*
X43906589Y-68515990D01*
X44176842Y-68627932D01*
X44463740Y-68685000D01*
X44756260Y-68685000D01*
X45043158Y-68627932D01*
X45313411Y-68515990D01*
X45556632Y-68353475D01*
X45688487Y-68221620D01*
X45710498Y-68294180D01*
X45769463Y-68404494D01*
X45848815Y-68501185D01*
X45945506Y-68580537D01*
X46055820Y-68639502D01*
X46175518Y-68675812D01*
X46300000Y-68688072D01*
X48000000Y-68688072D01*
X48124482Y-68675812D01*
X48244180Y-68639502D01*
X48354494Y-68580537D01*
X48451185Y-68501185D01*
X48530537Y-68404494D01*
X48589502Y-68294180D01*
X48625812Y-68174482D01*
X48638072Y-68050000D01*
X48638072Y-66350000D01*
X48625812Y-66225518D01*
X48589502Y-66105820D01*
X48530537Y-65995506D01*
X48451185Y-65898815D01*
X48354494Y-65819463D01*
X48244180Y-65760498D01*
X48124482Y-65724188D01*
X48000000Y-65711928D01*
X46772086Y-65711928D01*
X45992439Y-64932281D01*
X60041586Y-64932281D01*
X60123649Y-65900921D01*
X60393107Y-66834938D01*
X60839606Y-67698440D01*
X60914851Y-67811054D01*
X61517182Y-68303213D01*
X64820395Y-65000000D01*
X61517182Y-61696787D01*
X60914851Y-62188946D01*
X60444937Y-63039933D01*
X60150071Y-63966243D01*
X60041586Y-64932281D01*
X45992439Y-64932281D01*
X45035000Y-63974843D01*
X45035000Y-61517182D01*
X61696787Y-61517182D01*
X65000000Y-64820395D01*
X68303213Y-61517182D01*
X67811054Y-60914851D01*
X66960067Y-60444937D01*
X66033757Y-60150071D01*
X65067719Y-60041586D01*
X64099079Y-60123649D01*
X63165062Y-60393107D01*
X62301560Y-60839606D01*
X62188946Y-60914851D01*
X61696787Y-61517182D01*
X45035000Y-61517182D01*
X45035000Y-53765000D01*
X45791928Y-53765000D01*
X45804188Y-53889482D01*
X45840498Y-54009180D01*
X45899463Y-54119494D01*
X45978815Y-54216185D01*
X46075506Y-54295537D01*
X46185820Y-54354502D01*
X46305518Y-54390812D01*
X46430000Y-54403072D01*
X46464250Y-54400000D01*
X46623000Y-54241250D01*
X46623000Y-53597000D01*
X45953750Y-53597000D01*
X45795000Y-53755750D01*
X45791928Y-53765000D01*
X45035000Y-53765000D01*
X45035000Y-52074102D01*
X45035887Y-52074371D01*
X45175000Y-52088072D01*
X45325000Y-52088072D01*
X45464113Y-52074371D01*
X45500000Y-52063485D01*
X45535887Y-52074371D01*
X45675000Y-52088072D01*
X45825000Y-52088072D01*
X45841231Y-52086473D01*
X45807023Y-52199243D01*
X45791928Y-52352500D01*
X45791928Y-52647500D01*
X45807023Y-52800757D01*
X45844312Y-52923684D01*
X45840498Y-52930820D01*
X45804188Y-53050518D01*
X45791928Y-53175000D01*
X45795000Y-53184250D01*
X45953750Y-53343000D01*
X46220237Y-53343000D01*
X46276875Y-53373274D01*
X46424243Y-53417977D01*
X46577500Y-53433072D01*
X46897000Y-53433072D01*
X46897000Y-53597000D01*
X46877000Y-53597000D01*
X46877000Y-54241250D01*
X47035750Y-54400000D01*
X47070000Y-54403072D01*
X47170030Y-54393220D01*
X47090000Y-54473250D01*
X47086928Y-54625000D01*
X47099188Y-54749482D01*
X47135498Y-54869180D01*
X47194463Y-54979494D01*
X47273815Y-55076185D01*
X47370506Y-55155537D01*
X47480820Y-55214502D01*
X47600518Y-55250812D01*
X47725000Y-55263072D01*
X47914250Y-55260000D01*
X48073000Y-55101250D01*
X48073000Y-54314500D01*
X48053000Y-54314500D01*
X48053000Y-54060500D01*
X48073000Y-54060500D01*
X48073000Y-54040500D01*
X48327000Y-54040500D01*
X48327000Y-54060500D01*
X48347000Y-54060500D01*
X48347000Y-54314500D01*
X48327000Y-54314500D01*
X48327000Y-55101250D01*
X48485750Y-55260000D01*
X48675000Y-55263072D01*
X48799482Y-55250812D01*
X48919180Y-55214502D01*
X49029494Y-55155537D01*
X49126185Y-55076185D01*
X49205537Y-54979494D01*
X49264502Y-54869180D01*
X49278930Y-54821616D01*
X49309744Y-54842205D01*
X49498102Y-54920226D01*
X49698061Y-54960000D01*
X49901939Y-54960000D01*
X50101898Y-54920226D01*
X50290256Y-54842205D01*
X50459774Y-54728937D01*
X50603937Y-54584774D01*
X50717205Y-54415256D01*
X50795226Y-54226898D01*
X50835000Y-54026939D01*
X50835000Y-53823061D01*
X50795226Y-53623102D01*
X50728702Y-53462500D01*
X50795226Y-53301898D01*
X50835000Y-53101939D01*
X50835000Y-52955000D01*
X50897002Y-52955000D01*
X50897002Y-52796252D01*
X51055750Y-52955000D01*
X51065000Y-52958072D01*
X51189482Y-52945812D01*
X51309180Y-52909502D01*
X51419494Y-52850537D01*
X51516185Y-52771185D01*
X51595537Y-52674494D01*
X51654502Y-52564180D01*
X51690812Y-52444482D01*
X51703072Y-52320000D01*
X51700000Y-52285750D01*
X51541250Y-52127000D01*
X50897000Y-52127000D01*
X50897000Y-52147000D01*
X50733072Y-52147000D01*
X50733072Y-51827500D01*
X50717977Y-51674243D01*
X50685000Y-51565531D01*
X50685000Y-51334469D01*
X50717977Y-51225757D01*
X50733072Y-51072500D01*
X50733072Y-51027000D01*
X50897000Y-51027000D01*
X50897000Y-51873000D01*
X51541250Y-51873000D01*
X51700000Y-51714250D01*
X51703072Y-51680000D01*
X51690812Y-51555518D01*
X51658803Y-51450000D01*
X51690812Y-51344482D01*
X51703072Y-51220000D01*
X51700000Y-51185750D01*
X51541250Y-51027000D01*
X50897000Y-51027000D01*
X50733072Y-51027000D01*
X50733072Y-51025000D01*
X52324428Y-51025000D01*
X52336688Y-51149482D01*
X52372998Y-51269180D01*
X52431963Y-51379494D01*
X52511315Y-51476185D01*
X52608006Y-51555537D01*
X52718320Y-51614502D01*
X52838018Y-51650812D01*
X52962500Y-51663072D01*
X53114250Y-51660000D01*
X53273000Y-51501250D01*
X53273000Y-50677000D01*
X52486250Y-50677000D01*
X52327500Y-50835750D01*
X52324428Y-51025000D01*
X50733072Y-51025000D01*
X50733072Y-50727500D01*
X50717977Y-50574243D01*
X50673274Y-50426875D01*
X50643000Y-50370237D01*
X50643000Y-50103750D01*
X50897000Y-50103750D01*
X50897000Y-50773000D01*
X51541250Y-50773000D01*
X51700000Y-50614250D01*
X51703072Y-50580000D01*
X51690812Y-50455518D01*
X51654502Y-50335820D01*
X51595537Y-50225506D01*
X51516185Y-50128815D01*
X51419494Y-50049463D01*
X51309180Y-49990498D01*
X51189482Y-49954188D01*
X51065000Y-49941928D01*
X51055750Y-49945000D01*
X50897000Y-50103750D01*
X50643000Y-50103750D01*
X50484250Y-49945000D01*
X50475000Y-49941928D01*
X50350518Y-49954188D01*
X50230820Y-49990498D01*
X50223684Y-49994312D01*
X50100757Y-49957023D01*
X49947500Y-49941928D01*
X49862625Y-49941928D01*
X49728887Y-49901359D01*
X49613561Y-49890000D01*
X49613553Y-49890000D01*
X49575000Y-49886203D01*
X49536447Y-49890000D01*
X49529700Y-49890000D01*
X49524371Y-49835887D01*
X49483793Y-49702119D01*
X49417898Y-49578838D01*
X49329218Y-49470782D01*
X49221162Y-49382102D01*
X49097881Y-49316207D01*
X48964113Y-49275629D01*
X48825000Y-49261928D01*
X48675000Y-49261928D01*
X48535887Y-49275629D01*
X48500000Y-49286515D01*
X48464113Y-49275629D01*
X48325000Y-49261928D01*
X48175000Y-49261928D01*
X48035887Y-49275629D01*
X48000000Y-49286515D01*
X47964113Y-49275629D01*
X47825000Y-49261928D01*
X47675000Y-49261928D01*
X47535887Y-49275629D01*
X47500000Y-49286515D01*
X47464113Y-49275629D01*
X47325000Y-49261928D01*
X47175000Y-49261928D01*
X47035887Y-49275629D01*
X47000000Y-49286515D01*
X46964113Y-49275629D01*
X46825000Y-49261928D01*
X46675000Y-49261928D01*
X46535887Y-49275629D01*
X46500000Y-49286515D01*
X46464113Y-49275629D01*
X46325000Y-49261928D01*
X46175000Y-49261928D01*
X46035887Y-49275629D01*
X46000000Y-49286515D01*
X45964113Y-49275629D01*
X45825000Y-49261928D01*
X45675000Y-49261928D01*
X45535887Y-49275629D01*
X45500000Y-49286515D01*
X45464113Y-49275629D01*
X45325000Y-49261928D01*
X45175000Y-49261928D01*
X45035887Y-49275629D01*
X45000000Y-49286515D01*
X44964113Y-49275629D01*
X44825000Y-49261928D01*
X44675000Y-49261928D01*
X44535887Y-49275629D01*
X44500000Y-49286515D01*
X44464113Y-49275629D01*
X44325000Y-49261928D01*
X44175000Y-49261928D01*
X44035887Y-49275629D01*
X44000000Y-49286515D01*
X43964113Y-49275629D01*
X43825000Y-49261928D01*
X43675000Y-49261928D01*
X43535887Y-49275629D01*
X43500000Y-49286515D01*
X43464113Y-49275629D01*
X43325000Y-49261928D01*
X43175000Y-49261928D01*
X43035887Y-49275629D01*
X43000000Y-49286515D01*
X42964113Y-49275629D01*
X42825000Y-49261928D01*
X42675000Y-49261928D01*
X42535887Y-49275629D01*
X42500000Y-49286515D01*
X42464113Y-49275629D01*
X42325000Y-49261928D01*
X42175000Y-49261928D01*
X42035887Y-49275629D01*
X42033997Y-49276202D01*
X42033561Y-49276063D01*
X41931750Y-49265000D01*
X41855768Y-49340982D01*
X41778838Y-49382102D01*
X41750000Y-49405769D01*
X41721162Y-49382102D01*
X41644232Y-49340982D01*
X41568250Y-49265000D01*
X41466439Y-49276063D01*
X41466003Y-49276202D01*
X41464113Y-49275629D01*
X41325000Y-49261928D01*
X41175000Y-49261928D01*
X41035887Y-49275629D01*
X40902119Y-49316207D01*
X40778838Y-49382102D01*
X40670782Y-49470782D01*
X40582102Y-49578838D01*
X40516207Y-49702119D01*
X40475629Y-49835887D01*
X40461928Y-49975000D01*
X40461928Y-51375000D01*
X40473429Y-51491776D01*
X40365506Y-51549463D01*
X40268815Y-51628815D01*
X40189463Y-51725506D01*
X40130498Y-51835820D01*
X40094188Y-51955518D01*
X40081928Y-52080000D01*
X40085000Y-52114250D01*
X40243750Y-52273000D01*
X40888000Y-52273000D01*
X40888000Y-52253000D01*
X41051928Y-52253000D01*
X41051928Y-52572500D01*
X41067023Y-52725757D01*
X41100000Y-52834470D01*
X41100001Y-53065529D01*
X41067023Y-53174243D01*
X41051928Y-53327500D01*
X41051928Y-53647000D01*
X40888000Y-53647000D01*
X40888000Y-53627000D01*
X40243750Y-53627000D01*
X40085000Y-53785750D01*
X40081928Y-53820000D01*
X40094188Y-53944482D01*
X40130498Y-54064180D01*
X40189463Y-54174494D01*
X40268815Y-54271185D01*
X40365506Y-54350537D01*
X40475820Y-54409502D01*
X40595518Y-54445812D01*
X40720000Y-54458072D01*
X40729250Y-54455000D01*
X40887998Y-54296252D01*
X40887998Y-54455000D01*
X40940000Y-54455000D01*
X40940000Y-54601939D01*
X40979774Y-54801898D01*
X41051476Y-54975000D01*
X40979774Y-55148102D01*
X40940000Y-55348061D01*
X40940000Y-55551939D01*
X40979774Y-55751898D01*
X41057795Y-55940256D01*
X41171063Y-56109774D01*
X41315226Y-56253937D01*
X41484744Y-56367205D01*
X41673102Y-56445226D01*
X41873061Y-56485000D01*
X41965000Y-56485000D01*
X41965001Y-63654842D01*
X39866918Y-65752925D01*
X39676260Y-65715000D01*
X39383740Y-65715000D01*
X39096842Y-65772068D01*
X38826589Y-65884010D01*
X38583368Y-66046525D01*
X38376525Y-66253368D01*
X38214010Y-66496589D01*
X38102068Y-66766842D01*
X38045000Y-67053740D01*
X29503336Y-67053740D01*
X29555063Y-66960067D01*
X29849929Y-66033757D01*
X29958414Y-65067719D01*
X29876351Y-64099079D01*
X29606893Y-63165062D01*
X29160394Y-62301560D01*
X29085149Y-62188946D01*
X28482818Y-61696787D01*
X25179605Y-65000000D01*
X24820395Y-65000000D01*
X21517182Y-61696787D01*
X20914851Y-62188946D01*
X20660000Y-62650466D01*
X20660000Y-61517182D01*
X21696787Y-61517182D01*
X25000000Y-64820395D01*
X28303213Y-61517182D01*
X27811054Y-60914851D01*
X26960067Y-60444937D01*
X26033757Y-60150071D01*
X25067719Y-60041586D01*
X24099079Y-60123649D01*
X23165062Y-60393107D01*
X22301560Y-60839606D01*
X22188946Y-60914851D01*
X21696787Y-61517182D01*
X20660000Y-61517182D01*
X20660000Y-55650000D01*
X21261928Y-55650000D01*
X21261928Y-57350000D01*
X21274188Y-57474482D01*
X21310498Y-57594180D01*
X21369463Y-57704494D01*
X21448815Y-57801185D01*
X21545506Y-57880537D01*
X21655820Y-57939502D01*
X21775518Y-57975812D01*
X21900000Y-57988072D01*
X23600000Y-57988072D01*
X23724482Y-57975812D01*
X23844180Y-57939502D01*
X23954494Y-57880537D01*
X24051185Y-57801185D01*
X24130537Y-57704494D01*
X24167683Y-57635000D01*
X28955752Y-57635000D01*
X29122499Y-57618577D01*
X29223060Y-57588072D01*
X29500000Y-57588072D01*
X29624482Y-57575812D01*
X29744180Y-57539502D01*
X29854494Y-57480537D01*
X29951185Y-57401185D01*
X30030537Y-57304494D01*
X30089502Y-57194180D01*
X30125812Y-57074482D01*
X30138072Y-56950000D01*
X30138072Y-56050000D01*
X30125812Y-55925518D01*
X30089502Y-55805820D01*
X30030537Y-55695506D01*
X29951185Y-55598815D01*
X29854494Y-55519463D01*
X29744180Y-55460498D01*
X29624482Y-55424188D01*
X29500000Y-55411928D01*
X29223060Y-55411928D01*
X29122499Y-55381423D01*
X28955752Y-55365000D01*
X24167683Y-55365000D01*
X24130537Y-55295506D01*
X24051185Y-55198815D01*
X23954494Y-55119463D01*
X23844180Y-55060498D01*
X23763534Y-55036034D01*
X23847588Y-54960269D01*
X24021641Y-54726920D01*
X24146825Y-54464099D01*
X24191476Y-54316890D01*
X24070155Y-54087000D01*
X22877000Y-54087000D01*
X22877000Y-54107000D01*
X22623000Y-54107000D01*
X22623000Y-54087000D01*
X21429845Y-54087000D01*
X21308524Y-54316890D01*
X21353175Y-54464099D01*
X21478359Y-54726920D01*
X21652412Y-54960269D01*
X21736466Y-55036034D01*
X21655820Y-55060498D01*
X21545506Y-55119463D01*
X21448815Y-55198815D01*
X21369463Y-55295506D01*
X21310498Y-55405820D01*
X21274188Y-55525518D01*
X21261928Y-55650000D01*
X20660000Y-55650000D01*
X20660000Y-53603110D01*
X21308524Y-53603110D01*
X21429845Y-53833000D01*
X22623000Y-53833000D01*
X22623000Y-52639186D01*
X22877000Y-52639186D01*
X22877000Y-53833000D01*
X24070155Y-53833000D01*
X24191476Y-53603110D01*
X24146825Y-53455901D01*
X24021641Y-53193080D01*
X23847588Y-52959731D01*
X23631355Y-52764822D01*
X23381252Y-52615843D01*
X23106891Y-52518519D01*
X22877000Y-52639186D01*
X22623000Y-52639186D01*
X22393109Y-52518519D01*
X22118748Y-52615843D01*
X21868645Y-52764822D01*
X21652412Y-52959731D01*
X21478359Y-53193080D01*
X21353175Y-53455901D01*
X21308524Y-53603110D01*
X20660000Y-53603110D01*
X20660000Y-46950000D01*
X21999428Y-46950000D01*
X22011688Y-47074482D01*
X22047998Y-47194180D01*
X22106963Y-47304494D01*
X22186315Y-47401185D01*
X22283006Y-47480537D01*
X22393320Y-47539502D01*
X22513018Y-47575812D01*
X22637500Y-47588072D01*
X22839250Y-47585000D01*
X22998000Y-47426250D01*
X22998000Y-46377000D01*
X22161250Y-46377000D01*
X22002500Y-46535750D01*
X21999428Y-46950000D01*
X20660000Y-46950000D01*
X20660000Y-37500000D01*
X21109509Y-37500000D01*
X21115000Y-37555752D01*
X21115000Y-37611788D01*
X21125932Y-37666747D01*
X21131423Y-37722499D01*
X21147685Y-37776106D01*
X21158617Y-37831067D01*
X21180063Y-37882842D01*
X21196324Y-37936447D01*
X21222731Y-37985851D01*
X21244176Y-38037624D01*
X21275307Y-38084214D01*
X21301716Y-38133623D01*
X21337259Y-38176932D01*
X21368388Y-38223520D01*
X21408009Y-38263141D01*
X21443551Y-38306449D01*
X21486859Y-38341991D01*
X21526480Y-38381612D01*
X21573068Y-38412741D01*
X21616377Y-38448284D01*
X21665786Y-38474693D01*
X21712376Y-38505824D01*
X21764149Y-38527269D01*
X21813553Y-38553676D01*
X21867158Y-38569937D01*
X21918933Y-38591383D01*
X21973894Y-38602315D01*
X22027501Y-38618577D01*
X22083253Y-38624068D01*
X22138212Y-38635000D01*
X22556950Y-38635000D01*
X22551716Y-38641378D01*
X22446324Y-38838554D01*
X22381423Y-39052502D01*
X22369956Y-39168933D01*
X22359509Y-39275001D01*
X22365000Y-39330752D01*
X22365000Y-39611788D01*
X22375932Y-39666748D01*
X22381423Y-39722498D01*
X22397684Y-39776103D01*
X22408617Y-39831067D01*
X22430064Y-39882845D01*
X22446324Y-39936446D01*
X22472730Y-39985848D01*
X22494176Y-40037624D01*
X22525307Y-40084215D01*
X22551716Y-40133623D01*
X22587259Y-40176932D01*
X22618388Y-40223520D01*
X22658009Y-40263141D01*
X22693551Y-40306449D01*
X22736859Y-40341991D01*
X22769868Y-40375000D01*
X22736849Y-40408019D01*
X22693552Y-40443552D01*
X22658019Y-40486849D01*
X22618388Y-40526480D01*
X22587251Y-40573080D01*
X22551717Y-40616378D01*
X22525313Y-40665776D01*
X22494176Y-40712376D01*
X22472728Y-40764155D01*
X22446324Y-40813554D01*
X22430064Y-40867155D01*
X22408617Y-40918933D01*
X22397684Y-40973897D01*
X22381423Y-41027502D01*
X22375932Y-41083252D01*
X22365000Y-41138212D01*
X22365000Y-41194249D01*
X22359509Y-41250000D01*
X22365000Y-41305751D01*
X22365000Y-41361788D01*
X22375932Y-41416748D01*
X22381423Y-41472498D01*
X22397684Y-41526103D01*
X22408617Y-41581067D01*
X22430064Y-41632845D01*
X22446324Y-41686446D01*
X22472728Y-41735845D01*
X22494176Y-41787624D01*
X22525313Y-41834224D01*
X22551717Y-41883622D01*
X22587251Y-41926921D01*
X22618388Y-41973520D01*
X22776480Y-42131612D01*
X22776483Y-42131614D01*
X22859869Y-42215000D01*
X22797999Y-42215000D01*
X22797999Y-42373748D01*
X22639251Y-42215000D01*
X22175001Y-42211928D01*
X22050519Y-42224188D01*
X21930821Y-42260498D01*
X21820507Y-42319463D01*
X21723816Y-42398815D01*
X21644464Y-42495506D01*
X21585499Y-42605820D01*
X21549189Y-42725518D01*
X21536929Y-42850000D01*
X21540001Y-43564250D01*
X21698751Y-43723000D01*
X22798001Y-43723000D01*
X22798001Y-43703000D01*
X23052001Y-43703000D01*
X23052001Y-43723000D01*
X23072001Y-43723000D01*
X23072001Y-43977000D01*
X23052001Y-43977000D01*
X23052001Y-43997000D01*
X22798001Y-43997000D01*
X22798001Y-43977000D01*
X21698751Y-43977000D01*
X21540001Y-44135750D01*
X21536929Y-44850000D01*
X21549189Y-44974482D01*
X21585499Y-45094180D01*
X21644464Y-45204494D01*
X21723816Y-45301185D01*
X21820507Y-45380537D01*
X21930821Y-45439502D01*
X22008005Y-45462915D01*
X21999428Y-45550000D01*
X22002500Y-45964250D01*
X22161250Y-46123000D01*
X22998000Y-46123000D01*
X22998000Y-46103000D01*
X23252000Y-46103000D01*
X23252000Y-46123000D01*
X23272000Y-46123000D01*
X23272000Y-46377000D01*
X23252000Y-46377000D01*
X23252000Y-47426250D01*
X23410750Y-47585000D01*
X23612500Y-47588072D01*
X23736982Y-47575812D01*
X23856680Y-47539502D01*
X23966994Y-47480537D01*
X24063685Y-47401185D01*
X24127492Y-47323436D01*
X24132708Y-47329792D01*
X24266336Y-47439458D01*
X24418791Y-47520947D01*
X24584215Y-47571128D01*
X24756250Y-47588072D01*
X25243750Y-47588072D01*
X25415785Y-47571128D01*
X25581209Y-47520947D01*
X25733664Y-47439458D01*
X25867292Y-47329792D01*
X25976958Y-47196164D01*
X26058447Y-47043709D01*
X26108628Y-46878285D01*
X26124396Y-46718194D01*
X26173285Y-46658622D01*
X26235241Y-46542710D01*
X26259053Y-46621209D01*
X26340542Y-46773664D01*
X26450208Y-46907292D01*
X26535756Y-46977500D01*
X26450208Y-47047708D01*
X26340542Y-47181336D01*
X26259053Y-47333791D01*
X26208872Y-47499215D01*
X26191928Y-47671250D01*
X26191928Y-47930258D01*
X26172009Y-48132500D01*
X26177501Y-48188261D01*
X26177500Y-50555751D01*
X26193923Y-50722498D01*
X26252682Y-50916198D01*
X26253392Y-50923408D01*
X26302150Y-51084142D01*
X26381329Y-51232275D01*
X26487885Y-51362115D01*
X26617725Y-51468671D01*
X26765858Y-51547850D01*
X26926592Y-51596608D01*
X27061326Y-51609878D01*
X27090001Y-51618577D01*
X27312500Y-51640491D01*
X27534998Y-51618577D01*
X27563673Y-51609879D01*
X27698408Y-51596608D01*
X27765001Y-51576407D01*
X27765000Y-52403855D01*
X27710498Y-52505820D01*
X27674188Y-52625518D01*
X27661928Y-52750000D01*
X27661928Y-53650000D01*
X27674188Y-53774482D01*
X27710498Y-53894180D01*
X27769463Y-54004494D01*
X27848815Y-54101185D01*
X27945506Y-54180537D01*
X28055820Y-54239502D01*
X28175518Y-54275812D01*
X28300000Y-54288072D01*
X28576940Y-54288072D01*
X28677501Y-54318577D01*
X28900000Y-54340491D01*
X29122498Y-54318577D01*
X29223059Y-54288072D01*
X29500000Y-54288072D01*
X29624482Y-54275812D01*
X29744180Y-54239502D01*
X29854494Y-54180537D01*
X29951185Y-54101185D01*
X30030537Y-54004494D01*
X30089502Y-53894180D01*
X30125812Y-53774482D01*
X30138072Y-53650000D01*
X30138072Y-52750000D01*
X30135118Y-52720000D01*
X40081928Y-52720000D01*
X40094188Y-52844482D01*
X40126197Y-52950000D01*
X40094188Y-53055518D01*
X40081928Y-53180000D01*
X40085000Y-53214250D01*
X40243750Y-53373000D01*
X40888000Y-53373000D01*
X40888000Y-52527000D01*
X40243750Y-52527000D01*
X40085000Y-52685750D01*
X40081928Y-52720000D01*
X30135118Y-52720000D01*
X30125812Y-52625518D01*
X30089502Y-52505820D01*
X30035000Y-52403856D01*
X30035000Y-50568252D01*
X30040491Y-50512500D01*
X30029224Y-50398102D01*
X30018577Y-50290001D01*
X29953676Y-50076053D01*
X29936955Y-50044770D01*
X29897850Y-49915858D01*
X29818671Y-49767725D01*
X29712115Y-49637885D01*
X29582275Y-49531329D01*
X29434142Y-49452150D01*
X29273408Y-49403392D01*
X29138673Y-49390121D01*
X29109998Y-49381423D01*
X28887500Y-49359509D01*
X28665002Y-49381423D01*
X28636327Y-49390121D01*
X28501592Y-49403392D01*
X28447500Y-49419801D01*
X28447500Y-48907279D01*
X28476164Y-48891958D01*
X28609792Y-48782292D01*
X28719458Y-48648664D01*
X28800947Y-48496209D01*
X28851128Y-48330785D01*
X28868072Y-48158750D01*
X28868072Y-47671250D01*
X28851128Y-47499215D01*
X28800947Y-47333791D01*
X28719458Y-47181336D01*
X28609792Y-47047708D01*
X28524244Y-46977500D01*
X28609792Y-46907292D01*
X28719458Y-46773664D01*
X28800947Y-46621209D01*
X28851128Y-46455785D01*
X28868072Y-46283750D01*
X28868072Y-45796250D01*
X28851128Y-45624215D01*
X28800947Y-45458791D01*
X28719596Y-45306594D01*
X28726186Y-45301185D01*
X28805538Y-45204494D01*
X28864503Y-45094180D01*
X28900813Y-44974482D01*
X28901008Y-44972500D01*
X30055752Y-44972500D01*
X30151477Y-44963072D01*
X30456250Y-44963072D01*
X30628285Y-44946128D01*
X30793709Y-44895947D01*
X30946164Y-44814458D01*
X31079792Y-44704792D01*
X31189458Y-44571164D01*
X31270947Y-44418709D01*
X31321128Y-44253285D01*
X31338072Y-44081250D01*
X31338072Y-43593750D01*
X31321128Y-43421715D01*
X31270947Y-43256291D01*
X31189458Y-43103836D01*
X31079792Y-42970208D01*
X31073436Y-42964992D01*
X31151185Y-42901185D01*
X31230537Y-42804494D01*
X31289502Y-42694180D01*
X31325812Y-42574482D01*
X31338072Y-42450000D01*
X31335000Y-42248250D01*
X31176250Y-42089500D01*
X30127000Y-42089500D01*
X30127000Y-42109500D01*
X29873000Y-42109500D01*
X29873000Y-42089500D01*
X28823750Y-42089500D01*
X28665000Y-42248250D01*
X28663491Y-42347363D01*
X28629495Y-42319463D01*
X28519181Y-42260498D01*
X28399483Y-42224188D01*
X28275001Y-42211928D01*
X27643205Y-42211928D01*
X27841989Y-42013144D01*
X27841994Y-42013138D01*
X27881612Y-41973520D01*
X27912741Y-41926933D01*
X27948284Y-41883623D01*
X27974693Y-41834214D01*
X28005824Y-41787624D01*
X28027269Y-41735851D01*
X28053676Y-41686447D01*
X28069937Y-41632842D01*
X28091383Y-41581067D01*
X28102315Y-41526106D01*
X28117818Y-41475000D01*
X28661928Y-41475000D01*
X28665000Y-41676750D01*
X28823750Y-41835500D01*
X29873000Y-41835500D01*
X29873000Y-40998750D01*
X30127000Y-40998750D01*
X30127000Y-41835500D01*
X31176250Y-41835500D01*
X31335000Y-41676750D01*
X31338072Y-41475000D01*
X31325812Y-41350518D01*
X31289502Y-41230820D01*
X31230537Y-41120506D01*
X31151185Y-41023815D01*
X31054494Y-40944463D01*
X30944180Y-40885498D01*
X30824482Y-40849188D01*
X30700000Y-40836928D01*
X30285750Y-40840000D01*
X30127000Y-40998750D01*
X29873000Y-40998750D01*
X29714250Y-40840000D01*
X29300000Y-40836928D01*
X29175518Y-40849188D01*
X29055820Y-40885498D01*
X28945506Y-40944463D01*
X28848815Y-41023815D01*
X28769463Y-41120506D01*
X28710498Y-41230820D01*
X28674188Y-41350518D01*
X28661928Y-41475000D01*
X28117818Y-41475000D01*
X28118577Y-41472499D01*
X28124068Y-41416747D01*
X28135000Y-41361788D01*
X28135000Y-41305752D01*
X28140491Y-41250000D01*
X28135000Y-41194248D01*
X28135000Y-41138212D01*
X28124068Y-41083253D01*
X28118577Y-41027501D01*
X28102315Y-40973894D01*
X28091383Y-40918933D01*
X28069937Y-40867158D01*
X28053676Y-40813553D01*
X28027269Y-40764149D01*
X28005824Y-40712376D01*
X27974693Y-40665786D01*
X27948284Y-40616377D01*
X27912741Y-40573068D01*
X27881612Y-40526480D01*
X27841991Y-40486859D01*
X27806449Y-40443551D01*
X27763141Y-40408009D01*
X27730132Y-40375000D01*
X27763141Y-40341991D01*
X27806449Y-40306449D01*
X27841991Y-40263141D01*
X27881612Y-40223520D01*
X27912741Y-40176932D01*
X27948284Y-40133623D01*
X27974693Y-40084214D01*
X28005824Y-40037624D01*
X28027269Y-39985851D01*
X28053676Y-39936447D01*
X28069937Y-39882842D01*
X28091383Y-39831067D01*
X28102315Y-39776106D01*
X28118577Y-39722499D01*
X28124068Y-39666747D01*
X28135000Y-39611788D01*
X28135000Y-39380751D01*
X28140491Y-39324999D01*
X28118577Y-39102500D01*
X28053676Y-38888552D01*
X27948284Y-38691376D01*
X27902017Y-38635000D01*
X28361788Y-38635000D01*
X28416747Y-38624068D01*
X28472499Y-38618577D01*
X28526106Y-38602315D01*
X28581067Y-38591383D01*
X28632842Y-38569937D01*
X28686447Y-38553676D01*
X28735851Y-38527269D01*
X28787624Y-38505824D01*
X28834214Y-38474693D01*
X28883623Y-38448284D01*
X28926932Y-38412741D01*
X28973520Y-38381612D01*
X29013141Y-38341991D01*
X29056449Y-38306449D01*
X29091991Y-38263141D01*
X29131612Y-38223520D01*
X29162741Y-38176932D01*
X29198284Y-38133623D01*
X29224693Y-38084214D01*
X29255824Y-38037624D01*
X29277269Y-37985851D01*
X29303676Y-37936447D01*
X29319937Y-37882842D01*
X29341383Y-37831067D01*
X29352315Y-37776106D01*
X29368577Y-37722499D01*
X29374068Y-37666747D01*
X29385000Y-37611788D01*
X29385000Y-37555752D01*
X29390491Y-37500000D01*
X29385000Y-37444248D01*
X29385000Y-37388212D01*
X29374068Y-37333253D01*
X29368577Y-37277501D01*
X29352315Y-37223894D01*
X29341383Y-37168933D01*
X29319937Y-37117158D01*
X29303676Y-37063553D01*
X29277269Y-37014149D01*
X29255824Y-36962376D01*
X29224693Y-36915786D01*
X29198284Y-36866377D01*
X29162741Y-36823068D01*
X29131612Y-36776480D01*
X29091991Y-36736859D01*
X29056449Y-36693551D01*
X29013141Y-36658009D01*
X28973520Y-36618388D01*
X28926932Y-36587259D01*
X28883623Y-36551716D01*
X28834214Y-36525307D01*
X28787624Y-36494176D01*
X28735851Y-36472731D01*
X28686447Y-36446324D01*
X28632842Y-36430063D01*
X28581067Y-36408617D01*
X28526106Y-36397685D01*
X28472499Y-36381423D01*
X28416747Y-36375932D01*
X28361788Y-36365000D01*
X27732455Y-36365000D01*
X27714503Y-36305820D01*
X27698030Y-36275000D01*
X37986928Y-36275000D01*
X37990000Y-36426750D01*
X38148750Y-36585500D01*
X38973000Y-36585500D01*
X38973000Y-35798750D01*
X38814250Y-35640000D01*
X38625000Y-35636928D01*
X38500518Y-35649188D01*
X38380820Y-35685498D01*
X38270506Y-35744463D01*
X38173815Y-35823815D01*
X38094463Y-35920506D01*
X38035498Y-36030820D01*
X37999188Y-36150518D01*
X37986928Y-36275000D01*
X27698030Y-36275000D01*
X27655538Y-36195506D01*
X27576186Y-36098815D01*
X27479495Y-36019463D01*
X27369181Y-35960498D01*
X27249483Y-35924188D01*
X27125001Y-35911928D01*
X26360001Y-35911928D01*
X26360001Y-35087258D01*
X26394775Y-35068671D01*
X26487500Y-34992574D01*
X26580225Y-35068671D01*
X26728358Y-35147850D01*
X26889092Y-35196608D01*
X27056250Y-35213072D01*
X27493750Y-35213072D01*
X27660908Y-35196608D01*
X27821642Y-35147850D01*
X27969775Y-35068671D01*
X28071729Y-34985000D01*
X28215771Y-34985000D01*
X28317725Y-35068671D01*
X28465858Y-35147850D01*
X28626592Y-35196608D01*
X28793750Y-35213072D01*
X29231250Y-35213072D01*
X29398408Y-35196608D01*
X29559142Y-35147850D01*
X29707275Y-35068671D01*
X29728930Y-35050900D01*
X29795506Y-35105537D01*
X29905820Y-35164502D01*
X30025518Y-35200812D01*
X30150000Y-35213072D01*
X30301750Y-35210000D01*
X30460500Y-35051250D01*
X30460500Y-34227000D01*
X30714500Y-34227000D01*
X30714500Y-35051250D01*
X30873250Y-35210000D01*
X31025000Y-35213072D01*
X31149482Y-35200812D01*
X31269180Y-35164502D01*
X31379494Y-35105537D01*
X31476185Y-35026185D01*
X31555537Y-34929494D01*
X31614502Y-34819180D01*
X31650812Y-34699482D01*
X31663072Y-34575000D01*
X31660000Y-34385750D01*
X31501250Y-34227000D01*
X30714500Y-34227000D01*
X30460500Y-34227000D01*
X30440500Y-34227000D01*
X30440500Y-33973000D01*
X30460500Y-33973000D01*
X30460500Y-33148750D01*
X30714500Y-33148750D01*
X30714500Y-33973000D01*
X31501250Y-33973000D01*
X31660000Y-33814250D01*
X31663072Y-33625000D01*
X31650812Y-33500518D01*
X31614502Y-33380820D01*
X31555537Y-33270506D01*
X31476185Y-33173815D01*
X31379494Y-33094463D01*
X31269180Y-33035498D01*
X31149482Y-32999188D01*
X31025000Y-32986928D01*
X30873250Y-32990000D01*
X30714500Y-33148750D01*
X30460500Y-33148750D01*
X30301750Y-32990000D01*
X30150000Y-32986928D01*
X30025518Y-32999188D01*
X29905820Y-33035498D01*
X29795506Y-33094463D01*
X29728930Y-33149100D01*
X29707275Y-33131329D01*
X29559142Y-33052150D01*
X29398408Y-33003392D01*
X29231250Y-32986928D01*
X28793750Y-32986928D01*
X28626592Y-33003392D01*
X28465858Y-33052150D01*
X28317725Y-33131329D01*
X28215771Y-33215000D01*
X28071729Y-33215000D01*
X27969775Y-33131329D01*
X27821642Y-33052150D01*
X27660908Y-33003392D01*
X27493750Y-32986928D01*
X27056250Y-32986928D01*
X26889092Y-33003392D01*
X26728358Y-33052150D01*
X26580225Y-33131329D01*
X26487500Y-33207426D01*
X26394775Y-33131329D01*
X26246642Y-33052150D01*
X26085908Y-33003392D01*
X25951173Y-32990121D01*
X25922498Y-32981423D01*
X25699999Y-32959509D01*
X25477501Y-32981423D01*
X25448826Y-32990122D01*
X25314092Y-33003392D01*
X25153358Y-33052150D01*
X25005225Y-33131329D01*
X24875385Y-33237885D01*
X24768829Y-33367725D01*
X24701867Y-33493002D01*
X24461861Y-33733008D01*
X24418553Y-33768550D01*
X24276718Y-33941376D01*
X24271186Y-33951726D01*
X24171325Y-34138553D01*
X24106424Y-34352501D01*
X24084510Y-34574999D01*
X24090002Y-34630760D01*
X24090002Y-35911928D01*
X23325001Y-35911928D01*
X23200519Y-35924188D01*
X23080821Y-35960498D01*
X22970507Y-36019463D01*
X22873816Y-36098815D01*
X22794464Y-36195506D01*
X22735499Y-36305820D01*
X22717547Y-36365000D01*
X22138212Y-36365000D01*
X22083253Y-36375932D01*
X22027501Y-36381423D01*
X21973894Y-36397685D01*
X21918933Y-36408617D01*
X21867158Y-36430063D01*
X21813553Y-36446324D01*
X21764149Y-36472731D01*
X21712376Y-36494176D01*
X21665786Y-36525307D01*
X21616377Y-36551716D01*
X21573068Y-36587259D01*
X21526480Y-36618388D01*
X21486859Y-36658009D01*
X21443551Y-36693551D01*
X21408009Y-36736859D01*
X21368388Y-36776480D01*
X21337259Y-36823068D01*
X21301716Y-36866377D01*
X21275307Y-36915786D01*
X21244176Y-36962376D01*
X21222731Y-37014149D01*
X21196324Y-37063553D01*
X21180063Y-37117158D01*
X21158617Y-37168933D01*
X21147685Y-37223894D01*
X21131423Y-37277501D01*
X21125932Y-37333253D01*
X21115000Y-37388212D01*
X21115000Y-37444248D01*
X21109509Y-37500000D01*
X20660000Y-37500000D01*
X20660000Y-28482818D01*
X21696787Y-28482818D01*
X22188946Y-29085149D01*
X23039933Y-29555063D01*
X23966243Y-29849929D01*
X24932281Y-29958414D01*
X25900921Y-29876351D01*
X26834938Y-29606893D01*
X27698440Y-29160394D01*
X27811054Y-29085149D01*
X28303213Y-28482818D01*
X25000000Y-25179605D01*
X21696787Y-28482818D01*
X20660000Y-28482818D01*
X20660000Y-27351093D01*
X20839606Y-27698440D01*
X20914851Y-27811054D01*
X21517182Y-28303213D01*
X24820395Y-25000000D01*
X25179605Y-25000000D01*
X28482818Y-28303213D01*
X29085149Y-27811054D01*
X29555063Y-26960067D01*
X29849929Y-26033757D01*
X29958414Y-25067719D01*
X29876351Y-24099079D01*
X29606893Y-23165062D01*
X29160394Y-22301560D01*
X29085149Y-22188946D01*
X28731522Y-21900000D01*
X32861928Y-21900000D01*
X32861928Y-23600000D01*
X32874188Y-23724482D01*
X32910498Y-23844180D01*
X32969463Y-23954494D01*
X33048815Y-24051185D01*
X33145506Y-24130537D01*
X33255820Y-24189502D01*
X33375518Y-24225812D01*
X33500000Y-24238072D01*
X35200000Y-24238072D01*
X35324482Y-24225812D01*
X35444180Y-24189502D01*
X35554494Y-24130537D01*
X35651185Y-24051185D01*
X35730537Y-23954494D01*
X35789502Y-23844180D01*
X35813966Y-23763534D01*
X35889731Y-23847588D01*
X36123080Y-24021641D01*
X36385901Y-24146825D01*
X36533110Y-24191476D01*
X36763000Y-24070155D01*
X36763000Y-22877000D01*
X37017000Y-22877000D01*
X37017000Y-24070155D01*
X37246890Y-24191476D01*
X37394099Y-24146825D01*
X37656920Y-24021641D01*
X37890269Y-23847588D01*
X38085178Y-23631355D01*
X38234157Y-23381252D01*
X38331481Y-23106891D01*
X38210814Y-22877000D01*
X37017000Y-22877000D01*
X36763000Y-22877000D01*
X36743000Y-22877000D01*
X36743000Y-22623000D01*
X36763000Y-22623000D01*
X36763000Y-21429845D01*
X37017000Y-21429845D01*
X37017000Y-22623000D01*
X38210814Y-22623000D01*
X38331481Y-22393109D01*
X38234157Y-22118748D01*
X38085178Y-21868645D01*
X37890269Y-21652412D01*
X37656920Y-21478359D01*
X37394099Y-21353175D01*
X37246890Y-21308524D01*
X37017000Y-21429845D01*
X36763000Y-21429845D01*
X36533110Y-21308524D01*
X36385901Y-21353175D01*
X36123080Y-21478359D01*
X35889731Y-21652412D01*
X35813966Y-21736466D01*
X35789502Y-21655820D01*
X35730537Y-21545506D01*
X35651185Y-21448815D01*
X35554494Y-21369463D01*
X35444180Y-21310498D01*
X35324482Y-21274188D01*
X35200000Y-21261928D01*
X33500000Y-21261928D01*
X33375518Y-21274188D01*
X33255820Y-21310498D01*
X33145506Y-21369463D01*
X33048815Y-21448815D01*
X32969463Y-21545506D01*
X32910498Y-21655820D01*
X32874188Y-21775518D01*
X32861928Y-21900000D01*
X28731522Y-21900000D01*
X28482818Y-21696787D01*
X25179605Y-25000000D01*
X24820395Y-25000000D01*
X24806253Y-24985858D01*
X24985858Y-24806253D01*
X25000000Y-24820395D01*
X28303213Y-21517182D01*
X27811054Y-20914851D01*
X27349534Y-20660000D01*
X62648907Y-20660000D01*
X62301560Y-20839606D01*
%TA.AperFunction,Conductor*%
D26*
G36*
X62301560Y-20839606D02*
G01*
X62188946Y-20914851D01*
X61696787Y-21517182D01*
X65000000Y-24820395D01*
X65014143Y-24806253D01*
X65193748Y-24985858D01*
X65179605Y-25000000D01*
X68482818Y-28303213D01*
X69085149Y-27811054D01*
X69340000Y-27349534D01*
X69340000Y-34229843D01*
X68892347Y-33782190D01*
X68867764Y-33752236D01*
X68748233Y-33654138D01*
X68611860Y-33581246D01*
X68463887Y-33536359D01*
X68348561Y-33525000D01*
X68348553Y-33525000D01*
X68310000Y-33521203D01*
X68271447Y-33525000D01*
X67980881Y-33525000D01*
X67951185Y-33488815D01*
X67854494Y-33409463D01*
X67744180Y-33350498D01*
X67624482Y-33314188D01*
X67500000Y-33301928D01*
X65100000Y-33301928D01*
X64975518Y-33314188D01*
X64855820Y-33350498D01*
X64745506Y-33409463D01*
X64648815Y-33488815D01*
X64569463Y-33585506D01*
X64510498Y-33695820D01*
X64474188Y-33815518D01*
X64461928Y-33940000D01*
X64461928Y-34680000D01*
X64474188Y-34804482D01*
X64510498Y-34924180D01*
X64521627Y-34945000D01*
X64510498Y-34965820D01*
X64474188Y-35085518D01*
X64461928Y-35210000D01*
X64461928Y-35950000D01*
X64474188Y-36074482D01*
X64484983Y-36110070D01*
X64448140Y-36121246D01*
X64311767Y-36194138D01*
X64203749Y-36282787D01*
X64189502Y-36235820D01*
X64178373Y-36215000D01*
X64189502Y-36194180D01*
X64225812Y-36074482D01*
X64238072Y-35950000D01*
X64235000Y-35865750D01*
X64076250Y-35707000D01*
X62527000Y-35707000D01*
X62527000Y-36723000D01*
X62547000Y-36723000D01*
X62547000Y-36977000D01*
X62527000Y-36977000D01*
X62527000Y-36997000D01*
X62273000Y-36997000D01*
X62273000Y-36977000D01*
X60723750Y-36977000D01*
X60565000Y-37135750D01*
X60561928Y-37220000D01*
X60574188Y-37344482D01*
X60610498Y-37464180D01*
X60621627Y-37485000D01*
X60610498Y-37505820D01*
X60574188Y-37625518D01*
X60561928Y-37750000D01*
X60561928Y-38490000D01*
X60574188Y-38614482D01*
X60610498Y-38734180D01*
X60621627Y-38755000D01*
X60610498Y-38775820D01*
X60574188Y-38895518D01*
X60561928Y-39020000D01*
X60565000Y-39104250D01*
X60723750Y-39263000D01*
X62273000Y-39263000D01*
X62273000Y-39243000D01*
X62527000Y-39243000D01*
X62527000Y-39263000D01*
X62547000Y-39263000D01*
X62547000Y-39517000D01*
X62527000Y-39517000D01*
X62527000Y-39537000D01*
X62273000Y-39537000D01*
X62273000Y-39517000D01*
X60723750Y-39517000D01*
X60565000Y-39675750D01*
X60561928Y-39760000D01*
X60574188Y-39884482D01*
X60610498Y-40004180D01*
X60643007Y-40065000D01*
X58575158Y-40065000D01*
X54832347Y-36322190D01*
X54807764Y-36292236D01*
X54688233Y-36194138D01*
X54551860Y-36121246D01*
X54403887Y-36076359D01*
X54288561Y-36065000D01*
X54288553Y-36065000D01*
X54250000Y-36061203D01*
X54211447Y-36065000D01*
X50288556Y-36065000D01*
X50250000Y-36061203D01*
X50211444Y-36065000D01*
X50211439Y-36065000D01*
X50171026Y-36068980D01*
X50096113Y-36076358D01*
X49948140Y-36121246D01*
X49811767Y-36194138D01*
X49692236Y-36292236D01*
X49667653Y-36322190D01*
X48924843Y-37065000D01*
X46038552Y-37065000D01*
X45999999Y-37061203D01*
X45961446Y-37065000D01*
X45961439Y-37065000D01*
X45860490Y-37074943D01*
X45846112Y-37076359D01*
X45818175Y-37084834D01*
X45698140Y-37121246D01*
X45561767Y-37194138D01*
X45442236Y-37292236D01*
X45417655Y-37322188D01*
X45222185Y-37517658D01*
X45192237Y-37542236D01*
X45167659Y-37572184D01*
X45167655Y-37572188D01*
X45143858Y-37601185D01*
X45094139Y-37661767D01*
X45059272Y-37727000D01*
X45035000Y-37772409D01*
X45035000Y-35950000D01*
X60561928Y-35950000D01*
X60574188Y-36074482D01*
X60610498Y-36194180D01*
X60621627Y-36215000D01*
X60610498Y-36235820D01*
X60574188Y-36355518D01*
X60561928Y-36480000D01*
X60565000Y-36564250D01*
X60723750Y-36723000D01*
X62273000Y-36723000D01*
X62273000Y-35707000D01*
X60723750Y-35707000D01*
X60565000Y-35865750D01*
X60561928Y-35950000D01*
X45035000Y-35950000D01*
X45035000Y-35796006D01*
X45065757Y-35792977D01*
X45213125Y-35748274D01*
X45250000Y-35728564D01*
X45286875Y-35748274D01*
X45434243Y-35792977D01*
X45587500Y-35808072D01*
X45882500Y-35808072D01*
X46035757Y-35792977D01*
X46183125Y-35748274D01*
X46318940Y-35675679D01*
X46437983Y-35577983D01*
X46535679Y-35458940D01*
X46608274Y-35323125D01*
X46652977Y-35175757D01*
X46668072Y-35022500D01*
X46668072Y-34677500D01*
X46652977Y-34524243D01*
X46621660Y-34421004D01*
X46642205Y-34390256D01*
X46711459Y-34223061D01*
X59540000Y-34223061D01*
X59540000Y-34426939D01*
X59579774Y-34626898D01*
X59657795Y-34815256D01*
X59771063Y-34984774D01*
X59915226Y-35128937D01*
X60084744Y-35242205D01*
X60273102Y-35320226D01*
X60473061Y-35360000D01*
X60630750Y-35360000D01*
X60723750Y-35453000D01*
X62273000Y-35453000D01*
X62273000Y-35433000D01*
X62527000Y-35433000D01*
X62527000Y-35453000D01*
X64076250Y-35453000D01*
X64235000Y-35294250D01*
X64238072Y-35210000D01*
X64225812Y-35085518D01*
X64189502Y-34965820D01*
X64178373Y-34945000D01*
X64189502Y-34924180D01*
X64225812Y-34804482D01*
X64238072Y-34680000D01*
X64238072Y-33940000D01*
X64225812Y-33815518D01*
X64189502Y-33695820D01*
X64130537Y-33585506D01*
X64051185Y-33488815D01*
X63954494Y-33409463D01*
X63844180Y-33350498D01*
X63724482Y-33314188D01*
X63600000Y-33301928D01*
X61200000Y-33301928D01*
X61075518Y-33314188D01*
X60955820Y-33350498D01*
X60943207Y-33357240D01*
X60876898Y-33329774D01*
X60676939Y-33290000D01*
X60473061Y-33290000D01*
X60273102Y-33329774D01*
X60084744Y-33407795D01*
X59915226Y-33521063D01*
X59771063Y-33665226D01*
X59657795Y-33834744D01*
X59579774Y-34023102D01*
X59540000Y-34223061D01*
X46711459Y-34223061D01*
X46720226Y-34201898D01*
X46760000Y-34001939D01*
X46760000Y-33798061D01*
X46720226Y-33598102D01*
X46642205Y-33409744D01*
X46528937Y-33240226D01*
X46384774Y-33096063D01*
X46215256Y-32982795D01*
X46026898Y-32904774D01*
X45826939Y-32865000D01*
X45650000Y-32865000D01*
X45650000Y-28482818D01*
X61696787Y-28482818D01*
X62188946Y-29085149D01*
X63039933Y-29555063D01*
X63966243Y-29849929D01*
X64932281Y-29958414D01*
X65900921Y-29876351D01*
X66834938Y-29606893D01*
X67698440Y-29160394D01*
X67811054Y-29085149D01*
X68303213Y-28482818D01*
X65000000Y-25179605D01*
X61696787Y-28482818D01*
X45650000Y-28482818D01*
X45650000Y-24932281D01*
X60041586Y-24932281D01*
X60123649Y-25900921D01*
X60393107Y-26834938D01*
X60839606Y-27698440D01*
X60914851Y-27811054D01*
X61517182Y-28303213D01*
X64820395Y-25000000D01*
X61517182Y-21696787D01*
X60914851Y-22188946D01*
X60444937Y-23039933D01*
X60150071Y-23966243D01*
X60041586Y-24932281D01*
X45650000Y-24932281D01*
X45650000Y-24691578D01*
X46121040Y-24220539D01*
X46193740Y-24235000D01*
X46486260Y-24235000D01*
X46773158Y-24177932D01*
X47043411Y-24065990D01*
X47286632Y-23903475D01*
X47493475Y-23696632D01*
X47655990Y-23453411D01*
X47767932Y-23183158D01*
X47825000Y-22896260D01*
X47825000Y-22603740D01*
X47767932Y-22316842D01*
X47655990Y-22046589D01*
X47493475Y-21803368D01*
X47286632Y-21596525D01*
X47043411Y-21434010D01*
X46773158Y-21322068D01*
X46486260Y-21265000D01*
X46193740Y-21265000D01*
X45906842Y-21322068D01*
X45636589Y-21434010D01*
X45393368Y-21596525D01*
X45261513Y-21728380D01*
X45239502Y-21655820D01*
X45180537Y-21545506D01*
X45101185Y-21448815D01*
X45004494Y-21369463D01*
X44894180Y-21310498D01*
X44774482Y-21274188D01*
X44650000Y-21261928D01*
X42950000Y-21261928D01*
X42825518Y-21274188D01*
X42705820Y-21310498D01*
X42595506Y-21369463D01*
X42498815Y-21448815D01*
X42419463Y-21545506D01*
X42360498Y-21655820D01*
X42324188Y-21775518D01*
X42311928Y-21900000D01*
X42311928Y-23600000D01*
X42324188Y-23724482D01*
X42360498Y-23844180D01*
X42419463Y-23954494D01*
X42498815Y-24051185D01*
X42595506Y-24130537D01*
X42705820Y-24189502D01*
X42825518Y-24225812D01*
X42865001Y-24229701D01*
X42865000Y-32865000D01*
X42673061Y-32865000D01*
X42473102Y-32904774D01*
X42284744Y-32982795D01*
X42115226Y-33096063D01*
X41971063Y-33240226D01*
X41857795Y-33409744D01*
X41779774Y-33598102D01*
X41740000Y-33798061D01*
X41740000Y-34001939D01*
X41779774Y-34201898D01*
X41857795Y-34390256D01*
X41865503Y-34401792D01*
X41759774Y-34296063D01*
X41590256Y-34182795D01*
X41401898Y-34104774D01*
X41201939Y-34065000D01*
X40998061Y-34065000D01*
X40798102Y-34104774D01*
X40609744Y-34182795D01*
X40440226Y-34296063D01*
X40296063Y-34440226D01*
X40182795Y-34609744D01*
X40138400Y-34716922D01*
X39948102Y-34754774D01*
X39759744Y-34832795D01*
X39590226Y-34946063D01*
X39446063Y-35090226D01*
X39332795Y-35259744D01*
X39254774Y-35448102D01*
X39215000Y-35648061D01*
X39215000Y-35851939D01*
X39227000Y-35912268D01*
X39227000Y-36585500D01*
X39247000Y-36585500D01*
X39247000Y-36839500D01*
X39227000Y-36839500D01*
X39227000Y-36859500D01*
X38973000Y-36859500D01*
X38973000Y-36839500D01*
X38148750Y-36839500D01*
X37990000Y-36998250D01*
X37986928Y-37150000D01*
X37998254Y-37265000D01*
X37798061Y-37265000D01*
X37598102Y-37304774D01*
X37425000Y-37376476D01*
X37251898Y-37304774D01*
X37051939Y-37265000D01*
X36848061Y-37265000D01*
X36648102Y-37304774D01*
X36459744Y-37382795D01*
X36290226Y-37496063D01*
X36146063Y-37640226D01*
X36032795Y-37809744D01*
X35954774Y-37998102D01*
X35915000Y-38198061D01*
X35915000Y-38401939D01*
X35954774Y-38601898D01*
X36032795Y-38790256D01*
X36146063Y-38959774D01*
X36290226Y-39103937D01*
X36459744Y-39217205D01*
X36648102Y-39295226D01*
X36848061Y-39335000D01*
X36970427Y-39335000D01*
X36935820Y-39345498D01*
X36829933Y-39402097D01*
X36820557Y-39394403D01*
X36798601Y-39382667D01*
X36774776Y-39375440D01*
X36750000Y-39373000D01*
X31750000Y-39373000D01*
X31725224Y-39375440D01*
X31701399Y-39382667D01*
X31679443Y-39394403D01*
X31660197Y-39410197D01*
X31644403Y-39429443D01*
X31632667Y-39451399D01*
X31625440Y-39475224D01*
X31623000Y-39500000D01*
X31623000Y-47250000D01*
X31625440Y-47274776D01*
X31632667Y-47298601D01*
X31644403Y-47320557D01*
X31660197Y-47339803D01*
X31679443Y-47355597D01*
X31701399Y-47367333D01*
X31725224Y-47374560D01*
X31750000Y-47377000D01*
X35541928Y-47377000D01*
X35541928Y-47632500D01*
X35557023Y-47785757D01*
X35601726Y-47933125D01*
X35615000Y-47957959D01*
X35615000Y-48141785D01*
X35562500Y-48205756D01*
X35492292Y-48120208D01*
X35358664Y-48010542D01*
X35206209Y-47929053D01*
X35040785Y-47878872D01*
X34868750Y-47861928D01*
X34381250Y-47861928D01*
X34209215Y-47878872D01*
X34043791Y-47929053D01*
X33891336Y-48010542D01*
X33757708Y-48120208D01*
X33693722Y-48198175D01*
X33526939Y-48165000D01*
X33323061Y-48165000D01*
X33123102Y-48204774D01*
X32934744Y-48282795D01*
X32765226Y-48396063D01*
X32621063Y-48540226D01*
X32507795Y-48709744D01*
X32429774Y-48898102D01*
X32390000Y-49098061D01*
X32390000Y-49301939D01*
X32429774Y-49501898D01*
X32507795Y-49690256D01*
X32621063Y-49859774D01*
X32679194Y-49917905D01*
X32603411Y-50059687D01*
X32599546Y-50072429D01*
X32507795Y-50209744D01*
X32429774Y-50398102D01*
X32390000Y-50598061D01*
X32390000Y-50801939D01*
X32429774Y-51001898D01*
X32507795Y-51190256D01*
X32621063Y-51359774D01*
X32765226Y-51503937D01*
X32934744Y-51617205D01*
X33123102Y-51695226D01*
X33323061Y-51735000D01*
X33526939Y-51735000D01*
X33726898Y-51695226D01*
X33915256Y-51617205D01*
X34025000Y-51543877D01*
X34134744Y-51617205D01*
X34323102Y-51695226D01*
X34523061Y-51735000D01*
X34726939Y-51735000D01*
X34926898Y-51695226D01*
X35115256Y-51617205D01*
X35284774Y-51503937D01*
X35428937Y-51359774D01*
X35542205Y-51190256D01*
X35620226Y-51001898D01*
X35660000Y-50801939D01*
X35660000Y-50598061D01*
X35620226Y-50398102D01*
X35544746Y-50215877D01*
X35562500Y-50194244D01*
X35632708Y-50279792D01*
X35766336Y-50389458D01*
X35918791Y-50470947D01*
X36084215Y-50521128D01*
X36256250Y-50538072D01*
X36743750Y-50538072D01*
X36915785Y-50521128D01*
X37081209Y-50470947D01*
X37233664Y-50389458D01*
X37367292Y-50279792D01*
X37476958Y-50146164D01*
X37558447Y-49993709D01*
X37608628Y-49828285D01*
X37625572Y-49656250D01*
X37625572Y-48743750D01*
X37608628Y-48571715D01*
X37562021Y-48418072D01*
X37772500Y-48418072D01*
X37919667Y-48403577D01*
X37925629Y-48464113D01*
X37936515Y-48500000D01*
X37925629Y-48535887D01*
X37911928Y-48675000D01*
X37911928Y-48825000D01*
X37925629Y-48964113D01*
X37966207Y-49097881D01*
X38032102Y-49221162D01*
X38120782Y-49329218D01*
X38228838Y-49417898D01*
X38352119Y-49483793D01*
X38485887Y-49524371D01*
X38625000Y-49538072D01*
X40025000Y-49538072D01*
X40164113Y-49524371D01*
X40297881Y-49483793D01*
X40421162Y-49417898D01*
X40529218Y-49329218D01*
X40617898Y-49221162D01*
X40683793Y-49097881D01*
X40724371Y-48964113D01*
X40738072Y-48825000D01*
X40738072Y-48675000D01*
X40724371Y-48535887D01*
X40713485Y-48500000D01*
X40724371Y-48464113D01*
X40738072Y-48325000D01*
X40738072Y-48175000D01*
X40724371Y-48035887D01*
X40713485Y-48000000D01*
X40724371Y-47964113D01*
X40738072Y-47825000D01*
X40738072Y-47675000D01*
X40724371Y-47535887D01*
X40713485Y-47500000D01*
X40724371Y-47464113D01*
X40738072Y-47325000D01*
X40738072Y-47175000D01*
X40724371Y-47035887D01*
X40723798Y-47033997D01*
X40723937Y-47033561D01*
X40735000Y-46931750D01*
X40659018Y-46855768D01*
X40617898Y-46778838D01*
X40594231Y-46750000D01*
X40617898Y-46721162D01*
X40659018Y-46644232D01*
X40735000Y-46568250D01*
X40723937Y-46466439D01*
X40723798Y-46466003D01*
X40724371Y-46464113D01*
X40738072Y-46325000D01*
X40738072Y-46175000D01*
X40724371Y-46035887D01*
X40713485Y-46000000D01*
X40724371Y-45964113D01*
X40738072Y-45825000D01*
X40738072Y-45675000D01*
X40724371Y-45535887D01*
X40713485Y-45500000D01*
X40724371Y-45464113D01*
X40738072Y-45325000D01*
X40738072Y-45175000D01*
X40724371Y-45035887D01*
X40724102Y-45035000D01*
X41229868Y-45035000D01*
X41326480Y-45131612D01*
X41512376Y-45255824D01*
X41718933Y-45341383D01*
X41938212Y-45385000D01*
X42161788Y-45385000D01*
X42381067Y-45341383D01*
X42587624Y-45255824D01*
X42773520Y-45131612D01*
X42931612Y-44973520D01*
X43055824Y-44787624D01*
X43141383Y-44581067D01*
X43185000Y-44361788D01*
X43185000Y-44138212D01*
X43141383Y-43918933D01*
X43055824Y-43712376D01*
X42931612Y-43526480D01*
X42773520Y-43368388D01*
X42587624Y-43244176D01*
X42381067Y-43158617D01*
X42161788Y-43115000D01*
X41938212Y-43115000D01*
X41718933Y-43158617D01*
X41512376Y-43244176D01*
X41326480Y-43368388D01*
X41229868Y-43465000D01*
X40724102Y-43465000D01*
X40724371Y-43464113D01*
X40738072Y-43325000D01*
X40738072Y-43175000D01*
X40724371Y-43035887D01*
X40713485Y-43000000D01*
X40724371Y-42964113D01*
X40738072Y-42825000D01*
X40738072Y-42675000D01*
X40724371Y-42535887D01*
X40713485Y-42500000D01*
X40724371Y-42464113D01*
X40738072Y-42325000D01*
X40738072Y-42175000D01*
X40724371Y-42035887D01*
X40713485Y-42000000D01*
X40724371Y-41964113D01*
X40738072Y-41825000D01*
X40738072Y-41675000D01*
X40724371Y-41535887D01*
X40713485Y-41499999D01*
X40724371Y-41464113D01*
X40738072Y-41325000D01*
X40738072Y-41175000D01*
X40724371Y-41035887D01*
X40683793Y-40902119D01*
X40617898Y-40778838D01*
X40529218Y-40670782D01*
X40421162Y-40582102D01*
X40297881Y-40516207D01*
X40164113Y-40475629D01*
X40025000Y-40461928D01*
X38625000Y-40461928D01*
X38593808Y-40465000D01*
X38404250Y-40465000D01*
X38296250Y-40357000D01*
X38029763Y-40357000D01*
X37973125Y-40326726D01*
X37825757Y-40282023D01*
X37672500Y-40266928D01*
X37353000Y-40266928D01*
X37353000Y-40103000D01*
X37373000Y-40103000D01*
X37373000Y-39458750D01*
X37216514Y-39302264D01*
X37251898Y-39295226D01*
X37425000Y-39223524D01*
X37598102Y-39295226D01*
X37758599Y-39327151D01*
X37627000Y-39458750D01*
X37627000Y-40103000D01*
X38296250Y-40103000D01*
X38455000Y-39944250D01*
X38458072Y-39935000D01*
X38445812Y-39810518D01*
X38409502Y-39690820D01*
X38350537Y-39580506D01*
X38271185Y-39483815D01*
X38174494Y-39404463D01*
X38064180Y-39345498D01*
X38018629Y-39331680D01*
X38201898Y-39295226D01*
X38376017Y-39223103D01*
X38515858Y-39297850D01*
X38676592Y-39346608D01*
X38843750Y-39363072D01*
X39356250Y-39363072D01*
X39523408Y-39346608D01*
X39684142Y-39297850D01*
X39832275Y-39218671D01*
X39962115Y-39112115D01*
X40068671Y-38982275D01*
X40147850Y-38834142D01*
X40196608Y-38673408D01*
X40213072Y-38506250D01*
X40213072Y-38485000D01*
X40465001Y-38485000D01*
X40465000Y-38593803D01*
X40461928Y-38625000D01*
X40461928Y-40025000D01*
X40475629Y-40164113D01*
X40516207Y-40297881D01*
X40582102Y-40421162D01*
X40670782Y-40529218D01*
X40778838Y-40617898D01*
X40902119Y-40683793D01*
X41035887Y-40724371D01*
X41175000Y-40738072D01*
X41325000Y-40738072D01*
X41464113Y-40724371D01*
X41466003Y-40723798D01*
X41466439Y-40723937D01*
X41568250Y-40735000D01*
X41644232Y-40659018D01*
X41721162Y-40617898D01*
X41750000Y-40594231D01*
X41778838Y-40617898D01*
X41855768Y-40659018D01*
X41931750Y-40735000D01*
X42033561Y-40723937D01*
X42033997Y-40723798D01*
X42035887Y-40724371D01*
X42175000Y-40738072D01*
X42325000Y-40738072D01*
X42464113Y-40724371D01*
X42500000Y-40713485D01*
X42535887Y-40724371D01*
X42675000Y-40738072D01*
X42825000Y-40738072D01*
X42964113Y-40724371D01*
X43000000Y-40713485D01*
X43035887Y-40724371D01*
X43175000Y-40738072D01*
X43325000Y-40738072D01*
X43464113Y-40724371D01*
X43500000Y-40713485D01*
X43535887Y-40724371D01*
X43675000Y-40738072D01*
X43825000Y-40738072D01*
X43964113Y-40724371D01*
X44000000Y-40713485D01*
X44035887Y-40724371D01*
X44175000Y-40738072D01*
X44325000Y-40738072D01*
X44464113Y-40724371D01*
X44500000Y-40713485D01*
X44535887Y-40724371D01*
X44675000Y-40738072D01*
X44825000Y-40738072D01*
X44964113Y-40724371D01*
X45000000Y-40713485D01*
X45035887Y-40724371D01*
X45175000Y-40738072D01*
X45325000Y-40738072D01*
X45464113Y-40724371D01*
X45500000Y-40713485D01*
X45535887Y-40724371D01*
X45675000Y-40738072D01*
X45825000Y-40738072D01*
X45964113Y-40724371D01*
X46000000Y-40713485D01*
X46035887Y-40724371D01*
X46175000Y-40738072D01*
X46325000Y-40738072D01*
X46464113Y-40724371D01*
X46500000Y-40713485D01*
X46535887Y-40724371D01*
X46675000Y-40738072D01*
X46825000Y-40738072D01*
X46964113Y-40724371D01*
X47000000Y-40713485D01*
X47035887Y-40724371D01*
X47175000Y-40738072D01*
X47325000Y-40738072D01*
X47464113Y-40724371D01*
X47500000Y-40713485D01*
X47535887Y-40724371D01*
X47675000Y-40738072D01*
X47825000Y-40738072D01*
X47964113Y-40724371D01*
X48000000Y-40713485D01*
X48035887Y-40724371D01*
X48175000Y-40738072D01*
X48325000Y-40738072D01*
X48464113Y-40724371D01*
X48500000Y-40713485D01*
X48535887Y-40724371D01*
X48675000Y-40738072D01*
X48825000Y-40738072D01*
X48964113Y-40724371D01*
X49097881Y-40683793D01*
X49221162Y-40617898D01*
X49329218Y-40529218D01*
X49417898Y-40421162D01*
X49483793Y-40297881D01*
X49524371Y-40164113D01*
X49538072Y-40025000D01*
X49538072Y-39647085D01*
X49944907Y-39240250D01*
X49954188Y-39334482D01*
X49990498Y-39454180D01*
X49994312Y-39461316D01*
X49957023Y-39584243D01*
X49941928Y-39737500D01*
X49941928Y-39822376D01*
X49901359Y-39956114D01*
X49886203Y-40110000D01*
X49890001Y-40148562D01*
X49890001Y-40470299D01*
X49835887Y-40475629D01*
X49702119Y-40516207D01*
X49578838Y-40582102D01*
X49470782Y-40670782D01*
X49382102Y-40778838D01*
X49316207Y-40902119D01*
X49275629Y-41035887D01*
X49261928Y-41175000D01*
X49261928Y-41325000D01*
X49275629Y-41464113D01*
X49286515Y-41499999D01*
X49275629Y-41535887D01*
X49261928Y-41675000D01*
X49261928Y-41825000D01*
X49275629Y-41964113D01*
X49286515Y-42000000D01*
X49275629Y-42035887D01*
X49261928Y-42175000D01*
X49261928Y-42325000D01*
X49275629Y-42464113D01*
X49286515Y-42500000D01*
X49275629Y-42535887D01*
X49261928Y-42675000D01*
X49261928Y-42825000D01*
X49275629Y-42964113D01*
X49286515Y-43000000D01*
X49275629Y-43035887D01*
X49261928Y-43175000D01*
X49261928Y-43325000D01*
X49275629Y-43464113D01*
X49286515Y-43500000D01*
X49275629Y-43535887D01*
X49261928Y-43675000D01*
X49261928Y-43825000D01*
X49275629Y-43964113D01*
X49286515Y-44000000D01*
X49275629Y-44035887D01*
X49261928Y-44175000D01*
X49261928Y-44325000D01*
X49275629Y-44464113D01*
X49286515Y-44500000D01*
X49275629Y-44535887D01*
X49261928Y-44675000D01*
X49261928Y-44825000D01*
X49275629Y-44964113D01*
X49286515Y-45000000D01*
X49275629Y-45035887D01*
X49261928Y-45175000D01*
X49261928Y-45325000D01*
X49275629Y-45464113D01*
X49286515Y-45500000D01*
X49275629Y-45535887D01*
X49261928Y-45675000D01*
X49261928Y-45825000D01*
X49275629Y-45964113D01*
X49286515Y-46000000D01*
X49275629Y-46035887D01*
X49261928Y-46175000D01*
X49261928Y-46325000D01*
X49275629Y-46464113D01*
X49286515Y-46500000D01*
X49275629Y-46535887D01*
X49261928Y-46675000D01*
X49261928Y-46825000D01*
X49275629Y-46964113D01*
X49286515Y-47000000D01*
X49275629Y-47035887D01*
X49261928Y-47175000D01*
X49261928Y-47325000D01*
X49275629Y-47464113D01*
X49286515Y-47500000D01*
X49275629Y-47535887D01*
X49261928Y-47675000D01*
X49261928Y-47825000D01*
X49275629Y-47964113D01*
X49286515Y-48000000D01*
X49275629Y-48035887D01*
X49261928Y-48175000D01*
X49261928Y-48325000D01*
X49275629Y-48464113D01*
X49286515Y-48500000D01*
X49275629Y-48535887D01*
X49261928Y-48675000D01*
X49261928Y-48825000D01*
X49275629Y-48964113D01*
X49316207Y-49097881D01*
X49382102Y-49221162D01*
X49470782Y-49329218D01*
X49578838Y-49417898D01*
X49702119Y-49483793D01*
X49835887Y-49524371D01*
X49975000Y-49538072D01*
X51375000Y-49538072D01*
X51406192Y-49535000D01*
X52512099Y-49535000D01*
X52555337Y-49587687D01*
X52511315Y-49623815D01*
X52431963Y-49720506D01*
X52372998Y-49830820D01*
X52336688Y-49950518D01*
X52324428Y-50075000D01*
X52327500Y-50264250D01*
X52486250Y-50423000D01*
X53273000Y-50423000D01*
X53273000Y-50403000D01*
X53527000Y-50403000D01*
X53527000Y-50423000D01*
X53547000Y-50423000D01*
X53547000Y-50677000D01*
X53527000Y-50677000D01*
X53527000Y-51501250D01*
X53685750Y-51660000D01*
X53837500Y-51663072D01*
X53961982Y-51650812D01*
X54081680Y-51614502D01*
X54191994Y-51555537D01*
X54258570Y-51500900D01*
X54280225Y-51518671D01*
X54428358Y-51597850D01*
X54589092Y-51646608D01*
X54756250Y-51663072D01*
X55193750Y-51663072D01*
X55360908Y-51646608D01*
X55521642Y-51597850D01*
X55669775Y-51518671D01*
X55799615Y-51412115D01*
X55906171Y-51282275D01*
X55985350Y-51134142D01*
X56034108Y-50973408D01*
X56050572Y-50806250D01*
X56050572Y-50293750D01*
X56034108Y-50126592D01*
X55985350Y-49965858D01*
X55906171Y-49817725D01*
X55860000Y-49761465D01*
X55860000Y-49538535D01*
X55906171Y-49482275D01*
X55985350Y-49334142D01*
X56034108Y-49173408D01*
X56050572Y-49006250D01*
X56050572Y-48493750D01*
X56034108Y-48326592D01*
X55985350Y-48165858D01*
X55906171Y-48017725D01*
X55799615Y-47887885D01*
X55669775Y-47781329D01*
X55521642Y-47702150D01*
X55360908Y-47653392D01*
X55193750Y-47636928D01*
X54756250Y-47636928D01*
X54589092Y-47653392D01*
X54428358Y-47702150D01*
X54280225Y-47781329D01*
X54187500Y-47857426D01*
X54094775Y-47781329D01*
X53946642Y-47702150D01*
X53785908Y-47653392D01*
X53618750Y-47636928D01*
X53181250Y-47636928D01*
X53014092Y-47653392D01*
X52853358Y-47702150D01*
X52705225Y-47781329D01*
X52575385Y-47887885D01*
X52512099Y-47965000D01*
X52074102Y-47965000D01*
X52074371Y-47964113D01*
X52088072Y-47825000D01*
X52088072Y-47675000D01*
X52074371Y-47535887D01*
X52063485Y-47500000D01*
X52074371Y-47464113D01*
X52088072Y-47325000D01*
X52088072Y-47175000D01*
X52074371Y-47035887D01*
X52063485Y-47000000D01*
X52074371Y-46964113D01*
X52088072Y-46825000D01*
X52088072Y-46675000D01*
X52074371Y-46535887D01*
X52063485Y-46500000D01*
X52074371Y-46464113D01*
X52088072Y-46325000D01*
X52088072Y-46175000D01*
X52074371Y-46035887D01*
X52063485Y-46000000D01*
X52074371Y-45964113D01*
X52088072Y-45825000D01*
X52088072Y-45675000D01*
X52074371Y-45535887D01*
X52063485Y-45500000D01*
X52074371Y-45464113D01*
X52088072Y-45325000D01*
X52088072Y-45175000D01*
X52074371Y-45035887D01*
X52074102Y-45035000D01*
X63184843Y-45035000D01*
X65802925Y-47653082D01*
X65765000Y-47843740D01*
X65765000Y-48136260D01*
X65822068Y-48423158D01*
X65934010Y-48693411D01*
X66096525Y-48936632D01*
X66303368Y-49143475D01*
X66546589Y-49305990D01*
X66816842Y-49417932D01*
X67103740Y-49475000D01*
X67396260Y-49475000D01*
X67683158Y-49417932D01*
X67953411Y-49305990D01*
X68196632Y-49143475D01*
X68403475Y-48936632D01*
X68565990Y-48693411D01*
X68677932Y-48423158D01*
X68735000Y-48136260D01*
X68735000Y-47843740D01*
X68677932Y-47556842D01*
X68565990Y-47286589D01*
X68403475Y-47043368D01*
X68271620Y-46911513D01*
X68344180Y-46889502D01*
X68454494Y-46830537D01*
X68551185Y-46751185D01*
X68630537Y-46654494D01*
X68689502Y-46544180D01*
X68725812Y-46424482D01*
X68738072Y-46300000D01*
X68738072Y-44600000D01*
X68725812Y-44475518D01*
X68689502Y-44355820D01*
X68630537Y-44245506D01*
X68551185Y-44148815D01*
X68454494Y-44069463D01*
X68344180Y-44010498D01*
X68224482Y-43974188D01*
X68100000Y-43961928D01*
X66400000Y-43961928D01*
X66275518Y-43974188D01*
X66155820Y-44010498D01*
X66045506Y-44069463D01*
X65948815Y-44148815D01*
X65885781Y-44225623D01*
X64882347Y-43222190D01*
X64857764Y-43192236D01*
X64738233Y-43094138D01*
X64627592Y-43035000D01*
X67111447Y-43035000D01*
X67150000Y-43038797D01*
X67188553Y-43035000D01*
X67188561Y-43035000D01*
X67303887Y-43023641D01*
X67451860Y-42978754D01*
X67588233Y-42905862D01*
X67707764Y-42807764D01*
X67732347Y-42777810D01*
X69340000Y-41170157D01*
X69340001Y-62648909D01*
X69160394Y-62301560D01*
X69085149Y-62188946D01*
X68482818Y-61696787D01*
X65179605Y-65000000D01*
X65193748Y-65014143D01*
X65014143Y-65193748D01*
X65000000Y-65179605D01*
X61696787Y-68482818D01*
X62188946Y-69085149D01*
X62650466Y-69340000D01*
X27351093Y-69340000D01*
X27698440Y-69160394D01*
X27811054Y-69085149D01*
X28303213Y-68482818D01*
X25000000Y-65179605D01*
X24985858Y-65193748D01*
X24806253Y-65014143D01*
X24820395Y-65000000D01*
X25179605Y-65000000D01*
X28482818Y-68303213D01*
X29085149Y-67811054D01*
X29503336Y-67053740D01*
X38045000Y-67053740D01*
X38045000Y-67346260D01*
X38102068Y-67633158D01*
X38214010Y-67903411D01*
X38376525Y-68146632D01*
X38583368Y-68353475D01*
X38826589Y-68515990D01*
X39096842Y-68627932D01*
X39383740Y-68685000D01*
X39676260Y-68685000D01*
X39963158Y-68627932D01*
X40233411Y-68515990D01*
X40476632Y-68353475D01*
X40683475Y-68146632D01*
X40800000Y-67972240D01*
X40916525Y-68146632D01*
X41123368Y-68353475D01*
X41366589Y-68515990D01*
X41636842Y-68627932D01*
X41923740Y-68685000D01*
X42216260Y-68685000D01*
X42503158Y-68627932D01*
X42773411Y-68515990D01*
X43016632Y-68353475D01*
X43223475Y-68146632D01*
X43340000Y-67972240D01*
X43456525Y-68146632D01*
X43663368Y-68353475D01*
X43906589Y-68515990D01*
X44176842Y-68627932D01*
X44463740Y-68685000D01*
X44756260Y-68685000D01*
X45043158Y-68627932D01*
X45313411Y-68515990D01*
X45556632Y-68353475D01*
X45688487Y-68221620D01*
X45710498Y-68294180D01*
X45769463Y-68404494D01*
X45848815Y-68501185D01*
X45945506Y-68580537D01*
X46055820Y-68639502D01*
X46175518Y-68675812D01*
X46300000Y-68688072D01*
X48000000Y-68688072D01*
X48124482Y-68675812D01*
X48244180Y-68639502D01*
X48354494Y-68580537D01*
X48451185Y-68501185D01*
X48530537Y-68404494D01*
X48589502Y-68294180D01*
X48625812Y-68174482D01*
X48638072Y-68050000D01*
X48638072Y-66350000D01*
X48625812Y-66225518D01*
X48589502Y-66105820D01*
X48530537Y-65995506D01*
X48451185Y-65898815D01*
X48354494Y-65819463D01*
X48244180Y-65760498D01*
X48124482Y-65724188D01*
X48000000Y-65711928D01*
X46772086Y-65711928D01*
X45992439Y-64932281D01*
X60041586Y-64932281D01*
X60123649Y-65900921D01*
X60393107Y-66834938D01*
X60839606Y-67698440D01*
X60914851Y-67811054D01*
X61517182Y-68303213D01*
X64820395Y-65000000D01*
X61517182Y-61696787D01*
X60914851Y-62188946D01*
X60444937Y-63039933D01*
X60150071Y-63966243D01*
X60041586Y-64932281D01*
X45992439Y-64932281D01*
X45035000Y-63974843D01*
X45035000Y-61517182D01*
X61696787Y-61517182D01*
X65000000Y-64820395D01*
X68303213Y-61517182D01*
X67811054Y-60914851D01*
X66960067Y-60444937D01*
X66033757Y-60150071D01*
X65067719Y-60041586D01*
X64099079Y-60123649D01*
X63165062Y-60393107D01*
X62301560Y-60839606D01*
X62188946Y-60914851D01*
X61696787Y-61517182D01*
X45035000Y-61517182D01*
X45035000Y-53765000D01*
X45791928Y-53765000D01*
X45804188Y-53889482D01*
X45840498Y-54009180D01*
X45899463Y-54119494D01*
X45978815Y-54216185D01*
X46075506Y-54295537D01*
X46185820Y-54354502D01*
X46305518Y-54390812D01*
X46430000Y-54403072D01*
X46464250Y-54400000D01*
X46623000Y-54241250D01*
X46623000Y-53597000D01*
X45953750Y-53597000D01*
X45795000Y-53755750D01*
X45791928Y-53765000D01*
X45035000Y-53765000D01*
X45035000Y-52074102D01*
X45035887Y-52074371D01*
X45175000Y-52088072D01*
X45325000Y-52088072D01*
X45464113Y-52074371D01*
X45500000Y-52063485D01*
X45535887Y-52074371D01*
X45675000Y-52088072D01*
X45825000Y-52088072D01*
X45841231Y-52086473D01*
X45807023Y-52199243D01*
X45791928Y-52352500D01*
X45791928Y-52647500D01*
X45807023Y-52800757D01*
X45844312Y-52923684D01*
X45840498Y-52930820D01*
X45804188Y-53050518D01*
X45791928Y-53175000D01*
X45795000Y-53184250D01*
X45953750Y-53343000D01*
X46220237Y-53343000D01*
X46276875Y-53373274D01*
X46424243Y-53417977D01*
X46577500Y-53433072D01*
X46897000Y-53433072D01*
X46897000Y-53597000D01*
X46877000Y-53597000D01*
X46877000Y-54241250D01*
X47035750Y-54400000D01*
X47070000Y-54403072D01*
X47170030Y-54393220D01*
X47090000Y-54473250D01*
X47086928Y-54625000D01*
X47099188Y-54749482D01*
X47135498Y-54869180D01*
X47194463Y-54979494D01*
X47273815Y-55076185D01*
X47370506Y-55155537D01*
X47480820Y-55214502D01*
X47600518Y-55250812D01*
X47725000Y-55263072D01*
X47914250Y-55260000D01*
X48073000Y-55101250D01*
X48073000Y-54314500D01*
X48053000Y-54314500D01*
X48053000Y-54060500D01*
X48073000Y-54060500D01*
X48073000Y-54040500D01*
X48327000Y-54040500D01*
X48327000Y-54060500D01*
X48347000Y-54060500D01*
X48347000Y-54314500D01*
X48327000Y-54314500D01*
X48327000Y-55101250D01*
X48485750Y-55260000D01*
X48675000Y-55263072D01*
X48799482Y-55250812D01*
X48919180Y-55214502D01*
X49029494Y-55155537D01*
X49126185Y-55076185D01*
X49205537Y-54979494D01*
X49264502Y-54869180D01*
X49278930Y-54821616D01*
X49309744Y-54842205D01*
X49498102Y-54920226D01*
X49698061Y-54960000D01*
X49901939Y-54960000D01*
X50101898Y-54920226D01*
X50290256Y-54842205D01*
X50459774Y-54728937D01*
X50603937Y-54584774D01*
X50717205Y-54415256D01*
X50795226Y-54226898D01*
X50835000Y-54026939D01*
X50835000Y-53823061D01*
X50795226Y-53623102D01*
X50728702Y-53462500D01*
X50795226Y-53301898D01*
X50835000Y-53101939D01*
X50835000Y-52955000D01*
X50897002Y-52955000D01*
X50897002Y-52796252D01*
X51055750Y-52955000D01*
X51065000Y-52958072D01*
X51189482Y-52945812D01*
X51309180Y-52909502D01*
X51419494Y-52850537D01*
X51516185Y-52771185D01*
X51595537Y-52674494D01*
X51654502Y-52564180D01*
X51690812Y-52444482D01*
X51703072Y-52320000D01*
X51700000Y-52285750D01*
X51541250Y-52127000D01*
X50897000Y-52127000D01*
X50897000Y-52147000D01*
X50733072Y-52147000D01*
X50733072Y-51827500D01*
X50717977Y-51674243D01*
X50685000Y-51565531D01*
X50685000Y-51334469D01*
X50717977Y-51225757D01*
X50733072Y-51072500D01*
X50733072Y-51027000D01*
X50897000Y-51027000D01*
X50897000Y-51873000D01*
X51541250Y-51873000D01*
X51700000Y-51714250D01*
X51703072Y-51680000D01*
X51690812Y-51555518D01*
X51658803Y-51450000D01*
X51690812Y-51344482D01*
X51703072Y-51220000D01*
X51700000Y-51185750D01*
X51541250Y-51027000D01*
X50897000Y-51027000D01*
X50733072Y-51027000D01*
X50733072Y-51025000D01*
X52324428Y-51025000D01*
X52336688Y-51149482D01*
X52372998Y-51269180D01*
X52431963Y-51379494D01*
X52511315Y-51476185D01*
X52608006Y-51555537D01*
X52718320Y-51614502D01*
X52838018Y-51650812D01*
X52962500Y-51663072D01*
X53114250Y-51660000D01*
X53273000Y-51501250D01*
X53273000Y-50677000D01*
X52486250Y-50677000D01*
X52327500Y-50835750D01*
X52324428Y-51025000D01*
X50733072Y-51025000D01*
X50733072Y-50727500D01*
X50717977Y-50574243D01*
X50673274Y-50426875D01*
X50643000Y-50370237D01*
X50643000Y-50103750D01*
X50897000Y-50103750D01*
X50897000Y-50773000D01*
X51541250Y-50773000D01*
X51700000Y-50614250D01*
X51703072Y-50580000D01*
X51690812Y-50455518D01*
X51654502Y-50335820D01*
X51595537Y-50225506D01*
X51516185Y-50128815D01*
X51419494Y-50049463D01*
X51309180Y-49990498D01*
X51189482Y-49954188D01*
X51065000Y-49941928D01*
X51055750Y-49945000D01*
X50897000Y-50103750D01*
X50643000Y-50103750D01*
X50484250Y-49945000D01*
X50475000Y-49941928D01*
X50350518Y-49954188D01*
X50230820Y-49990498D01*
X50223684Y-49994312D01*
X50100757Y-49957023D01*
X49947500Y-49941928D01*
X49862625Y-49941928D01*
X49728887Y-49901359D01*
X49613561Y-49890000D01*
X49613553Y-49890000D01*
X49575000Y-49886203D01*
X49536447Y-49890000D01*
X49529700Y-49890000D01*
X49524371Y-49835887D01*
X49483793Y-49702119D01*
X49417898Y-49578838D01*
X49329218Y-49470782D01*
X49221162Y-49382102D01*
X49097881Y-49316207D01*
X48964113Y-49275629D01*
X48825000Y-49261928D01*
X48675000Y-49261928D01*
X48535887Y-49275629D01*
X48500000Y-49286515D01*
X48464113Y-49275629D01*
X48325000Y-49261928D01*
X48175000Y-49261928D01*
X48035887Y-49275629D01*
X48000000Y-49286515D01*
X47964113Y-49275629D01*
X47825000Y-49261928D01*
X47675000Y-49261928D01*
X47535887Y-49275629D01*
X47500000Y-49286515D01*
X47464113Y-49275629D01*
X47325000Y-49261928D01*
X47175000Y-49261928D01*
X47035887Y-49275629D01*
X47000000Y-49286515D01*
X46964113Y-49275629D01*
X46825000Y-49261928D01*
X46675000Y-49261928D01*
X46535887Y-49275629D01*
X46500000Y-49286515D01*
X46464113Y-49275629D01*
X46325000Y-49261928D01*
X46175000Y-49261928D01*
X46035887Y-49275629D01*
X46000000Y-49286515D01*
X45964113Y-49275629D01*
X45825000Y-49261928D01*
X45675000Y-49261928D01*
X45535887Y-49275629D01*
X45500000Y-49286515D01*
X45464113Y-49275629D01*
X45325000Y-49261928D01*
X45175000Y-49261928D01*
X45035887Y-49275629D01*
X45000000Y-49286515D01*
X44964113Y-49275629D01*
X44825000Y-49261928D01*
X44675000Y-49261928D01*
X44535887Y-49275629D01*
X44500000Y-49286515D01*
X44464113Y-49275629D01*
X44325000Y-49261928D01*
X44175000Y-49261928D01*
X44035887Y-49275629D01*
X44000000Y-49286515D01*
X43964113Y-49275629D01*
X43825000Y-49261928D01*
X43675000Y-49261928D01*
X43535887Y-49275629D01*
X43500000Y-49286515D01*
X43464113Y-49275629D01*
X43325000Y-49261928D01*
X43175000Y-49261928D01*
X43035887Y-49275629D01*
X43000000Y-49286515D01*
X42964113Y-49275629D01*
X42825000Y-49261928D01*
X42675000Y-49261928D01*
X42535887Y-49275629D01*
X42500000Y-49286515D01*
X42464113Y-49275629D01*
X42325000Y-49261928D01*
X42175000Y-49261928D01*
X42035887Y-49275629D01*
X42033997Y-49276202D01*
X42033561Y-49276063D01*
X41931750Y-49265000D01*
X41855768Y-49340982D01*
X41778838Y-49382102D01*
X41750000Y-49405769D01*
X41721162Y-49382102D01*
X41644232Y-49340982D01*
X41568250Y-49265000D01*
X41466439Y-49276063D01*
X41466003Y-49276202D01*
X41464113Y-49275629D01*
X41325000Y-49261928D01*
X41175000Y-49261928D01*
X41035887Y-49275629D01*
X40902119Y-49316207D01*
X40778838Y-49382102D01*
X40670782Y-49470782D01*
X40582102Y-49578838D01*
X40516207Y-49702119D01*
X40475629Y-49835887D01*
X40461928Y-49975000D01*
X40461928Y-51375000D01*
X40473429Y-51491776D01*
X40365506Y-51549463D01*
X40268815Y-51628815D01*
X40189463Y-51725506D01*
X40130498Y-51835820D01*
X40094188Y-51955518D01*
X40081928Y-52080000D01*
X40085000Y-52114250D01*
X40243750Y-52273000D01*
X40888000Y-52273000D01*
X40888000Y-52253000D01*
X41051928Y-52253000D01*
X41051928Y-52572500D01*
X41067023Y-52725757D01*
X41100000Y-52834470D01*
X41100001Y-53065529D01*
X41067023Y-53174243D01*
X41051928Y-53327500D01*
X41051928Y-53647000D01*
X40888000Y-53647000D01*
X40888000Y-53627000D01*
X40243750Y-53627000D01*
X40085000Y-53785750D01*
X40081928Y-53820000D01*
X40094188Y-53944482D01*
X40130498Y-54064180D01*
X40189463Y-54174494D01*
X40268815Y-54271185D01*
X40365506Y-54350537D01*
X40475820Y-54409502D01*
X40595518Y-54445812D01*
X40720000Y-54458072D01*
X40729250Y-54455000D01*
X40887998Y-54296252D01*
X40887998Y-54455000D01*
X40940000Y-54455000D01*
X40940000Y-54601939D01*
X40979774Y-54801898D01*
X41051476Y-54975000D01*
X40979774Y-55148102D01*
X40940000Y-55348061D01*
X40940000Y-55551939D01*
X40979774Y-55751898D01*
X41057795Y-55940256D01*
X41171063Y-56109774D01*
X41315226Y-56253937D01*
X41484744Y-56367205D01*
X41673102Y-56445226D01*
X41873061Y-56485000D01*
X41965000Y-56485000D01*
X41965001Y-63654842D01*
X39866918Y-65752925D01*
X39676260Y-65715000D01*
X39383740Y-65715000D01*
X39096842Y-65772068D01*
X38826589Y-65884010D01*
X38583368Y-66046525D01*
X38376525Y-66253368D01*
X38214010Y-66496589D01*
X38102068Y-66766842D01*
X38045000Y-67053740D01*
X29503336Y-67053740D01*
X29555063Y-66960067D01*
X29849929Y-66033757D01*
X29958414Y-65067719D01*
X29876351Y-64099079D01*
X29606893Y-63165062D01*
X29160394Y-62301560D01*
X29085149Y-62188946D01*
X28482818Y-61696787D01*
X25179605Y-65000000D01*
X24820395Y-65000000D01*
X21517182Y-61696787D01*
X20914851Y-62188946D01*
X20660000Y-62650466D01*
X20660000Y-61517182D01*
X21696787Y-61517182D01*
X25000000Y-64820395D01*
X28303213Y-61517182D01*
X27811054Y-60914851D01*
X26960067Y-60444937D01*
X26033757Y-60150071D01*
X25067719Y-60041586D01*
X24099079Y-60123649D01*
X23165062Y-60393107D01*
X22301560Y-60839606D01*
X22188946Y-60914851D01*
X21696787Y-61517182D01*
X20660000Y-61517182D01*
X20660000Y-55650000D01*
X21261928Y-55650000D01*
X21261928Y-57350000D01*
X21274188Y-57474482D01*
X21310498Y-57594180D01*
X21369463Y-57704494D01*
X21448815Y-57801185D01*
X21545506Y-57880537D01*
X21655820Y-57939502D01*
X21775518Y-57975812D01*
X21900000Y-57988072D01*
X23600000Y-57988072D01*
X23724482Y-57975812D01*
X23844180Y-57939502D01*
X23954494Y-57880537D01*
X24051185Y-57801185D01*
X24130537Y-57704494D01*
X24167683Y-57635000D01*
X28955752Y-57635000D01*
X29122499Y-57618577D01*
X29223060Y-57588072D01*
X29500000Y-57588072D01*
X29624482Y-57575812D01*
X29744180Y-57539502D01*
X29854494Y-57480537D01*
X29951185Y-57401185D01*
X30030537Y-57304494D01*
X30089502Y-57194180D01*
X30125812Y-57074482D01*
X30138072Y-56950000D01*
X30138072Y-56050000D01*
X30125812Y-55925518D01*
X30089502Y-55805820D01*
X30030537Y-55695506D01*
X29951185Y-55598815D01*
X29854494Y-55519463D01*
X29744180Y-55460498D01*
X29624482Y-55424188D01*
X29500000Y-55411928D01*
X29223060Y-55411928D01*
X29122499Y-55381423D01*
X28955752Y-55365000D01*
X24167683Y-55365000D01*
X24130537Y-55295506D01*
X24051185Y-55198815D01*
X23954494Y-55119463D01*
X23844180Y-55060498D01*
X23763534Y-55036034D01*
X23847588Y-54960269D01*
X24021641Y-54726920D01*
X24146825Y-54464099D01*
X24191476Y-54316890D01*
X24070155Y-54087000D01*
X22877000Y-54087000D01*
X22877000Y-54107000D01*
X22623000Y-54107000D01*
X22623000Y-54087000D01*
X21429845Y-54087000D01*
X21308524Y-54316890D01*
X21353175Y-54464099D01*
X21478359Y-54726920D01*
X21652412Y-54960269D01*
X21736466Y-55036034D01*
X21655820Y-55060498D01*
X21545506Y-55119463D01*
X21448815Y-55198815D01*
X21369463Y-55295506D01*
X21310498Y-55405820D01*
X21274188Y-55525518D01*
X21261928Y-55650000D01*
X20660000Y-55650000D01*
X20660000Y-53603110D01*
X21308524Y-53603110D01*
X21429845Y-53833000D01*
X22623000Y-53833000D01*
X22623000Y-52639186D01*
X22877000Y-52639186D01*
X22877000Y-53833000D01*
X24070155Y-53833000D01*
X24191476Y-53603110D01*
X24146825Y-53455901D01*
X24021641Y-53193080D01*
X23847588Y-52959731D01*
X23631355Y-52764822D01*
X23381252Y-52615843D01*
X23106891Y-52518519D01*
X22877000Y-52639186D01*
X22623000Y-52639186D01*
X22393109Y-52518519D01*
X22118748Y-52615843D01*
X21868645Y-52764822D01*
X21652412Y-52959731D01*
X21478359Y-53193080D01*
X21353175Y-53455901D01*
X21308524Y-53603110D01*
X20660000Y-53603110D01*
X20660000Y-46950000D01*
X21999428Y-46950000D01*
X22011688Y-47074482D01*
X22047998Y-47194180D01*
X22106963Y-47304494D01*
X22186315Y-47401185D01*
X22283006Y-47480537D01*
X22393320Y-47539502D01*
X22513018Y-47575812D01*
X22637500Y-47588072D01*
X22839250Y-47585000D01*
X22998000Y-47426250D01*
X22998000Y-46377000D01*
X22161250Y-46377000D01*
X22002500Y-46535750D01*
X21999428Y-46950000D01*
X20660000Y-46950000D01*
X20660000Y-37500000D01*
X21109509Y-37500000D01*
X21115000Y-37555752D01*
X21115000Y-37611788D01*
X21125932Y-37666747D01*
X21131423Y-37722499D01*
X21147685Y-37776106D01*
X21158617Y-37831067D01*
X21180063Y-37882842D01*
X21196324Y-37936447D01*
X21222731Y-37985851D01*
X21244176Y-38037624D01*
X21275307Y-38084214D01*
X21301716Y-38133623D01*
X21337259Y-38176932D01*
X21368388Y-38223520D01*
X21408009Y-38263141D01*
X21443551Y-38306449D01*
X21486859Y-38341991D01*
X21526480Y-38381612D01*
X21573068Y-38412741D01*
X21616377Y-38448284D01*
X21665786Y-38474693D01*
X21712376Y-38505824D01*
X21764149Y-38527269D01*
X21813553Y-38553676D01*
X21867158Y-38569937D01*
X21918933Y-38591383D01*
X21973894Y-38602315D01*
X22027501Y-38618577D01*
X22083253Y-38624068D01*
X22138212Y-38635000D01*
X22556950Y-38635000D01*
X22551716Y-38641378D01*
X22446324Y-38838554D01*
X22381423Y-39052502D01*
X22369956Y-39168933D01*
X22359509Y-39275001D01*
X22365000Y-39330752D01*
X22365000Y-39611788D01*
X22375932Y-39666748D01*
X22381423Y-39722498D01*
X22397684Y-39776103D01*
X22408617Y-39831067D01*
X22430064Y-39882845D01*
X22446324Y-39936446D01*
X22472730Y-39985848D01*
X22494176Y-40037624D01*
X22525307Y-40084215D01*
X22551716Y-40133623D01*
X22587259Y-40176932D01*
X22618388Y-40223520D01*
X22658009Y-40263141D01*
X22693551Y-40306449D01*
X22736859Y-40341991D01*
X22769868Y-40375000D01*
X22736849Y-40408019D01*
X22693552Y-40443552D01*
X22658019Y-40486849D01*
X22618388Y-40526480D01*
X22587251Y-40573080D01*
X22551717Y-40616378D01*
X22525313Y-40665776D01*
X22494176Y-40712376D01*
X22472728Y-40764155D01*
X22446324Y-40813554D01*
X22430064Y-40867155D01*
X22408617Y-40918933D01*
X22397684Y-40973897D01*
X22381423Y-41027502D01*
X22375932Y-41083252D01*
X22365000Y-41138212D01*
X22365000Y-41194249D01*
X22359509Y-41250000D01*
X22365000Y-41305751D01*
X22365000Y-41361788D01*
X22375932Y-41416748D01*
X22381423Y-41472498D01*
X22397684Y-41526103D01*
X22408617Y-41581067D01*
X22430064Y-41632845D01*
X22446324Y-41686446D01*
X22472728Y-41735845D01*
X22494176Y-41787624D01*
X22525313Y-41834224D01*
X22551717Y-41883622D01*
X22587251Y-41926921D01*
X22618388Y-41973520D01*
X22776480Y-42131612D01*
X22776483Y-42131614D01*
X22859869Y-42215000D01*
X22797999Y-42215000D01*
X22797999Y-42373748D01*
X22639251Y-42215000D01*
X22175001Y-42211928D01*
X22050519Y-42224188D01*
X21930821Y-42260498D01*
X21820507Y-42319463D01*
X21723816Y-42398815D01*
X21644464Y-42495506D01*
X21585499Y-42605820D01*
X21549189Y-42725518D01*
X21536929Y-42850000D01*
X21540001Y-43564250D01*
X21698751Y-43723000D01*
X22798001Y-43723000D01*
X22798001Y-43703000D01*
X23052001Y-43703000D01*
X23052001Y-43723000D01*
X23072001Y-43723000D01*
X23072001Y-43977000D01*
X23052001Y-43977000D01*
X23052001Y-43997000D01*
X22798001Y-43997000D01*
X22798001Y-43977000D01*
X21698751Y-43977000D01*
X21540001Y-44135750D01*
X21536929Y-44850000D01*
X21549189Y-44974482D01*
X21585499Y-45094180D01*
X21644464Y-45204494D01*
X21723816Y-45301185D01*
X21820507Y-45380537D01*
X21930821Y-45439502D01*
X22008005Y-45462915D01*
X21999428Y-45550000D01*
X22002500Y-45964250D01*
X22161250Y-46123000D01*
X22998000Y-46123000D01*
X22998000Y-46103000D01*
X23252000Y-46103000D01*
X23252000Y-46123000D01*
X23272000Y-46123000D01*
X23272000Y-46377000D01*
X23252000Y-46377000D01*
X23252000Y-47426250D01*
X23410750Y-47585000D01*
X23612500Y-47588072D01*
X23736982Y-47575812D01*
X23856680Y-47539502D01*
X23966994Y-47480537D01*
X24063685Y-47401185D01*
X24127492Y-47323436D01*
X24132708Y-47329792D01*
X24266336Y-47439458D01*
X24418791Y-47520947D01*
X24584215Y-47571128D01*
X24756250Y-47588072D01*
X25243750Y-47588072D01*
X25415785Y-47571128D01*
X25581209Y-47520947D01*
X25733664Y-47439458D01*
X25867292Y-47329792D01*
X25976958Y-47196164D01*
X26058447Y-47043709D01*
X26108628Y-46878285D01*
X26124396Y-46718194D01*
X26173285Y-46658622D01*
X26235241Y-46542710D01*
X26259053Y-46621209D01*
X26340542Y-46773664D01*
X26450208Y-46907292D01*
X26535756Y-46977500D01*
X26450208Y-47047708D01*
X26340542Y-47181336D01*
X26259053Y-47333791D01*
X26208872Y-47499215D01*
X26191928Y-47671250D01*
X26191928Y-47930258D01*
X26172009Y-48132500D01*
X26177501Y-48188261D01*
X26177500Y-50555751D01*
X26193923Y-50722498D01*
X26252682Y-50916198D01*
X26253392Y-50923408D01*
X26302150Y-51084142D01*
X26381329Y-51232275D01*
X26487885Y-51362115D01*
X26617725Y-51468671D01*
X26765858Y-51547850D01*
X26926592Y-51596608D01*
X27061326Y-51609878D01*
X27090001Y-51618577D01*
X27312500Y-51640491D01*
X27534998Y-51618577D01*
X27563673Y-51609879D01*
X27698408Y-51596608D01*
X27765001Y-51576407D01*
X27765000Y-52403855D01*
X27710498Y-52505820D01*
X27674188Y-52625518D01*
X27661928Y-52750000D01*
X27661928Y-53650000D01*
X27674188Y-53774482D01*
X27710498Y-53894180D01*
X27769463Y-54004494D01*
X27848815Y-54101185D01*
X27945506Y-54180537D01*
X28055820Y-54239502D01*
X28175518Y-54275812D01*
X28300000Y-54288072D01*
X28576940Y-54288072D01*
X28677501Y-54318577D01*
X28900000Y-54340491D01*
X29122498Y-54318577D01*
X29223059Y-54288072D01*
X29500000Y-54288072D01*
X29624482Y-54275812D01*
X29744180Y-54239502D01*
X29854494Y-54180537D01*
X29951185Y-54101185D01*
X30030537Y-54004494D01*
X30089502Y-53894180D01*
X30125812Y-53774482D01*
X30138072Y-53650000D01*
X30138072Y-52750000D01*
X30135118Y-52720000D01*
X40081928Y-52720000D01*
X40094188Y-52844482D01*
X40126197Y-52950000D01*
X40094188Y-53055518D01*
X40081928Y-53180000D01*
X40085000Y-53214250D01*
X40243750Y-53373000D01*
X40888000Y-53373000D01*
X40888000Y-52527000D01*
X40243750Y-52527000D01*
X40085000Y-52685750D01*
X40081928Y-52720000D01*
X30135118Y-52720000D01*
X30125812Y-52625518D01*
X30089502Y-52505820D01*
X30035000Y-52403856D01*
X30035000Y-50568252D01*
X30040491Y-50512500D01*
X30029224Y-50398102D01*
X30018577Y-50290001D01*
X29953676Y-50076053D01*
X29936955Y-50044770D01*
X29897850Y-49915858D01*
X29818671Y-49767725D01*
X29712115Y-49637885D01*
X29582275Y-49531329D01*
X29434142Y-49452150D01*
X29273408Y-49403392D01*
X29138673Y-49390121D01*
X29109998Y-49381423D01*
X28887500Y-49359509D01*
X28665002Y-49381423D01*
X28636327Y-49390121D01*
X28501592Y-49403392D01*
X28447500Y-49419801D01*
X28447500Y-48907279D01*
X28476164Y-48891958D01*
X28609792Y-48782292D01*
X28719458Y-48648664D01*
X28800947Y-48496209D01*
X28851128Y-48330785D01*
X28868072Y-48158750D01*
X28868072Y-47671250D01*
X28851128Y-47499215D01*
X28800947Y-47333791D01*
X28719458Y-47181336D01*
X28609792Y-47047708D01*
X28524244Y-46977500D01*
X28609792Y-46907292D01*
X28719458Y-46773664D01*
X28800947Y-46621209D01*
X28851128Y-46455785D01*
X28868072Y-46283750D01*
X28868072Y-45796250D01*
X28851128Y-45624215D01*
X28800947Y-45458791D01*
X28719596Y-45306594D01*
X28726186Y-45301185D01*
X28805538Y-45204494D01*
X28864503Y-45094180D01*
X28900813Y-44974482D01*
X28901008Y-44972500D01*
X30055752Y-44972500D01*
X30151477Y-44963072D01*
X30456250Y-44963072D01*
X30628285Y-44946128D01*
X30793709Y-44895947D01*
X30946164Y-44814458D01*
X31079792Y-44704792D01*
X31189458Y-44571164D01*
X31270947Y-44418709D01*
X31321128Y-44253285D01*
X31338072Y-44081250D01*
X31338072Y-43593750D01*
X31321128Y-43421715D01*
X31270947Y-43256291D01*
X31189458Y-43103836D01*
X31079792Y-42970208D01*
X31073436Y-42964992D01*
X31151185Y-42901185D01*
X31230537Y-42804494D01*
X31289502Y-42694180D01*
X31325812Y-42574482D01*
X31338072Y-42450000D01*
X31335000Y-42248250D01*
X31176250Y-42089500D01*
X30127000Y-42089500D01*
X30127000Y-42109500D01*
X29873000Y-42109500D01*
X29873000Y-42089500D01*
X28823750Y-42089500D01*
X28665000Y-42248250D01*
X28663491Y-42347363D01*
X28629495Y-42319463D01*
X28519181Y-42260498D01*
X28399483Y-42224188D01*
X28275001Y-42211928D01*
X27643205Y-42211928D01*
X27841989Y-42013144D01*
X27841994Y-42013138D01*
X27881612Y-41973520D01*
X27912741Y-41926933D01*
X27948284Y-41883623D01*
X27974693Y-41834214D01*
X28005824Y-41787624D01*
X28027269Y-41735851D01*
X28053676Y-41686447D01*
X28069937Y-41632842D01*
X28091383Y-41581067D01*
X28102315Y-41526106D01*
X28117818Y-41475000D01*
X28661928Y-41475000D01*
X28665000Y-41676750D01*
X28823750Y-41835500D01*
X29873000Y-41835500D01*
X29873000Y-40998750D01*
X30127000Y-40998750D01*
X30127000Y-41835500D01*
X31176250Y-41835500D01*
X31335000Y-41676750D01*
X31338072Y-41475000D01*
X31325812Y-41350518D01*
X31289502Y-41230820D01*
X31230537Y-41120506D01*
X31151185Y-41023815D01*
X31054494Y-40944463D01*
X30944180Y-40885498D01*
X30824482Y-40849188D01*
X30700000Y-40836928D01*
X30285750Y-40840000D01*
X30127000Y-40998750D01*
X29873000Y-40998750D01*
X29714250Y-40840000D01*
X29300000Y-40836928D01*
X29175518Y-40849188D01*
X29055820Y-40885498D01*
X28945506Y-40944463D01*
X28848815Y-41023815D01*
X28769463Y-41120506D01*
X28710498Y-41230820D01*
X28674188Y-41350518D01*
X28661928Y-41475000D01*
X28117818Y-41475000D01*
X28118577Y-41472499D01*
X28124068Y-41416747D01*
X28135000Y-41361788D01*
X28135000Y-41305752D01*
X28140491Y-41250000D01*
X28135000Y-41194248D01*
X28135000Y-41138212D01*
X28124068Y-41083253D01*
X28118577Y-41027501D01*
X28102315Y-40973894D01*
X28091383Y-40918933D01*
X28069937Y-40867158D01*
X28053676Y-40813553D01*
X28027269Y-40764149D01*
X28005824Y-40712376D01*
X27974693Y-40665786D01*
X27948284Y-40616377D01*
X27912741Y-40573068D01*
X27881612Y-40526480D01*
X27841991Y-40486859D01*
X27806449Y-40443551D01*
X27763141Y-40408009D01*
X27730132Y-40375000D01*
X27763141Y-40341991D01*
X27806449Y-40306449D01*
X27841991Y-40263141D01*
X27881612Y-40223520D01*
X27912741Y-40176932D01*
X27948284Y-40133623D01*
X27974693Y-40084214D01*
X28005824Y-40037624D01*
X28027269Y-39985851D01*
X28053676Y-39936447D01*
X28069937Y-39882842D01*
X28091383Y-39831067D01*
X28102315Y-39776106D01*
X28118577Y-39722499D01*
X28124068Y-39666747D01*
X28135000Y-39611788D01*
X28135000Y-39380751D01*
X28140491Y-39324999D01*
X28118577Y-39102500D01*
X28053676Y-38888552D01*
X27948284Y-38691376D01*
X27902017Y-38635000D01*
X28361788Y-38635000D01*
X28416747Y-38624068D01*
X28472499Y-38618577D01*
X28526106Y-38602315D01*
X28581067Y-38591383D01*
X28632842Y-38569937D01*
X28686447Y-38553676D01*
X28735851Y-38527269D01*
X28787624Y-38505824D01*
X28834214Y-38474693D01*
X28883623Y-38448284D01*
X28926932Y-38412741D01*
X28973520Y-38381612D01*
X29013141Y-38341991D01*
X29056449Y-38306449D01*
X29091991Y-38263141D01*
X29131612Y-38223520D01*
X29162741Y-38176932D01*
X29198284Y-38133623D01*
X29224693Y-38084214D01*
X29255824Y-38037624D01*
X29277269Y-37985851D01*
X29303676Y-37936447D01*
X29319937Y-37882842D01*
X29341383Y-37831067D01*
X29352315Y-37776106D01*
X29368577Y-37722499D01*
X29374068Y-37666747D01*
X29385000Y-37611788D01*
X29385000Y-37555752D01*
X29390491Y-37500000D01*
X29385000Y-37444248D01*
X29385000Y-37388212D01*
X29374068Y-37333253D01*
X29368577Y-37277501D01*
X29352315Y-37223894D01*
X29341383Y-37168933D01*
X29319937Y-37117158D01*
X29303676Y-37063553D01*
X29277269Y-37014149D01*
X29255824Y-36962376D01*
X29224693Y-36915786D01*
X29198284Y-36866377D01*
X29162741Y-36823068D01*
X29131612Y-36776480D01*
X29091991Y-36736859D01*
X29056449Y-36693551D01*
X29013141Y-36658009D01*
X28973520Y-36618388D01*
X28926932Y-36587259D01*
X28883623Y-36551716D01*
X28834214Y-36525307D01*
X28787624Y-36494176D01*
X28735851Y-36472731D01*
X28686447Y-36446324D01*
X28632842Y-36430063D01*
X28581067Y-36408617D01*
X28526106Y-36397685D01*
X28472499Y-36381423D01*
X28416747Y-36375932D01*
X28361788Y-36365000D01*
X27732455Y-36365000D01*
X27714503Y-36305820D01*
X27698030Y-36275000D01*
X37986928Y-36275000D01*
X37990000Y-36426750D01*
X38148750Y-36585500D01*
X38973000Y-36585500D01*
X38973000Y-35798750D01*
X38814250Y-35640000D01*
X38625000Y-35636928D01*
X38500518Y-35649188D01*
X38380820Y-35685498D01*
X38270506Y-35744463D01*
X38173815Y-35823815D01*
X38094463Y-35920506D01*
X38035498Y-36030820D01*
X37999188Y-36150518D01*
X37986928Y-36275000D01*
X27698030Y-36275000D01*
X27655538Y-36195506D01*
X27576186Y-36098815D01*
X27479495Y-36019463D01*
X27369181Y-35960498D01*
X27249483Y-35924188D01*
X27125001Y-35911928D01*
X26360001Y-35911928D01*
X26360001Y-35087258D01*
X26394775Y-35068671D01*
X26487500Y-34992574D01*
X26580225Y-35068671D01*
X26728358Y-35147850D01*
X26889092Y-35196608D01*
X27056250Y-35213072D01*
X27493750Y-35213072D01*
X27660908Y-35196608D01*
X27821642Y-35147850D01*
X27969775Y-35068671D01*
X28071729Y-34985000D01*
X28215771Y-34985000D01*
X28317725Y-35068671D01*
X28465858Y-35147850D01*
X28626592Y-35196608D01*
X28793750Y-35213072D01*
X29231250Y-35213072D01*
X29398408Y-35196608D01*
X29559142Y-35147850D01*
X29707275Y-35068671D01*
X29728930Y-35050900D01*
X29795506Y-35105537D01*
X29905820Y-35164502D01*
X30025518Y-35200812D01*
X30150000Y-35213072D01*
X30301750Y-35210000D01*
X30460500Y-35051250D01*
X30460500Y-34227000D01*
X30714500Y-34227000D01*
X30714500Y-35051250D01*
X30873250Y-35210000D01*
X31025000Y-35213072D01*
X31149482Y-35200812D01*
X31269180Y-35164502D01*
X31379494Y-35105537D01*
X31476185Y-35026185D01*
X31555537Y-34929494D01*
X31614502Y-34819180D01*
X31650812Y-34699482D01*
X31663072Y-34575000D01*
X31660000Y-34385750D01*
X31501250Y-34227000D01*
X30714500Y-34227000D01*
X30460500Y-34227000D01*
X30440500Y-34227000D01*
X30440500Y-33973000D01*
X30460500Y-33973000D01*
X30460500Y-33148750D01*
X30714500Y-33148750D01*
X30714500Y-33973000D01*
X31501250Y-33973000D01*
X31660000Y-33814250D01*
X31663072Y-33625000D01*
X31650812Y-33500518D01*
X31614502Y-33380820D01*
X31555537Y-33270506D01*
X31476185Y-33173815D01*
X31379494Y-33094463D01*
X31269180Y-33035498D01*
X31149482Y-32999188D01*
X31025000Y-32986928D01*
X30873250Y-32990000D01*
X30714500Y-33148750D01*
X30460500Y-33148750D01*
X30301750Y-32990000D01*
X30150000Y-32986928D01*
X30025518Y-32999188D01*
X29905820Y-33035498D01*
X29795506Y-33094463D01*
X29728930Y-33149100D01*
X29707275Y-33131329D01*
X29559142Y-33052150D01*
X29398408Y-33003392D01*
X29231250Y-32986928D01*
X28793750Y-32986928D01*
X28626592Y-33003392D01*
X28465858Y-33052150D01*
X28317725Y-33131329D01*
X28215771Y-33215000D01*
X28071729Y-33215000D01*
X27969775Y-33131329D01*
X27821642Y-33052150D01*
X27660908Y-33003392D01*
X27493750Y-32986928D01*
X27056250Y-32986928D01*
X26889092Y-33003392D01*
X26728358Y-33052150D01*
X26580225Y-33131329D01*
X26487500Y-33207426D01*
X26394775Y-33131329D01*
X26246642Y-33052150D01*
X26085908Y-33003392D01*
X25951173Y-32990121D01*
X25922498Y-32981423D01*
X25699999Y-32959509D01*
X25477501Y-32981423D01*
X25448826Y-32990122D01*
X25314092Y-33003392D01*
X25153358Y-33052150D01*
X25005225Y-33131329D01*
X24875385Y-33237885D01*
X24768829Y-33367725D01*
X24701867Y-33493002D01*
X24461861Y-33733008D01*
X24418553Y-33768550D01*
X24276718Y-33941376D01*
X24271186Y-33951726D01*
X24171325Y-34138553D01*
X24106424Y-34352501D01*
X24084510Y-34574999D01*
X24090002Y-34630760D01*
X24090002Y-35911928D01*
X23325001Y-35911928D01*
X23200519Y-35924188D01*
X23080821Y-35960498D01*
X22970507Y-36019463D01*
X22873816Y-36098815D01*
X22794464Y-36195506D01*
X22735499Y-36305820D01*
X22717547Y-36365000D01*
X22138212Y-36365000D01*
X22083253Y-36375932D01*
X22027501Y-36381423D01*
X21973894Y-36397685D01*
X21918933Y-36408617D01*
X21867158Y-36430063D01*
X21813553Y-36446324D01*
X21764149Y-36472731D01*
X21712376Y-36494176D01*
X21665786Y-36525307D01*
X21616377Y-36551716D01*
X21573068Y-36587259D01*
X21526480Y-36618388D01*
X21486859Y-36658009D01*
X21443551Y-36693551D01*
X21408009Y-36736859D01*
X21368388Y-36776480D01*
X21337259Y-36823068D01*
X21301716Y-36866377D01*
X21275307Y-36915786D01*
X21244176Y-36962376D01*
X21222731Y-37014149D01*
X21196324Y-37063553D01*
X21180063Y-37117158D01*
X21158617Y-37168933D01*
X21147685Y-37223894D01*
X21131423Y-37277501D01*
X21125932Y-37333253D01*
X21115000Y-37388212D01*
X21115000Y-37444248D01*
X21109509Y-37500000D01*
X20660000Y-37500000D01*
X20660000Y-28482818D01*
X21696787Y-28482818D01*
X22188946Y-29085149D01*
X23039933Y-29555063D01*
X23966243Y-29849929D01*
X24932281Y-29958414D01*
X25900921Y-29876351D01*
X26834938Y-29606893D01*
X27698440Y-29160394D01*
X27811054Y-29085149D01*
X28303213Y-28482818D01*
X25000000Y-25179605D01*
X21696787Y-28482818D01*
X20660000Y-28482818D01*
X20660000Y-27351093D01*
X20839606Y-27698440D01*
X20914851Y-27811054D01*
X21517182Y-28303213D01*
X24820395Y-25000000D01*
X25179605Y-25000000D01*
X28482818Y-28303213D01*
X29085149Y-27811054D01*
X29555063Y-26960067D01*
X29849929Y-26033757D01*
X29958414Y-25067719D01*
X29876351Y-24099079D01*
X29606893Y-23165062D01*
X29160394Y-22301560D01*
X29085149Y-22188946D01*
X28731522Y-21900000D01*
X32861928Y-21900000D01*
X32861928Y-23600000D01*
X32874188Y-23724482D01*
X32910498Y-23844180D01*
X32969463Y-23954494D01*
X33048815Y-24051185D01*
X33145506Y-24130537D01*
X33255820Y-24189502D01*
X33375518Y-24225812D01*
X33500000Y-24238072D01*
X35200000Y-24238072D01*
X35324482Y-24225812D01*
X35444180Y-24189502D01*
X35554494Y-24130537D01*
X35651185Y-24051185D01*
X35730537Y-23954494D01*
X35789502Y-23844180D01*
X35813966Y-23763534D01*
X35889731Y-23847588D01*
X36123080Y-24021641D01*
X36385901Y-24146825D01*
X36533110Y-24191476D01*
X36763000Y-24070155D01*
X36763000Y-22877000D01*
X37017000Y-22877000D01*
X37017000Y-24070155D01*
X37246890Y-24191476D01*
X37394099Y-24146825D01*
X37656920Y-24021641D01*
X37890269Y-23847588D01*
X38085178Y-23631355D01*
X38234157Y-23381252D01*
X38331481Y-23106891D01*
X38210814Y-22877000D01*
X37017000Y-22877000D01*
X36763000Y-22877000D01*
X36743000Y-22877000D01*
X36743000Y-22623000D01*
X36763000Y-22623000D01*
X36763000Y-21429845D01*
X37017000Y-21429845D01*
X37017000Y-22623000D01*
X38210814Y-22623000D01*
X38331481Y-22393109D01*
X38234157Y-22118748D01*
X38085178Y-21868645D01*
X37890269Y-21652412D01*
X37656920Y-21478359D01*
X37394099Y-21353175D01*
X37246890Y-21308524D01*
X37017000Y-21429845D01*
X36763000Y-21429845D01*
X36533110Y-21308524D01*
X36385901Y-21353175D01*
X36123080Y-21478359D01*
X35889731Y-21652412D01*
X35813966Y-21736466D01*
X35789502Y-21655820D01*
X35730537Y-21545506D01*
X35651185Y-21448815D01*
X35554494Y-21369463D01*
X35444180Y-21310498D01*
X35324482Y-21274188D01*
X35200000Y-21261928D01*
X33500000Y-21261928D01*
X33375518Y-21274188D01*
X33255820Y-21310498D01*
X33145506Y-21369463D01*
X33048815Y-21448815D01*
X32969463Y-21545506D01*
X32910498Y-21655820D01*
X32874188Y-21775518D01*
X32861928Y-21900000D01*
X28731522Y-21900000D01*
X28482818Y-21696787D01*
X25179605Y-25000000D01*
X24820395Y-25000000D01*
X24806253Y-24985858D01*
X24985858Y-24806253D01*
X25000000Y-24820395D01*
X28303213Y-21517182D01*
X27811054Y-20914851D01*
X27349534Y-20660000D01*
X62648907Y-20660000D01*
X62301560Y-20839606D01*
G37*
%TD.AperFunction*%
D25*
X37925629Y-45464113D02*
X37936515Y-45500000D01*
X37925629Y-45535887D01*
X37921084Y-45582035D01*
X37920000Y-45581928D01*
X37885750Y-45585000D01*
X37727000Y-45743750D01*
X37727000Y-46388000D01*
X37747000Y-46388000D01*
X37747000Y-46469870D01*
X37695490Y-46474943D01*
X37681112Y-46476359D01*
X37656606Y-46483793D01*
X37533140Y-46521246D01*
X37475737Y-46551928D01*
X37427500Y-46551928D01*
X37274243Y-46567023D01*
X37165531Y-46600000D01*
X36934469Y-46600000D01*
X36825757Y-46567023D01*
X36672500Y-46551928D01*
X36627000Y-46551928D01*
X36627000Y-46388000D01*
X37473000Y-46388000D01*
X37473000Y-45743750D01*
X37314250Y-45585000D01*
X37280000Y-45581928D01*
X37155518Y-45594188D01*
X37050000Y-45626197D01*
X36944482Y-45594188D01*
X36820000Y-45581928D01*
X36785750Y-45585000D01*
X36627002Y-45743748D01*
X36627002Y-45585000D01*
X36627000Y-45585000D01*
X36627000Y-45377000D01*
X37917049Y-45377000D01*
X37925629Y-45464113D01*
%TA.AperFunction,Conductor*%
D26*
G36*
X37925629Y-45464113D02*
G01*
X37936515Y-45500000D01*
X37925629Y-45535887D01*
X37921084Y-45582035D01*
X37920000Y-45581928D01*
X37885750Y-45585000D01*
X37727000Y-45743750D01*
X37727000Y-46388000D01*
X37747000Y-46388000D01*
X37747000Y-46469870D01*
X37695490Y-46474943D01*
X37681112Y-46476359D01*
X37656606Y-46483793D01*
X37533140Y-46521246D01*
X37475737Y-46551928D01*
X37427500Y-46551928D01*
X37274243Y-46567023D01*
X37165531Y-46600000D01*
X36934469Y-46600000D01*
X36825757Y-46567023D01*
X36672500Y-46551928D01*
X36627000Y-46551928D01*
X36627000Y-46388000D01*
X37473000Y-46388000D01*
X37473000Y-45743750D01*
X37314250Y-45585000D01*
X37280000Y-45581928D01*
X37155518Y-45594188D01*
X37050000Y-45626197D01*
X36944482Y-45594188D01*
X36820000Y-45581928D01*
X36785750Y-45585000D01*
X36627002Y-45743748D01*
X36627002Y-45585000D01*
X36627000Y-45585000D01*
X36627000Y-45377000D01*
X37917049Y-45377000D01*
X37925629Y-45464113D01*
G37*
%TD.AperFunction*%
D25*
X56804842Y-41465000D02*
X55126750Y-41465000D01*
X55088750Y-41427000D01*
X54302000Y-41427000D01*
X54302000Y-41447000D01*
X54048000Y-41447000D01*
X54048000Y-41427000D01*
X54028000Y-41427000D01*
X54028000Y-41173000D01*
X54048000Y-41173000D01*
X54048000Y-41153000D01*
X54302000Y-41153000D01*
X54302000Y-41173000D01*
X55088750Y-41173000D01*
X55247500Y-41014250D01*
X55250572Y-40825000D01*
X55238312Y-40700518D01*
X55202002Y-40580820D01*
X55143037Y-40470506D01*
X55063685Y-40373815D01*
X55034079Y-40349518D01*
X55095226Y-40201898D01*
X55135000Y-40001939D01*
X55135000Y-39798061D01*
X55134279Y-39794436D01*
X56804842Y-41465000D01*
%TA.AperFunction,Conductor*%
D26*
G36*
X56804842Y-41465000D02*
G01*
X55126750Y-41465000D01*
X55088750Y-41427000D01*
X54302000Y-41427000D01*
X54302000Y-41447000D01*
X54048000Y-41447000D01*
X54048000Y-41427000D01*
X54028000Y-41427000D01*
X54028000Y-41173000D01*
X54048000Y-41173000D01*
X54048000Y-41153000D01*
X54302000Y-41153000D01*
X54302000Y-41173000D01*
X55088750Y-41173000D01*
X55247500Y-41014250D01*
X55250572Y-40825000D01*
X55238312Y-40700518D01*
X55202002Y-40580820D01*
X55143037Y-40470506D01*
X55063685Y-40373815D01*
X55034079Y-40349518D01*
X55095226Y-40201898D01*
X55135000Y-40001939D01*
X55135000Y-39798061D01*
X55134279Y-39794436D01*
X56804842Y-41465000D01*
G37*
%TD.AperFunction*%
D25*
X51027000Y-38788000D02*
X51288750Y-38788000D01*
X51303750Y-38803000D01*
X51973000Y-38803000D01*
X51973000Y-38783000D01*
X52227000Y-38783000D01*
X52227000Y-38803000D01*
X52247000Y-38803000D01*
X52247000Y-38966928D01*
X51927500Y-38966928D01*
X51774243Y-38982023D01*
X51714980Y-39000000D01*
X51334469Y-39000000D01*
X51225757Y-38967023D01*
X51072500Y-38951928D01*
X50753000Y-38951928D01*
X50753000Y-38788000D01*
X50773000Y-38788000D01*
X50773000Y-38768000D01*
X51027000Y-38768000D01*
X51027000Y-38788000D01*
%TA.AperFunction,Conductor*%
D26*
G36*
X51027000Y-38788000D02*
G01*
X51288750Y-38788000D01*
X51303750Y-38803000D01*
X51973000Y-38803000D01*
X51973000Y-38783000D01*
X52227000Y-38783000D01*
X52227000Y-38803000D01*
X52247000Y-38803000D01*
X52247000Y-38966928D01*
X51927500Y-38966928D01*
X51774243Y-38982023D01*
X51714980Y-39000000D01*
X51334469Y-39000000D01*
X51225757Y-38967023D01*
X51072500Y-38951928D01*
X50753000Y-38951928D01*
X50753000Y-38788000D01*
X50773000Y-38788000D01*
X50773000Y-38768000D01*
X51027000Y-38768000D01*
X51027000Y-38788000D01*
G37*
%TD.AperFunction*%
D25*
X54205564Y-38865721D02*
X54201939Y-38865000D01*
X53998061Y-38865000D01*
X53798102Y-38904774D01*
X53650000Y-38966120D01*
X53501898Y-38904774D01*
X53301939Y-38865000D01*
X53098061Y-38865000D01*
X53055000Y-38873565D01*
X53055000Y-38802998D01*
X52896252Y-38802998D01*
X53055000Y-38644250D01*
X53058072Y-38635000D01*
X53045812Y-38510518D01*
X53009502Y-38390820D01*
X52952939Y-38285000D01*
X53624843Y-38285000D01*
X54205564Y-38865721D01*
%TA.AperFunction,Conductor*%
D26*
G36*
X54205564Y-38865721D02*
G01*
X54201939Y-38865000D01*
X53998061Y-38865000D01*
X53798102Y-38904774D01*
X53650000Y-38966120D01*
X53501898Y-38904774D01*
X53301939Y-38865000D01*
X53098061Y-38865000D01*
X53055000Y-38873565D01*
X53055000Y-38802998D01*
X52896252Y-38802998D01*
X53055000Y-38644250D01*
X53058072Y-38635000D01*
X53045812Y-38510518D01*
X53009502Y-38390820D01*
X52952939Y-38285000D01*
X53624843Y-38285000D01*
X54205564Y-38865721D01*
G37*
%TD.AperFunction*%
D25*
X42112000Y-36373000D02*
X42173750Y-36373000D01*
X42203750Y-36403000D01*
X42873000Y-36403000D01*
X42873000Y-36383000D01*
X42965001Y-36383000D01*
X42965001Y-36566928D01*
X42827500Y-36566928D01*
X42674243Y-36582023D01*
X42526875Y-36626726D01*
X42526362Y-36627000D01*
X42112000Y-36627000D01*
X42112000Y-36748750D01*
X42045000Y-36815750D01*
X42041928Y-36825000D01*
X42054188Y-36949482D01*
X42090498Y-37069180D01*
X42094312Y-37076316D01*
X42057023Y-37199243D01*
X42041928Y-37352500D01*
X42041928Y-37647500D01*
X42051728Y-37747000D01*
X42030131Y-37747000D01*
X42023641Y-37681113D01*
X42023467Y-37680537D01*
X41992591Y-37578754D01*
X41978754Y-37533140D01*
X41948072Y-37475737D01*
X41948072Y-37427500D01*
X41932977Y-37274243D01*
X41900000Y-37165531D01*
X41900000Y-36934469D01*
X41932977Y-36825757D01*
X41948072Y-36672500D01*
X41948072Y-36353000D01*
X42112000Y-36353000D01*
X42112000Y-36373000D01*
%TA.AperFunction,Conductor*%
D26*
G36*
X42112000Y-36373000D02*
G01*
X42173750Y-36373000D01*
X42203750Y-36403000D01*
X42873000Y-36403000D01*
X42873000Y-36383000D01*
X42965001Y-36383000D01*
X42965001Y-36566928D01*
X42827500Y-36566928D01*
X42674243Y-36582023D01*
X42526875Y-36626726D01*
X42526362Y-36627000D01*
X42112000Y-36627000D01*
X42112000Y-36748750D01*
X42045000Y-36815750D01*
X42041928Y-36825000D01*
X42054188Y-36949482D01*
X42090498Y-37069180D01*
X42094312Y-37076316D01*
X42057023Y-37199243D01*
X42041928Y-37352500D01*
X42041928Y-37647500D01*
X42051728Y-37747000D01*
X42030131Y-37747000D01*
X42023641Y-37681113D01*
X42023467Y-37680537D01*
X41992591Y-37578754D01*
X41978754Y-37533140D01*
X41948072Y-37475737D01*
X41948072Y-37427500D01*
X41932977Y-37274243D01*
X41900000Y-37165531D01*
X41900000Y-36934469D01*
X41932977Y-36825757D01*
X41948072Y-36672500D01*
X41948072Y-36353000D01*
X42112000Y-36353000D01*
X42112000Y-36373000D01*
G37*
%TD.AperFunction*%
D25*
X42165308Y-35650442D02*
X42112002Y-35703748D01*
X42112002Y-35606695D01*
X42165308Y-35650442D01*
%TA.AperFunction,Conductor*%
D26*
G36*
X42165308Y-35650442D02*
G01*
X42112002Y-35703748D01*
X42112002Y-35606695D01*
X42165308Y-35650442D01*
G37*
%TD.AperFunction*%
D25*
X42049948Y-35545000D02*
X42035951Y-35545000D01*
X42040646Y-35533665D01*
X42049948Y-35545000D01*
%TA.AperFunction,Conductor*%
D26*
G36*
X42049948Y-35545000D02*
G01*
X42035951Y-35545000D01*
X42040646Y-35533665D01*
X42049948Y-35545000D01*
G37*
%TD.AperFunction*%
%TD*%
M02*
