%TF.GenerationSoftware,KiCad,Pcbnew,(5.1.7)-1*%
%TF.CreationDate,2020-10-04T21:05:32-05:00*%
%TF.ProjectId,STM32F4_Breakout,53544d33-3246-4345-9f42-7265616b6f75,rev?*%
%TF.SameCoordinates,Original*%
%TF.FileFunction,Paste,Top*%
%TF.FilePolarity,Positive*%
%FSLAX46Y46*%
G04 Gerber Fmt 4.6, Leading zero omitted, Abs format (unit mm)*
G04 Created by KiCad (PCBNEW (5.1.7)-1) date 2020-10-04 21:05:32*
%MOMM*%
%LPD*%
G01*
G04 APERTURE LIST*
%TA.AperFunction,Profile*%
%ADD10C,0.050000*%
%TD*%
%ADD11R,1.200000X0.900000*%
%ADD12R,1.200000X1.400000*%
%ADD13R,2.400000X0.740000*%
%ADD14R,3.800000X2.000000*%
%ADD15R,1.500000X2.000000*%
G04 APERTURE END LIST*
D10*
X70000000Y-65000000D02*
G75*
G02*
X65000000Y-70000000I-5000000J0D01*
G01*
X25000000Y-70000000D02*
G75*
G02*
X20000000Y-65000000I0J5000000D01*
G01*
X20000000Y-25000000D02*
G75*
G02*
X25000000Y-20000000I5000000J0D01*
G01*
X65000000Y-20000000D02*
G75*
G02*
X70000000Y-25000000I0J-5000000D01*
G01*
X20000000Y-65000000D02*
X20000000Y-25000000D01*
X65000000Y-70000000D02*
X25000000Y-70000000D01*
X70000000Y-25000000D02*
X70000000Y-65000000D01*
X25000000Y-20000000D02*
X65000000Y-20000000D01*
%TO.C,C1*%
G36*
G01*
X30456250Y-44325000D02*
X29543750Y-44325000D01*
G75*
G02*
X29300000Y-44081250I0J243750D01*
G01*
X29300000Y-43593750D01*
G75*
G02*
X29543750Y-43350000I243750J0D01*
G01*
X30456250Y-43350000D01*
G75*
G02*
X30700000Y-43593750I0J-243750D01*
G01*
X30700000Y-44081250D01*
G75*
G02*
X30456250Y-44325000I-243750J0D01*
G01*
G37*
G36*
G01*
X30456250Y-42450000D02*
X29543750Y-42450000D01*
G75*
G02*
X29300000Y-42206250I0J243750D01*
G01*
X29300000Y-41718750D01*
G75*
G02*
X29543750Y-41475000I243750J0D01*
G01*
X30456250Y-41475000D01*
G75*
G02*
X30700000Y-41718750I0J-243750D01*
G01*
X30700000Y-42206250D01*
G75*
G02*
X30456250Y-42450000I-243750J0D01*
G01*
G37*
%TD*%
%TO.C,C2*%
G36*
G01*
X23612500Y-45793750D02*
X23612500Y-46706250D01*
G75*
G02*
X23368750Y-46950000I-243750J0D01*
G01*
X22881250Y-46950000D01*
G75*
G02*
X22637500Y-46706250I0J243750D01*
G01*
X22637500Y-45793750D01*
G75*
G02*
X22881250Y-45550000I243750J0D01*
G01*
X23368750Y-45550000D01*
G75*
G02*
X23612500Y-45793750I0J-243750D01*
G01*
G37*
G36*
G01*
X25487500Y-45793750D02*
X25487500Y-46706250D01*
G75*
G02*
X25243750Y-46950000I-243750J0D01*
G01*
X24756250Y-46950000D01*
G75*
G02*
X24512500Y-46706250I0J243750D01*
G01*
X24512500Y-45793750D01*
G75*
G02*
X24756250Y-45550000I243750J0D01*
G01*
X25243750Y-45550000D01*
G75*
G02*
X25487500Y-45793750I0J-243750D01*
G01*
G37*
%TD*%
%TO.C,C3*%
G36*
G01*
X39356250Y-38725000D02*
X38843750Y-38725000D01*
G75*
G02*
X38625000Y-38506250I0J218750D01*
G01*
X38625000Y-38068750D01*
G75*
G02*
X38843750Y-37850000I218750J0D01*
G01*
X39356250Y-37850000D01*
G75*
G02*
X39575000Y-38068750I0J-218750D01*
G01*
X39575000Y-38506250D01*
G75*
G02*
X39356250Y-38725000I-218750J0D01*
G01*
G37*
G36*
G01*
X39356250Y-37150000D02*
X38843750Y-37150000D01*
G75*
G02*
X38625000Y-36931250I0J218750D01*
G01*
X38625000Y-36493750D01*
G75*
G02*
X38843750Y-36275000I218750J0D01*
G01*
X39356250Y-36275000D01*
G75*
G02*
X39575000Y-36493750I0J-218750D01*
G01*
X39575000Y-36931250D01*
G75*
G02*
X39356250Y-37150000I-218750J0D01*
G01*
G37*
%TD*%
%TO.C,C4*%
G36*
G01*
X37672500Y-40525000D02*
X37327500Y-40525000D01*
G75*
G02*
X37180000Y-40377500I0J147500D01*
G01*
X37180000Y-40082500D01*
G75*
G02*
X37327500Y-39935000I147500J0D01*
G01*
X37672500Y-39935000D01*
G75*
G02*
X37820000Y-40082500I0J-147500D01*
G01*
X37820000Y-40377500D01*
G75*
G02*
X37672500Y-40525000I-147500J0D01*
G01*
G37*
G36*
G01*
X37672500Y-41495000D02*
X37327500Y-41495000D01*
G75*
G02*
X37180000Y-41347500I0J147500D01*
G01*
X37180000Y-41052500D01*
G75*
G02*
X37327500Y-40905000I147500J0D01*
G01*
X37672500Y-40905000D01*
G75*
G02*
X37820000Y-41052500I0J-147500D01*
G01*
X37820000Y-41347500D01*
G75*
G02*
X37672500Y-41495000I-147500J0D01*
G01*
G37*
%TD*%
%TO.C,C5*%
G36*
G01*
X42280000Y-52227500D02*
X42280000Y-52572500D01*
G75*
G02*
X42132500Y-52720000I-147500J0D01*
G01*
X41837500Y-52720000D01*
G75*
G02*
X41690000Y-52572500I0J147500D01*
G01*
X41690000Y-52227500D01*
G75*
G02*
X41837500Y-52080000I147500J0D01*
G01*
X42132500Y-52080000D01*
G75*
G02*
X42280000Y-52227500I0J-147500D01*
G01*
G37*
G36*
G01*
X41310000Y-52227500D02*
X41310000Y-52572500D01*
G75*
G02*
X41162500Y-52720000I-147500J0D01*
G01*
X40867500Y-52720000D01*
G75*
G02*
X40720000Y-52572500I0J147500D01*
G01*
X40720000Y-52227500D01*
G75*
G02*
X40867500Y-52080000I147500J0D01*
G01*
X41162500Y-52080000D01*
G75*
G02*
X41310000Y-52227500I0J-147500D01*
G01*
G37*
%TD*%
%TO.C,C6*%
G36*
G01*
X41310000Y-53327500D02*
X41310000Y-53672500D01*
G75*
G02*
X41162500Y-53820000I-147500J0D01*
G01*
X40867500Y-53820000D01*
G75*
G02*
X40720000Y-53672500I0J147500D01*
G01*
X40720000Y-53327500D01*
G75*
G02*
X40867500Y-53180000I147500J0D01*
G01*
X41162500Y-53180000D01*
G75*
G02*
X41310000Y-53327500I0J-147500D01*
G01*
G37*
G36*
G01*
X42280000Y-53327500D02*
X42280000Y-53672500D01*
G75*
G02*
X42132500Y-53820000I-147500J0D01*
G01*
X41837500Y-53820000D01*
G75*
G02*
X41690000Y-53672500I0J147500D01*
G01*
X41690000Y-53327500D01*
G75*
G02*
X41837500Y-53180000I147500J0D01*
G01*
X42132500Y-53180000D01*
G75*
G02*
X42280000Y-53327500I0J-147500D01*
G01*
G37*
%TD*%
%TO.C,C7*%
G36*
G01*
X49505000Y-51072500D02*
X49505000Y-50727500D01*
G75*
G02*
X49652500Y-50580000I147500J0D01*
G01*
X49947500Y-50580000D01*
G75*
G02*
X50095000Y-50727500I0J-147500D01*
G01*
X50095000Y-51072500D01*
G75*
G02*
X49947500Y-51220000I-147500J0D01*
G01*
X49652500Y-51220000D01*
G75*
G02*
X49505000Y-51072500I0J147500D01*
G01*
G37*
G36*
G01*
X50475000Y-51072500D02*
X50475000Y-50727500D01*
G75*
G02*
X50622500Y-50580000I147500J0D01*
G01*
X50917500Y-50580000D01*
G75*
G02*
X51065000Y-50727500I0J-147500D01*
G01*
X51065000Y-51072500D01*
G75*
G02*
X50917500Y-51220000I-147500J0D01*
G01*
X50622500Y-51220000D01*
G75*
G02*
X50475000Y-51072500I0J147500D01*
G01*
G37*
%TD*%
%TO.C,C8*%
G36*
G01*
X50475000Y-52172500D02*
X50475000Y-51827500D01*
G75*
G02*
X50622500Y-51680000I147500J0D01*
G01*
X50917500Y-51680000D01*
G75*
G02*
X51065000Y-51827500I0J-147500D01*
G01*
X51065000Y-52172500D01*
G75*
G02*
X50917500Y-52320000I-147500J0D01*
G01*
X50622500Y-52320000D01*
G75*
G02*
X50475000Y-52172500I0J147500D01*
G01*
G37*
G36*
G01*
X49505000Y-52172500D02*
X49505000Y-51827500D01*
G75*
G02*
X49652500Y-51680000I147500J0D01*
G01*
X49947500Y-51680000D01*
G75*
G02*
X50095000Y-51827500I0J-147500D01*
G01*
X50095000Y-52172500D01*
G75*
G02*
X49947500Y-52320000I-147500J0D01*
G01*
X49652500Y-52320000D01*
G75*
G02*
X49505000Y-52172500I0J147500D01*
G01*
G37*
%TD*%
%TO.C,C9*%
G36*
G01*
X51072500Y-40180000D02*
X50727500Y-40180000D01*
G75*
G02*
X50580000Y-40032500I0J147500D01*
G01*
X50580000Y-39737500D01*
G75*
G02*
X50727500Y-39590000I147500J0D01*
G01*
X51072500Y-39590000D01*
G75*
G02*
X51220000Y-39737500I0J-147500D01*
G01*
X51220000Y-40032500D01*
G75*
G02*
X51072500Y-40180000I-147500J0D01*
G01*
G37*
G36*
G01*
X51072500Y-39210000D02*
X50727500Y-39210000D01*
G75*
G02*
X50580000Y-39062500I0J147500D01*
G01*
X50580000Y-38767500D01*
G75*
G02*
X50727500Y-38620000I147500J0D01*
G01*
X51072500Y-38620000D01*
G75*
G02*
X51220000Y-38767500I0J-147500D01*
G01*
X51220000Y-39062500D01*
G75*
G02*
X51072500Y-39210000I-147500J0D01*
G01*
G37*
%TD*%
%TO.C,C10*%
G36*
G01*
X52272500Y-40195000D02*
X51927500Y-40195000D01*
G75*
G02*
X51780000Y-40047500I0J147500D01*
G01*
X51780000Y-39752500D01*
G75*
G02*
X51927500Y-39605000I147500J0D01*
G01*
X52272500Y-39605000D01*
G75*
G02*
X52420000Y-39752500I0J-147500D01*
G01*
X52420000Y-40047500D01*
G75*
G02*
X52272500Y-40195000I-147500J0D01*
G01*
G37*
G36*
G01*
X52272500Y-39225000D02*
X51927500Y-39225000D01*
G75*
G02*
X51780000Y-39077500I0J147500D01*
G01*
X51780000Y-38782500D01*
G75*
G02*
X51927500Y-38635000I147500J0D01*
G01*
X52272500Y-38635000D01*
G75*
G02*
X52420000Y-38782500I0J-147500D01*
G01*
X52420000Y-39077500D01*
G75*
G02*
X52272500Y-39225000I-147500J0D01*
G01*
G37*
%TD*%
%TO.C,C11*%
G36*
G01*
X41690000Y-37772500D02*
X41690000Y-37427500D01*
G75*
G02*
X41837500Y-37280000I147500J0D01*
G01*
X42132500Y-37280000D01*
G75*
G02*
X42280000Y-37427500I0J-147500D01*
G01*
X42280000Y-37772500D01*
G75*
G02*
X42132500Y-37920000I-147500J0D01*
G01*
X41837500Y-37920000D01*
G75*
G02*
X41690000Y-37772500I0J147500D01*
G01*
G37*
G36*
G01*
X40720000Y-37772500D02*
X40720000Y-37427500D01*
G75*
G02*
X40867500Y-37280000I147500J0D01*
G01*
X41162500Y-37280000D01*
G75*
G02*
X41310000Y-37427500I0J-147500D01*
G01*
X41310000Y-37772500D01*
G75*
G02*
X41162500Y-37920000I-147500J0D01*
G01*
X40867500Y-37920000D01*
G75*
G02*
X40720000Y-37772500I0J147500D01*
G01*
G37*
%TD*%
%TO.C,C12*%
G36*
G01*
X40720000Y-36672500D02*
X40720000Y-36327500D01*
G75*
G02*
X40867500Y-36180000I147500J0D01*
G01*
X41162500Y-36180000D01*
G75*
G02*
X41310000Y-36327500I0J-147500D01*
G01*
X41310000Y-36672500D01*
G75*
G02*
X41162500Y-36820000I-147500J0D01*
G01*
X40867500Y-36820000D01*
G75*
G02*
X40720000Y-36672500I0J147500D01*
G01*
G37*
G36*
G01*
X41690000Y-36672500D02*
X41690000Y-36327500D01*
G75*
G02*
X41837500Y-36180000I147500J0D01*
G01*
X42132500Y-36180000D01*
G75*
G02*
X42280000Y-36327500I0J-147500D01*
G01*
X42280000Y-36672500D01*
G75*
G02*
X42132500Y-36820000I-147500J0D01*
G01*
X41837500Y-36820000D01*
G75*
G02*
X41690000Y-36672500I0J147500D01*
G01*
G37*
%TD*%
%TO.C,C13*%
G36*
G01*
X36672500Y-46810000D02*
X36327500Y-46810000D01*
G75*
G02*
X36180000Y-46662500I0J147500D01*
G01*
X36180000Y-46367500D01*
G75*
G02*
X36327500Y-46220000I147500J0D01*
G01*
X36672500Y-46220000D01*
G75*
G02*
X36820000Y-46367500I0J-147500D01*
G01*
X36820000Y-46662500D01*
G75*
G02*
X36672500Y-46810000I-147500J0D01*
G01*
G37*
G36*
G01*
X36672500Y-47780000D02*
X36327500Y-47780000D01*
G75*
G02*
X36180000Y-47632500I0J147500D01*
G01*
X36180000Y-47337500D01*
G75*
G02*
X36327500Y-47190000I147500J0D01*
G01*
X36672500Y-47190000D01*
G75*
G02*
X36820000Y-47337500I0J-147500D01*
G01*
X36820000Y-47632500D01*
G75*
G02*
X36672500Y-47780000I-147500J0D01*
G01*
G37*
%TD*%
%TO.C,C14*%
G36*
G01*
X37772500Y-46810000D02*
X37427500Y-46810000D01*
G75*
G02*
X37280000Y-46662500I0J147500D01*
G01*
X37280000Y-46367500D01*
G75*
G02*
X37427500Y-46220000I147500J0D01*
G01*
X37772500Y-46220000D01*
G75*
G02*
X37920000Y-46367500I0J-147500D01*
G01*
X37920000Y-46662500D01*
G75*
G02*
X37772500Y-46810000I-147500J0D01*
G01*
G37*
G36*
G01*
X37772500Y-47780000D02*
X37427500Y-47780000D01*
G75*
G02*
X37280000Y-47632500I0J147500D01*
G01*
X37280000Y-47337500D01*
G75*
G02*
X37427500Y-47190000I147500J0D01*
G01*
X37772500Y-47190000D01*
G75*
G02*
X37920000Y-47337500I0J-147500D01*
G01*
X37920000Y-47632500D01*
G75*
G02*
X37772500Y-47780000I-147500J0D01*
G01*
G37*
%TD*%
%TO.C,C15*%
G36*
G01*
X47943750Y-53750000D02*
X48456250Y-53750000D01*
G75*
G02*
X48675000Y-53968750I0J-218750D01*
G01*
X48675000Y-54406250D01*
G75*
G02*
X48456250Y-54625000I-218750J0D01*
G01*
X47943750Y-54625000D01*
G75*
G02*
X47725000Y-54406250I0J218750D01*
G01*
X47725000Y-53968750D01*
G75*
G02*
X47943750Y-53750000I218750J0D01*
G01*
G37*
G36*
G01*
X47943750Y-52175000D02*
X48456250Y-52175000D01*
G75*
G02*
X48675000Y-52393750I0J-218750D01*
G01*
X48675000Y-52831250D01*
G75*
G02*
X48456250Y-53050000I-218750J0D01*
G01*
X47943750Y-53050000D01*
G75*
G02*
X47725000Y-52831250I0J218750D01*
G01*
X47725000Y-52393750D01*
G75*
G02*
X47943750Y-52175000I218750J0D01*
G01*
G37*
%TD*%
%TO.C,C16*%
G36*
G01*
X52162500Y-41556250D02*
X52162500Y-41043750D01*
G75*
G02*
X52381250Y-40825000I218750J0D01*
G01*
X52818750Y-40825000D01*
G75*
G02*
X53037500Y-41043750I0J-218750D01*
G01*
X53037500Y-41556250D01*
G75*
G02*
X52818750Y-41775000I-218750J0D01*
G01*
X52381250Y-41775000D01*
G75*
G02*
X52162500Y-41556250I0J218750D01*
G01*
G37*
G36*
G01*
X53737500Y-41556250D02*
X53737500Y-41043750D01*
G75*
G02*
X53956250Y-40825000I218750J0D01*
G01*
X54393750Y-40825000D01*
G75*
G02*
X54612500Y-41043750I0J-218750D01*
G01*
X54612500Y-41556250D01*
G75*
G02*
X54393750Y-41775000I-218750J0D01*
G01*
X53956250Y-41775000D01*
G75*
G02*
X53737500Y-41556250I0J218750D01*
G01*
G37*
%TD*%
%TO.C,C17*%
G36*
G01*
X33420000Y-40772500D02*
X33420000Y-40427500D01*
G75*
G02*
X33567500Y-40280000I147500J0D01*
G01*
X33862500Y-40280000D01*
G75*
G02*
X34010000Y-40427500I0J-147500D01*
G01*
X34010000Y-40772500D01*
G75*
G02*
X33862500Y-40920000I-147500J0D01*
G01*
X33567500Y-40920000D01*
G75*
G02*
X33420000Y-40772500I0J147500D01*
G01*
G37*
G36*
G01*
X34390000Y-40772500D02*
X34390000Y-40427500D01*
G75*
G02*
X34537500Y-40280000I147500J0D01*
G01*
X34832500Y-40280000D01*
G75*
G02*
X34980000Y-40427500I0J-147500D01*
G01*
X34980000Y-40772500D01*
G75*
G02*
X34832500Y-40920000I-147500J0D01*
G01*
X34537500Y-40920000D01*
G75*
G02*
X34390000Y-40772500I0J147500D01*
G01*
G37*
%TD*%
%TO.C,C18*%
G36*
G01*
X34980000Y-45827500D02*
X34980000Y-46172500D01*
G75*
G02*
X34832500Y-46320000I-147500J0D01*
G01*
X34537500Y-46320000D01*
G75*
G02*
X34390000Y-46172500I0J147500D01*
G01*
X34390000Y-45827500D01*
G75*
G02*
X34537500Y-45680000I147500J0D01*
G01*
X34832500Y-45680000D01*
G75*
G02*
X34980000Y-45827500I0J-147500D01*
G01*
G37*
G36*
G01*
X34010000Y-45827500D02*
X34010000Y-46172500D01*
G75*
G02*
X33862500Y-46320000I-147500J0D01*
G01*
X33567500Y-46320000D01*
G75*
G02*
X33420000Y-46172500I0J147500D01*
G01*
X33420000Y-45827500D01*
G75*
G02*
X33567500Y-45680000I147500J0D01*
G01*
X33862500Y-45680000D01*
G75*
G02*
X34010000Y-45827500I0J-147500D01*
G01*
G37*
%TD*%
D11*
%TO.C,D1*%
X28900000Y-53200000D03*
X28900000Y-56500000D03*
%TD*%
%TO.C,D2*%
G36*
G01*
X27712500Y-33843750D02*
X27712500Y-34356250D01*
G75*
G02*
X27493750Y-34575000I-218750J0D01*
G01*
X27056250Y-34575000D01*
G75*
G02*
X26837500Y-34356250I0J218750D01*
G01*
X26837500Y-33843750D01*
G75*
G02*
X27056250Y-33625000I218750J0D01*
G01*
X27493750Y-33625000D01*
G75*
G02*
X27712500Y-33843750I0J-218750D01*
G01*
G37*
G36*
G01*
X26137500Y-33843750D02*
X26137500Y-34356250D01*
G75*
G02*
X25918750Y-34575000I-218750J0D01*
G01*
X25481250Y-34575000D01*
G75*
G02*
X25262500Y-34356250I0J218750D01*
G01*
X25262500Y-33843750D01*
G75*
G02*
X25481250Y-33625000I218750J0D01*
G01*
X25918750Y-33625000D01*
G75*
G02*
X26137500Y-33843750I0J-218750D01*
G01*
G37*
%TD*%
%TO.C,D3*%
G36*
G01*
X53837500Y-48493750D02*
X53837500Y-49006250D01*
G75*
G02*
X53618750Y-49225000I-218750J0D01*
G01*
X53181250Y-49225000D01*
G75*
G02*
X52962500Y-49006250I0J218750D01*
G01*
X52962500Y-48493750D01*
G75*
G02*
X53181250Y-48275000I218750J0D01*
G01*
X53618750Y-48275000D01*
G75*
G02*
X53837500Y-48493750I0J-218750D01*
G01*
G37*
G36*
G01*
X55412500Y-48493750D02*
X55412500Y-49006250D01*
G75*
G02*
X55193750Y-49225000I-218750J0D01*
G01*
X54756250Y-49225000D01*
G75*
G02*
X54537500Y-49006250I0J218750D01*
G01*
X54537500Y-48493750D01*
G75*
G02*
X54756250Y-48275000I218750J0D01*
G01*
X55193750Y-48275000D01*
G75*
G02*
X55412500Y-48493750I0J-218750D01*
G01*
G37*
%TD*%
%TO.C,F1*%
G36*
G01*
X29325000Y-50243750D02*
X29325000Y-50756250D01*
G75*
G02*
X29106250Y-50975000I-218750J0D01*
G01*
X28668750Y-50975000D01*
G75*
G02*
X28450000Y-50756250I0J218750D01*
G01*
X28450000Y-50243750D01*
G75*
G02*
X28668750Y-50025000I218750J0D01*
G01*
X29106250Y-50025000D01*
G75*
G02*
X29325000Y-50243750I0J-218750D01*
G01*
G37*
G36*
G01*
X27750000Y-50243750D02*
X27750000Y-50756250D01*
G75*
G02*
X27531250Y-50975000I-218750J0D01*
G01*
X27093750Y-50975000D01*
G75*
G02*
X26875000Y-50756250I0J218750D01*
G01*
X26875000Y-50243750D01*
G75*
G02*
X27093750Y-50025000I218750J0D01*
G01*
X27531250Y-50025000D01*
G75*
G02*
X27750000Y-50243750I0J-218750D01*
G01*
G37*
%TD*%
%TO.C,FB1*%
G36*
G01*
X27073750Y-45552500D02*
X27986250Y-45552500D01*
G75*
G02*
X28230000Y-45796250I0J-243750D01*
G01*
X28230000Y-46283750D01*
G75*
G02*
X27986250Y-46527500I-243750J0D01*
G01*
X27073750Y-46527500D01*
G75*
G02*
X26830000Y-46283750I0J243750D01*
G01*
X26830000Y-45796250D01*
G75*
G02*
X27073750Y-45552500I243750J0D01*
G01*
G37*
G36*
G01*
X27073750Y-47427500D02*
X27986250Y-47427500D01*
G75*
G02*
X28230000Y-47671250I0J-243750D01*
G01*
X28230000Y-48158750D01*
G75*
G02*
X27986250Y-48402500I-243750J0D01*
G01*
X27073750Y-48402500D01*
G75*
G02*
X26830000Y-48158750I0J243750D01*
G01*
X26830000Y-47671250D01*
G75*
G02*
X27073750Y-47427500I243750J0D01*
G01*
G37*
%TD*%
%TO.C,FB2*%
G36*
G01*
X35112500Y-48743750D02*
X35112500Y-49656250D01*
G75*
G02*
X34868750Y-49900000I-243750J0D01*
G01*
X34381250Y-49900000D01*
G75*
G02*
X34137500Y-49656250I0J243750D01*
G01*
X34137500Y-48743750D01*
G75*
G02*
X34381250Y-48500000I243750J0D01*
G01*
X34868750Y-48500000D01*
G75*
G02*
X35112500Y-48743750I0J-243750D01*
G01*
G37*
G36*
G01*
X36987500Y-48743750D02*
X36987500Y-49656250D01*
G75*
G02*
X36743750Y-49900000I-243750J0D01*
G01*
X36256250Y-49900000D01*
G75*
G02*
X36012500Y-49656250I0J243750D01*
G01*
X36012500Y-48743750D01*
G75*
G02*
X36256250Y-48500000I243750J0D01*
G01*
X36743750Y-48500000D01*
G75*
G02*
X36987500Y-48743750I0J-243750D01*
G01*
G37*
%TD*%
D12*
%TO.C,HSE1*%
X33350000Y-42200000D03*
X33350000Y-44400000D03*
X35050000Y-44400000D03*
X35050000Y-42200000D03*
%TD*%
D13*
%TO.C,J4*%
X62400000Y-34310000D03*
X66300000Y-34310000D03*
X62400000Y-35580000D03*
X66300000Y-35580000D03*
X62400000Y-36850000D03*
X66300000Y-36850000D03*
X62400000Y-38120000D03*
X66300000Y-38120000D03*
X62400000Y-39390000D03*
X66300000Y-39390000D03*
%TD*%
%TO.C,R1*%
G36*
G01*
X28575000Y-34356250D02*
X28575000Y-33843750D01*
G75*
G02*
X28793750Y-33625000I218750J0D01*
G01*
X29231250Y-33625000D01*
G75*
G02*
X29450000Y-33843750I0J-218750D01*
G01*
X29450000Y-34356250D01*
G75*
G02*
X29231250Y-34575000I-218750J0D01*
G01*
X28793750Y-34575000D01*
G75*
G02*
X28575000Y-34356250I0J218750D01*
G01*
G37*
G36*
G01*
X30150000Y-34356250D02*
X30150000Y-33843750D01*
G75*
G02*
X30368750Y-33625000I218750J0D01*
G01*
X30806250Y-33625000D01*
G75*
G02*
X31025000Y-33843750I0J-218750D01*
G01*
X31025000Y-34356250D01*
G75*
G02*
X30806250Y-34575000I-218750J0D01*
G01*
X30368750Y-34575000D01*
G75*
G02*
X30150000Y-34356250I0J218750D01*
G01*
G37*
%TD*%
%TO.C,R2*%
G36*
G01*
X43172500Y-36825000D02*
X42827500Y-36825000D01*
G75*
G02*
X42680000Y-36677500I0J147500D01*
G01*
X42680000Y-36382500D01*
G75*
G02*
X42827500Y-36235000I147500J0D01*
G01*
X43172500Y-36235000D01*
G75*
G02*
X43320000Y-36382500I0J-147500D01*
G01*
X43320000Y-36677500D01*
G75*
G02*
X43172500Y-36825000I-147500J0D01*
G01*
G37*
G36*
G01*
X43172500Y-37795000D02*
X42827500Y-37795000D01*
G75*
G02*
X42680000Y-37647500I0J147500D01*
G01*
X42680000Y-37352500D01*
G75*
G02*
X42827500Y-37205000I147500J0D01*
G01*
X43172500Y-37205000D01*
G75*
G02*
X43320000Y-37352500I0J-147500D01*
G01*
X43320000Y-37647500D01*
G75*
G02*
X43172500Y-37795000I-147500J0D01*
G01*
G37*
%TD*%
%TO.C,R3*%
G36*
G01*
X46577500Y-52205000D02*
X46922500Y-52205000D01*
G75*
G02*
X47070000Y-52352500I0J-147500D01*
G01*
X47070000Y-52647500D01*
G75*
G02*
X46922500Y-52795000I-147500J0D01*
G01*
X46577500Y-52795000D01*
G75*
G02*
X46430000Y-52647500I0J147500D01*
G01*
X46430000Y-52352500D01*
G75*
G02*
X46577500Y-52205000I147500J0D01*
G01*
G37*
G36*
G01*
X46577500Y-53175000D02*
X46922500Y-53175000D01*
G75*
G02*
X47070000Y-53322500I0J-147500D01*
G01*
X47070000Y-53617500D01*
G75*
G02*
X46922500Y-53765000I-147500J0D01*
G01*
X46577500Y-53765000D01*
G75*
G02*
X46430000Y-53617500I0J147500D01*
G01*
X46430000Y-53322500D01*
G75*
G02*
X46577500Y-53175000I147500J0D01*
G01*
G37*
%TD*%
%TO.C,R4*%
G36*
G01*
X45060000Y-34677500D02*
X45060000Y-35022500D01*
G75*
G02*
X44912500Y-35170000I-147500J0D01*
G01*
X44617500Y-35170000D01*
G75*
G02*
X44470000Y-35022500I0J147500D01*
G01*
X44470000Y-34677500D01*
G75*
G02*
X44617500Y-34530000I147500J0D01*
G01*
X44912500Y-34530000D01*
G75*
G02*
X45060000Y-34677500I0J-147500D01*
G01*
G37*
G36*
G01*
X46030000Y-34677500D02*
X46030000Y-35022500D01*
G75*
G02*
X45882500Y-35170000I-147500J0D01*
G01*
X45587500Y-35170000D01*
G75*
G02*
X45440000Y-35022500I0J147500D01*
G01*
X45440000Y-34677500D01*
G75*
G02*
X45587500Y-34530000I147500J0D01*
G01*
X45882500Y-34530000D01*
G75*
G02*
X46030000Y-34677500I0J-147500D01*
G01*
G37*
%TD*%
%TO.C,R5*%
G36*
G01*
X42485000Y-35022500D02*
X42485000Y-34677500D01*
G75*
G02*
X42632500Y-34530000I147500J0D01*
G01*
X42927500Y-34530000D01*
G75*
G02*
X43075000Y-34677500I0J-147500D01*
G01*
X43075000Y-35022500D01*
G75*
G02*
X42927500Y-35170000I-147500J0D01*
G01*
X42632500Y-35170000D01*
G75*
G02*
X42485000Y-35022500I0J147500D01*
G01*
G37*
G36*
G01*
X43455000Y-35022500D02*
X43455000Y-34677500D01*
G75*
G02*
X43602500Y-34530000I147500J0D01*
G01*
X43897500Y-34530000D01*
G75*
G02*
X44045000Y-34677500I0J-147500D01*
G01*
X44045000Y-35022500D01*
G75*
G02*
X43897500Y-35170000I-147500J0D01*
G01*
X43602500Y-35170000D01*
G75*
G02*
X43455000Y-35022500I0J147500D01*
G01*
G37*
%TD*%
%TO.C,R6*%
G36*
G01*
X37895000Y-43827500D02*
X37895000Y-44172500D01*
G75*
G02*
X37747500Y-44320000I-147500J0D01*
G01*
X37452500Y-44320000D01*
G75*
G02*
X37305000Y-44172500I0J147500D01*
G01*
X37305000Y-43827500D01*
G75*
G02*
X37452500Y-43680000I147500J0D01*
G01*
X37747500Y-43680000D01*
G75*
G02*
X37895000Y-43827500I0J-147500D01*
G01*
G37*
G36*
G01*
X36925000Y-43827500D02*
X36925000Y-44172500D01*
G75*
G02*
X36777500Y-44320000I-147500J0D01*
G01*
X36482500Y-44320000D01*
G75*
G02*
X36335000Y-44172500I0J147500D01*
G01*
X36335000Y-43827500D01*
G75*
G02*
X36482500Y-43680000I147500J0D01*
G01*
X36777500Y-43680000D01*
G75*
G02*
X36925000Y-43827500I0J-147500D01*
G01*
G37*
%TD*%
%TO.C,R7*%
G36*
G01*
X53837500Y-50293750D02*
X53837500Y-50806250D01*
G75*
G02*
X53618750Y-51025000I-218750J0D01*
G01*
X53181250Y-51025000D01*
G75*
G02*
X52962500Y-50806250I0J218750D01*
G01*
X52962500Y-50293750D01*
G75*
G02*
X53181250Y-50075000I218750J0D01*
G01*
X53618750Y-50075000D01*
G75*
G02*
X53837500Y-50293750I0J-218750D01*
G01*
G37*
G36*
G01*
X55412500Y-50293750D02*
X55412500Y-50806250D01*
G75*
G02*
X55193750Y-51025000I-218750J0D01*
G01*
X54756250Y-51025000D01*
G75*
G02*
X54537500Y-50806250I0J218750D01*
G01*
X54537500Y-50293750D01*
G75*
G02*
X54756250Y-50075000I218750J0D01*
G01*
X55193750Y-50075000D01*
G75*
G02*
X55412500Y-50293750I0J-218750D01*
G01*
G37*
%TD*%
D14*
%TO.C,U1*%
X25225001Y-37550000D03*
D15*
X25225001Y-43850000D03*
X27525001Y-43850000D03*
X22925001Y-43850000D03*
%TD*%
%TO.C,U2*%
G36*
G01*
X38550000Y-41325000D02*
X38550000Y-41175000D01*
G75*
G02*
X38625000Y-41100000I75000J0D01*
G01*
X40025000Y-41100000D01*
G75*
G02*
X40100000Y-41175000I0J-75000D01*
G01*
X40100000Y-41325000D01*
G75*
G02*
X40025000Y-41400000I-75000J0D01*
G01*
X38625000Y-41400000D01*
G75*
G02*
X38550000Y-41325000I0J75000D01*
G01*
G37*
G36*
G01*
X38550000Y-41825000D02*
X38550000Y-41675000D01*
G75*
G02*
X38625000Y-41600000I75000J0D01*
G01*
X40025000Y-41600000D01*
G75*
G02*
X40100000Y-41675000I0J-75000D01*
G01*
X40100000Y-41825000D01*
G75*
G02*
X40025000Y-41900000I-75000J0D01*
G01*
X38625000Y-41900000D01*
G75*
G02*
X38550000Y-41825000I0J75000D01*
G01*
G37*
G36*
G01*
X38550000Y-42325000D02*
X38550000Y-42175000D01*
G75*
G02*
X38625000Y-42100000I75000J0D01*
G01*
X40025000Y-42100000D01*
G75*
G02*
X40100000Y-42175000I0J-75000D01*
G01*
X40100000Y-42325000D01*
G75*
G02*
X40025000Y-42400000I-75000J0D01*
G01*
X38625000Y-42400000D01*
G75*
G02*
X38550000Y-42325000I0J75000D01*
G01*
G37*
G36*
G01*
X38550000Y-42825000D02*
X38550000Y-42675000D01*
G75*
G02*
X38625000Y-42600000I75000J0D01*
G01*
X40025000Y-42600000D01*
G75*
G02*
X40100000Y-42675000I0J-75000D01*
G01*
X40100000Y-42825000D01*
G75*
G02*
X40025000Y-42900000I-75000J0D01*
G01*
X38625000Y-42900000D01*
G75*
G02*
X38550000Y-42825000I0J75000D01*
G01*
G37*
G36*
G01*
X38550000Y-43325000D02*
X38550000Y-43175000D01*
G75*
G02*
X38625000Y-43100000I75000J0D01*
G01*
X40025000Y-43100000D01*
G75*
G02*
X40100000Y-43175000I0J-75000D01*
G01*
X40100000Y-43325000D01*
G75*
G02*
X40025000Y-43400000I-75000J0D01*
G01*
X38625000Y-43400000D01*
G75*
G02*
X38550000Y-43325000I0J75000D01*
G01*
G37*
G36*
G01*
X38550000Y-43825000D02*
X38550000Y-43675000D01*
G75*
G02*
X38625000Y-43600000I75000J0D01*
G01*
X40025000Y-43600000D01*
G75*
G02*
X40100000Y-43675000I0J-75000D01*
G01*
X40100000Y-43825000D01*
G75*
G02*
X40025000Y-43900000I-75000J0D01*
G01*
X38625000Y-43900000D01*
G75*
G02*
X38550000Y-43825000I0J75000D01*
G01*
G37*
G36*
G01*
X38550000Y-44325000D02*
X38550000Y-44175000D01*
G75*
G02*
X38625000Y-44100000I75000J0D01*
G01*
X40025000Y-44100000D01*
G75*
G02*
X40100000Y-44175000I0J-75000D01*
G01*
X40100000Y-44325000D01*
G75*
G02*
X40025000Y-44400000I-75000J0D01*
G01*
X38625000Y-44400000D01*
G75*
G02*
X38550000Y-44325000I0J75000D01*
G01*
G37*
G36*
G01*
X38550000Y-44825000D02*
X38550000Y-44675000D01*
G75*
G02*
X38625000Y-44600000I75000J0D01*
G01*
X40025000Y-44600000D01*
G75*
G02*
X40100000Y-44675000I0J-75000D01*
G01*
X40100000Y-44825000D01*
G75*
G02*
X40025000Y-44900000I-75000J0D01*
G01*
X38625000Y-44900000D01*
G75*
G02*
X38550000Y-44825000I0J75000D01*
G01*
G37*
G36*
G01*
X38550000Y-45325000D02*
X38550000Y-45175000D01*
G75*
G02*
X38625000Y-45100000I75000J0D01*
G01*
X40025000Y-45100000D01*
G75*
G02*
X40100000Y-45175000I0J-75000D01*
G01*
X40100000Y-45325000D01*
G75*
G02*
X40025000Y-45400000I-75000J0D01*
G01*
X38625000Y-45400000D01*
G75*
G02*
X38550000Y-45325000I0J75000D01*
G01*
G37*
G36*
G01*
X38550000Y-45825000D02*
X38550000Y-45675000D01*
G75*
G02*
X38625000Y-45600000I75000J0D01*
G01*
X40025000Y-45600000D01*
G75*
G02*
X40100000Y-45675000I0J-75000D01*
G01*
X40100000Y-45825000D01*
G75*
G02*
X40025000Y-45900000I-75000J0D01*
G01*
X38625000Y-45900000D01*
G75*
G02*
X38550000Y-45825000I0J75000D01*
G01*
G37*
G36*
G01*
X38550000Y-46325000D02*
X38550000Y-46175000D01*
G75*
G02*
X38625000Y-46100000I75000J0D01*
G01*
X40025000Y-46100000D01*
G75*
G02*
X40100000Y-46175000I0J-75000D01*
G01*
X40100000Y-46325000D01*
G75*
G02*
X40025000Y-46400000I-75000J0D01*
G01*
X38625000Y-46400000D01*
G75*
G02*
X38550000Y-46325000I0J75000D01*
G01*
G37*
G36*
G01*
X38550000Y-46825000D02*
X38550000Y-46675000D01*
G75*
G02*
X38625000Y-46600000I75000J0D01*
G01*
X40025000Y-46600000D01*
G75*
G02*
X40100000Y-46675000I0J-75000D01*
G01*
X40100000Y-46825000D01*
G75*
G02*
X40025000Y-46900000I-75000J0D01*
G01*
X38625000Y-46900000D01*
G75*
G02*
X38550000Y-46825000I0J75000D01*
G01*
G37*
G36*
G01*
X38550000Y-47325000D02*
X38550000Y-47175000D01*
G75*
G02*
X38625000Y-47100000I75000J0D01*
G01*
X40025000Y-47100000D01*
G75*
G02*
X40100000Y-47175000I0J-75000D01*
G01*
X40100000Y-47325000D01*
G75*
G02*
X40025000Y-47400000I-75000J0D01*
G01*
X38625000Y-47400000D01*
G75*
G02*
X38550000Y-47325000I0J75000D01*
G01*
G37*
G36*
G01*
X38550000Y-47825000D02*
X38550000Y-47675000D01*
G75*
G02*
X38625000Y-47600000I75000J0D01*
G01*
X40025000Y-47600000D01*
G75*
G02*
X40100000Y-47675000I0J-75000D01*
G01*
X40100000Y-47825000D01*
G75*
G02*
X40025000Y-47900000I-75000J0D01*
G01*
X38625000Y-47900000D01*
G75*
G02*
X38550000Y-47825000I0J75000D01*
G01*
G37*
G36*
G01*
X38550000Y-48325000D02*
X38550000Y-48175000D01*
G75*
G02*
X38625000Y-48100000I75000J0D01*
G01*
X40025000Y-48100000D01*
G75*
G02*
X40100000Y-48175000I0J-75000D01*
G01*
X40100000Y-48325000D01*
G75*
G02*
X40025000Y-48400000I-75000J0D01*
G01*
X38625000Y-48400000D01*
G75*
G02*
X38550000Y-48325000I0J75000D01*
G01*
G37*
G36*
G01*
X38550000Y-48825000D02*
X38550000Y-48675000D01*
G75*
G02*
X38625000Y-48600000I75000J0D01*
G01*
X40025000Y-48600000D01*
G75*
G02*
X40100000Y-48675000I0J-75000D01*
G01*
X40100000Y-48825000D01*
G75*
G02*
X40025000Y-48900000I-75000J0D01*
G01*
X38625000Y-48900000D01*
G75*
G02*
X38550000Y-48825000I0J75000D01*
G01*
G37*
G36*
G01*
X41100000Y-51375000D02*
X41100000Y-49975000D01*
G75*
G02*
X41175000Y-49900000I75000J0D01*
G01*
X41325000Y-49900000D01*
G75*
G02*
X41400000Y-49975000I0J-75000D01*
G01*
X41400000Y-51375000D01*
G75*
G02*
X41325000Y-51450000I-75000J0D01*
G01*
X41175000Y-51450000D01*
G75*
G02*
X41100000Y-51375000I0J75000D01*
G01*
G37*
G36*
G01*
X41600000Y-51375000D02*
X41600000Y-49975000D01*
G75*
G02*
X41675000Y-49900000I75000J0D01*
G01*
X41825000Y-49900000D01*
G75*
G02*
X41900000Y-49975000I0J-75000D01*
G01*
X41900000Y-51375000D01*
G75*
G02*
X41825000Y-51450000I-75000J0D01*
G01*
X41675000Y-51450000D01*
G75*
G02*
X41600000Y-51375000I0J75000D01*
G01*
G37*
G36*
G01*
X42100000Y-51375000D02*
X42100000Y-49975000D01*
G75*
G02*
X42175000Y-49900000I75000J0D01*
G01*
X42325000Y-49900000D01*
G75*
G02*
X42400000Y-49975000I0J-75000D01*
G01*
X42400000Y-51375000D01*
G75*
G02*
X42325000Y-51450000I-75000J0D01*
G01*
X42175000Y-51450000D01*
G75*
G02*
X42100000Y-51375000I0J75000D01*
G01*
G37*
G36*
G01*
X42600000Y-51375000D02*
X42600000Y-49975000D01*
G75*
G02*
X42675000Y-49900000I75000J0D01*
G01*
X42825000Y-49900000D01*
G75*
G02*
X42900000Y-49975000I0J-75000D01*
G01*
X42900000Y-51375000D01*
G75*
G02*
X42825000Y-51450000I-75000J0D01*
G01*
X42675000Y-51450000D01*
G75*
G02*
X42600000Y-51375000I0J75000D01*
G01*
G37*
G36*
G01*
X43100000Y-51375000D02*
X43100000Y-49975000D01*
G75*
G02*
X43175000Y-49900000I75000J0D01*
G01*
X43325000Y-49900000D01*
G75*
G02*
X43400000Y-49975000I0J-75000D01*
G01*
X43400000Y-51375000D01*
G75*
G02*
X43325000Y-51450000I-75000J0D01*
G01*
X43175000Y-51450000D01*
G75*
G02*
X43100000Y-51375000I0J75000D01*
G01*
G37*
G36*
G01*
X43600000Y-51375000D02*
X43600000Y-49975000D01*
G75*
G02*
X43675000Y-49900000I75000J0D01*
G01*
X43825000Y-49900000D01*
G75*
G02*
X43900000Y-49975000I0J-75000D01*
G01*
X43900000Y-51375000D01*
G75*
G02*
X43825000Y-51450000I-75000J0D01*
G01*
X43675000Y-51450000D01*
G75*
G02*
X43600000Y-51375000I0J75000D01*
G01*
G37*
G36*
G01*
X44100000Y-51375000D02*
X44100000Y-49975000D01*
G75*
G02*
X44175000Y-49900000I75000J0D01*
G01*
X44325000Y-49900000D01*
G75*
G02*
X44400000Y-49975000I0J-75000D01*
G01*
X44400000Y-51375000D01*
G75*
G02*
X44325000Y-51450000I-75000J0D01*
G01*
X44175000Y-51450000D01*
G75*
G02*
X44100000Y-51375000I0J75000D01*
G01*
G37*
G36*
G01*
X44600000Y-51375000D02*
X44600000Y-49975000D01*
G75*
G02*
X44675000Y-49900000I75000J0D01*
G01*
X44825000Y-49900000D01*
G75*
G02*
X44900000Y-49975000I0J-75000D01*
G01*
X44900000Y-51375000D01*
G75*
G02*
X44825000Y-51450000I-75000J0D01*
G01*
X44675000Y-51450000D01*
G75*
G02*
X44600000Y-51375000I0J75000D01*
G01*
G37*
G36*
G01*
X45100000Y-51375000D02*
X45100000Y-49975000D01*
G75*
G02*
X45175000Y-49900000I75000J0D01*
G01*
X45325000Y-49900000D01*
G75*
G02*
X45400000Y-49975000I0J-75000D01*
G01*
X45400000Y-51375000D01*
G75*
G02*
X45325000Y-51450000I-75000J0D01*
G01*
X45175000Y-51450000D01*
G75*
G02*
X45100000Y-51375000I0J75000D01*
G01*
G37*
G36*
G01*
X45600000Y-51375000D02*
X45600000Y-49975000D01*
G75*
G02*
X45675000Y-49900000I75000J0D01*
G01*
X45825000Y-49900000D01*
G75*
G02*
X45900000Y-49975000I0J-75000D01*
G01*
X45900000Y-51375000D01*
G75*
G02*
X45825000Y-51450000I-75000J0D01*
G01*
X45675000Y-51450000D01*
G75*
G02*
X45600000Y-51375000I0J75000D01*
G01*
G37*
G36*
G01*
X46100000Y-51375000D02*
X46100000Y-49975000D01*
G75*
G02*
X46175000Y-49900000I75000J0D01*
G01*
X46325000Y-49900000D01*
G75*
G02*
X46400000Y-49975000I0J-75000D01*
G01*
X46400000Y-51375000D01*
G75*
G02*
X46325000Y-51450000I-75000J0D01*
G01*
X46175000Y-51450000D01*
G75*
G02*
X46100000Y-51375000I0J75000D01*
G01*
G37*
G36*
G01*
X46600000Y-51375000D02*
X46600000Y-49975000D01*
G75*
G02*
X46675000Y-49900000I75000J0D01*
G01*
X46825000Y-49900000D01*
G75*
G02*
X46900000Y-49975000I0J-75000D01*
G01*
X46900000Y-51375000D01*
G75*
G02*
X46825000Y-51450000I-75000J0D01*
G01*
X46675000Y-51450000D01*
G75*
G02*
X46600000Y-51375000I0J75000D01*
G01*
G37*
G36*
G01*
X47100000Y-51375000D02*
X47100000Y-49975000D01*
G75*
G02*
X47175000Y-49900000I75000J0D01*
G01*
X47325000Y-49900000D01*
G75*
G02*
X47400000Y-49975000I0J-75000D01*
G01*
X47400000Y-51375000D01*
G75*
G02*
X47325000Y-51450000I-75000J0D01*
G01*
X47175000Y-51450000D01*
G75*
G02*
X47100000Y-51375000I0J75000D01*
G01*
G37*
G36*
G01*
X47600000Y-51375000D02*
X47600000Y-49975000D01*
G75*
G02*
X47675000Y-49900000I75000J0D01*
G01*
X47825000Y-49900000D01*
G75*
G02*
X47900000Y-49975000I0J-75000D01*
G01*
X47900000Y-51375000D01*
G75*
G02*
X47825000Y-51450000I-75000J0D01*
G01*
X47675000Y-51450000D01*
G75*
G02*
X47600000Y-51375000I0J75000D01*
G01*
G37*
G36*
G01*
X48100000Y-51375000D02*
X48100000Y-49975000D01*
G75*
G02*
X48175000Y-49900000I75000J0D01*
G01*
X48325000Y-49900000D01*
G75*
G02*
X48400000Y-49975000I0J-75000D01*
G01*
X48400000Y-51375000D01*
G75*
G02*
X48325000Y-51450000I-75000J0D01*
G01*
X48175000Y-51450000D01*
G75*
G02*
X48100000Y-51375000I0J75000D01*
G01*
G37*
G36*
G01*
X48600000Y-51375000D02*
X48600000Y-49975000D01*
G75*
G02*
X48675000Y-49900000I75000J0D01*
G01*
X48825000Y-49900000D01*
G75*
G02*
X48900000Y-49975000I0J-75000D01*
G01*
X48900000Y-51375000D01*
G75*
G02*
X48825000Y-51450000I-75000J0D01*
G01*
X48675000Y-51450000D01*
G75*
G02*
X48600000Y-51375000I0J75000D01*
G01*
G37*
G36*
G01*
X49900000Y-48825000D02*
X49900000Y-48675000D01*
G75*
G02*
X49975000Y-48600000I75000J0D01*
G01*
X51375000Y-48600000D01*
G75*
G02*
X51450000Y-48675000I0J-75000D01*
G01*
X51450000Y-48825000D01*
G75*
G02*
X51375000Y-48900000I-75000J0D01*
G01*
X49975000Y-48900000D01*
G75*
G02*
X49900000Y-48825000I0J75000D01*
G01*
G37*
G36*
G01*
X49900000Y-48325000D02*
X49900000Y-48175000D01*
G75*
G02*
X49975000Y-48100000I75000J0D01*
G01*
X51375000Y-48100000D01*
G75*
G02*
X51450000Y-48175000I0J-75000D01*
G01*
X51450000Y-48325000D01*
G75*
G02*
X51375000Y-48400000I-75000J0D01*
G01*
X49975000Y-48400000D01*
G75*
G02*
X49900000Y-48325000I0J75000D01*
G01*
G37*
G36*
G01*
X49900000Y-47825000D02*
X49900000Y-47675000D01*
G75*
G02*
X49975000Y-47600000I75000J0D01*
G01*
X51375000Y-47600000D01*
G75*
G02*
X51450000Y-47675000I0J-75000D01*
G01*
X51450000Y-47825000D01*
G75*
G02*
X51375000Y-47900000I-75000J0D01*
G01*
X49975000Y-47900000D01*
G75*
G02*
X49900000Y-47825000I0J75000D01*
G01*
G37*
G36*
G01*
X49900000Y-47325000D02*
X49900000Y-47175000D01*
G75*
G02*
X49975000Y-47100000I75000J0D01*
G01*
X51375000Y-47100000D01*
G75*
G02*
X51450000Y-47175000I0J-75000D01*
G01*
X51450000Y-47325000D01*
G75*
G02*
X51375000Y-47400000I-75000J0D01*
G01*
X49975000Y-47400000D01*
G75*
G02*
X49900000Y-47325000I0J75000D01*
G01*
G37*
G36*
G01*
X49900000Y-46825000D02*
X49900000Y-46675000D01*
G75*
G02*
X49975000Y-46600000I75000J0D01*
G01*
X51375000Y-46600000D01*
G75*
G02*
X51450000Y-46675000I0J-75000D01*
G01*
X51450000Y-46825000D01*
G75*
G02*
X51375000Y-46900000I-75000J0D01*
G01*
X49975000Y-46900000D01*
G75*
G02*
X49900000Y-46825000I0J75000D01*
G01*
G37*
G36*
G01*
X49900000Y-46325000D02*
X49900000Y-46175000D01*
G75*
G02*
X49975000Y-46100000I75000J0D01*
G01*
X51375000Y-46100000D01*
G75*
G02*
X51450000Y-46175000I0J-75000D01*
G01*
X51450000Y-46325000D01*
G75*
G02*
X51375000Y-46400000I-75000J0D01*
G01*
X49975000Y-46400000D01*
G75*
G02*
X49900000Y-46325000I0J75000D01*
G01*
G37*
G36*
G01*
X49900000Y-45825000D02*
X49900000Y-45675000D01*
G75*
G02*
X49975000Y-45600000I75000J0D01*
G01*
X51375000Y-45600000D01*
G75*
G02*
X51450000Y-45675000I0J-75000D01*
G01*
X51450000Y-45825000D01*
G75*
G02*
X51375000Y-45900000I-75000J0D01*
G01*
X49975000Y-45900000D01*
G75*
G02*
X49900000Y-45825000I0J75000D01*
G01*
G37*
G36*
G01*
X49900000Y-45325000D02*
X49900000Y-45175000D01*
G75*
G02*
X49975000Y-45100000I75000J0D01*
G01*
X51375000Y-45100000D01*
G75*
G02*
X51450000Y-45175000I0J-75000D01*
G01*
X51450000Y-45325000D01*
G75*
G02*
X51375000Y-45400000I-75000J0D01*
G01*
X49975000Y-45400000D01*
G75*
G02*
X49900000Y-45325000I0J75000D01*
G01*
G37*
G36*
G01*
X49900000Y-44825000D02*
X49900000Y-44675000D01*
G75*
G02*
X49975000Y-44600000I75000J0D01*
G01*
X51375000Y-44600000D01*
G75*
G02*
X51450000Y-44675000I0J-75000D01*
G01*
X51450000Y-44825000D01*
G75*
G02*
X51375000Y-44900000I-75000J0D01*
G01*
X49975000Y-44900000D01*
G75*
G02*
X49900000Y-44825000I0J75000D01*
G01*
G37*
G36*
G01*
X49900000Y-44325000D02*
X49900000Y-44175000D01*
G75*
G02*
X49975000Y-44100000I75000J0D01*
G01*
X51375000Y-44100000D01*
G75*
G02*
X51450000Y-44175000I0J-75000D01*
G01*
X51450000Y-44325000D01*
G75*
G02*
X51375000Y-44400000I-75000J0D01*
G01*
X49975000Y-44400000D01*
G75*
G02*
X49900000Y-44325000I0J75000D01*
G01*
G37*
G36*
G01*
X49900000Y-43825000D02*
X49900000Y-43675000D01*
G75*
G02*
X49975000Y-43600000I75000J0D01*
G01*
X51375000Y-43600000D01*
G75*
G02*
X51450000Y-43675000I0J-75000D01*
G01*
X51450000Y-43825000D01*
G75*
G02*
X51375000Y-43900000I-75000J0D01*
G01*
X49975000Y-43900000D01*
G75*
G02*
X49900000Y-43825000I0J75000D01*
G01*
G37*
G36*
G01*
X49900000Y-43325000D02*
X49900000Y-43175000D01*
G75*
G02*
X49975000Y-43100000I75000J0D01*
G01*
X51375000Y-43100000D01*
G75*
G02*
X51450000Y-43175000I0J-75000D01*
G01*
X51450000Y-43325000D01*
G75*
G02*
X51375000Y-43400000I-75000J0D01*
G01*
X49975000Y-43400000D01*
G75*
G02*
X49900000Y-43325000I0J75000D01*
G01*
G37*
G36*
G01*
X49900000Y-42825000D02*
X49900000Y-42675000D01*
G75*
G02*
X49975000Y-42600000I75000J0D01*
G01*
X51375000Y-42600000D01*
G75*
G02*
X51450000Y-42675000I0J-75000D01*
G01*
X51450000Y-42825000D01*
G75*
G02*
X51375000Y-42900000I-75000J0D01*
G01*
X49975000Y-42900000D01*
G75*
G02*
X49900000Y-42825000I0J75000D01*
G01*
G37*
G36*
G01*
X49900000Y-42325000D02*
X49900000Y-42175000D01*
G75*
G02*
X49975000Y-42100000I75000J0D01*
G01*
X51375000Y-42100000D01*
G75*
G02*
X51450000Y-42175000I0J-75000D01*
G01*
X51450000Y-42325000D01*
G75*
G02*
X51375000Y-42400000I-75000J0D01*
G01*
X49975000Y-42400000D01*
G75*
G02*
X49900000Y-42325000I0J75000D01*
G01*
G37*
G36*
G01*
X49900000Y-41825000D02*
X49900000Y-41675000D01*
G75*
G02*
X49975000Y-41600000I75000J0D01*
G01*
X51375000Y-41600000D01*
G75*
G02*
X51450000Y-41675000I0J-75000D01*
G01*
X51450000Y-41825000D01*
G75*
G02*
X51375000Y-41900000I-75000J0D01*
G01*
X49975000Y-41900000D01*
G75*
G02*
X49900000Y-41825000I0J75000D01*
G01*
G37*
G36*
G01*
X49900000Y-41325000D02*
X49900000Y-41175000D01*
G75*
G02*
X49975000Y-41100000I75000J0D01*
G01*
X51375000Y-41100000D01*
G75*
G02*
X51450000Y-41175000I0J-75000D01*
G01*
X51450000Y-41325000D01*
G75*
G02*
X51375000Y-41400000I-75000J0D01*
G01*
X49975000Y-41400000D01*
G75*
G02*
X49900000Y-41325000I0J75000D01*
G01*
G37*
G36*
G01*
X48600000Y-40025000D02*
X48600000Y-38625000D01*
G75*
G02*
X48675000Y-38550000I75000J0D01*
G01*
X48825000Y-38550000D01*
G75*
G02*
X48900000Y-38625000I0J-75000D01*
G01*
X48900000Y-40025000D01*
G75*
G02*
X48825000Y-40100000I-75000J0D01*
G01*
X48675000Y-40100000D01*
G75*
G02*
X48600000Y-40025000I0J75000D01*
G01*
G37*
G36*
G01*
X48100000Y-40025000D02*
X48100000Y-38625000D01*
G75*
G02*
X48175000Y-38550000I75000J0D01*
G01*
X48325000Y-38550000D01*
G75*
G02*
X48400000Y-38625000I0J-75000D01*
G01*
X48400000Y-40025000D01*
G75*
G02*
X48325000Y-40100000I-75000J0D01*
G01*
X48175000Y-40100000D01*
G75*
G02*
X48100000Y-40025000I0J75000D01*
G01*
G37*
G36*
G01*
X47600000Y-40025000D02*
X47600000Y-38625000D01*
G75*
G02*
X47675000Y-38550000I75000J0D01*
G01*
X47825000Y-38550000D01*
G75*
G02*
X47900000Y-38625000I0J-75000D01*
G01*
X47900000Y-40025000D01*
G75*
G02*
X47825000Y-40100000I-75000J0D01*
G01*
X47675000Y-40100000D01*
G75*
G02*
X47600000Y-40025000I0J75000D01*
G01*
G37*
G36*
G01*
X47100000Y-40025000D02*
X47100000Y-38625000D01*
G75*
G02*
X47175000Y-38550000I75000J0D01*
G01*
X47325000Y-38550000D01*
G75*
G02*
X47400000Y-38625000I0J-75000D01*
G01*
X47400000Y-40025000D01*
G75*
G02*
X47325000Y-40100000I-75000J0D01*
G01*
X47175000Y-40100000D01*
G75*
G02*
X47100000Y-40025000I0J75000D01*
G01*
G37*
G36*
G01*
X46600000Y-40025000D02*
X46600000Y-38625000D01*
G75*
G02*
X46675000Y-38550000I75000J0D01*
G01*
X46825000Y-38550000D01*
G75*
G02*
X46900000Y-38625000I0J-75000D01*
G01*
X46900000Y-40025000D01*
G75*
G02*
X46825000Y-40100000I-75000J0D01*
G01*
X46675000Y-40100000D01*
G75*
G02*
X46600000Y-40025000I0J75000D01*
G01*
G37*
G36*
G01*
X46100000Y-40025000D02*
X46100000Y-38625000D01*
G75*
G02*
X46175000Y-38550000I75000J0D01*
G01*
X46325000Y-38550000D01*
G75*
G02*
X46400000Y-38625000I0J-75000D01*
G01*
X46400000Y-40025000D01*
G75*
G02*
X46325000Y-40100000I-75000J0D01*
G01*
X46175000Y-40100000D01*
G75*
G02*
X46100000Y-40025000I0J75000D01*
G01*
G37*
G36*
G01*
X45600000Y-40025000D02*
X45600000Y-38625000D01*
G75*
G02*
X45675000Y-38550000I75000J0D01*
G01*
X45825000Y-38550000D01*
G75*
G02*
X45900000Y-38625000I0J-75000D01*
G01*
X45900000Y-40025000D01*
G75*
G02*
X45825000Y-40100000I-75000J0D01*
G01*
X45675000Y-40100000D01*
G75*
G02*
X45600000Y-40025000I0J75000D01*
G01*
G37*
G36*
G01*
X45100000Y-40025000D02*
X45100000Y-38625000D01*
G75*
G02*
X45175000Y-38550000I75000J0D01*
G01*
X45325000Y-38550000D01*
G75*
G02*
X45400000Y-38625000I0J-75000D01*
G01*
X45400000Y-40025000D01*
G75*
G02*
X45325000Y-40100000I-75000J0D01*
G01*
X45175000Y-40100000D01*
G75*
G02*
X45100000Y-40025000I0J75000D01*
G01*
G37*
G36*
G01*
X44600000Y-40025000D02*
X44600000Y-38625000D01*
G75*
G02*
X44675000Y-38550000I75000J0D01*
G01*
X44825000Y-38550000D01*
G75*
G02*
X44900000Y-38625000I0J-75000D01*
G01*
X44900000Y-40025000D01*
G75*
G02*
X44825000Y-40100000I-75000J0D01*
G01*
X44675000Y-40100000D01*
G75*
G02*
X44600000Y-40025000I0J75000D01*
G01*
G37*
G36*
G01*
X44100000Y-40025000D02*
X44100000Y-38625000D01*
G75*
G02*
X44175000Y-38550000I75000J0D01*
G01*
X44325000Y-38550000D01*
G75*
G02*
X44400000Y-38625000I0J-75000D01*
G01*
X44400000Y-40025000D01*
G75*
G02*
X44325000Y-40100000I-75000J0D01*
G01*
X44175000Y-40100000D01*
G75*
G02*
X44100000Y-40025000I0J75000D01*
G01*
G37*
G36*
G01*
X43600000Y-40025000D02*
X43600000Y-38625000D01*
G75*
G02*
X43675000Y-38550000I75000J0D01*
G01*
X43825000Y-38550000D01*
G75*
G02*
X43900000Y-38625000I0J-75000D01*
G01*
X43900000Y-40025000D01*
G75*
G02*
X43825000Y-40100000I-75000J0D01*
G01*
X43675000Y-40100000D01*
G75*
G02*
X43600000Y-40025000I0J75000D01*
G01*
G37*
G36*
G01*
X43100000Y-40025000D02*
X43100000Y-38625000D01*
G75*
G02*
X43175000Y-38550000I75000J0D01*
G01*
X43325000Y-38550000D01*
G75*
G02*
X43400000Y-38625000I0J-75000D01*
G01*
X43400000Y-40025000D01*
G75*
G02*
X43325000Y-40100000I-75000J0D01*
G01*
X43175000Y-40100000D01*
G75*
G02*
X43100000Y-40025000I0J75000D01*
G01*
G37*
G36*
G01*
X42600000Y-40025000D02*
X42600000Y-38625000D01*
G75*
G02*
X42675000Y-38550000I75000J0D01*
G01*
X42825000Y-38550000D01*
G75*
G02*
X42900000Y-38625000I0J-75000D01*
G01*
X42900000Y-40025000D01*
G75*
G02*
X42825000Y-40100000I-75000J0D01*
G01*
X42675000Y-40100000D01*
G75*
G02*
X42600000Y-40025000I0J75000D01*
G01*
G37*
G36*
G01*
X42100000Y-40025000D02*
X42100000Y-38625000D01*
G75*
G02*
X42175000Y-38550000I75000J0D01*
G01*
X42325000Y-38550000D01*
G75*
G02*
X42400000Y-38625000I0J-75000D01*
G01*
X42400000Y-40025000D01*
G75*
G02*
X42325000Y-40100000I-75000J0D01*
G01*
X42175000Y-40100000D01*
G75*
G02*
X42100000Y-40025000I0J75000D01*
G01*
G37*
G36*
G01*
X41600000Y-40025000D02*
X41600000Y-38625000D01*
G75*
G02*
X41675000Y-38550000I75000J0D01*
G01*
X41825000Y-38550000D01*
G75*
G02*
X41900000Y-38625000I0J-75000D01*
G01*
X41900000Y-40025000D01*
G75*
G02*
X41825000Y-40100000I-75000J0D01*
G01*
X41675000Y-40100000D01*
G75*
G02*
X41600000Y-40025000I0J75000D01*
G01*
G37*
G36*
G01*
X41100000Y-40025000D02*
X41100000Y-38625000D01*
G75*
G02*
X41175000Y-38550000I75000J0D01*
G01*
X41325000Y-38550000D01*
G75*
G02*
X41400000Y-38625000I0J-75000D01*
G01*
X41400000Y-40025000D01*
G75*
G02*
X41325000Y-40100000I-75000J0D01*
G01*
X41175000Y-40100000D01*
G75*
G02*
X41100000Y-40025000I0J75000D01*
G01*
G37*
%TD*%
M02*
