M48
; DRILL file {KiCad (5.1.5)-3} date 24/03/2020 14:58:40
; FORMAT={3:3/ absolute / metric / suppress leading zeros}
; #@! TF.CreationDate,2020-03-24T14:58:40+01:00
; #@! TF.GenerationSoftware,Kicad,Pcbnew,(5.1.5)-3
FMAT,2
METRIC,TZ
T1C0.400
T2C0.600
T3C0.800
T4C1.000
T5C4.300
%
G90
G05
T1
X22500Y-30000
X22500Y-35000
X25000Y-30000
X30000Y-30000
X30000Y-32500
X31750Y-34100
X32500Y-37500
X32500Y-52500
X32500Y-55000
X32500Y-57500
X32500Y-60000
X32500Y-62500
X32500Y-65000
X32500Y-67500
X32800Y-46000
X33425Y-49200
X33425Y-50700
X34625Y-50700
X35000Y-30000
X35000Y-32500
X35000Y-35000
X35000Y-37500
X35600Y-40600
X36850Y-45600
X36950Y-38300
X37500Y-52500
X37500Y-55000
X37500Y-57500
X37500Y-60000
X37500Y-62500
X37500Y-65000
X37550Y-42150
X37875Y-45600
X37900Y-35700
X37900Y-36700
X37900Y-38300
X38475Y-40225
X40000Y-22500
X40000Y-25000
X40000Y-27500
X40000Y-30000
X40000Y-32500
X40000Y-52400
X40000Y-53500
X40250Y-35750
X41100Y-35100
X41700Y-34250
X41975Y-54500
X41975Y-55450
X42000Y-35600
X42775Y-33900
X45725Y-33900
X46700Y-54400
X48200Y-55400
X48200Y-56325
X49800Y-53000
X49800Y-53925
X50000Y-22500
X50000Y-25000
X50000Y-27500
X50000Y-30000
X50000Y-32500
X50000Y-35000
X50000Y-60000
X50000Y-62500
X50000Y-65000
X50000Y-67500
X51800Y-50900
X51800Y-52000
X53200Y-38900
X53200Y-39900
X53400Y-51800
X54100Y-38900
X54100Y-39900
X55000Y-22500
X55000Y-25000
X55000Y-27500
X55000Y-30000
X55000Y-32500
X55000Y-35000
X55000Y-52500
X55000Y-60000
X55000Y-62500
X55000Y-65000
X55000Y-67500
X55400Y-41300
X60000Y-22500
X60000Y-25000
X60000Y-27500
X60000Y-30000
X60000Y-32500
X60000Y-47500
X60000Y-50000
X60000Y-52500
X60000Y-60000
X60000Y-62500
X60000Y-65000
X60000Y-67500
X60575Y-34325
X65000Y-52500
X65000Y-55000
X65000Y-57500
T2
X21775Y-65000
X22720Y-62720
X22720Y-67280
X25000Y-61775
X25000Y-68225
X27280Y-62720
X27280Y-67280
X28225Y-65000
X61775Y-65000
X62720Y-62720
X62720Y-67280
X65000Y-61775
X65000Y-68225
X67280Y-62720
X67280Y-67280
X68225Y-65000
X61775Y-25000
X62720Y-22720
X62720Y-27280
X65000Y-21775
X65000Y-28225
X67280Y-22720
X67280Y-27280
X68225Y-25000
X21775Y-25000
X22720Y-22720
X22720Y-27280
X25000Y-21775
X25000Y-28225
X27280Y-22720
X27280Y-27280
X28225Y-25000
T3
X21500Y-46250
X21500Y-48250
X21500Y-50250
X22250Y-37500
X23250Y-48250
X23250Y-50250
X23500Y-39500
X23500Y-41250
X27000Y-39500
X27000Y-41250
X28250Y-37500
X30000Y-39425
X30000Y-40650
X42050Y-44250
X66300Y-40650
T4
X43800Y-22750
X46340Y-22750
X39530Y-67200
X42070Y-67200
X44610Y-67200
X47150Y-67200
X22750Y-53960
X22750Y-56500
X34350Y-22750
X36890Y-22750
X67250Y-45450
X67250Y-47990
T5
X25000Y-65000
X65000Y-65000
X65000Y-25000
X25000Y-25000
T0
M30
