G04 #@! TF.GenerationSoftware,KiCad,Pcbnew,(5.1.5)-3*
G04 #@! TF.CreationDate,2020-03-24T14:58:58+01:00*
G04 #@! TF.ProjectId,STM32F4_Breakout,53544d33-3246-4345-9f42-7265616b6f75,rev?*
G04 #@! TF.SameCoordinates,Original*
G04 #@! TF.FileFunction,Soldermask,Bot*
G04 #@! TF.FilePolarity,Negative*
%FSLAX46Y46*%
G04 Gerber Fmt 4.6, Leading zero omitted, Abs format (unit mm)*
G04 Created by KiCad (PCBNEW (5.1.5)-3) date 2020-03-24 14:58:58*
%MOMM*%
%LPD*%
G04 APERTURE LIST*
%ADD10C,0.100000*%
G04 APERTURE END LIST*
D10*
G36*
X25548156Y-60672794D02*
G01*
X26269140Y-60816206D01*
X27060972Y-61144193D01*
X27773601Y-61620357D01*
X28379643Y-62226399D01*
X28855807Y-62939028D01*
X29183794Y-63730860D01*
X29351000Y-64571464D01*
X29351000Y-65428536D01*
X29183794Y-66269140D01*
X28855807Y-67060972D01*
X28379643Y-67773601D01*
X27773601Y-68379643D01*
X27060972Y-68855807D01*
X26269140Y-69183794D01*
X25548156Y-69327206D01*
X25428537Y-69351000D01*
X24571463Y-69351000D01*
X24451844Y-69327206D01*
X23730860Y-69183794D01*
X22939028Y-68855807D01*
X22226399Y-68379643D01*
X21620357Y-67773601D01*
X21144193Y-67060972D01*
X20816206Y-66269140D01*
X20649000Y-65428536D01*
X20649000Y-64571464D01*
X20816206Y-63730860D01*
X21144193Y-62939028D01*
X21620357Y-62226399D01*
X22226399Y-61620357D01*
X22939028Y-61144193D01*
X23730860Y-60816206D01*
X24451844Y-60672794D01*
X24571463Y-60649000D01*
X25428537Y-60649000D01*
X25548156Y-60672794D01*
G37*
G36*
X65548156Y-60672794D02*
G01*
X66269140Y-60816206D01*
X67060972Y-61144193D01*
X67773601Y-61620357D01*
X68379643Y-62226399D01*
X68855807Y-62939028D01*
X69183794Y-63730860D01*
X69351000Y-64571464D01*
X69351000Y-65428536D01*
X69183794Y-66269140D01*
X68855807Y-67060972D01*
X68379643Y-67773601D01*
X67773601Y-68379643D01*
X67060972Y-68855807D01*
X66269140Y-69183794D01*
X65548156Y-69327206D01*
X65428537Y-69351000D01*
X64571463Y-69351000D01*
X64451844Y-69327206D01*
X63730860Y-69183794D01*
X62939028Y-68855807D01*
X62226399Y-68379643D01*
X61620357Y-67773601D01*
X61144193Y-67060972D01*
X60816206Y-66269140D01*
X60649000Y-65428536D01*
X60649000Y-64571464D01*
X60816206Y-63730860D01*
X61144193Y-62939028D01*
X61620357Y-62226399D01*
X62226399Y-61620357D01*
X62939028Y-61144193D01*
X63730860Y-60816206D01*
X64451844Y-60672794D01*
X64571463Y-60649000D01*
X65428537Y-60649000D01*
X65548156Y-60672794D01*
G37*
G36*
X39643512Y-66303927D02*
G01*
X39792812Y-66333624D01*
X39956784Y-66401544D01*
X40104354Y-66500147D01*
X40229853Y-66625646D01*
X40328456Y-66773216D01*
X40396376Y-66937188D01*
X40431000Y-67111259D01*
X40431000Y-67288741D01*
X40396376Y-67462812D01*
X40328456Y-67626784D01*
X40229853Y-67774354D01*
X40104354Y-67899853D01*
X39956784Y-67998456D01*
X39792812Y-68066376D01*
X39643512Y-68096073D01*
X39618742Y-68101000D01*
X39441258Y-68101000D01*
X39416488Y-68096073D01*
X39267188Y-68066376D01*
X39103216Y-67998456D01*
X38955646Y-67899853D01*
X38830147Y-67774354D01*
X38731544Y-67626784D01*
X38663624Y-67462812D01*
X38629000Y-67288741D01*
X38629000Y-67111259D01*
X38663624Y-66937188D01*
X38731544Y-66773216D01*
X38830147Y-66625646D01*
X38955646Y-66500147D01*
X39103216Y-66401544D01*
X39267188Y-66333624D01*
X39416488Y-66303927D01*
X39441258Y-66299000D01*
X39618742Y-66299000D01*
X39643512Y-66303927D01*
G37*
G36*
X42183512Y-66303927D02*
G01*
X42332812Y-66333624D01*
X42496784Y-66401544D01*
X42644354Y-66500147D01*
X42769853Y-66625646D01*
X42868456Y-66773216D01*
X42936376Y-66937188D01*
X42971000Y-67111259D01*
X42971000Y-67288741D01*
X42936376Y-67462812D01*
X42868456Y-67626784D01*
X42769853Y-67774354D01*
X42644354Y-67899853D01*
X42496784Y-67998456D01*
X42332812Y-68066376D01*
X42183512Y-68096073D01*
X42158742Y-68101000D01*
X41981258Y-68101000D01*
X41956488Y-68096073D01*
X41807188Y-68066376D01*
X41643216Y-67998456D01*
X41495646Y-67899853D01*
X41370147Y-67774354D01*
X41271544Y-67626784D01*
X41203624Y-67462812D01*
X41169000Y-67288741D01*
X41169000Y-67111259D01*
X41203624Y-66937188D01*
X41271544Y-66773216D01*
X41370147Y-66625646D01*
X41495646Y-66500147D01*
X41643216Y-66401544D01*
X41807188Y-66333624D01*
X41956488Y-66303927D01*
X41981258Y-66299000D01*
X42158742Y-66299000D01*
X42183512Y-66303927D01*
G37*
G36*
X44723512Y-66303927D02*
G01*
X44872812Y-66333624D01*
X45036784Y-66401544D01*
X45184354Y-66500147D01*
X45309853Y-66625646D01*
X45408456Y-66773216D01*
X45476376Y-66937188D01*
X45511000Y-67111259D01*
X45511000Y-67288741D01*
X45476376Y-67462812D01*
X45408456Y-67626784D01*
X45309853Y-67774354D01*
X45184354Y-67899853D01*
X45036784Y-67998456D01*
X44872812Y-68066376D01*
X44723512Y-68096073D01*
X44698742Y-68101000D01*
X44521258Y-68101000D01*
X44496488Y-68096073D01*
X44347188Y-68066376D01*
X44183216Y-67998456D01*
X44035646Y-67899853D01*
X43910147Y-67774354D01*
X43811544Y-67626784D01*
X43743624Y-67462812D01*
X43709000Y-67288741D01*
X43709000Y-67111259D01*
X43743624Y-66937188D01*
X43811544Y-66773216D01*
X43910147Y-66625646D01*
X44035646Y-66500147D01*
X44183216Y-66401544D01*
X44347188Y-66333624D01*
X44496488Y-66303927D01*
X44521258Y-66299000D01*
X44698742Y-66299000D01*
X44723512Y-66303927D01*
G37*
G36*
X48051000Y-68101000D02*
G01*
X46249000Y-68101000D01*
X46249000Y-66299000D01*
X48051000Y-66299000D01*
X48051000Y-68101000D01*
G37*
G36*
X23651000Y-57401000D02*
G01*
X21849000Y-57401000D01*
X21849000Y-55599000D01*
X23651000Y-55599000D01*
X23651000Y-57401000D01*
G37*
G36*
X22863512Y-53063927D02*
G01*
X23012812Y-53093624D01*
X23176784Y-53161544D01*
X23324354Y-53260147D01*
X23449853Y-53385646D01*
X23548456Y-53533216D01*
X23616376Y-53697188D01*
X23651000Y-53871259D01*
X23651000Y-54048741D01*
X23616376Y-54222812D01*
X23548456Y-54386784D01*
X23449853Y-54534354D01*
X23324354Y-54659853D01*
X23176784Y-54758456D01*
X23012812Y-54826376D01*
X22863512Y-54856073D01*
X22838742Y-54861000D01*
X22661258Y-54861000D01*
X22636488Y-54856073D01*
X22487188Y-54826376D01*
X22323216Y-54758456D01*
X22175646Y-54659853D01*
X22050147Y-54534354D01*
X21951544Y-54386784D01*
X21883624Y-54222812D01*
X21849000Y-54048741D01*
X21849000Y-53871259D01*
X21883624Y-53697188D01*
X21951544Y-53533216D01*
X22050147Y-53385646D01*
X22175646Y-53260147D01*
X22323216Y-53161544D01*
X22487188Y-53093624D01*
X22636488Y-53063927D01*
X22661258Y-53059000D01*
X22838742Y-53059000D01*
X22863512Y-53063927D01*
G37*
G36*
X67363512Y-47093927D02*
G01*
X67512812Y-47123624D01*
X67676784Y-47191544D01*
X67824354Y-47290147D01*
X67949853Y-47415646D01*
X68048456Y-47563216D01*
X68116376Y-47727188D01*
X68151000Y-47901259D01*
X68151000Y-48078741D01*
X68116376Y-48252812D01*
X68048456Y-48416784D01*
X67949853Y-48564354D01*
X67824354Y-48689853D01*
X67676784Y-48788456D01*
X67512812Y-48856376D01*
X67363512Y-48886073D01*
X67338742Y-48891000D01*
X67161258Y-48891000D01*
X67136488Y-48886073D01*
X66987188Y-48856376D01*
X66823216Y-48788456D01*
X66675646Y-48689853D01*
X66550147Y-48564354D01*
X66451544Y-48416784D01*
X66383624Y-48252812D01*
X66349000Y-48078741D01*
X66349000Y-47901259D01*
X66383624Y-47727188D01*
X66451544Y-47563216D01*
X66550147Y-47415646D01*
X66675646Y-47290147D01*
X66823216Y-47191544D01*
X66987188Y-47123624D01*
X67136488Y-47093927D01*
X67161258Y-47089000D01*
X67338742Y-47089000D01*
X67363512Y-47093927D01*
G37*
G36*
X68151000Y-46351000D02*
G01*
X66349000Y-46351000D01*
X66349000Y-44549000D01*
X68151000Y-44549000D01*
X68151000Y-46351000D01*
G37*
G36*
X25548156Y-20672794D02*
G01*
X26269140Y-20816206D01*
X27060972Y-21144193D01*
X27773601Y-21620357D01*
X28379643Y-22226399D01*
X28855807Y-22939028D01*
X29183794Y-23730860D01*
X29351000Y-24571464D01*
X29351000Y-25428536D01*
X29183794Y-26269140D01*
X28855807Y-27060972D01*
X28379643Y-27773601D01*
X27773601Y-28379643D01*
X27060972Y-28855807D01*
X26269140Y-29183794D01*
X25548156Y-29327206D01*
X25428537Y-29351000D01*
X24571463Y-29351000D01*
X24451844Y-29327206D01*
X23730860Y-29183794D01*
X22939028Y-28855807D01*
X22226399Y-28379643D01*
X21620357Y-27773601D01*
X21144193Y-27060972D01*
X20816206Y-26269140D01*
X20649000Y-25428536D01*
X20649000Y-24571464D01*
X20816206Y-23730860D01*
X21144193Y-22939028D01*
X21620357Y-22226399D01*
X22226399Y-21620357D01*
X22939028Y-21144193D01*
X23730860Y-20816206D01*
X24451844Y-20672794D01*
X24571463Y-20649000D01*
X25428537Y-20649000D01*
X25548156Y-20672794D01*
G37*
G36*
X65548156Y-20672794D02*
G01*
X66269140Y-20816206D01*
X67060972Y-21144193D01*
X67773601Y-21620357D01*
X68379643Y-22226399D01*
X68855807Y-22939028D01*
X69183794Y-23730860D01*
X69351000Y-24571464D01*
X69351000Y-25428536D01*
X69183794Y-26269140D01*
X68855807Y-27060972D01*
X68379643Y-27773601D01*
X67773601Y-28379643D01*
X67060972Y-28855807D01*
X66269140Y-29183794D01*
X65548156Y-29327206D01*
X65428537Y-29351000D01*
X64571463Y-29351000D01*
X64451844Y-29327206D01*
X63730860Y-29183794D01*
X62939028Y-28855807D01*
X62226399Y-28379643D01*
X61620357Y-27773601D01*
X61144193Y-27060972D01*
X60816206Y-26269140D01*
X60649000Y-25428536D01*
X60649000Y-24571464D01*
X60816206Y-23730860D01*
X61144193Y-22939028D01*
X61620357Y-22226399D01*
X62226399Y-21620357D01*
X62939028Y-21144193D01*
X63730860Y-20816206D01*
X64451844Y-20672794D01*
X64571463Y-20649000D01*
X65428537Y-20649000D01*
X65548156Y-20672794D01*
G37*
G36*
X35251000Y-23651000D02*
G01*
X33449000Y-23651000D01*
X33449000Y-21849000D01*
X35251000Y-21849000D01*
X35251000Y-23651000D01*
G37*
G36*
X46453512Y-21853927D02*
G01*
X46602812Y-21883624D01*
X46766784Y-21951544D01*
X46914354Y-22050147D01*
X47039853Y-22175646D01*
X47138456Y-22323216D01*
X47206376Y-22487188D01*
X47241000Y-22661259D01*
X47241000Y-22838741D01*
X47206376Y-23012812D01*
X47138456Y-23176784D01*
X47039853Y-23324354D01*
X46914354Y-23449853D01*
X46766784Y-23548456D01*
X46602812Y-23616376D01*
X46453512Y-23646073D01*
X46428742Y-23651000D01*
X46251258Y-23651000D01*
X46226488Y-23646073D01*
X46077188Y-23616376D01*
X45913216Y-23548456D01*
X45765646Y-23449853D01*
X45640147Y-23324354D01*
X45541544Y-23176784D01*
X45473624Y-23012812D01*
X45439000Y-22838741D01*
X45439000Y-22661259D01*
X45473624Y-22487188D01*
X45541544Y-22323216D01*
X45640147Y-22175646D01*
X45765646Y-22050147D01*
X45913216Y-21951544D01*
X46077188Y-21883624D01*
X46226488Y-21853927D01*
X46251258Y-21849000D01*
X46428742Y-21849000D01*
X46453512Y-21853927D01*
G37*
G36*
X44701000Y-23651000D02*
G01*
X42899000Y-23651000D01*
X42899000Y-21849000D01*
X44701000Y-21849000D01*
X44701000Y-23651000D01*
G37*
G36*
X37003512Y-21853927D02*
G01*
X37152812Y-21883624D01*
X37316784Y-21951544D01*
X37464354Y-22050147D01*
X37589853Y-22175646D01*
X37688456Y-22323216D01*
X37756376Y-22487188D01*
X37791000Y-22661259D01*
X37791000Y-22838741D01*
X37756376Y-23012812D01*
X37688456Y-23176784D01*
X37589853Y-23324354D01*
X37464354Y-23449853D01*
X37316784Y-23548456D01*
X37152812Y-23616376D01*
X37003512Y-23646073D01*
X36978742Y-23651000D01*
X36801258Y-23651000D01*
X36776488Y-23646073D01*
X36627188Y-23616376D01*
X36463216Y-23548456D01*
X36315646Y-23449853D01*
X36190147Y-23324354D01*
X36091544Y-23176784D01*
X36023624Y-23012812D01*
X35989000Y-22838741D01*
X35989000Y-22661259D01*
X36023624Y-22487188D01*
X36091544Y-22323216D01*
X36190147Y-22175646D01*
X36315646Y-22050147D01*
X36463216Y-21951544D01*
X36627188Y-21883624D01*
X36776488Y-21853927D01*
X36801258Y-21849000D01*
X36978742Y-21849000D01*
X37003512Y-21853927D01*
G37*
M02*
